<svg width="23" height="23" viewBox="0 0 23 23" fill="none" xmlns="http://www.w3.org/2000/svg">
<path d="M18.566 0.298828H4.00253C1.91205 0.298828 0.220703 1.99017 0.220703 4.08065V18.6441C0.220703 20.7346 1.91205 22.426 4.00253 22.426H11.9853V13.9293H9.12644V10.6165H11.9853V8.17679C11.9853 5.34292 13.7165 3.80125 16.2411 3.80125C17.4534 3.80125 18.4912 3.89106 18.7955 3.93097V6.89456H17.0443C15.6673 6.89456 15.4029 7.54815 15.4029 8.50608V10.6215H18.6808L18.2517 13.9343H15.4029V22.431H18.566C20.6565 22.431 22.3478 20.7396 22.3478 18.6491V4.08065C22.3478 1.99017 20.6515 0.298828 18.566 0.298828Z" fill="#003744"/>
</svg>
