<svg width="21" height="21" viewBox="0 0 21 21" fill="none" xmlns="http://www.w3.org/2000/svg">
<path d="M17.9008 3.00156C16.0008 1.10156 13.5008 0.101562 10.8008 0.101562C8.20078 0.101562 5.60078 1.10156 3.70078 3.00156C1.80078 4.90156 0.800781 7.50156 0.800781 10.1016C0.800781 12.7016 1.80078 15.3016 3.70078 17.2016C5.50078 19.0016 8.10078 20.1016 10.7008 20.1016C13.3008 20.1016 15.9008 19.0016 17.7008 17.2016C19.6008 15.3016 20.7008 12.7016 20.7008 10.2016C20.8008 7.40156 19.8008 4.80156 17.9008 3.00156ZM12.6008 11.5016V12.3016C12.6008 12.8016 13.0008 13.1016 13.4008 13.1016C13.9008 13.1016 14.2008 12.7016 14.2008 12.3016V7.50156C14.2008 7.00156 13.8008 6.70156 13.4008 6.70156H8.70078C8.20078 6.70156 7.80078 7.10156 7.80078 7.50156C7.80078 8.00156 8.20078 8.30156 8.60078 8.30156H9.40078C10.1008 8.30156 10.5008 9.20156 10.0008 9.70156L5.10078 14.6016C4.70078 15.0016 4.10078 14.9016 3.80078 14.4016C1.80078 11.3016 2.20078 6.90156 5.00078 4.20156C6.60078 2.60156 8.70078 1.70156 10.9008 1.70156C13.1008 1.70156 15.3008 2.60156 16.8008 4.20156C18.4008 5.80156 19.3008 7.90156 19.3008 10.1016C19.3008 12.3016 18.4008 14.5016 16.8008 16.0016C14.0008 18.8016 9.70078 19.2016 6.50078 17.2016C6.00078 16.9016 6.00078 16.3016 6.30078 15.9016L11.2008 11.0016C11.7008 10.4016 12.6008 10.8016 12.6008 11.5016Z" fill="#003744"/>
</svg>
