<svg width="25" height="23" viewBox="0 0 25 23" fill="none" xmlns="http://www.w3.org/2000/svg">
<path d="M16.8917 22.6477H8.01086C4.06939 22.6477 0.861328 19.4396 0.861328 15.4981V7.67004C0.861328 3.72857 4.06939 0.520508 8.01086 0.520508H16.8917C20.8331 0.520508 24.0412 3.72857 24.0412 7.67004V15.4981C24.0412 19.4396 20.8331 22.6477 16.8917 22.6477ZM8.01086 2.10708C4.9425 2.10708 2.4479 4.60168 2.4479 7.66506V15.4931C2.4479 18.5615 4.9425 21.0561 8.01086 21.0561H16.8917C19.96 21.0561 22.4496 18.5615 22.4496 15.4931V7.67004C22.4496 4.60168 19.955 2.11207 16.8917 2.11207H8.01086V2.10708Z" fill="black"/>
<path d="M12.4522 17.9473C8.94475 17.9473 6.08594 15.0935 6.08594 11.5811C6.08594 8.07366 8.93977 5.21484 12.4522 5.21484C15.9596 5.21484 18.8184 8.06867 18.8184 11.5811C18.8184 15.0935 15.9646 17.9473 12.4522 17.9473ZM12.4522 6.8064C9.81787 6.8064 7.6775 8.94677 7.6775 11.5811C7.6775 14.2154 9.81787 16.3557 12.4522 16.3557C15.0865 16.3557 17.2268 14.2154 17.2268 11.5811C17.2268 8.95176 15.0865 6.8064 12.4522 6.8064Z" fill="black"/>
<path d="M20.0408 5.41491C20.0408 6.14334 19.452 6.73705 18.7186 6.73705C17.9902 6.73705 17.3965 6.14334 17.3965 5.41491C17.3965 4.68649 17.9902 4.09277 18.7186 4.09277C19.447 4.09277 20.0408 4.68649 20.0408 5.41491Z" fill="black"/>
</svg>
