<svg width="21" height="23" viewBox="0 0 21 23" fill="none" xmlns="http://www.w3.org/2000/svg">
<path d="M14.2036 8.02303C15.9043 6.64119 15.798 5.04675 15.798 4.94045V4.62157L15.5854 4.40898C15.2666 4.09009 14.9477 3.8775 14.6288 3.7712V1.64529C14.6288 1.11381 14.3099 0.794922 13.7784 0.794922C13.2469 0.794922 13.0343 1.11381 13.0343 1.53899V3.34602C12.0777 3.34602 11.3336 3.7712 10.9084 4.09009C10.4832 3.7712 9.73918 3.34602 8.78251 3.34602V1.53899C8.78251 1.11381 8.35733 0.794922 7.93215 0.794922C7.50697 0.794922 7.18808 1.11381 7.18808 1.53899V3.66491C6.7629 3.8775 6.44401 4.09009 6.12512 4.40898L5.91253 4.62157V4.94045C5.91253 5.04675 5.80624 6.64119 7.50697 8.02303C5.48735 9.72376 0.704041 14.0819 0.810337 19.3967V19.8219L1.12922 20.0344C1.34182 20.1407 3.36143 21.4163 5.48735 21.2037C6.23142 21.7352 8.25104 22.9044 10.8021 22.7981C10.9084 22.7981 11.0147 22.7981 11.121 22.7981C13.5658 22.7981 15.3728 21.6289 16.1169 21.2037C18.3491 21.5226 20.3687 20.1407 20.475 20.0344L20.7939 19.8219V19.3967C21.0065 14.0819 16.2232 9.72376 14.2036 8.02303ZM13.7784 13.5504C13.5658 13.6567 13.4595 13.8693 13.4595 14.0819C13.4595 14.2945 13.4595 14.5071 13.5658 14.7197C13.6721 14.826 14.8414 16.8456 15.1603 20.0344C14.5225 20.4596 12.8218 21.4163 10.8021 21.31C8.78251 21.4163 7.18808 20.4596 6.5503 20.0344C6.86919 16.8456 8.14474 14.826 8.14474 14.7197C8.35733 14.4008 8.25104 13.8693 7.93215 13.6567C7.61326 13.4441 7.08178 13.5504 6.86919 13.8693C6.7629 13.9756 5.48735 16.2078 5.06217 19.7156C3.99921 19.7156 2.93625 19.2904 2.51107 19.0778C2.72366 13.4441 9.31399 8.7671 9.42029 8.6608L10.4832 7.91673L9.31399 7.27896C8.03844 6.64119 7.71956 5.79082 7.50697 5.36564C8.99511 4.40898 10.1644 5.47193 10.2707 5.68452L10.9084 6.3223L11.4399 5.68452C11.5462 5.57823 12.7155 4.40898 14.2036 5.36564C14.0973 5.79082 13.6721 6.64119 12.5029 7.27896L11.3336 7.91673L12.3966 8.6608C12.5029 8.6608 19.0932 13.3378 19.3058 18.9715C18.7743 19.1841 17.8176 19.7156 16.7547 19.6093C16.3295 16.1015 14.9477 13.8693 14.9477 13.763C14.6288 13.4441 14.2036 13.3378 13.7784 13.5504Z" fill="#003744"/>
</svg>
