<svg width="19" height="23" viewBox="0 0 19 23" fill="none" xmlns="http://www.w3.org/2000/svg">
<path d="M18.4961 7.20392C18.097 4.14055 16.2759 2.08001 13.4371 0.947456C11.2568 0.0793338 9.02162 0.134215 6.79144 0.777823C5.19988 1.23683 3.84282 2.08001 2.77513 3.35724C1.67251 4.66941 1.07382 6.19112 0.914163 7.88745C0.739541 9.7135 1.17858 11.3749 2.25126 12.8667C2.60051 13.3506 3.03955 13.7448 3.56841 14.0242C3.92763 14.2138 4.02243 14.1689 4.11722 13.7797C4.20703 13.4205 4.27688 13.0513 4.39163 12.697C4.50638 12.3378 4.49641 12.0335 4.222 11.7441C4.11224 11.6294 4.04238 11.4697 3.96755 11.325C2.71525 8.90026 3.37383 5.74708 5.56909 4.05573C7.60468 2.49411 9.87478 2.2696 12.2347 3.1926C13.8562 3.83122 14.9139 5.06854 15.318 6.75989C15.8069 8.82043 15.5325 10.8261 14.4748 12.6771C13.7713 13.9044 12.7386 14.7177 11.2618 14.8075C10.1642 14.8723 9.16632 14.2088 8.97673 13.1012C8.90688 12.697 8.98171 12.3079 9.09147 11.9187C9.37586 10.9458 9.66524 9.97294 9.94463 8.99505C10.0943 8.46121 10.1841 7.91738 10.1492 7.35859C10.0744 6.19112 9.13638 5.47766 7.99884 5.74708C7.21554 5.93168 6.70663 6.46053 6.37235 7.15902C5.79361 8.37639 5.84849 9.6187 6.27756 10.861C6.34242 11.0406 6.35241 11.2053 6.3075 11.3899C5.89839 13.1111 5.52918 14.8424 5.07516 16.5487C4.63611 18.2001 4.43653 19.8615 4.64109 21.5529C4.67102 21.8123 4.8257 22.2713 4.8257 22.2713L5.54414 22.426C5.5641 22.4011 5.66887 22.2065 5.77365 22.0069C6.57192 20.4403 7.21054 19.3028 7.53982 17.786C7.69449 17.0676 7.90404 16.3641 8.09363 15.6556C8.11359 15.5808 8.10361 15.471 8.19342 15.4461C8.2932 15.4212 8.31814 15.5359 8.36304 15.5958C8.57259 15.8901 8.83702 16.1196 9.13637 16.3092C9.93963 16.8181 10.8127 17.0027 11.7557 16.9479C13.3772 16.858 14.7792 16.2544 15.9167 15.1168C18.1219 12.9216 18.8803 10.2024 18.4961 7.20392Z" fill="#003744"/>
</svg>
