<svg width="22" height="23" viewBox="0 0 22 23" fill="none" xmlns="http://www.w3.org/2000/svg">
<path d="M21.0343 14.779C20.8143 14.119 20.3743 13.679 19.8243 13.349C19.7143 13.239 19.6043 13.239 19.3843 13.239L19.0543 7.95904C20.3743 7.51904 21.1443 6.19904 21.0343 4.87904C20.9243 4.10904 20.5943 3.33904 19.9343 2.89904C19.3843 2.45904 18.5043 2.12904 17.7343 2.23904C16.7443 2.34904 15.8643 2.89904 15.4243 3.88904L10.0343 2.89904C9.92429 2.12904 9.48429 1.35904 8.71429 1.02904C7.50429 0.479037 6.07429 0.919037 5.41429 2.12904C4.97429 3.00904 5.19429 4.10904 5.74429 4.87904L3.10429 9.71904C2.00429 9.60904 1.01429 10.049 0.464294 11.039C0.244294 11.589 0.134294 12.249 0.354294 12.909C0.574294 13.569 1.01429 14.009 1.56429 14.339C1.89429 14.559 2.22429 14.559 2.66429 14.559C2.99429 14.559 3.21429 14.449 3.54429 14.339L6.84429 18.189C6.51429 18.739 6.29429 19.509 6.40429 20.169C6.51429 20.939 6.95429 21.709 7.50429 22.149C8.05429 22.589 8.71429 22.809 9.37429 22.809C9.48429 22.809 9.59429 22.809 9.70429 22.809C10.4743 22.699 11.2443 22.369 11.6843 21.709C12.2343 21.049 12.4543 20.279 12.3443 19.509C12.3443 19.399 12.3443 19.399 12.3443 19.289L16.9643 17.199C17.1843 17.419 17.4043 17.529 17.6243 17.639C17.9543 17.859 18.2843 17.859 18.7243 17.859C19.6043 17.859 20.4843 17.309 20.9243 16.539C21.2543 16.099 21.2543 15.439 21.0343 14.779ZM2.00429 11.809C2.11429 11.589 2.44429 11.369 2.66429 11.369C2.77429 11.369 2.88429 11.369 2.99429 11.479C3.32429 11.699 3.54429 12.139 3.32429 12.469C3.10429 12.799 2.66429 13.019 2.33429 12.799C2.11429 12.689 2.00429 12.579 2.00429 12.359C1.89429 12.249 1.89429 12.029 2.00429 11.809ZM18.0643 15.219C18.2843 14.889 18.7243 14.669 19.1643 14.889C19.2743 14.999 19.3843 15.109 19.4943 15.329C19.6043 15.549 19.4943 15.769 19.4943 15.879C19.2743 16.209 18.8343 16.429 18.3943 16.209C18.1743 16.099 18.0643 15.989 18.0643 15.769C17.9543 15.659 17.9543 15.439 18.0643 15.219ZM18.1743 6.41904C17.8443 6.41904 17.5143 6.30904 17.1843 6.08904C16.9643 5.86904 16.7443 5.53904 16.7443 5.20904C16.6343 4.54904 17.1843 3.88904 17.9543 3.77904C17.9543 3.77904 17.9543 3.77904 18.0643 3.77904H18.1743C18.5043 3.77904 18.7243 3.88904 18.9443 4.10904C19.1643 4.32904 19.3843 4.65904 19.3843 4.98904C19.4943 5.75904 18.9443 6.41904 18.1743 6.41904ZM13.3343 8.28904C12.6743 7.84904 12.0143 7.62904 11.2443 7.62904C11.0243 7.62904 10.8043 7.62904 10.5843 7.73904L9.37429 4.98904C9.48429 4.87904 9.59429 4.65904 9.70429 4.54904L15.0943 5.53904C15.0943 5.86904 15.2043 6.19904 15.3143 6.52904L13.3343 8.28904ZM11.3543 9.27904C11.4643 9.27904 11.6843 9.27904 11.7943 9.27904C12.6743 9.49904 13.2243 10.159 13.3343 10.929C13.3343 11.479 13.2243 11.919 12.8943 12.359C12.5643 12.799 12.1243 13.019 11.5743 13.019C11.4643 13.019 11.4643 13.019 11.3543 13.019C10.8043 13.019 10.2543 12.799 9.92429 12.359C9.37429 11.699 9.26429 10.819 9.70429 10.049C9.92429 9.60904 10.5843 9.27904 11.3543 9.27904ZM11.3543 14.889C12.3443 14.889 13.2243 14.449 13.8843 13.789L16.3043 15.219C16.3043 15.439 16.3043 15.659 16.3043 15.879L11.6843 17.969C11.4643 17.749 11.1343 17.529 10.9143 17.309L11.3543 14.889ZM14.5443 9.49904L16.5243 7.73904C16.8543 7.95904 17.1843 8.06904 17.4043 8.17904L17.7343 13.459C17.5143 13.569 17.4043 13.679 17.1843 13.789L14.7643 12.359C15.0943 11.369 14.9843 10.379 14.5443 9.49904ZM6.95429 2.89904C7.06429 2.67904 7.39429 2.45904 7.61429 2.45904C7.72429 2.45904 7.83429 2.45904 7.94429 2.56904C8.27429 2.78904 8.49429 3.22904 8.27429 3.55904C8.16429 3.99904 7.72429 4.10904 7.28429 3.88904C7.17429 3.88904 6.95429 3.66904 6.95429 3.55904C6.84429 3.33904 6.84429 3.11904 6.95429 2.89904ZM7.94429 5.64904L9.04429 8.28904C8.71429 8.61904 8.38429 8.94904 8.05429 9.38904C7.83429 9.82904 7.72429 10.269 7.61429 10.819L4.86429 11.039C4.86429 10.819 4.75429 10.709 4.53429 10.489L7.28429 5.64904C7.50429 5.75904 7.72429 5.75904 7.94429 5.64904ZM5.08429 12.689L7.83429 12.359C8.16429 13.239 8.82429 14.009 9.70429 14.449L9.15429 16.759C9.15429 16.759 9.15429 16.759 9.04429 16.759C8.71429 16.759 8.38429 16.869 8.05429 16.979L4.75429 13.129C4.97429 13.129 5.08429 12.909 5.08429 12.689ZM9.26429 18.519H9.37429C9.70429 18.519 9.92429 18.629 10.1443 18.849C10.3643 19.069 10.5843 19.399 10.5843 19.729C10.6943 20.389 10.1443 21.049 9.37429 21.159C9.04429 21.159 8.71429 21.049 8.38429 20.829C8.16429 20.609 7.94429 20.279 7.94429 19.949C8.05429 19.289 8.60429 18.629 9.26429 18.519Z" fill="#003744"/>
</svg>
