<svg width="23" height="23" viewBox="0 0 23 23" fill="none" xmlns="http://www.w3.org/2000/svg">
<path d="M22.1636 17.9009C21.1757 17.2573 20.4922 16.9031 19.9135 16.4142C19.3347 15.9252 18.8108 15.3465 18.3618 14.7328C16.9848 12.8569 16.8301 11.4 19.4195 10.5618C19.6391 10.492 19.8586 10.3573 19.6989 10.0529C17.1594 10.1078 17.0996 10.0479 17.1245 7.38868C17.1395 5.73725 17.2143 4.09081 15.9919 2.7088C14.3704 0.877761 11.4168 0.154326 8.83742 1.04241C6.55236 1.8307 5.23522 3.81641 5.20528 6.53552C5.20029 7.18412 5.18532 7.83272 5.24519 8.48132C5.35994 9.75855 4.75625 10.1926 3.55884 10.0629C3.29442 10.033 2.87533 9.67873 2.71567 10.2525C5.58447 11.9388 5.72417 12.8369 3.58878 15.3614C2.7506 16.3543 1.63798 16.9979 0.525391 17.9309C2.22172 17.866 2.70568 19.9166 4.27729 19.8368C5.8439 19.7519 7.14109 20.2708 8.39338 21.1389C10.1745 22.3713 12.0305 22.3314 13.8815 21.2587C14.6948 20.7847 15.4731 19.9216 16.3811 20.0413C18.6612 20.3257 19.9783 18.5046 22.1636 17.9009Z" fill="#003744"/>
</svg>
