<svg width="22" height="23" viewBox="0 0 22 23" fill="none" xmlns="http://www.w3.org/2000/svg">
<path d="M18.5445 11.3648C18.5445 7.33326 15.2757 4.06445 11.2441 4.06445C7.32155 4.06445 4.05273 7.33326 4.05273 11.3648C4.05273 15.3963 7.32155 18.6651 11.3531 18.6651C15.2757 18.5562 18.5445 15.2874 18.5445 11.3648ZM16.9101 11.3648C16.9101 14.4157 14.404 17.0307 11.2441 17.0307C8.08427 17.0307 5.57818 14.5247 5.57818 11.3648C5.57818 8.20495 8.08427 5.69886 11.2441 5.69886C14.404 5.69886 16.9101 8.20495 16.9101 11.3648Z" fill="#003744"/>
<path d="M11.3524 0.794922C5.4685 0.794922 0.783203 5.48022 0.783203 11.3641C0.783203 12.7806 1.11008 14.1971 1.65489 15.6135C1.87281 16.0494 2.30865 16.2673 2.74449 16.0494C2.96241 15.9404 3.07137 15.8315 3.18033 15.6135C3.28929 15.3956 3.28929 15.1777 3.18033 14.9598C2.63553 13.8702 2.41761 12.6716 2.41761 11.473C2.41761 6.56982 6.34018 2.64725 11.2434 2.64725C16.1466 2.64725 20.0692 6.56982 20.0692 11.473C20.0692 15.8315 16.8004 19.5361 12.5509 20.1899C12.224 19.754 11.7882 19.5361 11.2434 19.5361C10.3717 19.5361 9.609 20.2988 9.609 21.1705C9.609 22.0422 10.3717 22.8049 11.2434 22.8049C11.8972 22.8049 12.442 22.478 12.6599 21.9332C15.166 21.6064 17.4541 20.2988 19.0885 18.4465C20.723 16.4852 21.7036 14.0881 21.7036 11.473C21.8126 5.48022 17.1273 0.794922 11.3524 0.794922Z" fill="#003744"/>
<path d="M14.5125 12.2361C14.2946 12.1272 14.0767 12.1272 13.8588 12.1272C13.6408 12.2361 13.4229 12.3451 13.314 12.563C12.8781 13.3257 12.1154 13.7616 11.2437 13.7616C10.372 13.7616 9.60931 13.3257 9.17347 12.563C9.06451 12.3451 8.84659 12.2361 8.62867 12.1272C8.41075 12.0182 8.19282 12.1272 7.9749 12.2361C7.53906 12.454 7.4301 12.9988 7.64802 13.3257C8.41075 14.5243 9.71827 15.396 11.1348 15.396C12.5512 15.396 13.9677 14.6333 14.6215 13.3257C14.7304 13.1078 14.7304 12.8899 14.7304 12.672C14.8394 12.454 14.7304 12.3451 14.5125 12.2361Z" fill="#003744"/>
</svg>
