<svg width="23" height="19" viewBox="0 0 23 19" fill="none" xmlns="http://www.w3.org/2000/svg">
<path d="M20.7876 2.93404C20.3086 3.06875 19.9294 3.0438 19.9294 3.0438L19.9444 2.954C20.3934 2.59477 21.516 1.49715 21.6657 0.983258C21.7305 0.763733 21.6557 0.683905 21.6557 0.678916L20.2188 1.29259L19.0164 1.83641C18.1832 0.958312 16.9259 0.394531 15.519 0.394531C13.0144 0.394531 10.9838 2.1657 10.9838 4.35596C10.9838 4.7551 11.0436 5.48851 11.1684 5.85273C11.1684 5.96748 11.1734 5.73797 11.1684 5.85273C9.55685 5.80782 7.49131 5.14925 5.65029 4.21627C2.01815 2.37525 1.79363 1.103 1.79363 1.103C1.22486 1.70669 0.930501 3.71236 1.50925 5.28396C1.87845 6.29178 3.15071 7.19482 3.15071 7.19482C3.15071 7.19482 2.58193 7.2048 1.98822 7.00523C1.3945 6.80567 1.165 6.6061 1.165 6.6061C0.810765 7.46923 1.51923 9.0109 2.75157 10.1185C3.46503 10.7621 4.77718 11.1712 4.77718 11.1712L2.73161 11.2311C2.61685 13.2168 6.89759 14.3992 6.89759 14.3992C5.6453 15.3622 4.18846 15.9509 2.62684 15.9509C1.81859 15.9509 1.03528 15.8311 0.296875 15.6066C2.35742 17.303 5.00669 18.4754 7.88546 18.3258C15.5289 17.9216 19.8396 11.3558 20.0442 4.90478L20.0541 4.91974C20.0541 4.91974 20.4134 4.74013 21.1767 3.97678C21.9401 3.21343 22.419 2.31538 22.419 2.31538C22.419 2.31538 21.2715 2.79933 20.7876 2.93404Z" fill="#003744"/>
</svg>
