<svg width="21" height="21" viewBox="0 0 21 21" fill="none" xmlns="http://www.w3.org/2000/svg">
<path d="M10.9984 9.51758H9.39844C8.89844 9.51758 8.59844 9.11758 8.59844 8.71758C8.59844 8.21758 8.99844 7.91758 9.39844 7.91758H11.0984C11.5984 7.91758 11.8984 8.31758 11.8984 8.71758H13.5984C13.5984 7.31758 12.4984 6.21758 11.0984 6.21758V4.51758H9.39844V6.21758C7.99844 6.11758 6.89844 7.31758 6.89844 8.61758C6.89844 10.0176 7.99844 11.1176 9.39844 11.1176H11.0984C11.5984 11.1176 11.8984 11.5176 11.8984 11.9176C11.8984 12.4176 11.4984 12.7176 11.0984 12.7176H9.39844C8.89844 12.7176 8.59844 12.3176 8.59844 11.9176H6.89844C6.89844 13.3176 7.99844 14.4176 9.39844 14.4176V16.1176H11.0984V14.4176C12.4984 14.4176 13.5984 13.3176 13.5984 11.9176C13.4984 10.6176 12.3984 9.51758 10.9984 9.51758Z" fill="#003744"/>
<path d="M19.7 9.11758L18.3 7.71758C18 7.41758 17.7 6.71758 17.7 6.31758V4.41758C17.7 3.51758 17 2.71758 16 2.71758H14.2C13.7 2.71758 13.1 2.41758 12.8 2.11758L11.4 0.717578C10.8 0.117578 9.7 0.117578 9 0.717578L7.7 2.21758C7.3 2.51758 6.7 2.71758 6.2 2.71758H4.3C3.4 2.71758 2.6 3.41758 2.6 4.41758V6.31758C2.6 6.81758 2.3 7.41758 2 7.71758L0.7 9.11758C0.1 9.71758 0.1 10.8176 0.7 11.5176L2.1 12.9176C2.4 13.2176 2.7 13.9176 2.7 14.3176V16.2176C2.7 17.1176 3.5 17.9176 4.4 17.9176H6.2C6.7 17.9176 7.3 18.2176 7.6 18.5176L9 19.9176C9.6 20.5176 10.7 20.5176 11.4 19.9176L12.8 18.5176C13.1 18.2176 13.8 17.9176 14.2 17.9176H16.1C17 17.9176 17.8 17.1176 17.8 16.2176V14.3176C17.8 13.8176 18.1 13.2176 18.4 12.9176L19.8 11.5176C20.4 10.8176 20.4 9.81758 19.7 9.11758ZM17.2 11.7176C16.6 12.3176 16.1 13.4176 16.1 14.3176V16.2176H14.2C13.3 16.2176 12.2 16.6176 11.6 17.3176L10.2 18.6176L8.8 17.3176C8.2 16.6176 7.1 16.2176 6.2 16.2176H4.3V14.3176C4.3 13.4176 3.9 12.3176 3.2 11.7176L1.9 10.3176L3.2 8.91758C3.9 8.31758 4.3 7.21758 4.3 6.31758V4.41758H6.2C7.1 4.41758 8.2 4.01758 8.8 3.31758L10.2 2.01758L11.6 3.31758C12.2 4.01758 13.3 4.41758 14.2 4.41758H16.1V6.31758C16.1 7.21758 16.5 8.31758 17.2 8.91758L18.6 10.3176L17.2 11.7176Z" fill="#003744"/>
</svg>
