<svg width="23" height="19" viewBox="0 0 23 19" fill="none" xmlns="http://www.w3.org/2000/svg">
<path d="M15.5762 9.25977C15.5862 9.30986 15.5912 9.36497 15.5862 9.42007C15.5962 9.36497 15.5962 9.30986 15.5762 9.25977Z" fill="#003744"/>
<path d="M11.6441 0.667969C0.548098 0.667969 0.353516 1.65583 0.353516 9.35917C0.353516 17.0625 0.548098 18.0504 11.6441 18.0504C22.7401 18.0504 22.9347 17.0625 22.9347 9.35917C22.9347 1.65583 22.7401 0.667969 11.6441 0.667969ZM15.2413 9.92794L10.1473 12.3926C9.73822 12.5922 9.26425 12.2928 9.26425 11.8388V7.02422C9.26425 6.57519 9.73323 6.27584 10.1374 6.46543L15.2313 8.81535C15.4309 8.90515 15.5407 9.07479 15.5756 9.25939C15.5956 9.30928 15.5956 9.36416 15.5856 9.41904C15.5706 9.6236 15.4608 9.82317 15.2413 9.92794Z" fill="#003744"/>
</svg>
