<svg width="549" height="409" viewBox="0 0 549 409" fill="none" xmlns="http://www.w3.org/2000/svg">
<g clip-path="url(#clip0_1928_2591)">
<path d="M548.039 358.602H0.429688V358.821H548.039V358.602Z" fill="#EBEBEB"/>
<path d="M493.169 376.235H456.917V376.454H493.169V376.235Z" fill="#EBEBEB"/>
<path d="M363.166 379.302H353.638V379.521H363.166V379.302Z" fill="#EBEBEB"/>
<path d="M455.821 366.159H434.793V366.378H455.821V366.159Z" fill="#EBEBEB"/>
<path d="M105.242 367.911H57.9287V368.13H105.242V367.911Z" fill="#EBEBEB"/>
<path d="M121.889 367.911H114.989V368.13H121.889V367.911Z" fill="#EBEBEB"/>
<path d="M247.073 372.621H144.451V372.84H247.073V372.621Z" fill="#EBEBEB"/>
<path d="M259.996 309.755H48.5093C45.1142 309.755 42.2666 306.908 42.2666 303.512V6.27009C42.2666 2.87491 45.1142 0.0273438 48.5093 0.0273438H259.996C263.391 0.0273438 266.239 2.87491 266.239 6.27009V303.512C266.239 307.017 263.501 309.755 259.996 309.755ZM48.5093 0.246388C45.2237 0.246388 42.4856 2.87491 42.4856 6.27009V303.512C42.4856 306.798 45.1142 309.536 48.5093 309.536H259.996C263.282 309.536 266.02 306.908 266.02 303.512V6.27009C266.02 2.98443 263.391 0.246388 259.996 0.246388H48.5093Z" fill="#EBEBEB"/>
<path d="M496.893 309.755H285.406C282.011 309.755 279.163 306.908 279.163 303.512V6.27009C279.163 2.87491 282.011 0.0273438 285.406 0.0273438H496.893C500.288 0.0273438 503.135 2.87491 503.135 6.27009V303.512C503.135 307.017 500.397 309.755 496.893 309.755ZM285.406 0.246388C282.12 0.246388 279.382 2.87491 279.382 6.27009V303.512C279.382 306.798 282.011 309.536 285.406 309.536H496.893C500.178 309.536 502.916 306.908 502.916 303.512V6.27009C502.916 2.98443 500.288 0.246388 496.893 0.246388H285.406Z" fill="#EBEBEB"/>
<path d="M343.342 83.5928H337.1V214.581H343.342V83.5928Z" fill="#F5F5F5"/>
<path d="M369.737 50.0791H310.705V130.578H369.737V50.0791Z" fill="#F5F5F5"/>
<path d="M211.04 220.166L228.125 142.625L289.02 153.358L274.563 232.323L211.04 220.166Z" fill="#EBEBEB"/>
<path d="M154.527 175.591L203.265 164.968L229.112 238.128L169.751 254.995L154.527 175.591Z" fill="#F0F0F0"/>
<path d="M246.964 233.966L253.754 174.934L321.11 178.876L318.701 240.647L246.964 233.966Z" fill="#F5F5F5"/>
<path d="M102.613 354.55H92.4277V184.243H83.666V354.55H73.4804C71.509 354.55 69.8662 356.193 69.8662 358.164H106.227C106.227 356.193 104.585 354.55 102.613 354.55Z" fill="#F0F0F0"/>
<path d="M104.038 192.02C99.7662 182.163 100.204 170.991 105.242 161.572C109.404 153.687 113.237 145.582 112.361 143.83C110.609 140.325 108.856 138.682 100.204 137.587C94.5091 136.93 93.4139 133.644 93.4139 131.454C93.4139 130.359 93.852 129.264 94.6186 128.606C102.614 121.378 103.052 104.731 89.5806 102.65V102.431C89.1425 102.431 88.7044 102.431 88.2664 102.431C88.1568 102.431 87.9378 102.431 87.8283 102.431C87.3902 102.431 86.9521 102.431 86.514 102.431V102.65C73.0428 104.84 73.4809 121.378 81.476 128.606C82.2427 129.373 82.7903 130.359 82.6807 131.454C82.5712 133.644 81.476 136.93 75.8904 137.587C67.2382 138.573 65.4858 140.325 63.7335 143.83C62.8573 145.582 66.6906 153.687 70.8524 161.572C75.7809 170.991 76.219 182.272 72.0571 192.02C68.3334 200.672 64.5001 212.5 63.7335 225.862C63.6239 228.052 65.4858 229.914 67.6762 229.914H81.1474H94.9472H108.418C110.609 229.914 112.471 228.052 112.361 225.862C111.704 212.61 107.871 200.781 104.038 192.02Z" fill="#E0E0E0"/>
<path d="M474.988 354.55H464.803V184.243H456.041V354.55H445.855C443.884 354.55 442.241 356.193 442.241 358.164H478.602C478.602 356.193 476.96 354.55 474.988 354.55Z" fill="#F0F0F0"/>
<path d="M476.412 192.02C472.14 182.163 472.578 170.991 477.616 161.572C481.778 153.687 485.611 145.582 484.735 143.83C482.983 140.325 481.231 138.682 472.578 137.587C466.883 136.93 465.788 133.644 465.788 131.454C465.788 130.359 466.226 129.264 466.993 128.606C474.988 121.378 475.426 104.731 461.955 102.65V102.431C461.517 102.431 461.078 102.431 460.64 102.431C460.531 102.431 460.312 102.431 460.202 102.431C459.764 102.431 459.326 102.431 458.888 102.431V102.65C445.417 104.84 445.855 121.378 453.85 128.606C454.617 129.373 455.164 130.359 455.055 131.454C454.945 133.644 453.85 136.93 448.264 137.587C439.612 138.573 437.86 140.325 436.107 143.83C435.231 145.582 439.065 153.687 443.226 161.572C448.155 170.991 448.593 182.272 444.431 192.02C440.707 200.672 436.874 212.5 436.107 225.862C435.998 228.052 437.86 229.914 440.05 229.914H453.521H467.321H480.792C482.983 229.914 484.845 228.052 484.735 225.862C484.078 212.61 480.245 200.781 476.412 192.02Z" fill="#E0E0E0"/>
<path d="M386.166 209.215H134.047V292.451H386.166V209.215Z" fill="#E0E0E0"/>
<path d="M359.333 354.55C357.361 354.55 355.719 356.193 355.719 358.164H392.08C392.08 356.193 390.437 354.55 388.466 354.55H378.28V192.567V184.243H369.518H148.284H139.522V192.567V354.55H129.337C127.365 354.55 125.723 356.193 125.723 358.164H162.084C162.084 356.193 160.441 354.55 158.47 354.55H148.284V192.567H369.518V354.55H359.333Z" fill="#E0E0E0"/>
<path d="M274.234 408.105C391.519 408.105 486.597 402.565 486.597 395.729C486.597 388.894 391.519 383.354 274.234 383.354C156.949 383.354 61.8711 388.894 61.8711 395.729C61.8711 402.565 156.949 408.105 274.234 408.105Z" fill="#EAEAEA"/>
<path d="M410.918 397.372L429.756 252.584H433.151H436.656H436.875H439.065H440.708L473.236 397.372H469.731L440.379 268.793L450.017 397.372H445.965L434.575 268.246L415.518 397.372H410.918Z" fill="#263238"/>
<path opacity="0.6" d="M410.918 397.372L429.756 252.584H433.151H436.656H436.875H439.065H440.708L473.236 397.372H469.731L440.379 268.793L450.017 397.372H445.965L434.575 268.246L415.518 397.372H410.918Z" fill="white"/>
<path d="M375.98 372.401H456.37L474.988 204.942H394.709L375.98 372.401Z" fill="#407BFF"/>
<path d="M375.98 372.401H456.37L474.988 204.942H394.709L375.98 372.401Z" fill="#CE9A74"/>
<path opacity="0.6" d="M408.288 248.86V231.885L421.042 237.798L433.259 216.004L437.102 240.434L456.518 229.648L450.454 251.708L460.858 261.127L443.773 266.274L448.701 286.755L430.63 278.431L419.24 297.598L412.34 280.95L400.84 286.207L406.9 271.595L393.956 268L406.9 261.127L396.788 248.86H408.288Z" fill="white"/>
<path d="M415.798 249.765C416.565 246.261 419.193 244.508 421.822 245.165C424.45 245.713 425.874 248.342 425.107 251.627C424.341 255.132 421.931 256.884 419.084 256.227C416.346 255.68 415.031 253.051 415.798 249.765ZM418.208 250.313C417.66 252.613 418.427 253.708 419.631 254.037C420.946 254.365 422.15 253.599 422.698 251.08C423.246 248.78 422.369 247.575 421.274 247.356C420.179 247.027 418.755 247.794 418.208 250.313ZM418.755 267.179L415.579 266.413L433.212 247.794L436.388 248.561L418.755 267.179ZM427.627 263.346C428.393 259.841 431.022 258.089 433.65 258.746C436.279 259.294 437.703 261.922 436.936 265.208C436.169 268.713 433.76 270.465 430.912 269.808C428.174 269.26 426.86 266.741 427.627 263.346ZM430.036 263.894C429.488 266.194 430.255 267.289 431.46 267.617C432.774 267.946 433.979 267.179 434.526 264.66C435.074 262.36 434.198 261.156 433.103 260.937C432.007 260.718 430.584 261.484 430.036 263.894Z" fill="#DA6B1A"/>
<path d="M402.923 311.616L438.408 312.054V317.859H402.923V311.616Z" fill="white"/>
<path d="M392.518 324.979H450.017V332.426L389.89 332.207L392.518 324.979Z" fill="white"/>
<path opacity="0.3" d="M389.89 345.24L388.138 360.354H402.923V345.24H389.89Z" fill="black"/>
<path opacity="0.3" d="M412.123 345.24L410.918 360.354H426.361V347.54L412.123 345.24Z" fill="black"/>
<path opacity="0.3" d="M438.408 347.54L435.779 360.354H447.279V347.54H438.408Z" fill="black"/>
<path d="M193.079 156.205C203.265 154.343 201.403 190.485 205.346 199.028C209.288 207.571 234.15 229.475 234.15 229.475C234.15 229.475 244.883 230.351 246.635 231.228C248.388 232.104 248.497 238.456 247.183 238.456C245.759 238.456 234.04 238.566 232.288 237.58C230.536 236.594 229.659 232.98 229.659 232.98C229.659 232.98 203.593 217.756 198.227 204.833C193.736 194.1 189.574 175.481 188.37 168.8C187.055 162.229 190.56 156.643 193.079 156.205Z" fill="#EAA678"/>
<path d="M86.4043 286.098C86.4043 286.098 92.7566 279.746 103.161 288.069C113.566 296.393 119.042 308.002 136.784 301.979C154.527 295.955 181.688 312.931 187.164 300.664C187.164 300.664 177.965 276.46 160.113 269.013C142.151 261.565 95.6041 279.198 86.4043 286.098Z" fill="#C16196"/>
<path d="M145.437 250.065C145.328 254.008 144.89 262.77 144.123 271.751C143.137 283.689 141.494 296.174 138.866 298.474C138.647 298.693 138.318 298.912 137.99 299.241C136.785 300.226 135.033 301.65 132.842 303.184C127.366 307.236 119.261 312.821 110.39 318.736C109.185 319.612 107.871 320.378 106.666 321.255C100.095 325.745 93.3048 330.235 86.9525 334.397C84.543 336.04 82.1335 337.683 79.8336 339.107C69.1004 346.226 61.2148 351.264 61.2148 351.264L64.7195 356.302C64.7195 356.302 68.5528 354.002 76.0003 350.935C78.0812 350.059 80.2717 349.183 82.5716 348.087C87.1715 346.007 92.3191 343.488 97.7952 340.75C99.438 339.983 101.081 339.107 102.724 338.34C114.552 332.316 127.366 325.416 137.771 318.736C144.013 314.683 149.38 310.741 153.323 307.126C156.608 304.06 158.799 301.212 159.456 298.693C161.756 291.027 163.946 278.979 165.589 267.041C166.356 261.127 167.122 255.213 167.67 250.065H145.437Z" fill="#EAA678"/>
<path d="M63.0764 348.307C63.843 348.197 65.3763 357.835 65.3763 357.835C65.3763 357.835 60.7764 365.063 60.6669 371.087C60.5573 377.111 56.505 374.701 54.9717 368.349C53.5479 361.997 52.4527 357.068 51.3575 352.578C50.3718 347.978 54.9717 349.949 63.0764 348.307Z" fill="#603730"/>
<g opacity="0.2">
<path d="M169.422 231.228C169.422 231.228 167.889 248.861 165.479 267.041C163.836 278.979 161.756 291.026 159.346 298.693C158.579 301.212 156.389 304.06 153.213 307.126C149.38 310.85 143.904 314.793 137.661 318.736C135.799 313.369 134.156 307.783 132.842 303.074C135.032 301.431 136.785 300.117 137.989 299.131C138.318 298.912 138.646 298.583 138.865 298.364C141.385 296.064 143.027 283.689 144.123 271.641C145.218 259.484 145.546 247.765 145.546 247.765L169.422 231.228Z" fill="black"/>
</g>
<path d="M173.255 214.799L139.741 209.323C140.727 209.542 147.298 195.085 148.722 189.938C150.803 182.819 152.336 169.238 151.022 160.477C151.022 160.477 151.022 160.477 151.022 160.367C150.474 156.643 153.103 153.139 156.936 152.81C159.565 152.591 162.303 152.481 164.931 152.481C170.298 152.372 175.555 152.701 180.812 153.467C187.602 154.562 195.269 156.643 195.269 156.643C195.269 156.643 196.364 157.081 195.816 164.419C195.488 171.21 192.859 193.552 173.255 214.799Z" fill="#263238"/>
<path d="M185.85 146.786C185.85 146.786 181.579 149.634 180.812 151.386C180.812 151.496 180.703 151.605 180.703 151.715C180.484 152.81 180.265 154.891 180.265 154.891C181.469 158.615 176.76 160.695 176.76 160.695C168.327 158.176 166.355 154.015 166.355 154.015C173.255 151.277 174.57 138.024 174.57 138.024L177.965 140.653L185.85 146.786Z" fill="#EAA678"/>
<path d="M192.312 345.349L183.551 325.745L171.503 299.022L169.422 294.422L160.113 274.16L149.051 250.065H123.861C127.147 261.237 133.718 273.503 140.618 284.455C147.299 295.079 154.308 304.388 158.58 309.864C161.099 313.15 162.742 315.012 162.742 315.012C167.78 326.512 174.132 338.45 180.265 349.183C182.784 353.564 185.303 357.725 187.713 361.559C196.474 375.797 203.484 385.763 203.484 385.763L208.96 382.477L192.312 345.349Z" fill="#EAA678"/>
<path d="M199.869 383.025C199.54 382.258 208.74 378.863 208.74 378.863C208.74 378.863 216.735 382.039 222.649 380.944C228.564 379.849 227.03 384.339 221.007 386.968C214.983 389.596 210.493 391.677 206.221 393.539C201.95 395.401 203.045 390.582 199.869 383.025Z" fill="#603730"/>
<path d="M139.741 209.214C139.741 209.214 121.561 218.304 120.466 242.728C119.808 256.308 86.4043 286.098 86.4043 286.098C86.4043 286.098 87.8281 291.027 97.247 291.246C106.666 291.574 124.299 281.17 136.675 284.017C149.051 286.865 147.956 291.574 157.813 289.493C167.67 287.522 177.746 290.041 187.274 300.555C187.274 300.555 191.545 265.508 173.255 239.442C173.255 239.442 171.831 232.542 173.365 214.58L139.741 209.214Z" fill="#407BFF"/>
<path d="M139.741 209.214C139.741 209.214 121.561 218.304 120.466 242.728C119.808 256.308 86.4043 286.098 86.4043 286.098C86.4043 286.098 87.8281 291.027 97.247 291.246C106.666 291.574 124.299 281.17 136.675 284.017C149.051 286.865 147.956 291.574 157.813 289.493C167.67 287.522 177.746 290.041 187.274 300.555C187.274 300.555 191.545 265.508 173.255 239.442C173.255 239.442 171.831 232.542 173.365 214.58L139.741 209.214Z" fill="#EA88B4"/>
<path d="M140.617 207.462L173.255 214.8L172.817 220.714L136.784 211.186L140.617 207.462Z" fill="#C16196"/>
<g opacity="0.2">
<path d="M163.508 214.58C163.508 215.785 162.522 216.771 161.317 216.771C160.113 216.771 159.127 215.785 159.127 214.58C159.127 213.375 160.113 212.39 161.317 212.39C162.522 212.39 163.508 213.375 163.508 214.58Z" fill="black"/>
</g>
<g opacity="0.2">
<path d="M185.851 146.787C185.851 146.787 181.579 149.634 180.813 151.387C180.813 151.496 180.703 151.606 180.703 151.715C174.46 146.896 175.227 139.777 175.227 139.777L178.075 140.763L185.851 146.787Z" fill="black"/>
</g>
<path d="M202.279 134.52C202.169 134.52 202.169 134.52 202.06 134.411C201.95 134.301 201.95 134.082 202.06 134.082C203.702 132.658 208.74 127.292 204.141 119.516C200.088 112.725 191.545 115.025 191.436 115.025C191.326 115.025 191.107 115.025 191.107 114.806C191.107 114.587 191.107 114.478 191.326 114.478C191.436 114.478 200.307 112.068 204.579 119.187C209.507 127.401 204.141 132.987 202.388 134.411C202.388 134.52 202.279 134.52 202.279 134.52Z" fill="#263238"/>
<path d="M194.064 115.244C194.064 115.244 201.183 115.463 203.155 121.487C205.126 127.51 203.702 134.191 193.078 141.529C182.564 148.758 173.584 141.858 169.422 136.929C165.26 132.11 166.355 115.901 177.855 112.835C189.902 109.549 194.064 115.244 194.064 115.244Z" fill="#263238"/>
<path d="M187.274 117.325C196.364 118.53 198.555 123.787 198.007 133.206C197.241 144.924 193.517 152.92 182.565 148.867C167.67 143.282 172.27 115.244 187.274 117.325Z" fill="#EAA678"/>
<path d="M192.202 131.892C192.202 131.892 193.078 134.411 194.283 135.944C194.283 135.944 193.297 137.039 191.764 136.601L192.202 131.892Z" fill="#D58745"/>
<path d="M186.836 130.358C186.726 131.124 186.288 131.672 185.741 131.562C185.193 131.453 184.865 130.905 184.974 130.139C185.084 129.372 185.522 128.824 186.069 128.934C186.507 128.934 186.836 129.591 186.836 130.358Z" fill="#263238"/>
<path d="M185.851 128.934L187.493 128.496C187.493 128.496 186.617 129.701 185.851 128.934Z" fill="#263238"/>
<path d="M196.035 131.234C195.926 132 195.488 132.548 194.94 132.438C194.392 132.329 194.064 131.781 194.173 131.015C194.283 130.248 194.721 129.7 195.269 129.81C195.816 129.81 196.145 130.467 196.035 131.234Z" fill="#263238"/>
<path d="M195.159 129.81L196.802 129.372C196.802 129.372 195.816 130.577 195.159 129.81Z" fill="#263238"/>
<path d="M183.44 125.32C183.33 125.32 183.221 125.32 183.111 125.211C183.002 125.101 183.002 124.773 183.111 124.663C184.864 123.02 187.492 123.678 187.602 123.787C187.821 123.897 187.93 124.006 187.821 124.225C187.711 124.444 187.602 124.554 187.383 124.444C187.383 124.444 185.083 123.897 183.659 125.211C183.659 125.32 183.55 125.32 183.44 125.32Z" fill="#263238"/>
<path d="M197.678 126.196C197.568 126.196 197.459 126.196 197.459 126.086C195.816 124.663 194.392 124.882 194.283 124.991C194.064 124.991 193.845 124.882 193.845 124.663C193.845 124.444 193.954 124.224 194.173 124.224C194.283 124.224 196.035 123.786 198.007 125.539C198.116 125.648 198.226 125.977 198.007 126.086C197.897 126.196 197.788 126.196 197.678 126.196Z" fill="#263238"/>
<path d="M175.336 131.124C175.336 131.124 180.593 124.224 180.702 118.42C180.702 118.42 199.65 113.491 198.007 131.891C198.007 131.891 201.95 116.01 186.507 113.491C171.064 110.972 167.998 133.753 175.117 141.638C175.117 141.638 172.16 135.505 175.336 131.124Z" fill="#263238"/>
<path d="M176.54 133.315C176.65 131.891 175.555 129.153 172.817 129.153C169.969 129.043 167.888 134.629 174.678 136.929C175.555 137.258 176.321 136.272 176.54 133.315Z" fill="#EAA678"/>
<path d="M176.102 114.696C176.102 114.696 175.336 110.097 170.079 106.92C164.931 103.744 159.236 105.716 154.527 116.339C149.708 126.853 142.808 124.553 139.741 121.925C139.741 121.925 140.727 126.963 147.846 129.044C154.965 131.125 159.017 127.511 162.303 121.596C165.588 115.682 171.503 118.311 171.503 118.311L176.102 114.696Z" fill="#263238"/>
<path d="M191.326 139.339C190.888 140.544 190.45 142.624 190.45 142.624C190.231 142.624 190.012 142.624 189.793 142.624C187.055 142.515 185.85 141.529 185.302 140.544C184.974 139.996 184.974 139.339 184.974 138.901C184.974 138.353 185.083 137.915 185.083 137.915C186.507 138.791 189.026 139.12 190.34 139.229C190.997 139.339 191.326 139.339 191.326 139.339Z" fill="#263238"/>
<path d="M190.45 139.339L190.121 140.325C187.602 140.215 185.74 139.777 184.974 138.901C184.974 138.353 185.083 137.915 185.083 137.915C186.507 138.901 189.026 139.229 190.45 139.339Z" fill="white"/>
<path d="M189.792 142.625C187.054 142.515 185.849 141.53 185.302 140.544C186.178 140.653 187.383 140.873 188.259 141.311C189.025 141.639 189.573 142.077 189.792 142.625Z" fill="#DE5753"/>
<path d="M156.169 131.453C156.06 131.453 155.95 131.343 155.95 131.234C155.95 131.124 155.95 130.905 156.169 130.905C159.564 129.7 161.098 126.524 162.522 123.458C163.507 121.377 164.383 119.405 165.807 118.091C169.531 114.586 172.598 117.434 172.598 117.434C172.707 117.544 172.707 117.653 172.598 117.763C172.488 117.872 172.378 117.872 172.269 117.763C172.159 117.653 169.64 115.244 166.245 118.42C164.821 119.734 163.945 121.596 163.069 123.677C161.426 126.853 160.003 130.139 156.169 131.453C156.279 131.453 156.279 131.453 156.169 131.453Z" fill="#263238"/>
<path d="M165.369 140.434C165.588 140.434 165.917 140.215 166.026 139.996L169.093 135.615C169.422 135.177 169.312 134.629 168.984 134.41L164.712 130.796C164.493 130.577 164.274 130.577 163.946 130.577L153.76 131.782C153.322 131.891 152.884 132.22 152.884 132.768L153.322 140.544C153.322 141.091 153.869 141.529 154.308 141.42L165.369 140.434ZM167.012 135.287C167.012 134.958 167.341 134.629 167.669 134.629C167.998 134.629 168.326 134.958 168.326 135.287C168.326 135.615 167.998 135.944 167.669 135.944C167.341 135.834 167.012 135.615 167.012 135.287Z" fill="#EA1F85"/>
<path d="M160.55 132.658C161.646 132.658 162.303 133.206 162.303 134.082C162.303 134.849 161.646 135.506 160.66 135.506C159.565 135.506 158.908 134.958 158.908 134.082C158.908 133.206 159.565 132.658 160.55 132.658ZM160.55 133.425C159.893 133.425 159.565 133.753 159.565 134.082C159.565 134.52 159.893 134.739 160.66 134.739C161.317 134.739 161.646 134.411 161.646 134.082C161.646 133.753 161.317 133.315 160.55 133.425ZM155.731 134.739V133.753L162.303 137.477V138.463L155.731 134.739ZM157.484 137.039C158.579 137.039 159.236 137.587 159.236 138.463C159.236 139.339 158.579 139.887 157.593 139.887C156.498 139.887 155.841 139.339 155.841 138.463C155.841 137.587 156.498 137.039 157.484 137.039ZM157.484 137.696C156.827 137.696 156.498 138.025 156.498 138.353C156.498 138.791 156.827 139.01 157.593 139.01C158.25 139.01 158.579 138.682 158.579 138.353C158.579 138.025 158.25 137.696 157.484 137.696Z" fill="white"/>
<path d="M168.327 135.396C168.217 135.396 168.108 135.287 168.108 135.287C167.998 135.177 168.108 134.958 168.217 134.958C168.327 134.958 174.898 131.673 174.898 126.306C174.898 126.196 175.008 126.087 175.117 126.087C175.227 126.087 175.336 126.196 175.336 126.415C175.336 132.111 168.655 135.396 168.327 135.506C168.327 135.396 168.327 135.396 168.327 135.396Z" fill="white"/>
<path d="M174.131 125.868L181.359 112.068C181.359 112.068 191.326 112.397 199.211 113.93C199.211 113.93 202.059 116.121 200.416 117.544C198.883 118.968 195.488 117.983 194.502 117.106C193.516 116.23 193.078 114.259 193.078 114.259L191.326 114.04C191.326 114.04 192.969 117.654 190.45 117.544C187.931 117.435 183.221 115.792 182.345 113.492L174.459 127.511L174.131 125.868Z" fill="#A3695D"/>
<path d="M153.98 153.686C166.465 151.825 167.561 190.267 172.489 199.248C177.308 208.228 207.865 231.228 207.865 231.228C207.865 231.228 217.831 230.352 219.912 231.228C221.993 232.104 222.212 238.785 220.569 238.785C218.817 238.785 207.755 240.756 205.565 239.771C203.374 238.785 202.279 234.842 202.279 234.842C202.279 234.842 170.299 218.852 163.618 205.271C158.142 193.991 152.885 174.386 151.461 167.486C149.928 160.477 150.804 154.125 153.98 153.686Z" fill="#EAA678"/>
<path d="M171.393 174.276L177.636 186.214C178.184 187.2 179.607 187.309 180.265 186.433L188.041 175.809C188.807 174.824 188.15 173.4 186.945 173.29L172.927 171.976C171.722 171.867 170.846 173.181 171.393 174.276Z" fill="#C16196"/>
<path d="M170.518 178.876V179.205C170.518 180.081 171.175 180.738 172.051 180.738L186.617 181.395C187.384 181.395 188.151 180.848 188.26 180.081C188.37 179.205 187.713 178.329 186.836 178.219L172.27 177.124C171.284 177.234 170.518 178 170.518 178.876Z" fill="white"/>
<path d="M346.957 188.295C347.066 188.843 347.395 189.39 347.833 189.719L357.471 196.181C358.347 196.728 359.552 196.619 360.209 195.743L367.766 186.324C368.094 185.886 368.313 185.338 368.204 184.79L364.918 162.776C364.809 161.681 363.823 160.915 362.728 161.024L345.861 162.448C344.657 162.557 343.89 163.543 344 164.748L346.957 188.295ZM358.347 191.581C359.114 191.581 359.771 192.128 359.771 192.895C359.771 193.662 359.223 194.319 358.457 194.319C357.69 194.319 357.033 193.771 357.033 193.004C356.923 192.347 357.58 191.69 358.347 191.581Z" fill="#90C66D"/>
<path d="M363.495 177.452C363.604 179.752 362.29 181.286 360.538 181.286C358.785 181.395 357.471 180.081 357.362 177.891C357.252 175.591 358.457 174.057 360.209 173.948C362.181 173.948 363.385 175.262 363.495 177.452ZM361.962 177.562C361.852 176.029 361.195 175.481 360.428 175.481C359.552 175.481 359.004 176.138 359.004 177.781C359.114 179.314 359.771 179.862 360.538 179.862C361.304 179.862 362.071 179.095 361.962 177.562ZM358.785 167.157L360.866 167.048L353.2 181.614L351.119 181.724L358.785 167.157ZM353.857 171.1C353.966 173.4 352.652 174.933 350.9 174.933C349.147 175.043 347.833 173.729 347.724 171.538C347.614 169.238 348.819 167.705 350.571 167.595C352.543 167.486 353.747 168.91 353.857 171.1ZM352.324 171.1C352.214 169.567 351.557 169.019 350.79 169.019C349.914 169.019 349.367 169.676 349.367 171.319C349.476 172.853 350.133 173.4 350.9 173.4C351.666 173.51 352.324 172.743 352.324 171.1Z" fill="white"/>
<path d="M358.457 193.005C358.457 193.005 358.895 218.085 341.919 223.671" stroke="#263238" stroke-miterlimit="10" stroke-linecap="round" stroke-linejoin="round"/>
<path d="M307.748 216.004H307.639C307.2 215.894 297.343 214.142 294.605 209.542C293.839 208.228 293.729 206.913 294.167 205.49C294.605 204.066 296.029 202.204 300.301 201.766C307.419 200.89 319.357 204.394 321.548 208.009C321.767 208.447 321.657 208.885 321.329 209.104C320.891 209.323 320.453 209.213 320.234 208.885C318.481 206.037 307.42 202.642 300.52 203.409C298.658 203.628 296.358 204.285 295.81 206.037C295.482 207.023 295.591 207.899 296.139 208.775C298.439 212.718 307.967 214.47 308.077 214.47C308.515 214.58 308.843 215.018 308.734 215.456C308.515 215.785 308.186 216.004 307.748 216.004Z" fill="#FF9343"/>
<path d="M346.957 204.065L357.471 271.312L324.067 281.607L307.419 277.664L301.943 215.894L316.948 205.708L346.957 204.065Z" fill="#C16196"/>
<g opacity="0.2">
<path d="M324.067 281.608L316.948 205.709L301.943 215.895L307.419 277.665L324.067 281.608Z" fill="white"/>
</g>
<path d="M323.957 210.528C323.738 210.528 323.519 210.418 323.409 210.309C323.19 210.089 317.276 203.628 317.495 197.604C317.605 195.414 318.481 193.442 320.233 191.909C322.314 190.047 325.052 189.609 328.009 190.704C334.471 193.004 341.152 201.985 342.028 207.351C342.138 207.79 341.809 208.228 341.371 208.337C340.933 208.447 340.495 208.118 340.385 207.68C339.619 202.752 333.266 194.428 327.462 192.347C325.052 191.471 322.971 191.799 321.328 193.223C319.905 194.428 319.248 195.961 319.138 197.714C318.919 203.08 324.505 209.213 324.614 209.213C324.943 209.542 324.943 210.089 324.614 210.418C324.395 210.418 324.176 210.528 323.957 210.528Z" fill="#FF9343"/>
<g opacity="0.2">
<path d="M323.957 210.528C323.738 210.528 323.519 210.418 323.409 210.309C323.19 210.089 317.276 203.628 317.495 197.604C317.605 195.414 318.481 193.442 320.233 191.909C322.314 190.047 325.052 189.609 328.009 190.704C334.471 193.004 341.152 201.985 342.028 207.351C342.138 207.79 341.809 208.228 341.371 208.337C340.933 208.447 340.495 208.118 340.385 207.68C339.619 202.752 333.266 194.428 327.462 192.347C325.052 191.471 322.971 191.799 321.328 193.223C319.905 194.428 319.248 195.961 319.138 197.714C318.919 203.08 324.505 209.213 324.614 209.213C324.943 209.542 324.943 210.089 324.614 210.418C324.395 210.418 324.176 210.528 323.957 210.528Z" fill="white"/>
</g>
<path d="M284.639 260.032C284.091 260.032 283.544 259.922 283.106 259.594L254.849 240.975C254.301 240.646 253.754 240.427 253.097 240.427H200.855L219.364 255.213C220.569 256.198 220.788 257.841 219.802 259.046C218.816 260.251 217.174 260.47 215.969 259.484L191.326 239.88C190.45 239.113 190.012 237.908 190.45 236.813C190.888 235.718 191.874 234.951 193.079 234.951H253.206C254.959 234.951 256.601 235.499 258.025 236.375L286.282 254.994C287.596 255.87 287.925 257.513 287.048 258.827C286.391 259.594 285.515 260.032 284.639 260.032Z" fill="#35425D"/>
<path d="M226.482 301.541L262.187 222.357L299.095 217.209L307.748 230.571L293.072 319.174L251.344 322.679L226.482 301.541Z" fill="#407BFF"/>
<path d="M226.482 301.541L262.187 222.357L299.095 217.209L307.748 230.571L293.072 319.174L251.344 322.679L226.482 301.541Z" fill="#EA88B4"/>
<g opacity="0.2">
<path d="M299.095 217.209L276.534 292.122L226.482 301.541L251.344 322.679L293.072 319.174L307.748 230.571L299.095 217.209Z" fill="black"/>
</g>
<g opacity="0.2">
<path d="M226.482 301.541L276.534 292.122L293.072 319.174L251.344 322.679L226.482 301.541Z" fill="black"/>
</g>
<path d="M271.058 232.323C270.839 232.323 270.511 232.323 270.292 232.323C266.349 232.213 264.158 231.228 263.611 229.585C262.735 226.518 267.992 222.575 269.087 221.809C269.415 221.59 269.963 221.59 270.182 222.028C270.401 222.356 270.401 222.904 269.963 223.123C267.663 224.766 264.706 227.613 265.144 229.037C265.254 229.475 266.02 230.461 270.292 230.68C282.668 231.118 288.472 220.823 288.582 220.713C288.801 220.275 289.348 220.166 289.677 220.385C290.115 220.604 290.225 221.152 290.005 221.48C289.896 221.59 283.872 232.323 271.058 232.323Z" fill="#541E5B"/>
<path d="M295.262 324.869L293.071 245.575L333.266 238.456L351.994 245.575L349.146 317.859L330.309 327.388L295.262 324.869Z" fill="#263238"/>
<path opacity="0.3" d="M333.266 238.456L330.309 327.388L349.146 317.859L351.994 245.575L333.266 238.456Z" fill="black"/>
<path d="M312.676 266.494C310.486 266.494 308.624 265.727 307.091 264.194C302.162 259.156 302.819 247.875 302.819 247.437C302.819 246.999 303.257 246.67 303.695 246.67C304.133 246.67 304.462 247.108 304.462 247.546C304.462 247.656 303.805 258.608 308.186 263.099C309.5 264.413 311.033 264.96 312.895 264.96C314.538 264.851 315.962 264.194 317.167 262.88C321.766 257.513 320.562 244.042 320.562 243.932C320.562 243.494 320.89 243.056 321.328 243.056C321.766 242.947 322.205 243.385 322.205 243.823C322.314 244.37 323.519 258.17 318.481 264.084C317.057 265.727 315.195 266.603 313.114 266.713C312.895 266.494 312.786 266.494 312.676 266.494Z" fill="#407BFF"/>
<g opacity="0.3">
<path d="M312.676 266.494C310.486 266.494 308.624 265.727 307.091 264.194C302.162 259.156 302.819 247.875 302.819 247.437C302.819 246.999 303.257 246.67 303.695 246.67C304.133 246.67 304.462 247.108 304.462 247.546C304.462 247.656 303.805 258.608 308.186 263.099C309.5 264.413 311.033 264.96 312.895 264.96C314.538 264.851 315.962 264.194 317.167 262.88C321.766 257.513 320.562 244.042 320.562 243.932C320.562 243.494 320.89 243.056 321.328 243.056C321.766 242.947 322.205 243.385 322.205 243.823C322.314 244.37 323.519 258.17 318.481 264.084C317.057 265.727 315.195 266.603 313.114 266.713C312.895 266.494 312.786 266.494 312.676 266.494Z" fill="black"/>
</g>
<path d="M370.066 385.763C368.204 382.477 363.275 381.711 359.223 384.12C355.171 386.529 353.309 391.129 355.28 394.415C357.142 397.701 362.071 398.467 366.123 396.058C370.175 393.648 371.928 389.048 370.066 385.763Z" fill="#263238"/>
<path d="M267.225 384.12C263.173 386.529 261.311 391.129 263.282 394.415C265.144 397.701 270.072 398.467 274.125 396.058C278.177 393.648 280.039 389.048 278.068 385.763C276.206 382.477 271.277 381.711 267.225 384.12Z" fill="#263238"/>
<path d="M358.018 387.516H268.758C267.224 387.516 266.02 386.311 266.02 384.778C266.02 383.244 267.224 382.04 268.758 382.04H358.018C358.894 382.04 359.661 381.273 359.661 380.397V373.278C359.661 372.511 359.113 371.854 358.346 371.635L284.529 355.645C277.957 354.221 273.138 348.307 273.138 341.516V327.607C273.138 326.074 274.343 324.869 275.877 324.869C277.41 324.869 278.615 326.074 278.615 327.607V341.516C278.615 345.678 281.572 349.402 285.624 350.278L359.442 366.268C362.727 366.926 365.027 369.883 365.027 373.278V380.397C365.137 384.34 361.961 387.516 358.018 387.516Z" fill="#35425D"/>
<path d="M357.908 293.107C357.908 292.998 357.908 292.998 357.908 292.888L361.084 275.255L364.37 257.075C364.48 256.308 364.261 255.432 363.822 254.884C363.275 254.227 362.508 253.898 361.742 253.898H352.104H326.914C325.38 253.898 324.176 255.103 324.176 256.636C324.176 258.17 325.38 259.375 326.914 259.375H336.88L335.128 271.97H260.105C258.572 271.97 257.367 273.174 257.367 274.708C257.367 276.241 258.572 277.446 260.105 277.446H334.361L332.609 289.712H264.596C263.062 289.712 261.858 290.917 261.858 292.45C261.858 293.983 263.062 295.188 264.596 295.188H331.842L330.09 307.893H269.086C267.553 307.893 266.348 309.097 266.348 310.631C266.348 312.164 267.553 313.369 269.086 313.369H329.323L327.68 324.869H320.561C319.028 324.869 317.823 326.073 317.823 327.607C317.823 329.14 319.028 330.345 320.561 330.345H348.818C350.132 330.345 351.227 329.359 351.556 328.045L354.623 311.178L357.908 293.107ZM352.98 289.712H349.147L351.337 277.446H355.17L352.98 289.712ZM351.994 295.188L349.694 307.893H345.97L348.161 295.188H351.994ZM356.265 271.97H352.323L354.513 259.375H358.456L356.265 271.97ZM342.466 259.375H348.927L346.737 271.97H340.713L342.466 259.375ZM339.947 277.446H345.751L343.561 289.712H338.194L339.947 277.446ZM337.428 295.188H342.575L340.385 307.893H335.675L337.428 295.188ZM334.909 313.369H339.399L337.428 324.869H333.266L334.909 313.369ZM343.013 324.869L344.985 313.369H348.708L346.628 324.869H343.013Z" fill="#35425D"/>
<path d="M328.995 254.775C328.447 254.227 327.79 253.898 327.023 253.898H215.53C214.654 253.898 213.887 254.227 213.34 254.884C212.792 255.541 212.573 256.417 212.792 257.184L216.844 275.255L228.892 328.264C229.22 329.469 230.315 330.345 231.52 330.345H320.561C321.985 330.345 323.19 329.249 323.3 327.826L329.542 256.746C329.761 256.089 329.542 255.322 328.995 254.775ZM319.685 307.893H306.981L307.528 295.188H320.781L319.685 307.893ZM249.153 324.869L247.62 313.369H261.31L262.186 324.869H249.153ZM265.143 289.712L264.267 277.336H282.338V289.712H265.143ZM282.229 295.188V307.893H266.458L265.582 295.188H282.229ZM287.705 277.446H302.819L302.271 289.822H287.705V277.446ZM287.705 271.97V259.375H303.586L303.038 271.97H287.705ZM282.229 271.97H263.829L262.953 259.375H282.338V271.97H282.229ZM258.353 271.97H242.363L240.72 259.375H257.477L258.353 271.97ZM258.791 277.446L259.667 289.822H244.663L243.02 277.446H258.791ZM239.077 289.712H225.825L222.977 277.336H237.434L239.077 289.712ZM227.139 295.188H239.844L241.487 307.893H230.096L227.139 295.188ZM245.32 295.188H259.996L260.872 307.893H246.853L245.32 295.188ZM266.896 313.369H282.338V324.869H267.662L266.896 313.369ZM287.705 313.369H301.176L300.629 324.869H287.595V313.369H287.705ZM287.705 307.893V295.188H302.052L301.505 307.893H287.705ZM307.747 289.712L308.295 277.336H322.423L321.328 289.712H307.747ZM322.861 271.97H308.514L309.062 259.375H323.957L322.861 271.97ZM235.134 259.375L236.777 271.97H221.773L218.925 259.375H235.134ZM231.301 313.369H242.144L243.677 324.869H233.93L231.301 313.369ZM306.214 324.869L306.762 313.369H319.247L318.262 324.869H306.214Z" fill="#757F95"/>
<path d="M314.209 387.516H224.949C223.416 387.516 222.211 386.311 222.211 384.778C222.211 383.244 223.416 382.04 224.949 382.04H314.209C315.085 382.04 315.852 381.273 315.852 380.397V373.278C315.852 372.511 315.305 371.854 314.538 371.635L240.72 355.645C234.149 354.221 229.33 348.307 229.33 341.516V327.607C229.33 326.074 230.535 324.869 232.068 324.869C233.601 324.869 234.806 326.074 234.806 327.607V341.516C234.806 345.678 237.763 349.402 241.815 350.278L315.633 366.268C318.919 366.926 321.219 369.883 321.219 373.278V380.397C321.328 384.34 318.152 387.516 314.209 387.516Z" fill="#757F95"/>
<path d="M317.856 396.025C321.941 393.666 323.709 389.078 321.804 385.778C319.898 382.478 315.041 381.715 310.956 384.074C306.87 386.433 305.102 391.021 307.008 394.321C308.913 397.621 313.77 398.384 317.856 396.025Z" fill="#263238"/>
<path d="M316.51 387.735C317.496 389.378 316.62 391.568 314.539 392.773C312.567 393.978 310.158 393.54 309.172 391.897C308.186 390.254 309.063 388.064 311.143 386.859C313.224 385.764 315.634 386.092 316.51 387.735Z" fill="#757F95"/>
<path d="M225.858 396.024C229.944 393.665 231.712 389.077 229.806 385.777C227.901 382.477 223.044 381.714 218.959 384.073C214.873 386.432 213.105 391.02 215.01 394.32C216.916 397.62 221.773 398.383 225.858 396.024Z" fill="#263238"/>
<path d="M224.511 387.735C225.497 389.378 224.621 391.568 222.54 392.773C220.459 393.978 218.159 393.54 217.173 391.897C216.187 390.254 217.064 388.064 219.144 386.859C221.225 385.764 223.635 386.092 224.511 387.735Z" fill="#757F95"/>
<path d="M261.749 202.204C262.187 202.533 262.844 202.642 263.391 202.423L274.563 199.357C275.548 199.028 276.205 198.042 275.986 197.057L273.796 185.228C273.686 184.681 273.358 184.133 272.92 183.914L254.082 172.086C253.206 171.538 252.001 171.757 251.344 172.633L241.487 186.324C240.83 187.309 241.049 188.623 242.035 189.171L261.749 202.204ZM271.605 195.742C272.044 195.085 272.92 195.085 273.577 195.523C274.234 195.961 274.234 196.838 273.796 197.495C273.358 198.152 272.482 198.152 271.825 197.714C271.277 197.276 271.167 196.4 271.605 195.742Z" fill="#407BFF"/>
<path d="M264.268 182.6C266.02 184.024 266.349 185.995 265.363 187.31C264.268 188.624 262.406 188.843 260.763 187.419C259.011 185.995 258.573 184.133 259.668 182.71C260.653 181.286 262.515 181.286 264.268 182.6ZM263.282 183.805C262.077 182.819 261.201 182.929 260.763 183.586C260.215 184.243 260.325 185.119 261.639 186.214C262.844 187.09 263.72 186.981 264.158 186.433C264.596 185.886 264.596 184.791 263.282 183.805ZM253.315 179.533L254.63 177.891L260.653 193.224L259.339 194.867L253.315 179.533ZM253.096 185.776C254.849 187.2 255.177 189.171 254.192 190.486C253.096 191.8 251.235 192.019 249.592 190.595C247.839 189.171 247.401 187.31 248.497 185.886C249.592 184.462 251.454 184.352 253.096 185.776ZM252.111 186.981C250.906 185.995 250.03 186.105 249.592 186.762C249.044 187.419 249.154 188.295 250.468 189.39C251.673 190.267 252.549 190.157 252.987 189.609C253.535 188.952 253.425 187.967 252.111 186.981Z" fill="white"/>
<path d="M328.557 273.065C328.338 272.518 327.791 272.079 327.243 271.97L316.072 268.794C315.086 268.465 313.991 269.013 313.662 269.999L309.391 281.279C309.172 281.827 309.172 282.374 309.5 282.922L319.467 302.855C319.905 303.841 321.11 304.279 322.095 303.841L337.648 297.379C338.743 296.941 339.181 295.736 338.743 294.641L328.557 273.065ZM316.838 273.394C316.072 273.613 315.305 273.284 315.086 272.627C314.867 271.86 315.196 271.094 315.853 270.875C316.619 270.656 317.386 270.984 317.605 271.641C317.934 272.298 317.496 273.065 316.838 273.394Z" fill="#407BFF"/>
<path opacity="0.6" d="M328.557 273.065C328.338 272.518 327.791 272.079 327.243 271.97L316.072 268.794C315.086 268.465 313.991 269.013 313.662 269.999L309.391 281.279C309.172 281.827 309.172 282.374 309.5 282.922L319.467 302.855C319.905 303.841 321.11 304.279 322.095 303.841L337.648 297.379C338.743 296.941 339.181 295.736 338.743 294.641L328.557 273.065ZM316.838 273.394C316.072 273.613 315.305 273.284 315.086 272.627C314.867 271.86 315.196 271.094 315.853 270.875C316.619 270.656 317.386 270.984 317.605 271.641C317.934 272.298 317.496 273.065 316.838 273.394Z" fill="white"/>
<path d="M316.182 288.508C315.415 286.317 316.182 284.565 317.715 283.908C319.358 283.251 321.001 284.127 321.767 286.208C322.534 288.398 321.986 290.151 320.234 290.808C318.591 291.465 316.948 290.479 316.182 288.508ZM317.715 287.96C318.263 289.384 319.029 289.713 319.796 289.493C320.563 289.165 321.001 288.398 320.343 286.865C319.796 285.441 318.92 285.113 318.263 285.332C317.605 285.441 317.058 286.427 317.715 287.96ZM323.958 296.722L321.986 297.489L324.834 281.279L326.805 280.513L323.958 296.722ZM327.353 291.574C326.586 289.384 327.353 287.632 328.886 286.974C330.529 286.317 332.172 287.194 332.938 289.274C333.705 291.465 333.158 293.217 331.405 293.874C329.762 294.531 328.12 293.655 327.353 291.574ZM328.777 291.027C329.324 292.451 330.091 292.779 330.858 292.56C331.624 292.232 332.062 291.465 331.405 289.932C330.858 288.508 329.981 288.179 329.324 288.398C328.667 288.617 328.229 289.493 328.777 291.027Z" fill="#263238"/>
<path d="M223.854 270.984C224.73 270.655 225.278 269.888 225.606 269.012L230.754 251.598C231.192 250.065 230.425 248.313 228.892 247.765L211.368 240.865C210.492 240.536 209.616 240.537 208.849 240.975L177.636 256.198C176.102 256.965 175.445 258.717 176.102 260.25L185.959 284.674C186.616 286.317 188.588 287.083 190.231 286.317L223.854 270.984ZM223.416 252.584C222.978 251.489 223.635 250.174 224.73 249.846C225.825 249.408 227.14 250.065 227.468 251.16C227.906 252.255 227.249 253.57 226.154 253.898C225.059 254.227 223.854 253.679 223.416 252.584Z" fill="#263238"/>
<path d="M199.978 251.379C203.373 250.174 206.221 251.379 207.097 253.898C207.973 256.417 206.659 259.045 203.483 260.14C200.088 261.345 197.35 260.36 196.364 257.621C195.269 255.102 196.692 252.583 199.978 251.379ZM200.745 253.679C198.554 254.445 198.007 255.76 198.335 256.855C198.773 258.06 200.088 258.717 202.497 257.841C204.688 257.074 205.235 255.65 204.907 254.555C204.578 253.569 203.154 252.803 200.745 253.679ZM186.835 263.317L185.74 260.25L210.93 264.959L212.025 268.026L186.835 263.317ZM194.94 268.683C198.335 267.478 201.183 268.683 202.059 271.202C202.935 273.721 201.621 276.35 198.445 277.445C195.05 278.65 192.312 277.664 191.326 274.926C190.231 272.407 191.654 269.888 194.94 268.683ZM195.707 270.983C193.516 271.75 192.969 273.064 193.297 274.159C193.735 275.364 195.05 276.021 197.459 275.145C199.65 274.378 200.197 272.955 199.869 271.859C199.54 270.874 198.116 270.216 195.707 270.983Z" fill="white"/>
<path d="M226.482 250.941C226.482 250.941 261.858 243.822 267.115 229.146" stroke="#541E5B" stroke-miterlimit="10" stroke-linecap="round" stroke-linejoin="round"/>
<path d="M273.796 197.495C273.796 197.495 285.186 209.433 296.686 205.819" stroke="#263238" stroke-miterlimit="10" stroke-linecap="round" stroke-linejoin="round"/>
<path d="M316.291 271.97C316.291 271.97 313.334 269.451 313.881 263.646" stroke="#407BFF" stroke-miterlimit="10" stroke-linecap="round" stroke-linejoin="round"/>
</g>
<defs>
<clipPath id="clip0_1928_2591">
<rect width="547.609" height="408.079" fill="white" transform="translate(0.429688 0.0273438)"/>
</clipPath>
</defs>
</svg>
