<svg width="33" height="27" viewBox="0 0 33 27" fill="none" xmlns="http://www.w3.org/2000/svg">
<g filter="url(#filter0_d_293_4005)">
<path d="M8.57812 13.1187C8.57812 12.6679 8.94327 12.3027 9.39411 12.3027H11.8421C12.2929 12.3027 12.658 12.6679 12.658 13.1187C12.658 13.5696 12.2929 13.9347 11.8421 13.9347H9.39411C8.94327 13.9347 8.57812 13.5696 8.57812 13.1187Z" fill="white"/>
<path fill-rule="evenodd" clip-rule="evenodd" d="M4.49805 3.32643C4.49805 1.52414 5.95969 0.0625 7.76198 0.0625H25.7136C27.5159 0.0625 28.9775 1.52414 28.9775 3.32643V14.7502C28.9775 16.5525 27.5159 18.0141 25.7136 18.0141H7.76198C5.95969 18.0141 4.49805 16.5525 4.49805 14.7502V3.32643ZM7.76198 1.69447C6.86032 1.69447 6.13001 2.42478 6.13001 3.32643V4.14242H27.3456V3.32643C27.3456 2.42478 26.6153 1.69447 25.7136 1.69447H7.76198ZM27.3456 5.77438H6.13001V14.7502C6.13001 15.6518 6.86032 16.3822 7.76198 16.3822H25.7136C26.6153 16.3822 27.3456 15.6518 27.3456 14.7502V5.77438Z" fill="white"/>
</g>
<defs>
<filter id="filter0_d_293_4005" x="0.498047" y="0.0625" width="32.4805" height="25.9512" filterUnits="userSpaceOnUse" color-interpolation-filters="sRGB">
<feFlood flood-opacity="0" result="BackgroundImageFix"/>
<feColorMatrix in="SourceAlpha" type="matrix" values="0 0 0 0 0 0 0 0 0 0 0 0 0 0 0 0 0 0 127 0" result="hardAlpha"/>
<feOffset dy="4"/>
<feGaussianBlur stdDeviation="2"/>
<feComposite in2="hardAlpha" operator="out"/>
<feColorMatrix type="matrix" values="0 0 0 0 0 0 0 0 0 0 0 0 0 0 0 0 0 0 0.25 0"/>
<feBlend mode="normal" in2="BackgroundImageFix" result="effect1_dropShadow_293_4005"/>
<feBlend mode="normal" in="SourceGraphic" in2="effect1_dropShadow_293_4005" result="shape"/>
</filter>
</defs>
</svg>
