<svg width="167" height="8" viewBox="0 0 167 8" fill="none" xmlns="http://www.w3.org/2000/svg">
<path d="M67.8236 7.25232C66.0855 7.29138 64.5427 6.88125 63.5466 6.21724C61.9647 5.14311 60.0899 4.61582 58.176 4.61582H57.7854L57.0628 4.63535V4.61582H1.44233C1.11033 4.61582 0.836914 4.3424 0.836914 4.0104C0.836914 3.67839 1.11033 3.40497 1.44233 3.40497H53.6451C55.5395 3.40497 57.4339 3.03391 59.1915 2.29179C60.0704 1.92072 61.164 1.68637 62.3553 1.64731C64.0154 1.60825 65.4996 1.97931 66.4956 2.60426C68.2338 3.67839 70.1672 4.3424 72.2178 4.30334L73.1162 4.28381C73.1357 5.84618 70.7726 7.19373 67.8236 7.25232Z" fill="#E987B4"/>
<path d="M165.57 4.61595H113.367C111.473 4.61595 109.578 4.98701 107.821 5.72914C106.942 6.1002 105.848 6.33456 104.657 6.37362C102.997 6.41268 101.513 6.04162 100.517 5.41667C98.7784 4.34254 96.845 3.67853 94.8139 3.71759H94.56C94.6186 5.90491 91.3571 7.76023 87.2754 7.85788C84.9905 7.91646 82.9203 7.38916 81.5533 6.54939C79.1706 5.06513 76.4755 4.14724 73.6633 4.20583L72.6868 4.22536H72.4329C72.3743 2.03804 75.6358 0.182722 79.7175 0.0850739C82.0024 0.026485 84.0726 0.553776 85.4397 1.39355C87.8223 2.87781 90.5174 3.79571 93.3296 3.73712L93.9155 3.71759C93.8765 2.13568 96.2396 0.788132 99.1885 0.710013C100.849 0.670954 102.333 1.04202 103.329 1.66697C105.047 2.72157 106.961 3.38558 108.973 3.36605H109.207L109.93 3.34652V3.36605H165.55C165.882 3.36605 166.156 3.63946 166.156 3.97147C166.175 4.34253 165.902 4.61595 165.57 4.61595Z" fill="#E987B4"/>
</svg>
