<svg width="167" height="9" viewBox="0 0 167 9" fill="none" xmlns="http://www.w3.org/2000/svg">
<path d="M67.8236 7.86951C66.0855 7.90857 64.5427 7.49844 63.5466 6.83443C61.9647 5.7603 60.0899 5.233 58.176 5.233H57.7854L57.0628 5.25253V5.233H1.44233C1.11033 5.233 0.836914 4.95959 0.836914 4.62758C0.836914 4.29558 1.11033 4.02216 1.44233 4.02216H53.6451C55.5395 4.02216 57.4339 3.6511 59.1915 2.90898C60.0704 2.53791 61.164 2.30356 62.3553 2.2645C64.0154 2.22544 65.4996 2.5965 66.4956 3.22144C68.2338 4.29558 70.1672 4.95959 72.2178 4.92053L73.1162 4.901C73.1357 6.46337 70.7726 7.81092 67.8236 7.86951Z" fill="#C576AC"/>
<path d="M165.57 5.23314H113.367C111.473 5.23314 109.578 5.6042 107.821 6.34633C106.942 6.71739 105.848 6.95175 104.657 6.99081C102.997 7.02987 101.513 6.6588 100.517 6.03386C98.7784 4.95972 96.845 4.29571 94.8139 4.33477H94.56C94.6186 6.52209 91.3571 8.37741 87.2754 8.47506C84.9905 8.53365 82.9203 8.00635 81.5533 7.16657C79.1706 5.68232 76.4755 4.76443 73.6633 4.82301L72.6868 4.84255H72.4329C72.3743 2.65522 75.6358 0.79991 79.7175 0.702261C82.0024 0.643672 84.0726 1.17096 85.4397 2.01074C87.8223 3.49499 90.5174 4.41289 93.3296 4.3543L93.9155 4.33477C93.8765 2.75287 96.2396 1.40532 99.1885 1.3272C100.849 1.28814 102.333 1.65921 103.329 2.28416C105.047 3.33876 106.961 4.00277 108.973 3.98324H109.207L109.93 3.96371V3.98324H165.55C165.882 3.98324 166.156 4.25665 166.156 4.58866C166.175 4.95972 165.902 5.23314 165.57 5.23314Z" fill="#C576AC"/>
</svg>
