<svg width="285" height="326" viewBox="0 0 285 326" fill="none" xmlns="http://www.w3.org/2000/svg">
<path d="M243.25 2.08496H9.6417C4.43134 2.08496 0.20752 6.30879 0.20752 11.5191V177.434C0.20752 182.644 4.43134 186.868 9.6417 186.868H243.25C248.46 186.868 252.684 182.644 252.684 177.434V11.5191C252.684 6.30879 248.46 2.08496 243.25 2.08496Z" fill="#F3F3F3"/>
<path d="M184.901 30.7842H112.144C108.837 30.7842 106.156 33.4652 106.156 36.7724V152.181C106.156 155.488 108.837 158.169 112.144 158.169H184.901C188.208 158.169 190.889 155.488 190.889 152.181V36.7724C190.889 33.4652 188.208 30.7842 184.901 30.7842Z" fill="white" stroke="#D9E6FF" stroke-width="2.11" stroke-miterlimit="10"/>
<path d="M91.7006 30.7842H18.9438C15.6366 30.7842 12.9556 33.4652 12.9556 36.7724V152.181C12.9556 155.488 15.6366 158.169 18.9438 158.169H91.7006C95.0078 158.169 97.6887 155.488 97.6887 152.181V36.7724C97.6887 33.4652 95.0078 30.7842 91.7006 30.7842Z" fill="white" stroke="#D9E6FF" stroke-width="2.11" stroke-miterlimit="10"/>
<path d="M243.858 2.08496H9.04446C6.70168 2.08496 4.45476 3.01527 2.79767 4.67137C1.14057 6.32748 0.208921 8.57383 0.20752 10.9166L0.20752 20.2292H252.684V10.9166C252.684 8.57523 251.754 6.32967 250.099 4.67356C248.444 3.01746 246.199 2.08636 243.858 2.08496Z" fill="#C576AC"/>
<path d="M229.313 10.7789C229.313 11.0925 229.22 11.3991 229.046 11.6598C228.871 11.9206 228.624 12.1238 228.334 12.2438C228.044 12.3638 227.725 12.3952 227.418 12.334C227.11 12.2729 226.828 12.1219 226.606 11.9001C226.384 11.6784 226.233 11.3958 226.172 11.0883C226.111 10.7807 226.142 10.4619 226.262 10.1722C226.382 9.88244 226.586 9.6348 226.846 9.46058C227.107 9.28635 227.414 9.19336 227.727 9.19336C228.148 9.19336 228.551 9.36041 228.848 9.65776C229.146 9.95512 229.313 10.3584 229.313 10.7789Z" fill="white"/>
<path d="M236.881 10.7789C236.881 11.0925 236.788 11.3991 236.614 11.6598C236.44 11.9206 236.192 12.1238 235.902 12.2438C235.613 12.3638 235.294 12.3952 234.986 12.334C234.679 12.2729 234.396 12.1219 234.174 11.9001C233.953 11.6784 233.802 11.3958 233.74 11.0883C233.679 10.7807 233.711 10.4619 233.831 10.1722C233.951 9.88244 234.154 9.6348 234.415 9.46058C234.675 9.28635 234.982 9.19336 235.296 9.19336C235.716 9.19336 236.119 9.36041 236.417 9.65776C236.714 9.95512 236.881 10.3584 236.881 10.7789Z" fill="white"/>
<path d="M244.455 10.7789C244.455 11.0925 244.362 11.3991 244.188 11.6598C244.014 11.9206 243.766 12.1238 243.476 12.2438C243.186 12.3638 242.868 12.3952 242.56 12.334C242.252 12.2729 241.97 12.1219 241.748 11.9001C241.526 11.6784 241.375 11.3958 241.314 11.0883C241.253 10.7807 241.284 10.4619 241.405 10.1722C241.525 9.88244 241.728 9.6348 241.988 9.46058C242.249 9.28635 242.556 9.19336 242.869 9.19336C243.29 9.19336 243.693 9.36041 243.991 9.65776C244.288 9.95512 244.455 10.3584 244.455 10.7789Z" fill="white"/>
<path d="M238.037 174.236C244.487 167.785 244.487 157.328 238.037 150.878C231.587 144.428 221.129 144.428 214.679 150.878C208.229 157.328 208.229 167.785 214.679 174.236C221.129 180.686 231.587 180.686 238.037 174.236Z" fill="#A0C4FA"/>
<path d="M225.069 170.394C225.069 170.664 224.989 170.927 224.839 171.151C224.689 171.376 224.476 171.55 224.227 171.654C223.978 171.757 223.704 171.784 223.439 171.731C223.174 171.679 222.932 171.549 222.741 171.358C222.55 171.167 222.42 170.924 222.368 170.66C222.315 170.395 222.342 170.121 222.445 169.872C222.548 169.623 222.723 169.41 222.947 169.26C223.172 169.11 223.435 169.03 223.705 169.03C224.066 169.032 224.412 169.176 224.668 169.431C224.923 169.687 225.067 170.033 225.069 170.394Z" stroke="white" stroke-width="1.5" stroke-miterlimit="10"/>
<path d="M230.824 170.394C230.824 170.664 230.744 170.927 230.594 171.151C230.445 171.376 230.232 171.55 229.982 171.654C229.733 171.757 229.459 171.784 229.195 171.731C228.93 171.679 228.687 171.549 228.496 171.358C228.306 171.167 228.176 170.924 228.123 170.66C228.071 170.395 228.098 170.121 228.201 169.872C228.304 169.623 228.479 169.41 228.703 169.26C228.927 169.11 229.191 169.03 229.461 169.03C229.822 169.032 230.168 169.176 230.423 169.431C230.679 169.687 230.823 170.033 230.824 170.394Z" stroke="white" stroke-width="1.5" stroke-miterlimit="10"/>
<path d="M223.393 157.567H233.768C233.92 157.574 234.068 157.617 234.2 157.69C234.333 157.764 234.448 157.866 234.535 157.991C234.622 158.115 234.679 158.258 234.703 158.408C234.727 158.558 234.716 158.711 234.672 158.856L230.787 165.922C230.763 166.026 230.705 166.118 230.623 166.185C230.541 166.252 230.439 166.289 230.333 166.292H222.188C222.034 166.286 221.887 166.224 221.776 166.117C221.665 166.009 221.597 165.865 221.586 165.711L220.259 154.987H218.008" stroke="white" stroke-width="1.5" stroke-miterlimit="10" stroke-linecap="round"/>
<path d="M229.461 166.292H232.457" stroke="white" stroke-width="1.5" stroke-miterlimit="10" stroke-linecap="round"/>
<path d="M229.556 169.051H221.866C221.073 169.051 219.963 169.168 219.963 167.682C219.963 166.197 221.073 166.287 221.866 166.287H227.96" stroke="white" stroke-width="1.5" stroke-miterlimit="10" stroke-linecap="round"/>
<path d="M254.893 29.1662L250.834 35.8732L252.076 40.4872L276.172 55.0375L284.1 41.6922L260.02 27.1631L254.893 29.1662ZM257.652 35.3129C257.527 35.5197 257.344 35.6847 257.125 35.7872C256.906 35.8897 256.662 35.925 256.423 35.8886C256.185 35.8523 255.962 35.7459 255.784 35.583C255.605 35.4201 255.479 35.2079 255.422 34.9734C255.364 34.7388 255.377 34.4924 255.459 34.2653C255.542 34.0383 255.69 33.8407 255.884 33.6977C256.079 33.5547 256.312 33.4727 256.553 33.462C256.794 33.4512 257.033 33.5123 257.24 33.6375C257.517 33.8052 257.715 34.0758 257.793 34.3899C257.87 34.7041 257.819 35.036 257.652 35.3129Z" fill="#FF7F7A"/>
<path d="M198.452 1.83125C201.423 1.01869 204.489 0.608068 207.569 0.610361C210.67 0.610919 213.727 1.34436 216.491 2.75089C217.853 3.48114 219.1 4.40908 220.19 5.50451C221.277 6.60675 222.208 7.85134 222.96 9.20418C224.503 11.8785 225.529 14.7907 226.934 17.4967C228.274 20.2323 230.05 22.7314 232.193 24.8961C234.372 27.0267 236.888 28.7822 239.64 30.0915C242.389 31.4104 245.284 32.4003 248.266 33.0407C251.247 33.6957 254.273 34.1251 257.319 34.325L257.277 34.8535C254.205 34.6381 251.154 34.1911 248.149 33.5163C245.134 32.8522 242.207 31.8357 239.429 30.4879C236.641 29.1453 234.094 27.3505 231.892 25.1762C229.731 22.9673 227.945 20.4196 226.607 17.6342C225.206 14.8964 224.186 11.9842 222.674 9.33632C221.947 8.00135 221.04 6.7725 219.979 5.6842C218.914 4.62446 217.7 3.72694 216.374 3.02044C213.649 1.61642 210.629 0.880896 207.564 0.874624C204.506 0.861469 201.46 1.25425 198.505 2.04266L198.452 1.83125Z" fill="#2A2E54"/>
<path d="M55.3223 100.501L30.0693 96.4949V60.4072L55.3223 64.4134V100.501Z" fill="#BD9A7B"/>
<path d="M55.3223 64.4138L30.0693 60.4129L51.5962 56.4014L76.8544 60.4076L55.3223 64.4138Z" fill="#EBC9AA"/>
<path d="M55.3223 100.501L76.8544 96.4949V60.4072L55.3223 64.4134V100.501Z" fill="#D6B392"/>
<path d="M76.8542 78.8002C80.3511 78.8002 83.1859 75.9654 83.1859 72.4685C83.1859 68.9715 80.3511 66.1367 76.8542 66.1367C73.3573 66.1367 70.5225 68.9715 70.5225 72.4685C70.5225 75.9654 73.3573 78.8002 76.8542 78.8002Z" fill="#FF7F7A"/>
<path d="M153.226 100.501L127.973 96.4949V60.4072L153.226 64.4134V100.501Z" fill="#BD9A7B"/>
<path d="M153.226 64.4138L127.973 60.4129L149.5 56.4014L174.758 60.4076L153.226 64.4138Z" fill="#EBC9AA"/>
<path d="M153.226 100.501L174.758 96.4949V60.4072L153.226 64.4134V100.501Z" fill="#D6B392"/>
<path d="M174.758 78.8002C178.255 78.8002 181.09 75.9654 181.09 72.4685C181.09 68.9715 178.255 66.1367 174.758 66.1367C171.261 66.1367 168.427 68.9715 168.427 72.4685C168.427 75.9654 171.261 78.8002 174.758 78.8002Z" fill="#FF7F7A"/>
<path d="M76.3293 76.1093V68.9062H76.9577V76.1093H76.3293ZM76.5669 75.2664C76.1479 75.2664 75.7469 75.2077 75.3638 75.0902C74.9806 74.9676 74.6767 74.8118 74.4519 74.6227L74.7967 73.8488C75.0113 74.0174 75.2769 74.1579 75.5937 74.2702C75.9104 74.3826 76.2348 74.4388 76.5669 74.4388C76.8478 74.4388 77.0752 74.4082 77.2488 74.3469C77.4225 74.2856 77.5503 74.2038 77.632 74.1017C77.7137 73.9944 77.7546 73.8743 77.7546 73.7415C77.7546 73.578 77.6958 73.4478 77.5783 73.3507C77.4609 73.2485 77.3076 73.1694 77.1186 73.1132C76.9347 73.0519 76.7278 72.9957 76.4979 72.9446C76.2731 72.8935 76.0458 72.8347 75.8159 72.7683C75.5911 72.6968 75.3842 72.6074 75.1952 72.5001C75.0113 72.3877 74.8606 72.2396 74.7431 72.0557C74.6256 71.8718 74.5668 71.6368 74.5668 71.3507C74.5668 71.0595 74.6435 70.7939 74.7967 70.5538C74.9551 70.3086 75.1926 70.1144 75.5094 69.9714C75.8312 69.8232 76.2373 69.7492 76.7278 69.7492C77.0496 69.7492 77.3689 69.79 77.6856 69.8718C78.0024 69.9535 78.2782 70.071 78.5132 70.2243L78.199 70.9982C77.9589 70.8552 77.7112 70.7504 77.4557 70.684C77.2003 70.6125 76.9551 70.5768 76.7201 70.5768C76.4442 70.5768 76.2195 70.61 76.0458 70.6764C75.8772 70.7428 75.752 70.8296 75.6703 70.9369C75.5937 71.0442 75.5554 71.1668 75.5554 71.3047C75.5554 71.4682 75.6115 71.601 75.7239 71.7032C75.8414 71.8003 75.9921 71.8769 76.176 71.9331C76.3651 71.9893 76.5745 72.0455 76.8044 72.1017C77.0343 72.1527 77.2616 72.2115 77.4864 72.2779C77.7163 72.3443 77.9232 72.4312 78.1071 72.5384C78.2961 72.6457 78.4468 72.7913 78.5592 72.9752C78.6767 73.1591 78.7354 73.3916 78.7354 73.6725C78.7354 73.9586 78.6563 74.2243 78.4979 74.4695C78.3446 74.7096 78.1071 74.9037 77.7852 75.0519C77.4634 75.1949 77.0573 75.2664 76.5669 75.2664Z" fill="white"/>
<path d="M175.422 76.1093V68.9062H176.051V76.1093H175.422ZM175.66 75.2664C175.241 75.2664 174.84 75.2077 174.457 75.0902C174.074 74.9676 173.77 74.8118 173.545 74.6227L173.89 73.8488C174.104 74.0174 174.37 74.1579 174.687 74.2702C175.004 74.3826 175.328 74.4388 175.66 74.4388C175.941 74.4388 176.168 74.4082 176.342 74.3469C176.516 74.2856 176.643 74.2038 176.725 74.1017C176.807 73.9944 176.848 73.8743 176.848 73.7415C176.848 73.578 176.789 73.4478 176.672 73.3507C176.554 73.2485 176.401 73.1694 176.212 73.1132C176.028 73.0519 175.821 72.9957 175.591 72.9446C175.366 72.8935 175.139 72.8347 174.909 72.7683C174.684 72.6968 174.477 72.6074 174.288 72.5001C174.104 72.3877 173.954 72.2396 173.836 72.0557C173.719 71.8718 173.66 71.6368 173.66 71.3507C173.66 71.0595 173.737 70.7939 173.89 70.5538C174.048 70.3086 174.286 70.1144 174.603 69.9714C174.924 69.8232 175.331 69.7492 175.821 69.7492C176.143 69.7492 176.462 69.79 176.779 69.8718C177.096 69.9535 177.371 70.071 177.606 70.2243L177.292 70.9982C177.052 70.8552 176.804 70.7504 176.549 70.684C176.293 70.6125 176.048 70.5768 175.813 70.5768C175.537 70.5768 175.313 70.61 175.139 70.6764C174.97 70.7428 174.845 70.8296 174.763 70.9369C174.687 71.0442 174.649 71.1668 174.649 71.3047C174.649 71.4682 174.705 71.601 174.817 71.7032C174.935 71.8003 175.085 71.8769 175.269 71.9331C175.458 71.9893 175.668 72.0455 175.898 72.1017C176.127 72.1527 176.355 72.2115 176.58 72.2779C176.809 72.3443 177.016 72.4312 177.2 72.5384C177.389 72.6457 177.54 72.7913 177.652 72.9752C177.77 73.1591 177.829 73.3916 177.829 73.6725C177.829 73.9586 177.749 74.2243 177.591 74.4695C177.438 74.7096 177.2 74.9037 176.878 75.0519C176.557 75.1949 176.15 75.2664 175.66 75.2664Z" fill="white"/>
<path d="M24.99 121.854H60.2215" stroke="#D9E6FF" stroke-width="2.11" stroke-miterlimit="10"/>
<path d="M24.99 128.894H60.2215" stroke="#D9E6FF" stroke-width="2.11" stroke-miterlimit="10"/>
<path d="M24.99 135.939H60.2215" stroke="#D9E6FF" stroke-width="2.11" stroke-miterlimit="10"/>
<path d="M44.8256 60.2012L37.4263 61.5806L43.3828 62.5214L50.7768 61.1472L44.8256 60.2012Z" fill="#FF7F7A"/>
<path d="M43.3828 68.843V62.5218L37.4263 61.5811V67.6591L43.3828 68.843Z" fill="#C75F5F"/>
<path d="M223.853 85.708H239.957" stroke="#D9E6FF" stroke-width="2.11" stroke-miterlimit="10"/>
<path d="M223.853 91.416H239.957" stroke="#D9E6FF" stroke-width="2.11" stroke-miterlimit="10"/>
<path d="M223.853 97.1299H239.957" stroke="#D9E6FF" stroke-width="2.11" stroke-miterlimit="10"/>
<path d="M218.816 84.376H204.726V98.4612H218.816V84.376Z" fill="#D9E6FF"/>
<path d="M239.957 59.4932H204.726V73.5784H239.957V59.4932Z" fill="#D9E6FF"/>
<path d="M223.853 109.164H239.957" stroke="#D9E6FF" stroke-width="2.11" stroke-miterlimit="10"/>
<path d="M223.853 114.878H239.957" stroke="#D9E6FF" stroke-width="2.11" stroke-miterlimit="10"/>
<path d="M223.853 120.591H239.957" stroke="#D9E6FF" stroke-width="2.11" stroke-miterlimit="10"/>
<path d="M218.816 107.838H204.726V121.923H218.816V107.838Z" fill="#D9E6FF"/>
<path d="M39.6724 289.101C39.6724 289.101 54.4711 262.225 51.5272 251.417C51.5272 251.417 39.9472 271.448 39.6724 289.101Z" fill="#80BD82"/>
<path d="M43.0499 280.295C43.0499 280.295 36.1473 293.83 34.2446 305.315" stroke="#80BD82" stroke-width="2.11" stroke-miterlimit="10"/>
<path d="M31.0312 276.125C31.0312 276.125 38.79 290.178 38.1611 305.257" stroke="#80BD82" stroke-width="2.11" stroke-miterlimit="10"/>
<path d="M38.0181 272.41L36.7603 305.66" stroke="#80BD82" stroke-width="2.11" stroke-miterlimit="10"/>
<path d="M38.0182 276.183C38.0182 276.183 40.1323 234.197 29.213 221.169C29.213 221.169 26.9086 252.701 38.0182 276.183Z" fill="#80BD82"/>
<path d="M38.1662 282.367C38.1662 282.367 50.5496 241.581 43.0763 227.03C43.0763 227.03 33.0607 257.542 38.1662 282.367Z" fill="#47A68B"/>
<path d="M35.2487 288.255C35.2487 288.255 28.14 246.623 14.5728 235.402C14.5728 235.402 19.1868 266.76 35.2487 288.255Z" fill="#47A68B"/>
<path d="M28.304 293.91H45.6184L43.6048 313.788H30.3124L28.304 293.91Z" fill="#A0C4FA"/>
<g style="mix-blend-mode:multiply">
<path d="M43.3933 320.374C43.3933 323.37 72.0711 325.807 107.445 325.807C142.819 325.807 171.492 323.37 171.492 320.374C171.492 317.377 142.814 314.94 107.445 314.94C72.0764 314.94 43.3933 317.372 43.3933 320.374Z" fill="#E2E2E2"/>
</g>
<path d="M94.6444 113.202C94.6444 113.202 91.2513 101.532 91.0557 99.6449C90.8602 97.7581 89.7978 91.6325 92.8474 89.8355C95.897 88.0385 94.1 82.6317 97.3399 81.5482C100.892 80.3696 105.321 80.5757 108.999 80.6973C113.555 80.8506 119.448 82.9382 121.383 87.5681C122.815 90.9982 121.055 97.2243 120.278 100.781L94.6444 113.202Z" fill="#2A2A2A"/>
<path d="M118.396 113.017C118.037 114.661 117.339 115.66 116.494 116.273C113.693 118.313 109.047 116.526 107.736 120.675C107.456 121.579 106.88 122.821 106.61 124.047C106.329 124.948 106.412 125.924 106.843 126.764C107.065 127.118 107.482 127.477 107.371 127.932C107.26 128.386 106.732 128.64 106.341 128.788C105.515 129.03 104.647 129.097 103.793 128.984C100.173 128.704 93.1118 127.039 92.1287 122.736C91.8645 121.584 92.208 120.39 92.5463 119.259C93.8306 114.972 96.6635 109.148 95.9817 104.624C95.4057 104.307 94.8561 103.945 94.338 103.54C93.8606 102.929 93.622 102.164 93.6667 101.389C93.7407 99.7615 95.1836 98.086 96.6318 97.4042C99.2427 96.1781 100.257 99.6505 101.114 101.5C101.415 102.156 101.774 102.98 102.609 102.642C103.561 102.261 104.348 101.5 104.311 100.454C104.28 99.6293 104.058 98.8207 104.359 98.012C105.078 96.1464 107.35 95.2743 108.587 93.7838C109.491 92.6739 109.443 91.6697 109.48 90.3696C109.512 89.3918 110.59 89.0218 111.378 88.7206C112.836 88.192 115.363 87.2618 116.848 88.192C117.789 88.8051 118.111 90.1476 118.492 91.1306C118.914 92.2564 119.501 93.324 119.829 94.4815C121.192 99.4549 119.475 108.112 118.396 113.017Z" fill="#FCC1AB"/>
<path d="M119.823 94.5082C119.496 93.3507 118.909 92.2831 118.486 91.1573C118.106 90.1743 117.783 88.8318 116.842 88.2187C115.447 87.3255 113.143 88.0707 111.652 88.6204C111.843 95.042 112.709 101.453 108.143 106.062C106.705 108.223 101.663 105.343 100.939 107.499C98.3513 114.139 97.9441 121.431 99.7763 128.318C101.099 128.657 102.448 128.887 103.809 129.005C104.662 129.118 105.53 129.052 106.356 128.809C106.748 128.661 107.292 128.402 107.387 127.953C107.482 127.504 107.065 127.139 106.859 126.785C106.428 125.945 106.344 124.97 106.626 124.069C106.896 122.842 107.472 121.6 107.752 120.697C109.063 116.548 113.708 118.334 116.509 116.294C117.371 115.67 118.053 114.708 118.412 113.038C119.474 108.112 121.192 99.4552 119.823 94.5082Z" fill="#FCC1AB"/>
<path d="M115.484 116.484H115.669C114.29 117.43 112.609 117.388 111.029 117.805C109.448 118.223 108.249 119.063 107.736 120.686C107.387 121.796 106.959 122.99 106.568 124.042C105.622 123.238 105.548 121.621 105.315 120.49C105.102 119.43 104.984 118.353 104.961 117.271C104.898 114.132 107.604 115.39 109.633 115.728C111.564 116.117 113.519 116.37 115.484 116.484Z" fill="#E3A790"/>
<path d="M109.803 127.086C109.015 128.307 107.308 129.369 105.833 128.92C105.197 128.675 104.6 128.336 104.063 127.916C103.069 127.245 102.07 126.584 101.04 125.966C99.154 124.757 97.1404 123.761 95.0356 122.995C94.116 122.689 93.1646 122.562 92.2186 122.335C91.5473 122.176 91.0347 121.933 91.0558 121.167C91.1338 120.29 91.3111 119.425 91.5843 118.588C91.6794 117.937 91.988 117.336 92.4617 116.88C93.487 116.119 95.1942 116.991 96.1614 117.441C98.3547 118.498 100.353 119.867 102.419 121.114C104.149 122.121 105.988 122.928 107.9 123.519C108.994 123.883 110.315 124.386 110.236 125.776C110.208 126.243 110.058 126.694 109.803 127.086Z" fill="#C576AC"/>
<path d="M70.7288 311.161C68.0598 309.401 68.324 305.749 67.1613 303.16C65.5818 299.881 63.0657 297.144 59.931 295.295C56.522 293.318 51.2526 292.404 47.775 294.724C44.9896 296.574 41.5489 301.526 44.6619 304.449C51.1099 310.554 60.4014 316.42 68.916 319.036C70.7552 319.602 74.3016 321.431 75.6071 319.142C76.4105 317.731 77.0923 315.548 76.1092 313.941C74.9253 312.065 72.4359 312.282 70.7288 311.161Z" fill="#444444"/>
<path d="M107.525 244.435C106.467 248.759 106.515 253.24 103.296 256.776C102.486 257.631 101.592 258.403 100.627 259.081C99.956 259.577 99.2742 260.053 98.6189 260.55C97.0613 261.72 95.572 262.978 94.1581 264.318C91.4745 266.942 89.0268 269.796 86.8433 272.849C84.2007 276.39 81.7219 280.09 78.7199 283.329C77.3033 284.8 75.7977 286.182 74.2115 287.468C73.1456 288.262 72.2034 289.209 71.4156 290.28C70.8396 291.173 70.6229 292.235 70.0838 293.139C69.4073 294.265 68.0965 294.724 67.2826 295.739C66.8934 296.19 66.6037 296.717 66.4325 297.287C66.2612 297.858 66.2123 298.457 66.289 299.048C66.4581 300.142 67.2456 301.527 66.03 302.272C64.9254 302.943 63.4508 303.038 62.2299 303.329C60.1158 303.805 58.3135 304.264 56.3051 303.281C53.9849 302.145 52.7006 300.242 51.3053 298.16C50.707 297.384 49.9942 296.703 49.1912 296.141C48.8274 295.824 48.5358 295.432 48.3362 294.993C48.1365 294.553 48.0334 294.076 48.0337 293.593C47.9794 291.999 48.4926 290.437 49.4818 289.185C50.6446 287.647 52.2408 286.432 53.7101 285.153C55.1794 283.874 56.7174 282.51 58.1497 281.083C61.0578 278.207 63.6859 275.06 65.9983 271.686C68.3819 268.235 70.5542 264.635 72.9484 261.19C75.2193 257.892 77.8992 254.896 80.9238 252.273C83.7091 249.89 87.1974 247.643 88.8887 244.266C89.6392 242.792 90.0039 241.095 90.5377 239.557C92.525 233.743 90.9447 227.147 90.4584 221.09C90.0567 216.059 89.8189 210.462 93.0323 206.566L96.4519 207.391C97.511 207.188 98.6048 207.269 99.6231 207.623C100.336 207.87 101.012 208.213 101.631 208.644L105.257 209.526L104.422 211.112C107.47 214.407 109.68 218.388 110.865 222.718C111.314 224.298 111.613 225.918 111.758 227.554C112.318 233.706 108.941 238.516 107.525 244.435Z" fill="#22264D"/>
<g style="mix-blend-mode:multiply" opacity="0.5">
<path d="M107.525 244.435C106.467 248.758 106.515 253.24 103.296 256.776C102.486 257.631 101.592 258.403 100.627 259.08C99.6812 252.59 102.551 248.462 102.493 242.099C102.435 235.64 96.7955 232.707 96.0555 227.131C95.8177 225.334 95.601 223.542 95.3843 221.75C94.8558 217.263 94.174 211.904 99.956 213.97C100.792 214.268 101.601 214.639 102.371 215.08C105.601 216.867 108.587 219.768 110.891 222.691C111.34 224.271 111.639 225.891 111.784 227.527C112.318 233.706 108.941 238.515 107.525 244.435Z" fill="#374971"/>
</g>
<path d="M92.4246 208.014C92.5654 210.038 93.1042 212.013 94.0101 213.828C94.838 215.274 95.8745 216.59 97.0862 217.734C98.7034 219.319 100.49 220.741 102.075 222.369C103.549 223.961 104.811 225.738 105.828 227.654C108.254 231.946 110.505 236.359 113.344 240.407C114.612 242.215 116.245 243.721 117.535 245.513C118.269 246.544 118.396 247.796 119.015 248.869C119.76 250.138 120.912 251.026 121.303 252.505C121.579 253.534 121.551 254.621 121.224 255.634C120.923 256.549 120.463 257.4 120.167 258.314C119.824 259.294 119.559 260.299 119.374 261.321C119.025 263.182 118.846 265.063 118.629 266.934C118.042 272.542 117.45 278.144 116.89 283.757C116.647 286.141 116.435 288.514 116.33 290.935C116.245 292.737 116.129 294.634 116.531 296.415C116.837 297.805 117.588 298.767 117.059 300.221C116.62 301.436 115.727 302.372 115.167 303.519C114.438 305.03 114.306 306.811 114.11 308.455C113.978 309.48 113.581 311.098 114.21 312.091C114.839 313.085 116.605 312.81 117.598 312.652C119.773 312.331 121.911 311.8 123.983 311.066C125.809 310.381 127.554 309.495 129.184 308.423C130.685 307.461 132.582 306.309 133.475 304.724C134.215 303.408 134.088 301.743 134.146 300.295C134.22 298.255 134.897 296.384 135.203 294.375C135.869 289.846 135.119 285.216 135.732 280.671C136.06 278.287 136.694 275.972 137.096 273.604C137.481 271.363 137.407 269.128 137.455 266.85C137.454 265.212 137.744 263.587 138.311 262.051C138.935 260.428 139.934 258.879 140.119 257.125C140.32 255.116 139.965 252.976 139.738 250.983C139.513 248.746 139.065 246.536 138.401 244.387C137.672 242.167 136.377 240.196 135.526 238.045C134.543 235.577 133.792 233.013 132.962 230.487C131.44 225.836 129.527 221.338 127.746 216.788C126.89 214.605 126.16 212.369 125.251 210.197C124.83 209.009 124.156 207.927 123.275 207.026C122.506 206.317 121.91 205.442 121.53 204.468" fill="#22264D"/>
<path d="M91.0557 121.352C90.2576 122.155 89.4701 122.937 88.7355 123.809C85.5879 127.351 83.4936 131.703 82.6891 136.372C81.8752 141.066 82.4777 145.743 83.3921 150.378C84.3698 155.357 85.4639 160.314 86.4205 165.298C87.3137 169.992 87.9691 174.722 88.4448 179.479C88.931 184.373 87.9162 188.765 87.9162 193.654C87.9162 197.042 86.4681 200.171 86.6954 203.532C86.8539 205.894 87.171 209.414 89.4384 210.683C90.6961 211.292 92.0604 211.651 93.4552 211.74C100.902 212.649 104.877 213.748 112.07 211.211C115.447 210.022 119.358 209.827 122.545 208.13C123.729 207.506 124.469 207.184 124.786 205.831C124.918 205.271 124.606 202.554 123.729 202.575C125.077 202.544 125.843 200.799 125.389 199.52C124.749 197.649 123.306 197.026 122.788 195.065C122.128 192.554 122.233 189.621 121.99 187.042L120.838 174.738C120.008 168.295 119.221 161.837 118.259 155.415C117.281 148.888 116.494 142.202 114.559 135.86C113.557 132.666 111.941 129.698 109.802 127.123L91.0557 121.352Z" fill="#C576AC"/>
<path d="M90.0568 171.07C90.876 174.892 91.8115 178.935 94.5598 181.715C96.5999 183.781 99.4011 184.886 102.118 185.943L120.87 193.173C120.69 189.114 120.514 185.062 120.341 181.017C108.656 176.581 98.6393 168.62 91.6794 158.238C90.506 156.478 87.6414 150.104 87.0653 155.5C86.5527 160.283 89.0315 166.361 90.0568 171.07Z" fill="#9A4C81"/>
<path d="M108.492 151.367C109.517 158.523 107.435 165.965 109.216 172.973C108.92 171.805 106.658 169.987 105.913 168.919C104.883 167.44 103.963 165.887 103.159 164.273C101.526 160.981 100.369 157.474 99.7236 153.856C99.0733 150.243 98.9469 146.555 99.3483 142.905C99.5915 140.754 100.659 133.772 103.508 137.874C106.098 141.61 107.852 146.927 108.492 151.367Z" fill="#9A4C81"/>
<path d="M114.956 312.715C114.376 314.939 114.367 317.273 114.929 319.502C115.516 321.515 117.625 321.499 119.369 321.573C125.679 321.859 132.016 321.727 138.332 321.684C141.773 321.684 145.203 321.684 148.66 321.515C150.245 321.431 153.015 321.584 154.035 320.025C154.896 318.703 154.463 316.5 154.003 315.136C153.902 314.7 153.68 314.3 153.364 313.984C153.047 313.667 152.648 313.445 152.211 313.344C150.875 313.087 149.522 312.925 148.163 312.858C145.911 312.615 143.771 312.123 141.889 310.818C139.675 309.269 137.973 307.171 135.547 305.892C134.844 305.522 134.136 305.179 133.433 304.835" fill="#444444"/>
<path d="M172.385 148.227C172.417 148.391 172.385 148.618 172.385 148.872C172.417 149.369 172.443 149.855 172.475 150.346L173.405 165.896C173.585 168.936 173.761 171.975 173.934 175.013C174.226 179.893 174.517 184.769 174.806 189.642C174.869 190.757 174.933 191.883 175.001 192.998L153.284 194.288L150.267 194.468L137.582 195.229L122.514 196.127L122.064 196.154L119.839 196.286C119.543 191.216 119.244 186.147 118.941 181.08C118.455 172.997 117.972 164.918 117.493 156.842C117.382 154.982 117.276 153.142 117.16 151.266C117.69 151.281 118.22 151.251 118.745 151.176C120.204 151.086 121.657 150.996 123.116 150.917L137.175 150.082L153.845 149.089L167.375 148.285L171.249 148.053C171.55 147.991 171.857 147.972 172.163 147.994C172.219 148.008 172.269 148.037 172.309 148.078C172.348 148.119 172.375 148.171 172.385 148.227Z" fill="#C49D5A"/>
<path d="M173.324 148.338L117.676 151.108L119.88 195.397L175.529 192.626L173.324 148.338Z" fill="#D6B392"/>
<path d="M149.439 149.526L141.547 149.919L142.909 177.289L150.801 176.896L149.439 149.526Z" fill="#E5CB9C"/>
<path d="M173.204 148.486C173.236 148.65 173.204 148.877 173.204 149.131C173.236 149.628 173.263 150.114 173.294 150.611L174.23 166.166C174.409 169.199 174.594 172.244 174.758 175.277C175.047 180.154 175.338 185.03 175.63 189.907C175.694 191.022 175.757 192.148 175.826 193.263C168.589 193.693 161.35 194.123 154.109 194.553L151.091 194.732L138.38 195.493L123.354 196.387L119.86 196.286L168.807 188.475L172.063 148.307L173.204 148.486Z" fill="#BD9A7B"/>
<path d="M171.603 180.401L163.136 180.822L163.558 189.289L172.025 188.868L171.603 180.401Z" fill="#54656F"/>
<path d="M160.489 182.678L152.021 183.1L152.087 184.409L160.554 183.987L160.489 182.678Z" fill="#54656F"/>
<path d="M160.641 185.752L152.174 186.174L152.239 187.483L160.707 187.061L160.641 185.752Z" fill="#54656F"/>
<path d="M146.466 183.823C145.277 183.823 144.099 184.22 142.878 184.246C140.087 184.315 137.635 182.772 135.214 181.604C126.937 177.597 118.159 173.797 110.458 168.734C108.529 167.466 102.361 153.449 103.397 153.259L89.4702 155.833C91.394 162.328 92.0758 174.601 99.4118 177.65C105.167 180.05 110.854 182.761 116.695 184.933C122.878 187.232 129.49 188.062 135.69 190.298C140.542 192.047 144.278 197.169 149.669 197.227C150.732 197.211 151.792 197.116 152.84 196.941L156.16 196.471C156.739 196.427 157.304 196.271 157.824 196.011C158.083 195.879 158.299 195.675 158.446 195.424C158.593 195.173 158.665 194.885 158.654 194.595C158.126 194.685 156.604 193.009 155.885 192.761C154.299 192.232 152.941 191.704 152.349 190.06C153.168 192.512 156.519 191.709 158.215 190.964C155.472 188.644 151.345 184.949 147.825 183.982C147.383 183.861 146.925 183.807 146.466 183.823Z" fill="#FCC1AB"/>
<path d="M104.856 137.705C104.982 138.291 105.099 138.867 105.215 139.454C106.029 143.635 105.178 147.879 105.215 152.086C105.215 153.233 105.342 154.369 105.453 155.505C105.535 156.056 105.551 156.615 105.5 157.17C105.284 158.576 103.577 158.121 102.588 157.958C98.8885 157.329 95.0356 157.397 91.5579 159.015C90.8444 159.348 90.0991 159.903 89.3116 160.072C88.6193 160.214 88.4079 159.696 88.2546 159.105C87.8265 157.281 87.6679 155.405 87.1711 153.592C86.5633 151.309 85.8181 149.063 85.1891 146.79C84.6599 144.736 84.3063 142.641 84.1321 140.527C83.6036 135.3 83.4873 128.767 89.8296 126.986C95.2153 125.469 103.767 132.546 104.856 137.705Z" fill="#C576AC"/>
<path d="M91.4839 96.7489C93.4606 95.9244 98.3547 94.9572 98.9678 95.0735C100.374 95.3271 101.785 95.898 103.196 95.6443C104.449 95.4223 105.611 94.4604 106.801 93.9741C108.682 93.2025 110.611 92.9435 112.614 92.6317C115.32 92.2088 117.741 92.0661 120.368 93.0968C120.735 93.2925 121.155 93.3665 121.568 93.3082C122.873 92.9541 122.482 89.4129 122.197 88.5197C121.589 86.6276 119.823 84.6087 118.497 83.1658C115.659 80.0422 111.848 77.7695 107.53 77.7695C103.212 77.7695 98.249 78.9799 94.951 82.1986C91.4998 85.5706 88.6457 92.7691 90.6647 97.399C90.5854 97.214 90.9184 96.9867 91.4839 96.7489Z" fill="#C576AC"/>
<path d="M111.795 81.1206C114.438 80.5286 117.16 82.3679 118.47 84.7515C119.781 87.1352 120.019 89.9416 120.22 92.653C120.172 92.0188 107.873 93.71 107.065 93.784C105.5 89.8042 106.843 82.2146 111.795 81.1206Z" fill="white"/>
<path d="M104.11 95.7076C103.823 95.7029 103.537 95.6764 103.254 95.6284C102.812 95.5762 102.399 95.3821 102.077 95.0752C101.755 94.7683 101.541 94.3653 101.468 93.9265C101.288 90.9721 109.464 89.6983 111.351 89.4816C115.997 88.9002 120.643 89.4816 125.162 90.6127C126.15 90.8611 127.196 91.2258 127.772 92.0661C129.918 95.1791 124.041 94.7087 122.667 94.6665C118.745 94.5343 114.824 94.5237 110.907 94.7457C108.82 94.862 106.277 95.7658 104.11 95.7076Z" fill="#C576AC"/>
<path d="M122.667 92.9965C118.745 92.8696 114.824 92.8538 110.907 93.0758C107.414 93.2766 104.036 94.5186 100.691 95.4911C104.211 95.4911 107.445 94.9045 110.907 94.7459C114.824 94.5239 118.745 94.5345 122.667 94.6666C124.004 94.7089 129.612 95.1529 127.921 92.2988C126.89 93.2766 123.639 93.0282 122.667 92.9965Z" fill="#9A4C81"/>
<path d="M94.5916 207.814C102.395 210.128 110.731 209.916 118.407 207.206C120.991 206.255 122.202 204.806 124.062 202.782C120.32 203.977 116.383 205.367 112.535 206.128C107.662 207.084 99.454 209.267 94.5916 207.814Z" fill="#9A4C81"/>
<path d="M156.397 195.319C154.822 194.754 153.217 194.28 151.588 193.898C151.175 193.808 150.848 194.426 151.281 194.616C152.863 195.264 154.479 195.824 156.122 196.292C156.251 196.328 156.39 196.312 156.507 196.247C156.623 196.181 156.71 196.072 156.746 195.943C156.783 195.814 156.766 195.676 156.701 195.559C156.635 195.442 156.526 195.356 156.397 195.319Z" fill="#E2A790"/>
<path d="M152.751 196.82C151.236 196.246 149.675 195.806 148.084 195.504C148.019 195.499 147.955 195.517 147.903 195.554C147.85 195.591 147.811 195.645 147.794 195.708C147.777 195.77 147.781 195.836 147.807 195.895C147.833 195.954 147.878 196.003 147.936 196.032C149.401 196.647 150.916 197.133 152.465 197.486C152.846 197.554 153.168 196.978 152.751 196.82Z" fill="#E2A790"/>
</svg>
