<svg width="62" height="24" viewBox="0 0 62 24" fill="none" xmlns="http://www.w3.org/2000/svg">
<path d="M53.1983 23.823H2.01091C0.963183 23.823 0.125 22.9898 0.125 21.9483V2.64615C0.125 1.60467 0.963183 0.771484 2.01091 0.771484H56.7606C61.0214 0.771484 62.1389 2.92388 61.3706 5.35401C60.6721 7.29811 60.6721 7.29811 60.6721 7.29811L55.9923 21.74C55.5732 22.9898 54.4556 23.823 53.1983 23.823Z" fill="#DE0000"/>
<path d="M15.2644 17.0767C14.7354 17.0767 14.241 17.0116 13.7812 16.8813C13.3255 16.7511 12.939 16.5965 12.6216 16.4175L12.2004 16.8447H11.6816L11.6023 13.7136H12.1272C12.2452 14.0107 12.3958 14.324 12.5789 14.6536C12.762 14.9832 12.9736 15.2782 13.2136 15.5386C13.4618 15.8112 13.7385 16.033 14.0437 16.2039C14.3529 16.3748 14.7131 16.4602 15.124 16.4602C15.6774 16.4602 16.1006 16.3259 16.3936 16.0574C16.6906 15.7847 16.8391 15.443 16.8391 15.032C16.8391 14.6943 16.713 14.4115 16.4607 14.1836C16.2125 13.9517 15.8259 13.7523 15.301 13.5854C14.9592 13.4756 14.6439 13.3739 14.355 13.2803C14.0701 13.1867 13.8016 13.0911 13.5493 12.9934C12.9674 12.7615 12.5341 12.4299 12.2493 11.9985C11.9685 11.5672 11.8281 11.085 11.8281 10.552C11.8281 10.2143 11.9014 9.89079 12.0479 9.58154C12.1943 9.26823 12.408 8.98747 12.6887 8.73926C12.9573 8.50732 13.3011 8.31812 13.7202 8.17163C14.1393 8.02515 14.5951 7.9519 15.0874 7.9519C15.5675 7.9519 16.0172 8.01904 16.4363 8.15332C16.8554 8.28353 17.185 8.41577 17.425 8.55005L17.7974 8.18384H18.3284L18.3772 11.1379H17.8523C17.7302 10.8206 17.5858 10.4971 17.4189 10.1675C17.2562 9.83382 17.0833 9.55713 16.9001 9.3374C16.7008 9.1014 16.4709 8.91423 16.2104 8.77588C15.95 8.63346 15.6449 8.56226 15.2949 8.56226C14.8555 8.56226 14.4954 8.68636 14.2146 8.93457C13.9379 9.18278 13.7996 9.48999 13.7996 9.8562C13.7996 10.2021 13.9196 10.4849 14.1597 10.7046C14.4038 10.9243 14.7822 11.1176 15.2949 11.2844C15.596 11.3861 15.9032 11.4879 16.2166 11.5896C16.5299 11.6913 16.8086 11.789 17.0527 11.8826C17.6427 12.1104 18.0903 12.4258 18.3955 12.8286C18.7048 13.2274 18.8594 13.7238 18.8594 14.3179C18.8594 14.6922 18.7719 15.0544 18.5969 15.4043C18.422 15.7542 18.186 16.0452 17.8889 16.2771C17.5634 16.5334 17.187 16.7308 16.7598 16.8691C16.3325 17.0075 15.8341 17.0767 15.2644 17.0767ZM29.1499 16.8447H24.4319V16.3687C24.6516 16.3524 24.91 16.3137 25.207 16.2527C25.5041 16.1876 25.6526 16.1082 25.6526 16.0146C25.6526 15.9821 25.6485 15.9455 25.6404 15.9048C25.6363 15.8641 25.62 15.8092 25.5916 15.74L24.853 13.9456H21.8623C21.7931 14.1124 21.7158 14.3077 21.6304 14.5315C21.549 14.7553 21.4778 14.9547 21.4167 15.1296C21.3394 15.3575 21.2926 15.5223 21.2764 15.624C21.2642 15.7257 21.2581 15.797 21.2581 15.8376C21.2581 15.9679 21.3557 16.0798 21.551 16.1733C21.7504 16.2629 22.08 16.328 22.5398 16.3687V16.8447H18.9875V16.3687C19.1218 16.3605 19.2724 16.3402 19.4392 16.3076C19.6101 16.271 19.7444 16.2222 19.842 16.1611C20.0089 16.0635 20.1493 15.9434 20.2632 15.801C20.3812 15.6586 20.4788 15.4897 20.5562 15.2944C21.0282 14.151 21.5002 13.0056 21.9722 11.8582C22.4482 10.7107 22.9731 9.44523 23.5469 8.06177H24.7676C25.5651 10.023 26.1897 11.5733 26.6414 12.7126C27.093 13.852 27.4775 14.796 27.7949 15.5447C27.8478 15.6667 27.915 15.7786 27.9963 15.8804C28.0777 15.978 28.1937 16.0716 28.3442 16.1611C28.4582 16.2262 28.5904 16.2751 28.741 16.3076C28.8915 16.3402 29.0278 16.3605 29.1499 16.3687V16.8447ZM24.6028 13.3413L23.3455 10.2041L22.1064 13.3413H24.6028ZM37.3835 14.0676L37.2126 16.8447H29.2354V16.3687C29.3778 16.3564 29.5446 16.3381 29.7358 16.3137C29.9271 16.2852 30.0532 16.2588 30.1143 16.2344C30.2607 16.1774 30.3625 16.0981 30.4194 15.9963C30.4764 15.8946 30.5049 15.7644 30.5049 15.6057V9.49609C30.5049 9.34961 30.4825 9.22957 30.4377 9.13599C30.393 9.03833 30.2852 8.95085 30.1143 8.87354C29.9881 8.81657 29.8355 8.77181 29.6565 8.73926C29.4815 8.70264 29.3411 8.67619 29.2354 8.65991V8.18384H33.99V8.65991C33.8598 8.67212 33.7052 8.69043 33.5261 8.71484C33.3512 8.73519 33.1986 8.76571 33.0684 8.8064C32.9097 8.85929 32.8039 8.94271 32.751 9.05664C32.6981 9.1665 32.6716 9.29264 32.6716 9.43506V15.1296C32.6716 15.3982 32.6899 15.6098 32.7266 15.7644C32.7632 15.919 32.8344 16.033 32.9402 16.1062C33.046 16.1835 33.1925 16.2344 33.3796 16.2588C33.5709 16.2791 33.8333 16.2893 34.167 16.2893C34.4925 16.2893 34.8079 16.271 35.113 16.2344C35.4223 16.1937 35.644 16.1082 35.7783 15.978C35.9858 15.7705 36.1974 15.4796 36.4131 15.1052C36.6328 14.7268 36.8078 14.3809 36.938 14.0676H37.3835ZM45.4829 10.3933H45.019C44.901 10.0637 44.6976 9.73006 44.4087 9.39233C44.1198 9.05461 43.8329 8.85522 43.5481 8.79419C43.426 8.76571 43.2551 8.74943 43.0354 8.74536C42.8197 8.73722 42.6407 8.73315 42.4983 8.73315H41.241V12.0779H42.1321C42.3559 12.0779 42.5593 12.0514 42.7424 11.9985C42.9255 11.9456 43.0924 11.8439 43.2429 11.6934C43.3365 11.5998 43.4301 11.435 43.5237 11.199C43.6213 10.963 43.6844 10.7575 43.7129 10.5825H44.1768V14.1958H43.7129C43.6885 14.0249 43.6254 13.8113 43.5237 13.5549C43.426 13.2945 43.3324 13.1155 43.2429 13.0178C43.1086 12.8713 42.95 12.7716 42.7668 12.7188C42.5837 12.6618 42.3722 12.6333 42.1321 12.6333H41.241V15.1296C41.241 15.3901 41.2593 15.5976 41.2959 15.7522C41.3366 15.9028 41.4098 16.0187 41.5156 16.1001C41.6174 16.1774 41.7557 16.2283 41.9307 16.2527C42.1097 16.2771 42.3518 16.2893 42.657 16.2893C42.7994 16.2893 42.9703 16.2873 43.1697 16.2832C43.3691 16.2791 43.544 16.2669 43.6946 16.2466C43.8655 16.2262 44.0242 16.1957 44.1707 16.155C44.3212 16.1143 44.4331 16.0553 44.5063 15.978C44.7017 15.7786 44.9214 15.4755 45.1655 15.0686C45.4097 14.6576 45.5704 14.3504 45.6477 14.147H46.0933L45.9285 16.8447H37.8047V16.3687C37.9186 16.3605 38.0732 16.3442 38.2686 16.3198C38.4639 16.2954 38.6022 16.2669 38.6836 16.2344C38.8382 16.1693 38.942 16.0879 38.9949 15.9902C39.0478 15.8885 39.0742 15.7603 39.0742 15.6057V9.49609C39.0742 9.34961 39.0518 9.22957 39.0071 9.13599C38.9623 9.03833 38.8545 8.95085 38.6836 8.87354C38.5778 8.82471 38.4293 8.77995 38.238 8.73926C38.0468 8.69857 37.9023 8.67212 37.8047 8.65991V8.18384H45.4829V10.3933Z" fill="white"/>
</svg>
