<svg width="14" height="14" viewBox="0 0 14 14" fill="none" xmlns="http://www.w3.org/2000/svg">
<path d="M11.7659 9.21156C10.5959 8.43156 8.77594 7.97656 6.82594 7.97656C4.87594 7.97656 3.05594 8.43156 1.88594 9.21156C1.04094 9.79656 0.585938 10.5766 0.585938 11.2916V12.2016C0.585938 12.4616 0.715937 12.7866 0.910938 12.9816C1.10594 13.1116 1.36594 13.2416 1.69094 13.2416H12.0909C12.3509 13.2416 12.6759 13.1116 12.8709 12.9166C13.0659 12.7216 13.1959 12.4616 13.1959 12.1366V11.2916C13.1309 10.5116 12.6109 9.79656 11.7659 9.21156ZM2.47094 9.99156C3.51094 9.27656 5.07094 8.88656 6.82594 8.88656C8.58094 8.88656 10.2059 9.27656 11.1809 9.99156C11.7659 10.3816 12.0909 10.8366 12.0909 11.2916V12.2666H1.56094V11.2916C1.56094 10.8366 1.88594 10.3816 2.47094 9.99156Z" fill="#003744"/>
<path d="M6.82531 7.00219C8.71031 7.00219 10.2053 5.50719 10.2053 3.62219C10.2053 1.73719 8.71031 0.242188 6.82531 0.242188C5.00531 0.242188 3.44531 1.73719 3.44531 3.62219C3.44531 5.50719 5.00531 7.00219 6.82531 7.00219ZM6.82531 1.21719C8.12531 1.21719 9.23031 2.25719 9.23031 3.62219C9.23031 4.92219 8.19031 6.02719 6.82531 6.02719C5.52531 6.02719 4.48531 4.92219 4.48531 3.62219C4.48531 2.32219 5.52531 1.21719 6.82531 1.21719Z" fill="#003744"/>
</svg>
