<svg width="19" height="16" viewBox="0 0 19 16" fill="none" xmlns="http://www.w3.org/2000/svg">
<path d="M17.5435 0.855469C18.1623 0.855469 18.6641 1.35716 18.6641 1.97607C18.6641 2.59498 18.1623 3.09668 17.5435 3.09668H1.85498C1.23609 3.09668 0.734375 2.59498 0.734375 1.97607C0.734375 1.35716 1.23609 0.855469 1.85498 0.855469H17.5435ZM17.5435 6.90674C18.1623 6.90674 18.6641 7.40843 18.6641 8.02734C18.6641 8.64625 18.1623 9.14795 17.5435 9.14795H1.85498C1.23609 9.14795 0.734375 8.64625 0.734375 8.02734C0.734375 7.40843 1.23609 6.90674 1.85498 6.90674H17.5435ZM12.7672 12.958C13.3861 12.958 13.8878 13.4597 13.8878 14.0786C13.8878 14.6975 13.3861 15.1992 12.7672 15.1992H1.85498C1.23609 15.1992 0.734375 14.6975 0.734375 14.0786C0.734375 13.4597 1.23609 12.958 1.85498 12.958H12.7672Z" fill="#003744"/>
</svg>
