<svg width="22" height="23" viewBox="0 0 22 23" fill="none" xmlns="http://www.w3.org/2000/svg">
<g clip-path="url(#clip0_939_89630)">
<path d="M21.2461 16.4422C21.1461 15.5422 21.0461 14.4422 20.8461 13.0422L20.2461 9.64219C20.1461 9.24219 20.1461 8.74219 20.0461 8.44219C19.9461 7.94219 19.8461 7.64219 19.5461 7.24219C19.2461 6.84219 18.7461 6.34219 18.2461 6.14219C17.9461 6.04219 17.5461 5.94219 17.1461 5.94219C16.8461 5.94219 16.7461 5.94219 16.3461 5.94219V5.14219C16.1461 2.44219 13.8461 0.242188 11.1461 0.242188C8.24609 0.242188 5.94609 2.44219 5.74609 5.14219V5.84219C5.44609 5.84219 5.14609 5.84219 4.94609 5.84219C4.54609 5.84219 4.14609 5.94219 3.84609 6.04219C3.34609 6.44219 2.84609 6.84219 2.54609 7.24219C2.34609 7.64219 2.24609 7.94219 2.14609 8.34219C1.94609 8.74219 1.94609 9.14219 1.84609 9.74219L1.24609 13.0422C1.14609 14.4422 0.846094 15.5422 0.846094 16.4422C0.746094 17.4422 0.846094 18.2422 1.14609 18.8422C1.54609 19.9422 2.34609 20.9422 3.44609 21.4422C4.14609 21.7422 4.74609 22.0422 5.84609 22.1422C6.74609 22.2422 7.94609 22.2422 9.34609 22.2422H12.8461C14.2461 22.2422 15.3461 22.2422 16.3461 22.1422C17.3461 22.0422 18.1461 21.8422 18.7461 21.4422C19.7461 20.9422 20.6461 19.9422 21.0461 18.8422C21.2461 18.1422 21.3461 17.4422 21.2461 16.4422ZM7.34609 5.94219V5.64219C7.34609 3.64219 8.94609 2.04219 10.9461 2.04219C12.9461 2.04219 14.5461 3.64219 14.5461 5.64219V5.94219H7.34609ZM19.3461 18.2422C19.0461 19.0422 18.4461 19.6422 17.8461 20.1422C17.4461 20.3422 16.9461 20.4422 16.1461 20.5422C15.2461 20.6422 14.2461 20.6422 12.7461 20.6422H9.34609C7.94609 20.6422 6.84609 20.6422 5.94609 20.5422C5.14609 20.4422 4.64609 20.3422 4.24609 20.1422C3.44609 19.7422 2.94609 19.0422 2.74609 18.2422C2.54609 17.8422 2.54609 17.2422 2.64609 16.4422C2.74609 15.5422 2.84609 14.4422 3.04609 13.1422L3.44609 9.94219C3.54609 9.24219 3.54609 8.94219 3.64609 8.64219C3.84609 8.44219 3.84609 8.24219 3.94609 8.14219C4.04609 7.94219 4.24609 7.74219 4.54609 7.64219C4.64609 7.54219 4.84609 7.54219 5.04609 7.54219C5.34609 7.54219 5.74609 7.54219 6.24609 7.54219H15.8461C16.4461 7.54219 16.8461 7.54219 17.0461 7.54219C17.2461 7.54219 17.4461 7.54219 17.5461 7.64219C17.7461 7.74219 17.9461 7.94219 18.1461 8.14219C18.2461 8.24219 18.2461 8.34219 18.3461 8.64219C18.4461 8.94219 18.4461 9.34219 18.5461 9.84219L18.9461 13.0422C19.1461 14.4422 19.3461 15.5422 19.3461 16.3422C19.5461 17.2422 19.5461 17.8422 19.3461 18.2422Z" fill="#EB89B5"/>
<path opacity="0.5" d="M11.0469 2.04297C9.74688 2.04297 8.64688 2.74297 8.04688 3.74297C8.64688 3.34297 9.24688 3.14297 10.0469 3.14297C11.7469 3.14297 13.2469 4.44297 13.5469 6.04297H14.7469V5.64297C14.6469 3.64297 12.9469 2.04297 11.0469 2.04297Z" fill="#EB89B5"/>
<path opacity="0.5" d="M19.4461 16.443C19.4461 15.643 19.2461 14.543 19.0461 13.143L18.6461 9.94297C18.5461 9.44297 18.5461 9.04297 18.4461 8.74297C18.3461 8.44297 18.3461 8.34297 18.2461 8.24297C18.1461 8.04297 17.9461 7.84297 17.7461 7.64297C17.6461 7.54297 17.4461 7.54297 17.1461 7.54297C16.9461 7.54297 16.4461 7.54297 15.9461 7.54297H6.24609C5.64609 7.54297 5.34609 7.54297 5.04609 7.54297C4.84609 7.54297 4.64609 7.54297 4.44609 7.64297C4.34609 7.74297 4.04609 7.94297 3.94609 8.14297C3.84609 8.24297 3.84609 8.44297 3.74609 8.54297C3.84609 8.54297 3.84609 8.54297 3.94609 8.54297C4.24609 8.54297 4.64609 8.54297 5.14609 8.54297H14.7461C15.3461 8.54297 15.7461 8.54297 15.9461 8.54297C16.1461 8.54297 16.3461 8.54297 16.5461 8.64297C16.7461 8.74297 16.9461 8.94297 17.1461 9.14297C17.2461 9.24297 17.2461 9.34297 17.3461 9.74297C17.4461 10.043 17.4461 10.443 17.5461 10.943L17.9461 14.143C18.1461 15.543 18.3461 16.643 18.3461 17.443C18.4461 18.343 18.4461 18.843 18.2461 19.343C18.1461 19.643 17.9461 19.843 17.8461 20.143C18.5461 19.743 19.0461 19.043 19.3461 18.243C19.5461 17.843 19.5461 17.243 19.4461 16.443Z" fill="#EB89B5"/>
</g>
<defs>
<clipPath id="clip0_939_89630">
<rect width="20.4" height="22" fill="white" transform="translate(0.845703 0.242188)"/>
</clipPath>
</defs>
</svg>
