<svg width="17" height="14" viewBox="0 0 17 14" fill="none" xmlns="http://www.w3.org/2000/svg">
<path d="M14.6881 0.242188H2.66313C1.42813 0.242188 0.453125 1.21719 0.453125 2.45219V11.0322C0.453125 12.2672 1.42813 13.2422 2.66313 13.2422H14.6881C15.9231 13.2422 16.8981 12.2672 16.8981 11.0322V2.45219C16.8981 1.21719 15.9231 0.242188 14.6881 0.242188ZM1.42813 3.16719V2.45219C1.42813 1.73719 1.94813 1.21719 2.66313 1.21719H14.6881C15.4031 1.21719 15.9231 1.73719 15.9231 2.45219V3.16719L8.70813 6.93719L1.42813 3.16719ZM15.8581 4.33719V11.0322C15.8581 11.7472 15.3381 12.2672 14.6231 12.2672H2.66313C1.94813 12.2672 1.42813 11.7472 1.42813 11.0322V4.33719L8.38313 8.04219C8.44813 8.10719 8.51313 8.10719 8.64313 8.10719C8.77313 8.10719 8.83813 8.10719 8.90313 8.04219L15.8581 4.33719Z" fill="#003744"/>
</svg>
