<svg width="51" height="51" viewBox="0 0 51 51" fill="none" xmlns="http://www.w3.org/2000/svg">
<g clip-path="url(#clip0_939_85049)">
<path d="M25.6797 50.2969C39.4868 50.2969 50.6797 39.104 50.6797 25.2969C50.6797 11.4898 39.4868 0.296875 25.6797 0.296875C11.8726 0.296875 0.679688 11.4898 0.679688 25.2969C0.679688 39.104 11.8726 50.2969 25.6797 50.2969Z" fill="#EE4B68"/>
<path d="M50.6797 25.2969C50.6797 34.6328 45.5625 42.7578 38.0234 47.0547C36.9688 47.6406 35.875 48.1875 34.7031 48.6172C34.4297 48.7344 34.1562 48.8125 33.8828 48.9297C31.3047 49.8281 28.5703 50.2969 25.6797 50.2969C25.2109 50.2969 24.7422 50.2969 24.2734 50.2578C24.1172 50.2578 23.9609 50.2188 23.8047 50.2188C23.4922 50.2188 23.2188 50.1797 22.9453 50.1406C22.9062 50.1406 22.9062 50.1406 22.9062 50.1406C22.4766 50.1016 22.0469 50.0234 21.6562 49.9844C20.3281 49.75 19 49.4375 17.75 49.0078C17.3984 48.8906 17.0469 48.7734 16.6953 48.6172C16.6562 48.6172 16.6172 48.5781 16.5781 48.5781C16.3047 48.4609 16.0703 48.3828 15.7969 48.2656C15.25 48.0312 14.7031 47.7578 14.1562 47.4844C9.23438 44.9062 5.25 40.7656 2.94531 35.6875C1.46094 32.5234 0.679688 29.0078 0.679688 25.2969C0.679688 11.5078 11.8906 0.296875 25.6797 0.296875C39.4688 0.296875 50.6797 11.5078 50.6797 25.2969Z" fill="#EA88B4"/>
<path d="M40.4453 35.8828C29.9375 44.2812 21.3828 44.2812 10.9141 35.8828C14.7812 29.0469 15.0938 21.5078 15.9922 13.3438C16.4219 8.03125 20.25 4.71094 25.5625 4.71094H25.7578C31.1094 4.75 34.8984 8.03125 35.3281 13.3438C36.2656 21.5078 36.5781 29.0469 40.4453 35.8828Z" fill="#003744"/>
<path d="M18.2002 21.7901C19.0837 21.5889 19.4931 20.0788 19.1148 18.4171C18.7364 16.7554 17.7135 15.5713 16.8301 15.7725C15.9466 15.9737 15.5372 17.4838 15.9155 19.1455C16.2939 20.8072 17.3168 21.9912 18.2002 21.7901Z" fill="#F8CFA3"/>
<path d="M18.0225 21.1172C17.6319 21.1172 16.8897 20.3359 16.5772 18.9687C16.2647 17.5625 16.6163 16.4688 17.0069 16.3906H17.046C17.4366 16.3906 18.1788 17.1719 18.4913 18.5391C18.6475 19.2422 18.6475 19.9453 18.5304 20.4531C18.4132 20.8047 18.2569 21.0781 18.1007 21.1172C18.0616 21.1172 18.0225 21.1172 18.0225 21.1172Z" fill="#F1B97C"/>
<path d="M35.4409 19.1103C35.8193 17.4486 35.4098 15.9384 34.5264 15.7373C33.643 15.5361 32.6201 16.7201 32.2417 18.3818C31.8634 20.0435 32.2728 21.5537 33.1562 21.7548C34.0397 21.956 35.0626 20.772 35.4409 19.1103Z" fill="#F8CFA3"/>
<path d="M33.3358 21.1184H33.2967C33.1405 21.0793 32.9452 20.8059 32.867 20.4543C32.7108 19.9075 32.7499 19.2434 32.9061 18.5403C33.2186 17.134 34.0389 16.3137 34.4295 16.3918C34.8202 16.47 35.1717 17.5637 34.8592 18.97C34.4686 20.3762 33.7264 21.1184 33.3358 21.1184Z" fill="#F1B97C"/>
<path d="M20.3672 30.7266L20.9141 28.2656L21.8125 27.7969L29.5859 27.7188L31.3047 30.0234L30.875 30.7266H20.3672Z" fill="#E7E7E8"/>
<path d="M43.0625 39.5156V43.2266C38.5703 47.6016 32.4375 50.2969 25.6797 50.2969C18.9219 50.2969 12.7891 47.6016 8.29688 43.2656V39.5547C8.76563 34.3984 11.9297 33.6953 13.375 33.6562C14.1953 33.6172 14.9766 33.5391 15.7578 33.3437C21.8906 31.8203 21.9297 28.1094 21.9297 28.1094V24.5938H29.4297V28.1094C29.4297 28.1094 29.4688 31.8203 35.6016 33.3437C36.3828 33.5391 37.1641 33.6172 37.9844 33.6562C39.4297 33.6953 42.5938 34.3984 43.0625 39.5156Z" fill="#F1B97C"/>
<path d="M43.0625 39.5156V43.2266C38.5703 47.6016 32.4375 50.2969 25.6797 50.2969C18.9219 50.2969 12.7891 47.6016 8.29688 43.2656V39.5547C8.76563 34.3984 11.9297 33.6953 13.375 33.6563C14.1953 33.6172 14.9766 33.5391 15.7578 33.3438C18.375 32.6797 19.8984 31.625 20.7578 30.6484L22.3203 33.9297L25.6797 42.0938L29.5859 33.1484L30.9141 30.9609C31.8125 31.8594 33.2969 32.7578 35.6406 33.3438C36.4219 33.5391 37.2031 33.6172 38.0234 33.6563C39.4297 33.6953 42.5938 34.3984 43.0625 39.5156Z" fill="#C576AC"/>
<path d="M33.9609 17.7578C33.9609 22.7578 30.25 28.7734 25.6797 28.7734C21.1094 28.7734 17.3984 22.7578 17.3984 17.7578C17.3984 12.7578 21.1094 8.73438 25.6797 8.73438C30.25 8.73438 33.9609 12.7578 33.9609 17.7578Z" fill="#F8CFA3"/>
<path d="M30.3672 31.6641C29.4688 37.25 26.1094 42.9531 25.7187 43.6172C25.7187 43.6562 25.6797 43.6562 25.6406 43.6172C25.25 42.9531 21.8906 37.25 20.9922 31.6641L21.5 31.5078L22.2422 32.0938L22.9063 33.0703C22.9063 33.0703 24.3516 37.3281 25.6406 40.4531C26.9688 37.3281 28.375 33.0703 28.375 33.0703L29.0391 32.0938L29.7812 31.5078L30.3672 31.6641Z" fill="#E7E7E8"/>
<path d="M33.9609 33.1875L34.3516 36.1953C34.3516 36.1953 33.0234 34.2031 31.6172 32.7969C30.7187 31.8594 29.1953 31.9375 28.4141 32.9922C28.4141 32.9922 28.4141 33.0313 28.375 33.0313C28.375 33.0313 28.5703 32.3281 29.625 31.0391C29.8984 30.7266 30.0547 30.375 30.0938 30.0234C30.2109 29.2813 29.9766 28.5 29.3516 28.0313V27.5234C29.9375 27.6797 30.6797 27.9922 31.4609 28.6563C32.8672 29.8281 33.7266 31.4688 33.9609 33.1875Z" fill="#FCFCFC"/>
<path d="M22.9453 33.0313C22.9453 33.0313 22.9453 32.9922 22.9063 32.9922C22.125 31.9375 20.6016 31.8594 19.7031 32.7969C18.3359 34.2422 16.9688 36.1953 16.9688 36.1953L17.3594 33.1875C17.5938 31.4297 18.4531 29.8281 19.7813 28.6563C20.5625 27.9922 21.2656 27.6797 21.8906 27.5234V28.0313C21.3047 28.5 21.0313 29.2813 21.1484 30.0234C21.2266 30.375 21.3828 30.7266 21.6172 31.0391C22.75 32.3281 22.9453 33.0313 22.9453 33.0313Z" fill="#FCFCFC"/>
<path d="M35.7187 19.3203C35.7969 19.2422 35.875 19.1641 35.9531 19.0859C35.7969 17.7187 35.6797 16.3516 35.5234 14.9844C35.1328 14.4766 34.7422 14.0078 34.4688 13.5781L33.2188 11.3906L29.4297 6.74219L26.0313 4.67188C25.9531 4.67188 25.875 4.67188 25.7578 4.67188C25.6797 4.67188 25.6406 4.67188 25.5625 4.67188C20.25 4.71094 16.4219 7.99219 15.9922 13.3047C15.8359 14.8281 15.6797 16.3516 15.5234 17.8359C18.1797 16.5078 21.0312 14.0469 22.5937 9.39844C26.0312 19.6328 35.7187 19.3203 35.7187 19.3203Z" fill="#003744"/>
</g>
<defs>
<clipPath id="clip0_939_85049">
<rect width="50" height="50" fill="white" transform="translate(0.679688 0.296875)"/>
</clipPath>
</defs>
</svg>
