<svg width="17" height="14" viewBox="0 0 17 14" fill="none" xmlns="http://www.w3.org/2000/svg">
<path d="M15.9838 6.652H14.7563C15.2731 5.42441 15.2731 4.06761 14.6916 2.84002C14.1102 1.54783 13.0764 0.578683 11.9134 0.320244C10.5566 0.0618051 9.19981 0.449463 8.29528 1.41861C7.32613 0.514073 5.96933 0.0618051 4.61252 0.320244C3.44955 0.578683 2.41579 1.48322 1.89892 2.84002C1.25282 4.26144 1.31743 5.87668 2.02814 7.03965H0.606722C0.348283 7.03965 0.0898438 7.23348 0.0898438 7.55653C0.0898438 7.81497 0.283673 8.07341 0.606722 8.07341H2.73884C4.54791 10.2701 7.7784 12.9837 7.97223 13.113C8.03684 13.1776 8.16606 13.2422 8.29528 13.2422C8.4245 13.2422 8.48911 13.1776 8.61833 13.113C9.00598 12.7899 12.5595 9.81787 14.1748 7.68575H15.9838C16.2423 7.68575 16.5007 7.49192 16.5007 7.16887C16.4361 6.84582 16.2423 6.652 15.9838 6.652ZM2.99728 6.652C2.93267 6.652 2.93267 6.58739 2.86806 6.52278C2.35118 5.61824 2.28657 4.32605 2.80345 3.22768C3.25572 2.19393 3.96643 1.48322 4.87096 1.28939C5.06479 1.28939 5.25862 1.22478 5.45245 1.22478C7.00308 1.22478 7.84301 2.45236 7.84301 2.45236C7.90762 2.58158 8.10145 2.64619 8.23067 2.64619C8.35989 2.64619 8.55372 2.58158 8.61833 2.45236C8.74755 2.45236 9.84591 0.901731 11.7196 1.28939C12.5595 1.48322 13.3348 2.19393 13.7871 3.16307C14.304 4.32605 14.2394 5.55363 13.7225 6.45817C13.7225 6.45817 13.7225 6.52278 13.6579 6.52278V6.58739H9.71669C9.52286 6.58739 9.32903 6.71661 9.26442 6.91043L8.74755 8.20263L7.26152 4.45527C7.19691 4.32605 7.1323 4.26144 7.00308 4.19683C6.93847 4.19683 6.87386 4.13222 6.80925 4.13222C6.74464 4.13222 6.68004 4.13222 6.61543 4.19683C6.35699 4.26144 6.29238 4.39066 6.22777 4.51988L5.38784 7.03965H3.25572C3.19111 6.97504 3.19111 6.91043 3.1265 6.84582C3.06189 6.78121 2.99728 6.71661 2.99728 6.652ZM5.71089 8.07341C5.90472 8.07341 6.09855 7.94419 6.16316 7.75036L6.68004 6.19973L8.10145 9.81787C8.16606 10.0117 8.35989 10.1409 8.55372 10.1409C8.74755 10.1409 8.94138 10.0117 9.00599 9.81787L9.91052 7.68575H12.818C11.3965 9.3656 8.94138 11.4977 8.23067 12.0792C7.58457 11.5623 5.51706 9.75326 4.03104 8.07341H5.71089Z" fill="#003744"/>
</svg>
