<svg width="9" height="5" viewBox="0 0 9 5" fill="none" xmlns="http://www.w3.org/2000/svg">
<path d="M4.58161 4.59177C4.65641 4.58711 4.72749 4.55757 4.78355 4.50784L8.14047 1.48662C8.17351 1.45705 8.2004 1.42124 8.21958 1.38125C8.23876 1.34127 8.24986 1.2979 8.25224 1.25361C8.25463 1.20933 8.24825 1.16501 8.23348 1.1232C8.2187 1.08138 8.19582 1.04289 8.16615 1.00994C8.13647 0.976983 8.10058 0.950211 8.06054 0.931152C8.02049 0.912093 7.97708 0.901122 7.93279 0.898872C7.8885 0.896621 7.8442 0.903132 7.80243 0.918034C7.76066 0.932936 7.72225 0.955938 7.68938 0.985714L4.55801 3.80499L1.42663 0.985714C1.39377 0.955937 1.35535 0.932936 1.31358 0.918034C1.27181 0.903132 1.22751 0.896622 1.18322 0.898872C1.13893 0.901122 1.09552 0.912088 1.05548 0.931147C1.01543 0.950206 0.979545 0.976983 0.949869 1.00994C0.920192 1.04289 0.89731 1.08138 0.882536 1.1232C0.867761 1.16501 0.861384 1.20932 0.863769 1.25361C0.866155 1.29789 0.877256 1.34127 0.896437 1.38125C0.915618 1.42124 0.942501 1.45705 0.975546 1.48662L4.33246 4.50784C4.36621 4.53788 4.40567 4.56079 4.44848 4.57521C4.49129 4.58963 4.53657 4.59526 4.58161 4.59177Z" fill="#003744"/>
</svg>
