<svg width="13" height="14" viewBox="0 0 13 14" fill="none" xmlns="http://www.w3.org/2000/svg">
<path d="M5.20688 7.58563C5.14188 7.45563 5.01187 7.39062 4.81687 7.39062C4.75187 7.39062 4.62188 7.39063 4.55688 7.45563C4.29688 7.58563 4.23187 7.91062 4.36187 8.17062C4.88187 9.01562 5.72687 9.47062 6.63687 9.47062C7.61187 9.47062 8.45687 8.95062 8.91187 8.17062C9.04187 7.91062 8.97687 7.65063 8.71687 7.45563C8.65187 7.39063 8.58687 7.39062 8.52187 7.39062C8.32687 7.39062 8.19687 7.45562 8.06687 7.65062C7.80687 8.17062 7.22187 8.43063 6.63687 8.43063C6.05187 8.43063 5.53188 8.10563 5.20688 7.58563Z" fill="#003744"/>
<path d="M12.0971 0.827187C10.3421 0.437187 8.45711 0.242188 6.63711 0.242188C4.81711 0.242188 2.93211 0.437187 1.17711 0.827187C0.982109 0.892187 0.787109 1.08719 0.787109 1.34719V6.67719C0.787109 7.71719 0.982109 8.69219 1.37211 9.66719C2.21711 11.8122 4.29711 13.2422 6.63711 13.2422C8.97711 13.2422 11.0571 11.8122 11.9021 9.66719C12.2921 8.75719 12.4871 7.71719 12.4871 6.67719V1.34719C12.4871 1.08719 12.2921 0.892187 12.0971 0.827187ZM1.76211 1.73719C4.94711 1.08719 8.26211 1.08719 11.3821 1.73719H11.4471V6.67719C11.4471 7.58719 11.2521 8.43219 10.9271 9.27719C10.2121 11.0972 8.52211 12.2022 6.57211 12.2022C4.62211 12.2022 2.93211 11.0322 2.21711 9.27719C1.89211 8.43219 1.69711 7.58719 1.69711 6.67719V1.73719H1.76211Z" fill="#003744"/>
<path d="M7.3518 5.50672C7.4168 5.57172 7.5468 5.57172 7.6118 5.57172C7.8068 5.57172 7.9368 5.50672 8.0668 5.31172C8.1968 5.11672 8.4568 4.98672 8.7168 4.98672C8.9768 4.98672 9.2368 5.11672 9.3018 5.31172C9.4318 5.57172 9.7568 5.63672 9.9518 5.50672C10.2118 5.37672 10.2768 5.05172 10.1468 4.85672C9.8218 4.33672 9.3018 4.01172 8.6518 4.01172C8.0018 4.01172 7.4818 4.33672 7.1568 4.85672C7.0268 5.05172 7.0918 5.37672 7.3518 5.50672Z" fill="#003744"/>
<path d="M3.3225 5.50531C3.3875 5.50531 3.4525 5.57031 3.5825 5.57031C3.6475 5.57031 3.6475 5.57031 3.7125 5.50531C3.8425 5.50531 3.9075 5.44031 3.9725 5.31031C4.1025 5.11531 4.3625 4.98531 4.6225 4.98531C4.8825 4.98531 5.1425 5.11531 5.2075 5.31031C5.3375 5.57031 5.6625 5.63531 5.9225 5.50531C6.1825 5.31031 6.2475 5.05031 6.1175 4.79031C5.7925 4.27031 5.2725 3.94531 4.6225 3.94531C3.9725 3.94531 3.4525 4.27031 3.1275 4.79031C2.9975 5.05031 3.0625 5.37531 3.3225 5.50531Z" fill="#003744"/>
</svg>
