<svg width="16" height="14" viewBox="0 0 16 14" fill="none" xmlns="http://www.w3.org/2000/svg">
<path d="M14.485 5.37719H11.56V0.762187C11.56 0.502187 11.365 0.242188 11.04 0.242188H0.77C0.445 0.242188 0.25 0.437188 0.25 0.762187V11.0322C0.25 12.2672 1.225 13.2422 2.46 13.2422H12.73H12.795H12.86H12.99C13.055 13.2422 13.055 13.2422 13.12 13.2422C13.64 13.1772 14.095 12.9822 14.42 12.5922C14.81 12.2022 15.07 11.6172 15.07 11.0322V5.89719C15.005 5.63719 14.81 5.37719 14.485 5.37719ZM1.615 11.8772C1.42 11.6172 1.29 11.3572 1.29 11.0322V1.28219H10.585V11.0322C10.585 11.0972 10.585 11.1622 10.585 11.2272V11.4222C10.585 11.5522 10.65 11.6172 10.65 11.6822V11.7472C10.715 11.9422 10.78 12.1372 10.91 12.2672H2.46C2.135 12.2672 1.875 12.1372 1.615 11.8772ZM13.965 11.0322C13.965 11.3572 13.835 11.6822 13.64 11.8772C13.38 12.1372 13.12 12.2022 12.795 12.2022C12.665 12.2022 12.535 12.2022 12.405 12.1372L12.34 12.0722C12.145 12.0072 11.95 11.8122 11.755 11.6172C11.625 11.4222 11.56 11.1622 11.56 10.9672V6.41719H13.965V11.0322Z" fill="#003744"/>
<path d="M6.49039 3.10156H3.04539C2.78539 3.10156 2.52539 3.29656 2.52539 3.62156C2.52539 3.88156 2.72039 4.14156 3.04539 4.14156H6.49039C6.75039 4.14156 7.01039 3.94656 7.01039 3.62156C7.01039 3.29656 6.75039 3.10156 6.49039 3.10156Z" fill="#003744"/>
<path d="M4.21539 5.37891H3.04539C2.78539 5.37891 2.52539 5.57391 2.52539 5.89891C2.52539 6.15891 2.72039 6.41891 3.04539 6.41891H4.21539C4.47539 6.41891 4.73539 6.22391 4.73539 5.89891C4.67039 5.63891 4.47539 5.37891 4.21539 5.37891Z" fill="#003744"/>
</svg>
