<svg width="14" height="14" viewBox="0 0 14 14" fill="none" xmlns="http://www.w3.org/2000/svg">
<g clip-path="url(#clip0_939_86309)">
<path d="M12.918 4.09844L8.61797 0.898438C7.91797 0.398438 6.91797 0.398438 6.21797 0.898438L1.81797 4.09844C1.21797 4.49844 0.917969 5.19844 0.917969 5.89844C0.917969 5.99844 0.917969 6.09844 0.917969 6.19844L1.81797 12.1984C1.91797 12.8984 2.51797 13.4984 3.31797 13.4984H11.518C12.218 13.4984 12.918 12.8984 13.018 12.1984L13.818 6.19844C13.818 6.09844 13.818 5.99844 13.818 5.89844C13.818 5.19844 13.518 4.49844 12.918 4.09844ZM8.91797 11.4984H5.91797C5.61797 11.4984 5.41797 11.2984 5.41797 10.9984C5.41797 10.6984 5.61797 10.4984 5.91797 10.4984H8.91797C9.21797 10.4984 9.41797 10.7984 9.41797 10.9984C9.41797 11.2984 9.11797 11.4984 8.91797 11.4984Z" fill="white"/>
</g>
<defs>
<clipPath id="clip0_939_86309">
<rect width="12.9" height="13" fill="white" transform="translate(0.917969 0.5)"/>
</clipPath>
</defs>
</svg>
