<svg width="32" height="19" viewBox="0 0 32 19" fill="none" xmlns="http://www.w3.org/2000/svg">
<g clip-path="url(#clip0_939_89643)">
<mask id="mask0_939_89643" style="mask-type:luminance" maskUnits="userSpaceOnUse" x="6" y="0" width="20" height="19">
<path d="M15.9232 18.7422C21.0531 18.7422 25.2117 14.7128 25.2117 9.74219C25.2117 4.77162 21.0531 0.742188 15.9232 0.742188C10.7934 0.742188 6.63477 4.77162 6.63477 9.74219C6.63477 14.7128 10.7934 18.7422 15.9232 18.7422Z" fill="white"/>
</mask>
<g mask="url(#mask0_939_89643)">
<mask id="mask1_939_89643" style="mask-type:luminance" maskUnits="userSpaceOnUse" x="0" y="0" width="32" height="19">
<path d="M31.8462 0.742188H0V18.7422H31.8462V0.742188Z" fill="white"/>
</mask>
<g mask="url(#mask1_939_89643)">
<path d="M31.8462 0.742188H0V18.7422H31.8462V0.742188Z" fill="white"/>
</g>
<mask id="mask2_939_89643" style="mask-type:luminance" maskUnits="userSpaceOnUse" x="0" y="0" width="32" height="19">
<path d="M31.8462 0.742188H0V18.7422H31.8462V0.742188Z" fill="white"/>
</mask>
<g mask="url(#mask2_939_89643)">
<path d="M31.8462 0.742188H0V6.74219H31.8462V0.742188Z" fill="#F0953E"/>
</g>
<mask id="mask3_939_89643" style="mask-type:luminance" maskUnits="userSpaceOnUse" x="0" y="0" width="32" height="19">
<path d="M31.8462 0.742188H0V18.7422H31.8462V0.742188Z" fill="white"/>
</mask>
<g mask="url(#mask3_939_89643)">
<path d="M31.8462 12.7461H0V18.7429H31.8462V12.7461Z" fill="#3B8916"/>
</g>
<mask id="mask4_939_89643" style="mask-type:luminance" maskUnits="userSpaceOnUse" x="0" y="0" width="32" height="19">
<path d="M31.8462 0.742188H0V18.7422H31.8462V0.742188Z" fill="white"/>
</mask>
<g mask="url(#mask4_939_89643)">
<mask id="mask5_939_89643" style="mask-type:luminance" maskUnits="userSpaceOnUse" x="0" y="0" width="32" height="19">
<path d="M31.8462 0.742188H0V18.7422H31.8462V0.742188Z" fill="white"/>
</mask>
<g mask="url(#mask5_939_89643)">
<path d="M15.9226 7.04688C14.3844 7.04688 13.1367 8.25263 13.1367 9.74304C13.1367 11.2334 14.3844 12.4424 15.9226 12.4424C17.4608 12.4424 18.7085 11.2334 18.7085 9.74304C18.7085 8.25263 17.4608 7.04688 15.9226 7.04688ZM15.9193 7.30914L15.85 8.66521L15.9259 9.436L15.9952 8.66521L15.9259 7.30914C15.9985 7.30914 16.0711 7.31233 16.1404 7.31873C16.1404 7.32193 16.1371 7.32193 16.1371 7.32513C16.1371 7.38909 16.19 7.44346 16.2527 7.44346C16.3121 7.44346 16.3616 7.39549 16.3649 7.34432C16.4342 7.35711 16.5035 7.3699 16.5696 7.39229L16.1404 8.6844L16.0018 9.44879L16.2791 8.71638L16.5762 7.39229C16.6422 7.41468 16.7082 7.43067 16.7775 7.45626C16.7742 7.46585 16.7676 7.48184 16.7676 7.49464C16.7676 7.5554 16.8204 7.60658 16.8831 7.60658C16.926 7.60658 16.9723 7.57779 16.9888 7.53941C17.0515 7.5682 17.1142 7.60018 17.1769 7.63536L16.4177 8.77076L16.081 9.48078L16.5464 8.84432L17.1868 7.63856C17.2429 7.67054 17.3023 7.70572 17.3617 7.7441C17.3452 7.76649 17.3353 7.78568 17.3353 7.81447C17.3353 7.87523 17.3882 7.92641 17.4509 7.92641C17.4872 7.92641 17.5202 7.91361 17.5433 7.87843C17.5994 7.92641 17.6522 7.97118 17.6984 8.01916L16.662 8.92747L16.1471 9.52875L16.7643 9.03302L17.705 8.02235C17.7545 8.07353 17.8008 8.1183 17.847 8.17267C17.8206 8.19506 17.8074 8.22705 17.8074 8.25903C17.8074 8.3198 17.8602 8.37097 17.9196 8.37097C17.946 8.37097 17.9691 8.36457 17.9889 8.34858C18.0318 8.40615 18.0681 8.46372 18.1011 8.52129L16.8567 9.13856L16.1999 9.58952L16.9293 9.26649L18.1077 8.52449C18.1473 8.58845 18.177 8.65882 18.2101 8.71638C18.1704 8.73557 18.1407 8.77715 18.1407 8.82513C18.1407 8.88589 18.1935 8.93707 18.253 8.93707C18.2728 8.93707 18.286 8.93387 18.2959 8.92747C18.319 8.99144 18.3388 9.05221 18.3553 9.11937L16.9855 9.40082L16.2362 9.66948L17.0251 9.54154L18.3586 9.12896C18.3751 9.18653 18.3916 9.2569 18.4048 9.32406C18.3487 9.33046 18.3058 9.37523 18.3058 9.436C18.3058 9.49677 18.3586 9.54794 18.4213 9.54794C18.4246 9.54794 18.4279 9.54794 18.4312 9.54794C18.4378 9.61191 18.4378 9.68547 18.4378 9.74943L17.0416 9.68547L16.2395 9.75263L17.0416 9.82939L18.4378 9.75903C18.4378 9.82939 18.4378 9.89975 18.4312 9.96372C18.4279 9.96372 18.4246 9.96372 18.4213 9.96372C18.3586 9.96372 18.3058 10.0181 18.3058 10.0757C18.3058 10.1332 18.3487 10.1748 18.4048 10.1876C18.3916 10.2548 18.3784 10.3219 18.3619 10.3859L17.8866 10.2388L17.0284 9.97012L16.2395 9.84218L16.9888 10.1108L18.3586 10.3955C18.3421 10.4595 18.3223 10.5298 18.2959 10.5874C18.2926 10.5874 18.286 10.5842 18.2827 10.5842C18.2728 10.5842 18.2629 10.5842 18.2563 10.5842C18.1902 10.5842 18.1407 10.6322 18.1407 10.6961C18.1407 10.7153 18.144 10.7249 18.1506 10.7377C18.1572 10.7569 18.1671 10.7697 18.1836 10.7793C18.1869 10.7793 18.1902 10.7825 18.1935 10.7825C18.1969 10.7857 18.2002 10.7889 18.2035 10.7889C18.2068 10.7889 18.2101 10.7921 18.2101 10.7953C18.1803 10.856 18.1473 10.9168 18.111 10.9744L16.9359 10.2388H16.9326L16.2032 9.91574H16.2065L16.5894 10.1748L16.86 10.3603L18.1044 10.9776C18.0681 11.0383 18.0318 11.0991 17.9889 11.1535C17.9691 11.1439 17.946 11.1343 17.9229 11.1343C17.8569 11.1343 17.8074 11.1823 17.8074 11.243C17.8074 11.2782 17.8206 11.3102 17.8503 11.3294C17.8041 11.3806 17.7578 11.4285 17.7083 11.4765L16.7676 10.4722L16.1537 9.97651L16.6653 10.5778L17.7017 11.4861C17.6522 11.5373 17.606 11.5757 17.5532 11.6204C17.5301 11.6012 17.507 11.5948 17.4806 11.5948C17.4179 11.5948 17.365 11.6492 17.365 11.7068C17.365 11.7292 17.3683 11.742 17.375 11.758C17.3122 11.7931 17.2495 11.8347 17.1901 11.8731L16.5497 10.6673L16.0843 10.0277L16.421 10.7345L17.1835 11.8763C17.1208 11.9083 17.0614 11.9403 16.9987 11.969C16.9822 11.9275 16.9425 11.9019 16.8963 11.9019C16.8303 11.9019 16.7808 11.9563 16.7808 12.0138C16.7808 12.0266 16.7841 12.0426 16.7874 12.0554C16.7214 12.0778 16.6554 12.097 16.5861 12.113L16.289 10.7857L16.0117 10.0629V10.0597L16.1504 10.8241L16.5795 12.1162C16.5101 12.1354 16.4408 12.1514 16.3748 12.1577C16.3649 12.1066 16.3187 12.065 16.2626 12.065C16.1966 12.065 16.1471 12.1162 16.1471 12.1737C16.1471 12.1801 16.1471 12.1833 16.1471 12.1865C16.0777 12.1929 16.0051 12.1961 15.9358 12.1961L16.0051 10.8432L15.9325 10.0661L15.8599 10.8432L15.9292 12.1961C15.8566 12.1961 15.7873 12.1929 15.7146 12.1865C15.7146 12.1833 15.7146 12.1801 15.7146 12.1737C15.7146 12.1162 15.6618 12.065 15.5991 12.065C15.543 12.065 15.4968 12.1066 15.4869 12.1577C15.4176 12.1482 15.3516 12.1322 15.2855 12.1162L15.7146 10.8241L15.8467 10.0629L15.5694 10.7857L15.2756 12.113C15.2096 12.1002 15.1436 12.0778 15.0743 12.0554C15.0809 12.0426 15.0842 12.0266 15.0842 12.0138C15.0842 11.9563 15.0314 11.9019 14.972 11.9019C14.9225 11.9019 14.8828 11.9307 14.863 11.969C14.8003 11.9403 14.7376 11.9083 14.6782 11.8763L15.4407 10.7345L15.7741 10.0277L15.3119 10.6641L14.6749 11.8731C14.6122 11.8347 14.5528 11.7963 14.4967 11.758C14.5099 11.7452 14.5198 11.7228 14.5198 11.6972C14.5198 11.6332 14.4669 11.5821 14.4075 11.5821C14.3679 11.5821 14.3382 11.6012 14.3184 11.6236C14.2623 11.5757 14.2095 11.5373 14.1633 11.4861L15.2063 10.5778L15.7179 9.97651L15.0842 10.4563L14.1435 11.4605C14.0907 11.4125 14.0444 11.3614 13.9982 11.3134C14.0246 11.291 14.0411 11.259 14.0411 11.2238C14.0411 11.1631 13.9883 11.1151 13.9256 11.1151C13.8992 11.1151 13.8761 11.1215 13.8563 11.1343C13.8167 11.0799 13.7771 11.0224 13.7441 10.9616L14.9918 10.3411L15.642 9.89975L14.9192 10.2228L13.7441 10.9584C13.7078 10.9008 13.6814 10.8432 13.6483 10.7793C13.6913 10.7633 13.721 10.7249 13.721 10.6801C13.721 10.6162 13.6714 10.565 13.6054 10.565C13.5889 10.565 13.5724 10.5682 13.5559 10.5746C13.5328 10.5138 13.513 10.4467 13.4899 10.3763L14.8597 10.0917L15.6156 9.82299L14.8234 9.95093L13.4899 10.3667C13.4701 10.3027 13.4569 10.2388 13.4437 10.1652C13.4998 10.1588 13.5427 10.114 13.5427 10.0565C13.5427 9.9957 13.4899 9.94453 13.4272 9.94453C13.4239 9.94453 13.4173 9.94453 13.414 9.94453C13.4107 9.88056 13.4041 9.8102 13.4041 9.73984L14.8036 9.8102L15.6024 9.73344L14.8036 9.66628L13.4041 9.73024C13.4041 9.66628 13.4107 9.59272 13.414 9.52875C13.4206 9.52875 13.4272 9.52875 13.4338 9.52875C13.4965 9.52875 13.5493 9.48078 13.5493 9.41681C13.5493 9.35604 13.5031 9.31127 13.4404 9.30487C13.4536 9.24091 13.4668 9.16734 13.4866 9.10977L14.8201 9.52235L15.6123 9.65029L14.8564 9.38163L13.4866 9.09698C13.5064 9.02982 13.5295 8.96265 13.5526 8.90189C13.5625 8.90508 13.5823 8.90828 13.5955 8.90828C13.6615 8.90828 13.7111 8.85711 13.7111 8.79634C13.7111 8.74837 13.6814 8.70999 13.6417 8.69719C13.6714 8.63323 13.7045 8.57246 13.7375 8.51169L14.9126 9.2537L15.6453 9.57673L14.9918 9.12577L13.7441 8.5085C13.7804 8.45093 13.8167 8.39336 13.8596 8.33259C13.8761 8.35178 13.9025 8.35818 13.9289 8.35818C13.9916 8.35818 14.0444 8.307 14.0444 8.24624C14.0444 8.21425 14.0246 8.18227 14.0015 8.15668C14.0444 8.10551 14.0907 8.06073 14.1402 8.00956L15.0809 9.02022L15.7014 9.51596L15.1898 8.91468L14.1468 8.00636C14.1996 7.95839 14.2491 7.91361 14.3019 7.86884C14.3217 7.89442 14.3547 7.91041 14.391 7.91041C14.457 7.91041 14.5066 7.85924 14.5066 7.79528C14.5066 7.76969 14.4966 7.7473 14.4834 7.72811C14.5429 7.69613 14.599 7.65775 14.6617 7.62257L15.2987 8.82832L15.7609 9.46159L15.4308 8.77076L14.6683 7.63536C14.731 7.60018 14.7904 7.5682 14.8531 7.53941C14.8729 7.58099 14.9126 7.60977 14.9621 7.60977C15.0281 7.60977 15.0776 7.5586 15.0776 7.50103C15.0776 7.48184 15.0743 7.46585 15.071 7.45306C15.137 7.42747 15.2063 7.41148 15.2723 7.38909L15.5694 8.71319L15.8467 9.4456L15.7113 8.6812L15.2822 7.38909C15.3483 7.3667 15.4143 7.35711 15.4869 7.34112C15.4935 7.39549 15.543 7.43707 15.5991 7.43707C15.6651 7.43707 15.7146 7.38589 15.7146 7.32193C15.7146 7.31873 15.7146 7.31553 15.7146 7.31233C15.7807 7.30913 15.85 7.30914 15.9193 7.30914Z" fill="#16007E"/>
</g>
<mask id="mask6_939_89643" style="mask-type:luminance" maskUnits="userSpaceOnUse" x="0" y="0" width="32" height="19">
<path d="M31.8462 0.742188H0V18.7422H31.8462V0.742188Z" fill="white"/>
</mask>
<g mask="url(#mask6_939_89643)">
<path d="M15.927 9.33984C16.1581 9.33984 16.3429 9.52215 16.3429 9.74283C16.3429 9.96671 16.1581 10.149 15.927 10.149C15.6927 10.149 15.5078 9.96671 15.5078 9.74283C15.5078 9.52535 15.6927 9.33984 15.927 9.33984Z" fill="white"/>
</g>
<mask id="mask7_939_89643" style="mask-type:luminance" maskUnits="userSpaceOnUse" x="0" y="0" width="32" height="19">
<path d="M31.8462 0.742188H0V18.7422H31.8462V0.742188Z" fill="white"/>
</mask>
<g mask="url(#mask7_939_89643)">
<path d="M15.9264 9.43359C16.1013 9.43359 16.2466 9.57112 16.2466 9.74383C16.2466 9.91973 16.1013 10.0605 15.9264 10.0605C15.7481 10.0605 15.5996 9.91973 15.5996 9.74383C15.5996 9.57112 15.7481 9.43359 15.9264 9.43359Z" fill="#16007E"/>
</g>
</g>
</g>
</g>
<defs>
<clipPath id="clip0_939_89643">
<rect width="31.8462" height="18" fill="white" transform="translate(0 0.742188)"/>
</clipPath>
</defs>
</svg>
