<svg width="14" height="14" viewBox="0 0 14 14" fill="none" xmlns="http://www.w3.org/2000/svg">
<path d="M8.73849 0.242188C6.59751 0.242188 4.71604 1.73439 4.19701 3.81049V3.87537H4.13214C2.83457 4.26464 1.79652 4.9783 1.14773 6.08123C0.498952 7.18416 0.304317 8.41685 0.628708 9.64954C0.9531 10.8822 1.73164 11.9203 2.76969 12.5691C3.80774 13.2178 5.10531 13.4125 6.338 13.0881C8.02483 12.6339 9.3224 11.3364 9.77655 9.64954V9.58466H9.84142C11.0741 9.26027 12.1122 8.54661 12.7609 7.44368C13.4097 6.34075 13.6044 5.10806 13.28 3.87537C12.8258 1.73439 10.9444 0.242188 8.73849 0.242188ZM8.67362 9.90905C8.08971 11.3364 6.72727 12.2447 5.23507 12.2447C3.15896 12.2447 1.537 10.5578 1.537 8.54661C1.537 6.98953 2.4453 5.69196 3.87262 5.10806L4.06726 5.04318V5.30269C4.19701 7.70319 6.07848 9.64954 8.54386 9.7793H8.80337L8.67362 9.90905ZM8.93313 8.67636H8.73849C6.72727 8.67636 5.04043 6.98953 5.04043 4.9783V4.78367H5.23507C7.31117 4.78367 8.93313 6.4705 8.93313 8.48173V8.67636ZM12.177 6.34075C11.7878 7.24904 11.0741 8.02758 10.1009 8.41685L9.9063 8.48173V8.22222C9.77655 5.82172 7.89508 3.87537 5.4297 3.74562H5.17019L5.23507 3.55098C5.68922 2.64268 6.40288 1.92902 7.31117 1.53975C8.21947 1.15048 9.25752 1.15048 10.1658 1.53975C11.0741 1.86414 11.7878 2.57781 12.177 3.4861C12.5663 4.3944 12.5663 5.43245 12.177 6.34075Z" fill="#003744"/>
</svg>
