<svg width="7" height="12" viewBox="0 0 7 12" fill="none" xmlns="http://www.w3.org/2000/svg">
<path d="M0.906479 6.20319L0.907684 6.20453L4.93078 10.6746C4.93084 10.6747 4.9309 10.6748 4.93096 10.6748C4.99226 10.7433 5.06644 10.7989 5.14926 10.8387C5.23217 10.8784 5.32211 10.9015 5.41394 10.9064C5.50575 10.9114 5.59765 10.8981 5.68435 10.8675C5.77105 10.8369 5.85086 10.7894 5.91919 10.7279L5.9192 10.7279C5.98753 10.6663 6.04304 10.5919 6.08256 10.5089C6.12207 10.4259 6.14482 10.3359 6.14949 10.244C6.15416 10.1522 6.14066 10.0603 6.10976 9.97372C6.07892 9.88728 6.03135 9.80777 5.9698 9.73973C5.96967 9.73959 5.96955 9.73945 5.96942 9.73931L2.36594 5.73691L5.96942 1.73452C5.96952 1.73441 5.96962 1.7343 5.96972 1.73419C6.03131 1.66612 6.0789 1.58658 6.10976 1.50011C6.14066 1.41349 6.15416 1.32164 6.14949 1.22981C6.14482 1.13798 6.12209 1.04797 6.08256 0.964927C6.04304 0.881888 5.98752 0.807475 5.91919 0.745946C5.85086 0.684409 5.77105 0.636965 5.68435 0.606331C5.59765 0.575696 5.50576 0.562472 5.41394 0.567418C5.32212 0.572364 5.23217 0.595383 5.14926 0.635155C5.06647 0.674869 4.99232 0.73051 4.93104 0.798901C4.93095 0.798997 4.93087 0.799093 4.93078 0.799189L0.907684 5.2693L0.90768 5.2693L0.90675 5.27034C0.844399 5.34041 0.796815 5.42234 0.766868 5.51125L1.00379 5.59105L0.766867 5.51125C0.737123 5.59956 0.725395 5.69291 0.732346 5.7858C0.742392 5.94039 0.803653 6.08726 0.906483 6.20319L0.906479 6.20319Z" fill="#003744" stroke="#003744" stroke-width="0.5"/>
</svg>
