<svg width="13" height="14" viewBox="0 0 13 14" fill="none" xmlns="http://www.w3.org/2000/svg">
<path d="M12.1899 2.77719L11.1099 1.08719C10.8099 0.567187 10.2699 0.242188 9.72992 0.242188H3.60992C3.06992 0.242188 2.52992 0.567187 2.22992 1.08719L1.14992 2.77719C0.849922 3.10219 0.669922 3.62219 0.669922 4.07719V11.3572C0.669922 12.3972 1.44992 13.2422 2.34992 13.2422H10.9899C11.9499 13.2422 12.6699 12.3972 12.6699 11.4222V4.07719C12.6699 3.55719 12.4899 3.10219 12.1899 2.77719ZM3.60992 1.21719H9.66992C9.90992 1.21719 10.1499 1.34719 10.2699 1.60719L10.6299 2.25719H2.58992L2.94992 1.60719C3.12992 1.34719 3.36992 1.21719 3.60992 1.21719ZM11.7699 11.4222C11.7699 11.8772 11.4099 12.2672 10.9899 12.2672H2.34992C1.92992 12.2672 1.56992 11.8772 1.56992 11.4222V4.07719C1.56992 3.62219 1.92992 3.23219 2.34992 3.23219H10.9899C11.4099 3.23219 11.7699 3.62219 11.7699 4.07719V11.4222Z" fill="#003744"/>
<path d="M6.67039 11.0338C5.65039 11.0338 4.63039 10.5787 3.91039 9.79875C3.73039 9.60375 3.73039 9.27875 3.91039 9.08375C4.09039 8.88875 4.39039 8.88875 4.57039 9.08375C5.77039 10.3838 7.63039 10.3838 8.83039 9.08375C9.01039 8.88875 9.31039 8.88875 9.49039 9.08375C9.67039 9.27875 9.67039 9.60375 9.49039 9.73375C8.71039 10.5788 7.69039 11.0338 6.67039 11.0338Z" fill="#003744"/>
</svg>
