<svg width="51" height="51" viewBox="0 0 51 51" fill="none" xmlns="http://www.w3.org/2000/svg">
<g clip-path="url(#clip0_1737_412)">
<path d="M25.4453 50.1406C39.2524 50.1406 50.4453 38.9477 50.4453 25.1406C50.4453 11.3335 39.2524 0.140625 25.4453 0.140625C11.6382 0.140625 0.445312 11.3335 0.445312 25.1406C0.445312 38.9477 11.6382 50.1406 25.4453 50.1406Z" fill="#EE4B68"/>
<path d="M50.4453 25.1406C50.4453 34.4766 45.3281 42.6016 37.7891 46.8984C36.7344 47.4844 35.6406 48.0312 34.4688 48.4609C34.1953 48.5781 33.9219 48.6562 33.6484 48.7734C31.0703 49.6719 28.3359 50.1406 25.4453 50.1406C24.9766 50.1406 24.5078 50.1406 24.0391 50.1016C23.8828 50.1016 23.7266 50.0625 23.5703 50.0625C23.2578 50.0625 22.9844 50.0234 22.7109 49.9844C22.6719 49.9844 22.6719 49.9844 22.6719 49.9844C22.2422 49.9453 21.8125 49.8672 21.4219 49.8281C20.0938 49.5938 18.7656 49.2812 17.5156 48.8516C17.1641 48.7344 16.8125 48.6172 16.4609 48.4609C16.4219 48.4609 16.3828 48.4219 16.3438 48.4219C16.0703 48.3047 15.8359 48.2266 15.5625 48.1094C15.0156 47.875 14.4688 47.6016 13.9219 47.3281C9 44.75 5.01562 40.6094 2.71094 35.5312C1.22656 32.3672 0.445312 28.8516 0.445312 25.1406C0.445312 11.3516 11.6562 0.140625 25.4453 0.140625C39.2344 0.140625 50.4453 11.3516 50.4453 25.1406Z" fill="#EA88B4"/>
<path d="M40.2109 35.7266C29.7031 44.125 21.1484 44.125 10.6797 35.7266C14.5469 28.8906 14.8594 21.3516 15.7578 13.1875C16.1875 7.875 20.0156 4.55469 25.3281 4.55469H25.5234C30.875 4.59375 34.6641 7.875 35.0937 13.1875C36.0312 21.3516 36.3438 28.8906 40.2109 35.7266Z" fill="#003744"/>
<path d="M17.9659 21.6338C18.8493 21.4327 19.2587 19.9225 18.8804 18.2608C18.502 16.5991 17.4791 15.4151 16.5957 15.6163C15.7123 15.8174 15.3028 17.3276 15.6812 18.9893C16.0595 20.651 17.0824 21.835 17.9659 21.6338Z" fill="#F8CFA3"/>
<path d="M17.7882 20.9609C17.3975 20.9609 16.6554 20.1797 16.3429 18.8125C16.0304 17.4062 16.3819 16.3125 16.7725 16.2344H16.8116C17.2022 16.2344 17.9444 17.0156 18.2569 18.3828C18.4132 19.0859 18.4132 19.7891 18.296 20.2969C18.1788 20.6484 18.0225 20.9219 17.8663 20.9609C17.8272 20.9609 17.7882 20.9609 17.7882 20.9609Z" fill="#F1B97C"/>
<path d="M35.2066 18.954C35.5849 17.2923 35.1755 15.7822 34.292 15.581C33.4086 15.3799 32.3857 16.5639 32.0073 18.2256C31.629 19.8873 32.0384 21.3974 32.9219 21.5986C33.8053 21.7997 34.8282 20.6157 35.2066 18.954Z" fill="#F8CFA3"/>
<path d="M33.1014 20.9622H33.0624C32.9061 20.9231 32.7108 20.6497 32.6327 20.2981C32.4764 19.7512 32.5155 19.0872 32.6717 18.384C32.9842 16.9778 33.8045 16.1575 34.1952 16.2356C34.5858 16.3137 34.9374 17.4075 34.6249 18.8137C34.2342 20.22 33.492 20.9622 33.1014 20.9622Z" fill="#F1B97C"/>
<path d="M20.1328 30.5703L20.6797 28.1094L21.5781 27.6406L29.3516 27.5625L31.0703 29.8672L30.6406 30.5703H20.1328Z" fill="#E7E7E8"/>
<path d="M42.8281 39.3594V43.0703C38.3359 47.4453 32.2031 50.1406 25.4453 50.1406C18.6875 50.1406 12.5547 47.4453 8.0625 43.1094V39.3984C8.53125 34.2422 11.6953 33.5391 13.1406 33.5C13.9609 33.4609 14.7422 33.3828 15.5234 33.1875C21.6562 31.6641 21.6953 27.9531 21.6953 27.9531V24.4375H29.1953V27.9531C29.1953 27.9531 29.2344 31.6641 35.3672 33.1875C36.1484 33.3828 36.9297 33.4609 37.75 33.5C39.1953 33.5391 42.3594 34.2422 42.8281 39.3594Z" fill="#F1B97C"/>
<path d="M42.8281 39.3594V43.0703C38.3359 47.4453 32.2031 50.1406 25.4453 50.1406C18.6875 50.1406 12.5547 47.4453 8.0625 43.1094V39.3984C8.53125 34.2422 11.6953 33.5391 13.1406 33.5C13.9609 33.4609 14.7422 33.3828 15.5234 33.1875C18.1406 32.5234 19.6641 31.4688 20.5234 30.4922L22.0859 33.7734L25.4453 41.9375L29.3516 32.9922L30.6797 30.8047C31.5781 31.7031 33.0625 32.6016 35.4062 33.1875C36.1875 33.3828 36.9688 33.4609 37.7891 33.5C39.1953 33.5391 42.3594 34.2422 42.8281 39.3594Z" fill="#C576AC"/>
<path d="M33.7266 17.6016C33.7266 22.6016 30.0156 28.6172 25.4453 28.6172C20.875 28.6172 17.1641 22.6016 17.1641 17.6016C17.1641 12.6016 20.875 8.57812 25.4453 8.57812C30.0156 8.57812 33.7266 12.6016 33.7266 17.6016Z" fill="#F8CFA3"/>
<path d="M30.1328 31.5078C29.2344 37.0938 25.875 42.7969 25.4844 43.4609C25.4844 43.5 25.4453 43.5 25.4063 43.4609C25.0156 42.7969 21.6562 37.0938 20.7578 31.5078L21.2656 31.3516L22.0078 31.9375L22.6719 32.9141C22.6719 32.9141 24.1172 37.1719 25.4063 40.2969C26.7344 37.1719 28.1406 32.9141 28.1406 32.9141L28.8047 31.9375L29.5469 31.3516L30.1328 31.5078Z" fill="#E7E7E8"/>
<path d="M33.7266 33.0312L34.1172 36.0391C34.1172 36.0391 32.7891 34.0469 31.3828 32.6406C30.4844 31.7031 28.9609 31.7812 28.1797 32.8359C28.1797 32.8359 28.1797 32.875 28.1406 32.875C28.1406 32.875 28.3359 32.1719 29.3906 30.8828C29.6641 30.5703 29.8203 30.2188 29.8594 29.8672C29.9766 29.125 29.7422 28.3438 29.1172 27.875V27.3672C29.7031 27.5234 30.4453 27.8359 31.2266 28.5C32.6328 29.6719 33.4922 31.3125 33.7266 33.0312Z" fill="#FCFCFC"/>
<path d="M22.7109 32.875C22.7109 32.875 22.7109 32.8359 22.6719 32.8359C21.8906 31.7812 20.3672 31.7031 19.4688 32.6406C18.1016 34.0859 16.7344 36.0391 16.7344 36.0391L17.125 33.0312C17.3594 31.2734 18.2188 29.6719 19.5469 28.5C20.3281 27.8359 21.0312 27.5234 21.6562 27.3672V27.875C21.0703 28.3438 20.7969 29.125 20.9141 29.8672C20.9922 30.2188 21.1484 30.5703 21.3828 30.8828C22.5156 32.1719 22.7109 32.875 22.7109 32.875Z" fill="#FCFCFC"/>
<path d="M35.4844 19.1641C35.5625 19.0859 35.6406 19.0078 35.7188 18.9297C35.5625 17.5625 35.4453 16.1953 35.2891 14.8281C34.8984 14.3203 34.5078 13.8516 34.2344 13.4219L32.9844 11.2344L29.1953 6.58594L25.7969 4.51562C25.7188 4.51562 25.6406 4.51562 25.5234 4.51562C25.4453 4.51562 25.4062 4.51562 25.3281 4.51562C20.0156 4.55469 16.1875 7.83594 15.7578 13.1484C15.6016 14.6719 15.4453 16.1953 15.2891 17.6797C17.9453 16.3516 20.7969 13.8906 22.3594 9.24219C25.7969 19.4766 35.4844 19.1641 35.4844 19.1641Z" fill="#003744"/>
</g>
<defs>
<clipPath id="clip0_1737_412">
<rect width="50" height="50" fill="white" transform="translate(0.445312 0.140625)"/>
</clipPath>
</defs>
</svg>
