<svg width="16" height="14" viewBox="0 0 16 14" fill="none" xmlns="http://www.w3.org/2000/svg">
<path d="M14.9616 5.37719H12.0366V0.762187C12.0366 0.502187 11.8416 0.242188 11.5166 0.242188H1.24656C0.921563 0.242188 0.726562 0.437188 0.726562 0.762187V11.0322C0.726562 12.2672 1.70156 13.2422 2.93656 13.2422H13.2066H13.2716H13.3366H13.4666C13.5316 13.2422 13.5316 13.2422 13.5966 13.2422C14.1166 13.1772 14.5716 12.9822 14.8966 12.5922C15.2866 12.2022 15.5466 11.6172 15.5466 11.0322V5.89719C15.4816 5.63719 15.2866 5.37719 14.9616 5.37719ZM2.09156 11.8772C1.89656 11.6172 1.76656 11.3572 1.76656 11.0322V1.28219H11.0616V11.0322C11.0616 11.0972 11.0616 11.1622 11.0616 11.2272V11.4222C11.0616 11.5522 11.1266 11.6172 11.1266 11.6822V11.7472C11.1916 11.9422 11.2566 12.1372 11.3866 12.2672H2.93656C2.61156 12.2672 2.35156 12.1372 2.09156 11.8772ZM14.4416 11.0322C14.4416 11.3572 14.3116 11.6822 14.1166 11.8772C13.8566 12.1372 13.5966 12.2022 13.2716 12.2022C13.1416 12.2022 13.0116 12.2022 12.8816 12.1372L12.8166 12.0722C12.6216 12.0072 12.4266 11.8122 12.2316 11.6172C12.1016 11.4222 12.0366 11.1622 12.0366 10.9672V6.41719H14.4416V11.0322Z" fill="#003744"/>
<path d="M6.96695 3.10156H3.52195C3.26195 3.10156 3.00195 3.29656 3.00195 3.62156C3.00195 3.88156 3.19695 4.14156 3.52195 4.14156H6.96695C7.22695 4.14156 7.48695 3.94656 7.48695 3.62156C7.48695 3.29656 7.22695 3.10156 6.96695 3.10156Z" fill="#003744"/>
<path d="M4.69195 5.37891H3.52195C3.26195 5.37891 3.00195 5.57391 3.00195 5.89891C3.00195 6.15891 3.19695 6.41891 3.52195 6.41891H4.69195C4.95195 6.41891 5.21195 6.22391 5.21195 5.89891C5.14695 5.63891 4.95195 5.37891 4.69195 5.37891Z" fill="#003744"/>
</svg>
