<svg width="23" height="23" viewBox="0 0 23 23" fill="none" xmlns="http://www.w3.org/2000/svg">
<g clip-path="url(#clip0_939_89682)">
<path d="M11.4227 4.24219C8.82266 4.24219 6.72266 6.24219 6.72266 8.94219C6.72266 11.5422 8.82266 13.6422 11.4227 13.6422C14.0227 13.6422 16.1227 11.5422 16.1227 8.94219C16.2227 6.24219 14.0227 4.24219 11.4227 4.24219ZM11.4227 12.0422C9.82266 12.0422 8.32266 10.6422 8.32266 8.94219C8.32266 7.24219 9.72266 5.84219 11.4227 5.84219C13.1227 5.84219 14.5227 7.24219 14.5227 8.94219C14.5227 10.5422 13.2227 12.0422 11.4227 12.0422Z" fill="#EB89B5"/>
<path d="M11.4219 0.242188C5.42188 0.242188 0.421875 5.14219 0.421875 11.2422C0.421875 14.1422 1.52188 16.9422 3.62188 18.9422C4.22188 19.4422 4.62187 19.8422 5.12187 20.2422C6.92188 21.5422 9.12187 22.2422 11.4219 22.2422C13.6219 22.2422 15.8219 21.5422 17.7219 20.2422C18.3219 19.9422 18.7219 19.4422 19.2219 18.9422C21.2219 16.8422 22.4219 14.1422 22.4219 11.2422C22.5219 5.14219 17.6219 0.242188 11.4219 0.242188ZM17.4219 18.3422C15.6219 19.7422 13.6219 20.5422 11.4219 20.5422C9.22188 20.5422 7.12187 19.7422 5.32188 18.3422C5.72188 16.9422 7.12188 16.0422 8.52188 16.0422H14.2219C15.8219 15.9422 17.0219 16.9422 17.4219 18.3422ZM18.9219 16.9422C17.9219 15.3422 16.3219 14.3422 14.4219 14.3422H8.52188C6.62188 14.3422 5.02187 15.3422 4.12188 16.9422C2.82188 15.3422 2.12188 13.3422 2.12188 11.2422C2.12188 6.04219 6.32188 1.94219 11.4219 1.94219C16.6219 1.94219 20.8219 6.14219 20.8219 11.2422C20.8219 13.3422 20.1219 15.3422 18.9219 16.9422Z" fill="#EB89B5"/>
<path opacity="0.5" d="M11.4223 5.84375C10.3223 5.84375 9.32227 6.44375 8.82227 7.34375C9.32227 7.04375 9.82227 6.84375 10.3223 6.84375C12.0223 6.84375 13.4223 8.24375 13.4223 9.94375C13.4223 10.5437 13.2223 11.0438 13.0223 11.5438C13.9223 11.0438 14.5223 10.0437 14.5223 8.94375C14.5223 7.24375 13.0223 5.84375 11.4223 5.84375Z" fill="#EB89B5"/>
<path opacity="0.5" d="M7.52109 17.1436H13.2211C14.6211 17.0436 15.8211 17.9436 16.3211 19.2436C16.7211 19.0436 17.1211 18.7436 17.5211 18.4436C17.1211 17.0436 15.8211 16.0436 14.3211 16.1436H8.52109C7.32109 16.1436 6.22109 16.7436 5.62109 17.7436C6.22109 17.3436 6.82109 17.1436 7.52109 17.1436Z" fill="#EB89B5"/>
</g>
<defs>
<clipPath id="clip0_939_89682">
<rect width="22" height="22" fill="white" transform="translate(0.421875 0.242188)"/>
</clipPath>
</defs>
</svg>
