<svg width="22" height="23" viewBox="0 0 22 23" fill="none" xmlns="http://www.w3.org/2000/svg">
<g clip-path="url(#clip0_939_89688)">
<path d="M9.4 18.9422C11.7 18.9422 13.7 18.1422 15.4 16.7422L20.7 22.0422C20.9 22.1422 21 22.2422 21.3 22.2422C21.5 22.2422 21.7 22.1422 21.9 22.0422C22.2 21.7422 22.2 21.1422 21.9 20.8422L16.7 15.6422C18 13.9422 18.9 11.8422 18.9 9.64219C18.9 4.44219 14.7 0.242188 9.5 0.242188C4.2 0.242187 0 4.44219 0 9.64219C0 14.8422 4.3 18.9422 9.4 18.9422ZM9.4 1.94219C13.6 1.94219 17 5.34219 17 9.54219C17 13.7422 13.6 17.1422 9.4 17.1422C5.2 17.1422 1.8 13.7422 1.8 9.54219C1.8 5.34219 5.2 1.94219 9.4 1.94219Z" fill="#EB89B5"/>
<path opacity="0.5" d="M9.4 1.94141C7 1.94141 4.9 3.04141 3.5 4.74141C4.8 3.64141 6.5 3.04141 8.3 3.04141C12.5 3.04141 15.9 6.44141 15.9 10.6414C15.9 12.4414 15.3 14.1414 14.2 15.4414C15.9 14.0414 17 11.9414 17 9.54141C17 5.34141 13.6 1.94141 9.4 1.94141Z" fill="#EB89B5"/>
</g>
<defs>
<clipPath id="clip0_939_89688">
<rect width="22" height="22" fill="white" transform="translate(0 0.242188)"/>
</clipPath>
</defs>
</svg>
