<svg width="14" height="14" viewBox="0 0 14 14" fill="none" xmlns="http://www.w3.org/2000/svg">
<path d="M1.29984 13.2422H13.2598C13.5198 13.2422 13.7798 13.0472 13.7798 12.7222C13.7798 12.3972 13.5848 12.2022 13.2598 12.2022H11.7648V8.43219C12.8698 8.17219 13.7148 7.13219 13.7148 5.96219V5.89719L11.8298 0.892187C11.6998 0.502187 11.3098 0.242188 10.8548 0.242188H3.63984C3.18484 0.242188 2.79484 0.502187 2.66484 0.892187L0.779843 5.89719V5.96219C0.779843 7.13219 1.62484 8.17219 2.72984 8.43219V12.2022H1.23484C0.974843 12.2022 0.714844 12.3972 0.714844 12.7222C0.714844 13.0472 0.974844 13.2422 1.29984 13.2422ZM10.7248 12.2022H3.76984V8.43219H3.83484C4.41984 8.30219 4.87484 7.97719 5.26484 7.52219C5.65484 8.04219 6.23984 8.36719 6.95484 8.43219C7.60484 8.49719 8.25484 8.30219 8.77484 7.91219C8.90484 7.78219 9.09984 7.65219 9.16484 7.52219C9.55484 7.97719 10.0098 8.30219 10.5948 8.43219V12.2022H10.7248ZM1.75484 6.15719L3.50984 1.54219C3.57484 1.41219 3.70484 1.28219 3.89984 1.28219H10.6598C10.8548 1.28219 10.9848 1.41219 11.0498 1.54219L12.7398 6.09219C12.7398 6.48219 12.5448 6.87219 12.2198 7.13219C11.9598 7.39219 11.6348 7.52219 11.2448 7.52219C11.1798 7.52219 11.1798 7.52219 11.1148 7.52219C10.5298 7.45719 10.0098 7.06719 9.81485 6.48219C9.74985 6.22219 9.48984 6.02719 9.22984 6.02719C8.96984 6.02719 8.70985 6.22219 8.64485 6.48219C8.51485 6.87219 8.25484 7.19719 7.86484 7.32719C7.47484 7.52219 7.08485 7.52219 6.69485 7.39219C6.23985 7.26219 5.91484 6.87219 5.78484 6.48219C5.78484 6.22219 5.52484 6.09219 5.26484 6.02719C5.00484 6.02719 4.74484 6.22219 4.67984 6.48219C4.54984 6.87219 4.28984 7.19719 3.89984 7.32719C3.70484 7.45719 3.44484 7.45719 3.24984 7.45719C3.11984 7.45719 2.92484 7.45719 2.79484 7.39219C2.20984 7.26219 1.81984 6.74219 1.75484 6.15719Z" fill="#003744"/>
</svg>
