<svg width="14" height="14" viewBox="0 0 14 14" fill="none" xmlns="http://www.w3.org/2000/svg">
<path d="M11.721 9.64027C10.551 8.86027 8.73102 8.40527 6.78102 8.40527C4.83102 8.40527 3.01102 8.86027 1.84102 9.64027C0.996016 10.2253 0.541016 11.0053 0.541016 11.7203V12.6303C0.541016 12.8903 0.671016 13.2153 0.866016 13.4103C1.06102 13.5403 1.32102 13.6703 1.64602 13.6703H12.046C12.306 13.6703 12.631 13.5403 12.826 13.3453C13.021 13.1503 13.151 12.8903 13.151 12.5653V11.7203C13.086 10.9403 12.566 10.2253 11.721 9.64027ZM2.42602 10.4203C3.46602 9.70527 5.02602 9.31527 6.78102 9.31527C8.53602 9.31527 10.161 9.70527 11.136 10.4203C11.721 10.8103 12.046 11.2653 12.046 11.7203V12.6953H1.51602V11.7203C1.51602 11.2653 1.84102 10.8103 2.42602 10.4203Z" fill="#003744"></path>
<path d="M6.78039 7.42992C8.66539 7.42992 10.1604 5.93492 10.1604 4.04992C10.1604 2.16492 8.66539 0.669922 6.78039 0.669922C4.96039 0.669922 3.40039 2.16492 3.40039 4.04992C3.40039 5.93492 4.96039 7.42992 6.78039 7.42992ZM6.78039 1.64492C8.08039 1.64492 9.18539 2.68492 9.18539 4.04992C9.18539 5.34992 8.14539 6.45492 6.78039 6.45492C5.48039 6.45492 4.44039 5.34992 4.44039 4.04992C4.44039 2.74992 5.48039 1.64492 6.78039 1.64492Z" fill="#003744"></path>
</svg>