<svg width="42px" height="42px" viewBox="0 0 42 42" version="1.1" xmlns="http://www.w3.org/2000/svg" xlink="http://www.w3.org/1999/xlink">
    <title>Group 3</title>
    
    <g id="Symbols" stroke="none" stroke-width="1" fill="none" fill-rule="evenodd">
        <g id="Group-3" transform="translate(-84.000000, -68.000000)" filter="url(#filter-1)">
            <g transform="translate(84.000000, 68.000000)">
                <path d="M25.9152534,19.9450884 C22.3533177,19.9450884 19.4661061,22.8815846 19.4661061,26.5036714 C19.4661061,30.1257582 22.3533177,33.0622545 25.9152534,33.0622545 C29.4769025,33.0622545 32.3644007,30.1257582 32.3644007,26.5036714 C32.3644007,22.8815846 29.4769025,19.9450884 25.9152534,19.9450884 L25.9152534,19.9450884 Z M36.9152057,31.8304068 C34.9563847,36.0063296 30.7675918,38.8921061 25.9152534,38.8921061 C19.1872164,38.8921061 13.7335308,33.3455853 13.7335308,26.5036714 C13.7335308,19.6617576 19.1872164,14.1152367 25.9152534,14.1152367 C26.6842784,14.1152367 27.4352458,14.1910248 28.164716,14.3294838 L21.0001433,0 L0,42 L42,42 L36.9152057,31.8304068 Z" id="Fill-1" fill="#080200"></path>
            </g>
        </g>
    </g>
</svg>