<svg version="1.1" id="Layer_1" xmlns="http://www.w3.org/2000/svg" xlink="http://www.w3.org/1999/xlink" x="0px" y="0px" viewBox="0 0 42 42" style="enable-background:new 0 0 42 42;" space="preserve">
<g id="_x30_2-urun-liste">
	<g id="_x30_2_x5F_urunliste_x5F_dektop_x5F_filtreler" transform="translate(-1499.000000, -2191.000000)">
		<g id="Group-2" transform="translate(1479.000000, 2181.000000)">
			<path id="Path" d="M42.8,50V15.9l5.6,5.7c0.6,0.6,1.6,0.6,2.3,0c0.6-0.6,0.6-1.6,0-2.3l-8.4-8.4c0,0,0,0,0,0
				c-0.6-0.6-1.7-0.6-2.3,0c0,0,0,0,0,0l-8.4,8.4c-0.6,0.6-0.6,1.7,0,2.3c0.6,0.6,1.7,0.6,2.3,0l5.6-5.7V50c0,0.9,0.7,1.6,1.6,1.6
				S42.8,50.9,42.8,50z"></path>
		</g>
	</g>
</g>
</svg>