<svg width="18px" height="18px" viewBox="0 0 18 18" version="1.1" xmlns="http://www.w3.org/2000/svg" xlink="http://www.w3.org/1999/xlink">
    <title>Group 3</title>
    
    <g id="Symbols" stroke="none" stroke-width="1" fill="none" fill-rule="evenodd">
        <g id="header/mobile" transform="translate(-339.000000, -16.000000)">
            <g id="Group-3" transform="translate(339.000000, 16.000000)">
                
                <g id="Clip-2"></g>
                <path d="M8.85138934,0.885245902 C10.5598402,0.885245902 11.94975,2.27515574 11.94975,3.98360656 L11.94975,4.72131148 L5.75302869,4.72131148 L5.75302869,3.98360656 C5.75302869,2.27515574 7.14293852,0.885245902 8.85138934,0.885245902 L8.85138934,0.885245902 Z M4.86778279,5.60655738 L4.86778279,7.52459016 C4.86778279,7.76865984 5.06633607,7.96721311 5.31040574,7.96721311 C5.55447541,7.96721311 5.75302869,7.76865984 5.75302869,7.52459016 L5.75302869,5.60655738 L11.94975,5.60655738 L11.94975,7.52459016 C11.94975,7.76865984 12.1483033,7.96721311 12.392373,7.96721311 C12.6364795,7.96721311 12.8349959,7.76865984 12.8349959,7.52459016 L12.8349959,5.60655738 L15.5403074,5.60655738 L16.8122951,16.29 C16.837082,16.4991762 16.7711311,16.7094221 16.6312254,16.8668484 C16.4916148,17.0240902 16.290959,17.114459 16.0808975,17.1147541 L1.62309836,17.1147541 C1.21643852,17.1147541 0.885356557,16.7839672 0.885356557,16.3773443 C0.885356557,16.3482049 0.887090164,16.3188074 0.890520492,16.2900369 L2.16247131,5.60655738 L4.86778279,5.60655738 Z M17.6927828,16.185209 L17.6761844,16.0581025 L16.3728811,5.1117418 C16.3464713,4.88913934 16.1575451,4.72131148 15.9333566,4.72131148 L12.8349959,4.72131148 L12.8349959,3.98360656 C12.8349959,1.78705328 11.0479426,0 8.85138934,0 C6.65483607,0 4.86778279,1.78705328 4.86778279,3.98360656 L4.86778279,4.72131148 L1.76942213,4.72131148 C1.54527049,4.72131148 1.35634426,4.88913934 1.32989754,5.11166803 L0.0114713115,16.1852459 C-0.0942786885,17.0738484 0.542618852,17.8828525 1.43122131,17.9886025 C1.49447951,17.9961639 1.55884426,18 1.62243443,18 L16.0812664,18 C16.975918,18 17.7041437,17.2720697 17.7041437,16.3774549 C17.7041437,16.313459 17.7003811,16.2487623 17.6927828,16.185209 L17.6927828,16.185209 Z" id="Fill-1" fill="#000000" mask="url(#mask-2)"></path>
            </g>
        </g>
    </g>
</svg>