<svg version="1.1" id="Layer_1" xmlns="http://www.w3.org/2000/svg" xlink="http://www.w3.org/1999/xlink" x="0px" y="0px" viewBox="0 0 15 15" style="enable-background:new 0 0 15 15;" space="preserve">
<style type="text/css">
	.st0{filter:url(#Adobe_OpacityMaskFilter);}
	.st1{fill-rule:evenodd;clip-rule:evenodd;fill:#FFFFFF;}
	.st2{mask:url(#mask-3_1_);fill:#060000;}
</style>
<g id="_x30_6-checkout">
	<g id="check" transform="translate(-312.000000, -209.000000)">
		<g transform="translate(312.000000, 209.000000)">
			<g id="path-1">
			</g>
			
			
			<path id="Fill-1" class="st2" d="M5.3,13c-0.2,0-0.4-0.1-0.6-0.3L0.3,8.2c-0.3-0.4-0.3-0.9,0-1.3c0.2-0.2,0.4-0.3,0.6-0.3
				s0.4,0.1,0.6,0.3l3.8,4l8.2-8.6C13.7,2.1,13.9,2,14.1,2s0.4,0.1,0.6,0.3c0.3,0.4,0.3,0.9,0,1.3l-8.9,9.2C5.7,12.9,5.5,13,5.3,13"></path>
		</g>
	</g>
</g>
</svg>