<svg width="16px" height="16px" viewBox="0 0 16 16" version="1.1" xmlns="http://www.w3.org/2000/svg" xlink="http://www.w3.org/1999/xlink">
    <title>Shape 2</title>
    <g id="03-urun-detay" stroke="none" stroke-width="1" fill="none" fill-rule="evenodd">
        <g id="03_urundetay_magazadabul_01_mobil" transform="translate(-322.000000, -202.000000)" fill="#4A4A4A" fill-rule="nonzero">
            <g id="Group-6" transform="translate(18.000000, 178.000000)">
                <g id="Shape-2" transform="translate(304.000000, 24.000000)">
                    <path d="M9.08517915,7.99987215 L15.7752421,1.3099161 C16.0749193,1.01024371 16.0749193,0.524426688 15.7752421,0.224754295 C15.4755649,-0.0749180983 14.9897401,-0.0749180983 14.690063,0.224754295 L8,6.91471035 L1.30993703,0.225777068 C1.01025985,-0.0738953256 0.524435069,-0.0738953256 0.224757887,0.225777068 C-0.0749192956,0.525449461 -0.0749192956,1.01126648 0.224757887,1.31093887 L6.91482085,8.00089493 L0.225780676,14.6898282 C-0.0738965065,14.9895006 -0.0738965065,15.4753176 0.225780676,15.77499 C0.376130661,15.9243148 0.571483364,16 0.767858855,16 C0.964234347,16 1.16060984,15.9253376 1.30993703,15.77499 L8,9.08503396 L14.690063,15.77499 C14.840413,15.9243148 15.0357657,16 15.2321411,16 C15.4285166,16 15.6248921,15.9253376 15.7742193,15.77499 C16.0738965,15.4753176 16.0738965,14.9895006 15.7742193,14.6898282 L9.08517915,7.99987215 Z" id="Shape"></path>
                </g>
            </g>
        </g>
    </g>
</svg>