<svg width="18" height="14" viewBox="0 0 18 14" fill="none" xmlns="http://www.w3.org/2000/svg">
<path d="M15.112 0.669922H3.08695C1.85195 0.669922 0.876953 1.64492 0.876953 2.87992V11.4599C0.876953 12.6949 1.85195 13.6699 3.08695 13.6699H15.112C16.347 13.6699 17.322 12.6949 17.322 11.4599V2.87992C17.322 1.64492 16.347 0.669922 15.112 0.669922ZM1.85195 3.59492V2.87992C1.85195 2.16492 2.37195 1.64492 3.08695 1.64492H15.112C15.827 1.64492 16.347 2.16492 16.347 2.87992V3.59492L9.13195 7.36492L1.85195 3.59492ZM16.282 4.76492V11.4599C16.282 12.1749 15.762 12.6949 15.047 12.6949H3.08695C2.37195 12.6949 1.85195 12.1749 1.85195 11.4599V4.76492L8.80695 8.46992C8.87195 8.53492 8.93695 8.53492 9.06695 8.53492C9.19695 8.53492 9.26195 8.53492 9.32695 8.46992L16.282 4.76492Z" fill="#003744"></path>
</svg>