<svg version="1.1" id="Layer_1" xmlns="http://www.w3.org/2000/svg" xlink="http://www.w3.org/1999/xlink" x="0px" y="0px" viewBox="0 0 18 18" style="enable-background:new 0 0 18 18;" space="preserve">
<style type="text/css">
	.st0{fill:#979797;}
	.st1{fill:#E20008;}
	.st2{fill:#010002;}
</style>
<g id="_x30_6-checkout">
	<g id="_x30_5_x5F_checkout_x5F_02_x5F_odemebilgileri" transform="translate(-485.000000, -548.000000)">
		<g id="Group-5" transform="translate(485.000000, 548.000000)">
			<g id="Rectangle">
				<path class="st0" d="M8.8,11h-7V9h7V11z M1.9,10.9h6.8V9.1H1.9V10.9z"></path>
			</g>
			<g>
				<path class="st1" d="M9.8,9v2h3V9H9.8z M12.7,10.9H9.9V9.1h2.8V10.9z"></path>
				<polygon class="st1" points="10.7,10.4 10.7,10.4 10.7,9.7 10.5,9.7 10.5,9.8 10.7,9.8 				"></polygon>
				<path class="st1" d="M11.3,10C11.2,10,11.2,10,11.3,10l-0.4,0.4h0.5v-0.1h-0.3L11.3,10C11.3,10.1,11.3,10,11.3,10
					c0.1,0,0.1-0.1,0.1-0.1c0,0,0,0,0-0.1s0,0,0-0.1c0,0,0,0-0.1,0c0,0-0.1,0-0.1,0c0,0-0.1,0-0.1,0c0,0-0.1,0.1-0.1,0.1
					c0,0,0,0.1,0,0.1H11c0,0,0-0.1,0-0.1c0,0,0,0,0-0.1s0,0,0.1,0c0,0,0,0,0.1,0c0,0,0,0,0,0s0,0,0,0s0,0,0,0
					C11.3,9.9,11.3,9.9,11.3,10C11.3,10,11.3,10,11.3,10z"></path>
				<path class="st1" d="M11.8,10.3C11.8,10.3,11.7,10.3,11.8,10.3c-0.1,0-0.1,0-0.1,0s0,0,0,0s0,0,0-0.1h-0.1c0,0,0,0.1,0,0.1
					c0,0,0,0,0,0.1c0,0,0,0,0.1,0S11.7,10.4,11.8,10.3C11.8,10.4,11.8,10.4,11.8,10.3c0.1,0.1,0.1,0,0.1,0c0,0,0-0.1,0-0.1
					c0,0,0-0.1,0-0.1c0,0,0,0-0.1-0.1c0,0,0,0-0.1,0c0,0,0,0,0.1,0c0,0,0,0,0-0.1c0,0,0,0,0-0.1c0,0,0-0.1,0-0.1c0,0,0-0.1-0.1-0.1
					c0,0-0.1,0-0.1,0c0,0-0.1,0-0.1,0c0,0-0.1,0-0.1,0.1s0,0.1,0,0.1h0.1c0,0,0,0,0-0.1c0,0,0,0,0,0c0,0,0,0,0.1,0c0,0,0,0,0.1,0
					c0,0,0,0,0,0c0,0,0,0,0,0.1c0,0,0,0,0,0c0,0,0,0,0,0c0,0,0,0,0,0c0,0,0,0-0.1,0v0v0v0c0,0,0,0,0.1,0c0,0,0,0,0.1,0c0,0,0,0,0,0
					c0,0,0,0,0,0.1C11.9,10.2,11.8,10.3,11.8,10.3C11.8,10.3,11.8,10.3,11.8,10.3z"></path>
			</g>
			<g id="credit-card-back-_x28_1_x29_">
				<g transform="translate(-0.000000, 0.000000)">
					<g id="Shape">
						<path class="st2" d="M17.3,3H0.7C0.5,3,0.4,3.2,0.4,3.3v1.8v2.2v7.4c0,0.2,0.1,0.3,0.3,0.3h16.7c0.2,0,0.3-0.1,0.3-0.3V7.3
							V5.1V3.3C17.6,3.2,17.5,3,17.3,3z M17,3.7v1.1H1V3.7H17z M1,14.3V7.6h16v6.8L1,14.3L1,14.3z"></path>
					</g>
					<g id="Path">
						<path class="st2" d="M2,12.7L2,12.7c-0.2,0-0.4,0.1-0.4,0.3c0,0.2,0.1,0.3,0.3,0.3H2c0.2,0,0.3-0.1,0.3-0.3
							C2.3,12.8,2.2,12.7,2,12.7z"></path>
					</g>
					<g id="Path_1_">
						<path class="st2" d="M2.9,12.7L2.9,12.7c-0.2,0-0.4,0.1-0.4,0.3c0,0.2,0.1,0.3,0.3,0.3h0.1c0.2,0,0.3-0.1,0.3-0.3
							C3.2,12.8,3.1,12.7,2.9,12.7z"></path>
					</g>
					<g id="Path_2_">
						<path class="st2" d="M3.9,12.7L3.9,12.7c-0.2,0-0.4,0.1-0.4,0.3c0,0.2,0.1,0.3,0.3,0.3h0.1c0.2,0,0.3-0.1,0.3-0.3
							C4.2,12.8,4,12.7,3.9,12.7z"></path>
					</g>
					<g id="Path_3_">
						<path class="st2" d="M13.5,12.7H4.8c-0.2,0-0.3,0.1-0.3,0.3c0,0.2,0.1,0.3,0.3,0.3h8.6c0.2,0,0.3-0.1,0.3-0.3
							C13.8,12.8,13.6,12.7,13.5,12.7z"></path>
					</g>
				</g>
			</g>
		</g>
	</g>
</g>
</svg>