<svg width="213.629931640625px" height="231.22501220703126px" xmlns="http://www.w3.org/2000/svg" xlink="http://www.w3.org/1999/xlink" viewBox="143.1850341796875 -40.61250610351563 213.629931640625 231.22501220703126" style="background: rgba(0, 0, 0, 0);" preserveAspectRatio="xMidYMid"><g filter="url(#editing-stripe-bk)"><g transform="translate(175.83499813079834, 120.5)"><path d="M10.14 0L10.14-91L42.12-91L42.12-91Q54.47-91 60.52-83.46L60.52-83.46L60.52-83.46Q66.56-75.92 66.56-63.18L66.56-63.18L66.56-63.18Q66.56-54.99 65.26-48.43L65.26-48.43L65.26-48.43Q63.96-41.86 58.76-36.86L58.76-36.86L58.76-36.86Q53.56-31.85 43.03-31.85L43.03-31.85L17.42-31.85L17.42 0L10.14 0ZM43.16-39L43.16-39Q50.44-39 54.02-42.90L54.02-42.90L54.02-42.90Q57.59-46.80 58.44-51.74L58.44-51.74L58.44-51.74Q59.28-56.68 59.28-62.79L59.28-62.79L59.28-62.79Q59.28-73.45 54.86-78.78L54.86-78.78L54.86-78.78Q50.44-84.11 42.64-84.11L42.64-84.11L17.42-84.11L17.42-39L43.16-39ZM74.88 0L74.88-6.50L128.18-84.37L76.57-84.37L76.57-91L137.41-91L137.41-84.50L84.11-6.63L138.19-6.63L138.19 0L74.88 0Z" fill="#de530f"></path></g></g><style>text {
  font-size: 64px;
  font-family: Arial Black;
  dominant-baseline: central;
  text-anchor: middle;
}</style></svg>