<svg width="17" height="14" viewBox="0 0 17 14" fill="none" xmlns="http://www.w3.org/2000/svg">
<path d="M16.2358 7.07973H15.0082C15.5251 5.85215 15.5251 4.49534 14.9436 3.26776C14.3621 1.97556 13.3284 1.00642 12.1654 0.747978C10.8086 0.489539 9.45177 0.877198 8.54723 1.84634C7.57809 0.941807 6.22128 0.489539 4.86448 0.747978C3.7015 1.00642 2.66775 1.91095 2.15087 3.26776C1.50477 4.68917 1.56938 6.30441 2.28009 7.46739H0.858675C0.600236 7.46739 0.341797 7.66122 0.341797 7.98427C0.341797 8.2427 0.535626 8.50114 0.858675 8.50114H2.9908C4.79987 10.6979 8.03035 13.4115 8.22418 13.5407C8.28879 13.6053 8.41801 13.6699 8.54723 13.6699C8.67645 13.6699 8.74106 13.6053 8.87028 13.5407C9.25794 13.2177 12.8115 10.2456 14.4267 8.11349H16.2358C16.4942 8.11349 16.7527 7.91966 16.7527 7.59661C16.6881 7.27356 16.4942 7.07973 16.2358 7.07973ZM3.24923 7.07973C3.18462 7.07973 3.18462 7.01512 3.12001 6.95051C2.60314 6.04597 2.53853 4.75378 3.0554 3.65542C3.50767 2.62166 4.21838 1.91095 5.12292 1.71712C5.31675 1.71712 5.51057 1.65251 5.7044 1.65251C7.25504 1.65251 8.09496 2.8801 8.09496 2.8801C8.15957 3.00932 8.3534 3.07393 8.48262 3.07393C8.61184 3.07393 8.80567 3.00932 8.87028 2.8801C8.9995 2.8801 10.0979 1.32947 11.9715 1.71712C12.8115 1.91095 13.5868 2.62166 14.0391 3.59081C14.5559 4.75378 14.4913 5.98137 13.9744 6.8859C13.9744 6.8859 13.9744 6.95051 13.9098 6.95051V7.01512H9.96865C9.77482 7.01512 9.58099 7.14434 9.51638 7.33817L8.9995 8.63036L7.51348 4.883C7.44887 4.75378 7.38426 4.68917 7.25504 4.62456C7.19043 4.62456 7.12582 4.55995 7.06121 4.55995C6.9966 4.55995 6.93199 4.55995 6.86738 4.62456C6.60894 4.68917 6.54433 4.81839 6.47972 4.94761L5.63979 7.46739H3.50767C3.44306 7.40278 3.44306 7.33817 3.37845 7.27356C3.31384 7.20895 3.24923 7.14434 3.24923 7.07973ZM5.96284 8.50114C6.15667 8.50114 6.3505 8.37192 6.41511 8.1781L6.93199 6.62746L8.3534 10.2456C8.41801 10.4394 8.61184 10.5687 8.80567 10.5687C8.9995 10.5687 9.19333 10.4394 9.25794 10.2456L10.1625 8.11349H13.0699C11.6485 9.79334 9.19333 11.9255 8.48262 12.5069C7.83652 11.9901 5.76901 10.181 4.28299 8.50114H5.96284Z" fill="#003744"></path>
</svg>