<svg width="14px" height="14px" viewBox="0 0 14 14" version="1.1" xmlns="http://www.w3.org/2000/svg" xlink="http://www.w3.org/1999/xlink">
    <title>road-sign</title>
    <g id="03-urun-detay" stroke="none" stroke-width="1" fill="none" fill-rule="evenodd">
        <g id="03_urundetay_magazadabul_03_mobil" transform="translate(-75.000000, -563.000000)" fill="#000000" fill-rule="nonzero">
            <g id="Group-6" transform="translate(48.000000, 549.000000)">
                <g id="road-sign" transform="translate(27.000000, 14.000000)">
                    <path d="M8.00236719,1.67882422 C7.92832031,1.54721875 7.76160547,1.50051562 7.62997266,1.5745625 L7.61651953,1.58213672 C7.48491406,1.65618359 7.43821094,1.82289844 7.51225781,1.95453125 C7.56243359,2.04375391 7.65521094,2.09395703 7.75083203,2.09395703 C7.79622266,2.09395703 7.84226953,2.08260937 7.88465234,2.05879297 L7.89810547,2.05121875 C8.02971094,1.97717187 8.07641406,1.81045703 8.00236719,1.67882422 Z" id="Path"></path>
                    <path d="M13.9199102,2.48633984 L11.5136602,0.0800898438 C11.435457,0.00188671875 11.3178242,-0.0214921875 11.215668,0.0208359375 C11.1135117,0.0631367187 11.046875,0.162859375 11.046875,0.2734375 L11.046875,0.984375 L9.8984375,0.984375 C9.47630469,0.984375 9.05783594,1.04100391 8.65467969,1.15270312 C8.50915625,1.19303516 8.42387109,1.34369922 8.46417578,1.48922266 C8.50450781,1.63474609 8.65511719,1.71997656 8.80069531,1.67972656 C9.15630078,1.58120703 9.52566016,1.53125 9.8984375,1.53125 L11.3203125,1.53125 C11.471332,1.53125 11.59375,1.40883203 11.59375,1.2578125 L11.59375,0.933570313 L13.3398672,2.6796875 L11.59375,4.42580469 L11.59375,4.1015625 C11.59375,3.95054297 11.471332,3.828125 11.3203125,3.828125 L9.8984375,3.828125 C8.90331641,3.828125 8.09375,4.63769141 8.09375,5.6328125 L8.09375,9.18946875 C7.59286719,8.25324609 6.78100391,7.50739062 5.796875,7.09121875 L5.796875,5.6328125 C5.796875,4.49976953 6.24875781,3.44512109 7.06928906,2.66317187 C7.17860937,2.55899219 7.18276562,2.38590625 7.07858594,2.27658594 C6.97437891,2.16726562 6.80129297,2.16308203 6.692,2.26728906 C5.76212109,3.15347266 5.25,4.34869531 5.25,5.6328125 L5.25,6.89959375 C4.84979687,6.78696484 4.42791016,6.7265625 3.9921875,6.7265625 L2.953125,6.7265625 L2.953125,6.015625 C2.953125,5.90504687 2.88648828,5.80532422 2.78433203,5.76299609 C2.68217578,5.72066797 2.56451562,5.74410156 2.48633984,5.82225 L0.0800898437,8.2285 C-0.0266875,8.33527734 -0.0266875,8.50841797 0.0800898437,8.61522266 L2.48633984,11.0214727 C2.56454297,11.0996484 2.68214844,11.123082 2.78433203,11.0807266 C2.88651562,11.0383984 2.953125,10.9387031 2.953125,10.8280977 L2.953125,10.1171602 L3.9921875,10.1171602 C4.68573437,10.1171602 5.25,10.6814258 5.25,11.3749727 L5.25,13.7265352 C5.25,13.8775547 5.37241797,13.9999727 5.5234375,13.9999727 L8.3671875,13.9999727 C8.51820703,13.9999727 8.640625,13.8775547 8.640625,13.7265352 L8.640625,5.6328125 C8.640625,4.93926562 9.20489062,4.375 9.8984375,4.375 L11.046875,4.375 L11.046875,5.0859375 C11.046875,5.19651562 11.1135117,5.29623828 11.215668,5.33856641 C11.3178242,5.38089453 11.435457,5.35751562 11.5136602,5.2793125 L13.9199102,2.8730625 C14.0266875,2.76625781 14.0266875,2.59311719 13.9199102,2.48633984 Z M8.09375,13.453125 L7.328125,13.453125 L7.328125,11.6232266 C7.328125,11.472207 7.20570703,11.3497891 7.0546875,11.3497891 C6.90366797,11.3497891 6.78125,11.472207 6.78125,11.6232266 L6.78125,13.453125 L5.796875,13.453125 L5.796875,11.375 C5.796875,10.3798789 4.98730859,9.5703125 3.9921875,9.5703125 L2.6796875,9.5703125 C2.52866797,9.5703125 2.40625,9.69273047 2.40625,9.84375 L2.40625,10.1679922 L0.660132812,8.421875 L2.40625,6.67575781 L2.40625,7 C2.40625,7.15101953 2.52866797,7.2734375 2.6796875,7.2734375 L3.9921875,7.2734375 C6.25378906,7.2734375 8.09375,9.11339844 8.09375,11.375 L8.09375,13.453125 Z" id="Shape"></path>
                    <path d="M7.24800781,10.3742187 C7.19714844,10.3230859 7.12660156,10.2941016 7.0546875,10.2941016 C6.98277344,10.2941016 6.91222656,10.3230859 6.86136719,10.3742187 C6.81050781,10.4250781 6.78125,10.4953516 6.78125,10.5675391 C6.78125,10.6394531 6.81050781,10.71 6.86136719,10.7608594 C6.91222656,10.8117187 6.98277344,10.8409766 7.0546875,10.8409766 C7.12660156,10.8409766 7.19714844,10.8117187 7.24800781,10.7608594 C7.29886719,10.71 7.328125,10.6394531 7.328125,10.5675391 C7.328125,10.4953516 7.29886719,10.4250781 7.24800781,10.3742187 Z" id="Path"></path>
                </g>
            </g>
        </g>
    </g>
</svg>