<svg width="12" height="14" viewBox="0 0 12 14" fill="none" xmlns="http://www.w3.org/2000/svg">
<path d="M4.6932 8.01531C4.6282 7.88531 4.4982 7.82031 4.3032 7.82031C4.2382 7.82031 4.1082 7.82031 4.0432 7.88531C3.7832 8.01531 3.7182 8.34031 3.8482 8.60031C4.3682 9.44531 5.2132 9.90031 6.1232 9.90031C7.0982 9.90031 7.9432 9.38031 8.3982 8.60031C8.5282 8.34031 8.4632 8.08031 8.2032 7.88531C8.1382 7.82031 8.0732 7.82031 8.0082 7.82031C7.8132 7.82031 7.6832 7.88531 7.5532 8.08031C7.2932 8.60031 6.7082 8.86031 6.1232 8.86031C5.5382 8.86031 5.0182 8.53531 4.6932 8.01531Z" fill="#003744"></path>
<path d="M11.5834 1.25492C9.82844 0.864922 7.94344 0.669922 6.12344 0.669922C4.30344 0.669922 2.41844 0.864922 0.663438 1.25492C0.468438 1.31992 0.273438 1.51492 0.273438 1.77492V7.10492C0.273438 8.14492 0.468437 9.11992 0.858437 10.0949C1.70344 12.2399 3.78344 13.6699 6.12344 13.6699C8.46344 13.6699 10.5434 12.2399 11.3884 10.0949C11.7784 9.18492 11.9734 8.14492 11.9734 7.10492V1.77492C11.9734 1.51492 11.7784 1.31992 11.5834 1.25492ZM1.24844 2.16492C4.43344 1.51492 7.74844 1.51492 10.8684 2.16492H10.9334V7.10492C10.9334 8.01492 10.7384 8.85992 10.4134 9.70492C9.69844 11.5249 8.00844 12.6299 6.05844 12.6299C4.10844 12.6299 2.41844 11.4599 1.70344 9.70492C1.37844 8.85992 1.18344 8.01492 1.18344 7.10492V2.16492H1.24844Z" fill="#003744"></path>
<path d="M6.83813 5.93445C6.90313 5.99945 7.03312 5.99945 7.09812 5.99945C7.29312 5.99945 7.42312 5.93445 7.55312 5.73945C7.68312 5.54445 7.94312 5.41445 8.20312 5.41445C8.46312 5.41445 8.72313 5.54445 8.78813 5.73945C8.91813 5.99945 9.24312 6.06445 9.43812 5.93445C9.69812 5.80445 9.76312 5.47945 9.63312 5.28445C9.30812 4.76445 8.78812 4.43945 8.13812 4.43945C7.48812 4.43945 6.96812 4.76445 6.64312 5.28445C6.51312 5.47945 6.57813 5.80445 6.83813 5.93445Z" fill="#003744"></path>
<path d="M2.80883 5.935C2.87383 5.935 2.93883 6 3.06883 6C3.13383 6 3.13383 6 3.19883 5.935C3.32883 5.935 3.39383 5.87 3.45883 5.74C3.58883 5.545 3.84883 5.415 4.10883 5.415C4.36883 5.415 4.62883 5.545 4.69383 5.74C4.82383 6 5.14883 6.065 5.40883 5.935C5.66883 5.74 5.73383 5.48 5.60383 5.22C5.27883 4.7 4.75883 4.375 4.10883 4.375C3.45883 4.375 2.93883 4.7 2.61383 5.22C2.48383 5.48 2.54883 5.805 2.80883 5.935Z" fill="#003744"></path>
</svg>