<svg version="1.1" id="Layer_1" xmlns="http://www.w3.org/2000/svg" xlink="http://www.w3.org/1999/xlink" x="0px" y="0px" viewBox="0 0 41 41" style="enable-background:new 0 0 41 41;" space="preserve">
<g id="_x30_4-login-sign-up">
	<g id="login_signup" transform="translate(-655.000000, -559.000000)">
		<g id="Group" transform="translate(304.000000, 370.000000)">
			<g id="Group-7" transform="translate(0.000000, 174.000000)">
				<g id="visibility" transform="translate(351.000000, 15.000000)">
					<path id="Shape" d="M40.8,20c-0.3-0.5-8.1-11.5-20.3-11.5C10,8.6,0.6,19.5,0.2,19.9c-0.3,0.3-0.3,0.8,0,1.1
						c0.4,0.5,9.8,11.4,20.3,11.4s19.9-10.9,20.3-11.4C41,20.8,41,20.3,40.8,20z M20.5,30.7c-8.4,0-16.4-8-18.5-10.2
						c2-2.2,10-10.2,18.5-10.2c9.9,0,16.8,8,18.5,10.2C37,22.6,29,30.7,20.5,30.7z"></path>
					<path id="Shape_1_" d="M20.5,13.7c-3.8,0-6.8,3.1-6.8,6.8s3.1,6.8,6.8,6.8s6.8-3.1,6.8-6.8S24.2,13.7,20.5,13.7z M20.5,25.6
						c-2.8,0-5.1-2.3-5.1-5.1s2.3-5.1,5.1-5.1s5.1,2.3,5.1,5.1S23.3,25.6,20.5,25.6z"></path>
				</g>
			</g>
		</g>
	</g>
</g>
</svg>