<svg version="1.1" id="Layer_1" xmlns="http://www.w3.org/2000/svg" xlink="http://www.w3.org/1999/xlink" x="0px" y="0px" viewBox="0 0 41 41" style="enable-background:new 0 0 41 41;" space="preserve">
<path d="M40.8,20c-0.2-0.3-3.8-5.4-9.9-8.7l9.1-9.1c0.3-0.3,0.3-0.9,0-1.2c-0.3-0.3-0.9-0.3-1.2,0l-9.5,9.5c-2.6-1.2-5.6-2-8.9-2
	C10,8.6,0.6,19.5,0.2,19.9c-0.3,0.3-0.3,0.8,0,1.1c0.3,0.3,4.4,5.1,10.1,8.4L0.7,39c-0.3,0.3-0.3,0.9,0,1.2c0.2,0.2,0.4,0.2,0.6,0.2
	c0.2,0,0.4-0.1,0.6-0.2l10-10c2.6,1.3,5.5,2.2,8.6,2.2c10.5,0,19.9-10.9,20.3-11.4C41,20.8,41,20.3,40.8,20z M2,20.5
	c2-2.2,10-10.2,18.5-10.2c2.8,0,5.3,0.6,7.5,1.6l-3.3,3.3c-1.2-0.9-2.6-1.5-4.2-1.5c-3.8,0-6.8,3.1-6.8,6.8c0,1.6,0.5,3,1.5,4.2
	l-3.5,3.5C7,25.6,3.3,21.9,2,20.5z M25.6,20.5c0,2.8-2.3,5.1-5.1,5.1c-1.1,0-2.1-0.4-2.9-0.9l7.1-7.1C25.3,18.4,25.6,19.4,25.6,20.5
	z M15.4,20.5c0-2.8,2.3-5.1,5.1-5.1c1.1,0,2.1,0.4,3,1l-7.1,7.1C15.7,22.6,15.4,21.6,15.4,20.5z M20.5,30.7c-2.5,0-5-0.7-7.3-1.8
	l3.1-3.1c1.2,0.9,2.6,1.4,4.2,1.4c3.8,0,6.8-3.1,6.8-6.8c0-1.6-0.5-3-1.4-4.1l3.8-3.7c4.9,2.5,8.3,6.4,9.4,7.8
	C37,22.6,29,30.7,20.5,30.7z"></path>
</svg>