<svg width="14" height="14" viewBox="0 0 14 14" fill="none" xmlns="http://www.w3.org/2000/svg">
<g clip-path="url(#clip0_3850_835)">
<path d="M5.60352 6.76953H6.10352C6.40352 6.76953 6.60352 6.56953 6.60352 6.26953C6.60352 5.96953 6.40352 5.76953 6.10352 5.76953H5.60352C5.30352 5.76953 5.10352 5.96953 5.10352 6.26953C5.10352 6.56953 5.30352 6.76953 5.60352 6.76953Z" fill="#003744"></path>
<path d="M11.1035 9.96973H11.6035C11.9035 9.96973 12.1035 9.76973 12.1035 9.46973C12.1035 9.16973 11.9035 8.96973 11.6035 8.96973H11.1035C10.8035 8.96973 10.6035 9.16973 10.6035 9.46973C10.7035 9.76973 10.9035 9.96973 11.1035 9.96973Z" fill="#003744"></path>
<path d="M12.1033 4.36992H9.30332V2.06992C9.30332 1.26992 8.70332 0.669922 7.90332 0.669922H2.30332C1.50332 0.669922 0.90332 1.26992 0.90332 2.06992V12.2699C0.90332 13.0699 1.50332 13.6699 2.30332 13.6699H7.90332C8.70332 13.6699 9.30332 13.0699 9.30332 12.2699V11.3699H12.1033C12.9033 11.3699 13.5033 10.7699 13.5033 9.96992V5.76992C13.5033 5.06992 12.8033 4.36992 12.1033 4.36992ZM1.90332 2.06992C1.90332 1.86992 2.10332 1.66992 2.30332 1.66992H2.90332L3.10332 2.36992C3.20332 2.76992 3.60332 3.06992 4.00332 3.06992H6.10332C6.50332 3.06992 6.90332 2.76992 7.00332 2.36992L7.30332 1.66992H7.90332C8.10332 1.66992 8.30332 1.86992 8.30332 2.06992V4.36992H5.10332C4.30332 4.36992 3.70332 4.96992 3.70332 5.76992V9.96992C3.70332 10.7699 4.30332 11.3699 5.10332 11.3699H8.30332V12.2699C8.30332 12.4699 8.10332 12.6699 7.90332 12.6699H2.30332C2.10332 12.6699 1.90332 12.4699 1.90332 12.2699V2.06992ZM4.70332 5.76992C4.70332 5.56992 4.90332 5.36992 5.10332 5.36992H12.1033C12.3033 5.36992 12.5033 5.56992 12.5033 5.76992V9.96992C12.5033 10.1699 12.3033 10.3699 12.1033 10.3699H5.10332C4.90332 10.3699 4.70332 10.2699 4.70332 9.96992V5.76992ZM3.90332 1.66992H6.30332L6.10332 2.06992H4.10332L3.90332 1.66992Z" fill="#003744"></path>
<path d="M8.60332 9.56953C9.50332 9.56953 10.2033 8.86953 10.2033 7.86953C10.2033 6.86953 9.50332 6.26953 8.60332 6.26953C7.70332 6.26953 6.90332 6.96953 6.90332 7.86953C6.90332 8.76953 7.70332 9.56953 8.60332 9.56953ZM7.90332 7.86953C7.90332 7.46953 8.20332 7.16953 8.60332 7.16953C9.00332 7.16953 9.30332 7.46953 9.30332 7.86953C9.30332 8.26953 9.00332 8.56953 8.60332 8.56953C8.20332 8.56953 7.90332 8.26953 7.90332 7.86953Z" fill="#003744"></path>
</g>

</svg>