<svg version="1.1" id="Layer_1" xmlns="http://www.w3.org/2000/svg" xlink="http://www.w3.org/1999/xlink" x="0px" y="0px" viewBox="0 0 20 20" style="enable-background:new 0 0 20 20;" space="preserve">
<path d="M10,0L10,0L10,0L10,0C4.4,0,0,4.5,0,10c0,5.5,4.5,10,10,10H10c5.5,0,9.9-4.5,9.9-10C19.9,4.4,15.5,0,10,0z M18,14.8l-3.8,0
	c0.3-1.4,0.5-2.9,0.6-4.6l4.5,0C19.3,11.9,18.8,13.4,18,14.8z M0.6,10.3l4.6,0c0,1.7,0.2,3.2,0.6,4.6l-3.8,0
	C1.1,13.5,0.6,12,0.6,10.3z M1.9,5.2l3.8,0C5.4,6.5,5.2,8.1,5.2,9.7l-4.6,0C0.6,8.1,1.1,6.5,1.9,5.2z M19.3,9.6l-4.5,0
	c0-1.7-0.2-3.2-0.6-4.6l3.8,0C18.8,6.4,19.3,8,19.3,9.6z M14.2,9.7l-4,0l0-4.6l3.3,0C14,6.5,14.2,8,14.2,9.7z M10.2,4.6l0-4
	c1.3,0.2,2.5,1.7,3.2,3.9L10.2,4.6z M9.6,0.6l0,4l-3.2,0C7.2,2.3,8.4,0.8,9.6,0.6z M9.7,5.1l0,4.6l-4,0c0-1.7,0.2-3.2,0.6-4.6
	L9.7,5.1z M5.7,10.3l4,0l0,4.6l-3.3,0C6,13.5,5.8,12,5.7,10.3z M9.7,15.4l0,4c-1.3-0.2-2.5-1.7-3.2-3.9L9.7,15.4z M10.3,19.4l0-4
	l3.2,0C12.8,17.6,11.6,19.2,10.3,19.4z M10.3,14.8l0-4.6l4,0c0,1.7-0.2,3.2-0.6,4.6L10.3,14.8z M17.6,4.5l-3.6,0
	c-0.5-1.7-1.3-3-2.2-3.8C14.2,1.2,16.2,2.6,17.6,4.5z M8.1,0.8C7.1,1.5,6.4,2.9,5.9,4.6l-3.6,0C3.6,2.7,5.7,1.3,8.1,0.8z M2.3,15.5
	l3.6,0c0.5,1.7,1.3,3.1,2.3,3.8C5.8,18.8,3.7,17.4,2.3,15.5z M11.9,19.2c0.9-0.8,1.7-2.1,2.2-3.9l3.6,0
	C16.3,17.3,14.3,18.7,11.9,19.2z"></path>
</svg>