<svg width="18px" height="18px" viewBox="0 0 18 18" version="1.1" xmlns="http://www.w3.org/2000/svg" xlink="http://www.w3.org/1999/xlink">
    <title>google-symbol</title>
    <g id="04-login-sign-up" stroke="none" stroke-width="1" fill="none" fill-rule="evenodd">
        <g id="login_signup_mobile" transform="translate(-225.000000, -597.000000)" fill-rule="nonzero">
            <g id="google-symbol" transform="translate(225.000000, 597.000000)">
                <path d="M17.8551211,7.33401563 C17.9351367,7.33401563 18,7.39887891 18,7.47889453 L18,9 C18,9.56932031 17.947125,10.1259844 17.8456992,10.6659844 C17.0611172,14.8604414 13.3658438,18.0303047 8.93654297,17.9997539 C3.96653906,17.9655117 -0.01096875,13.9497891 1.23793692e-05,8.97971484 C0.01096875,4.01857031 4.03628906,-1.99840144e-15 9,-1.99840144e-15 C11.4318633,-1.99840144e-15 13.6383398,0.964757812 15.2583047,2.53188281 C15.3168047,2.58844922 15.3183164,2.68168359 15.2607656,2.73919922 L13.1088164,4.89114844 C13.0534102,4.94655469 12.9639023,4.94799609 12.907125,4.89396094 C11.8903711,3.92614453 10.514707,3.33196875 9,3.33196875 C5.87211328,3.33196875 3.35334375,5.83284375 3.33210937,8.96066016 C3.31076953,12.1090078 5.85664453,14.6679961 9,14.6679961 C11.5504102,14.6679961 13.7075273,12.983168 14.4188438,10.6659844 L9.14487891,10.6659844 C9.06486328,10.6659844 9,10.6011211 9,10.5211055 L9,7.47885938 C9,7.39884375 9.06486328,7.33398047 9.14487891,7.33398047 L17.8551211,7.33398047 L17.8551211,7.33401563 Z" id="Path" fill="#2196F3"></path>
                <path d="M17.8551211,7.33401562 L16.7686172,7.33401562 C16.8486328,7.33401562 16.9134961,7.39887891 16.9134961,7.47889453 L16.9134961,9 C16.9134961,9.56932031 16.8606211,10.1259844 16.7591953,10.6659844 C16.0106836,14.6675391 12.6130078,17.7365039 8.45616797,17.9837578 C8.61521484,17.9931445 8.77531641,17.9986289 8.93654297,17.9997539 C13.3658789,18.0303047 17.0611172,14.8604063 17.8456992,10.6659844 C17.947125,10.1259844 18,9.56932031 18,9 L18,7.47885938 C18,7.39887891 17.9351367,7.33401562 17.8551211,7.33401562 Z" id="Path" fill="#1E88E5"></path>
                <path d="M3.85171875,6.62632031 L1.11839062,4.65138281 C2.65183594,1.87787109 5.60678906,-9.99200722e-16 9,-9.99200722e-16 C11.4318633,-9.99200722e-16 13.6383398,0.964757812 15.2583047,2.53188281 C15.3168047,2.58844922 15.3183164,2.68168359 15.2607656,2.73919922 L13.1088164,4.89114844 C13.0535156,4.94644922 12.9640078,4.94817187 12.9073711,4.89424219 C11.8906172,3.92625 10.5148477,3.33200391 9,3.33200391 C6.71723437,3.33200391 4.74953906,4.68144141 3.85171875,6.62632031 Z" id="Path" fill="#F44336"></path>
                <path d="M3.06263672,6.05619141 L3.85171875,6.62632031 C4.67121094,4.85114062 6.38219531,3.57264844 8.41035937,3.36294141 C8.42561719,3.36128906 8.44027734,3.35928516 8.45581641,3.35780859 C8.27732812,3.34086328 8.09644922,3.33200391 7.91349609,3.33200391 C5.85133594,3.33200391 4.05414844,4.41914062 3.06263672,6.05619141 L3.06263672,6.05619141 Z" id="Path" fill="#E53935"></path>
                <path d="M14.1718008,2.53188281 C14.2303008,2.58844922 14.2318125,2.68168359 14.1742617,2.73923438 L12.4275937,4.48590234 C12.5949375,4.61316797 12.7551094,4.74929297 12.907125,4.89399609 C12.9638672,4.94803125 13.0534102,4.94658984 13.1088164,4.89118359 L15.2607656,2.73923438 C15.3183164,2.68168359 15.3167695,2.58848438 15.2583047,2.53188281 C13.6383398,0.964757812 11.4318633,-4.99600361e-16 9,-4.99600361e-16 C8.81750391,-4.99600361e-16 8.63644922,0.00608203125 8.45666016,0.0168046875 C10.6729102,0.148816406 12.6733359,1.08232031 14.1718008,2.53188281 Z" id="Path" fill="#E53935"></path>
                <path d="M15.6020625,15.1163789 C13.9585078,16.8899414 11.6087344,18 9,18 C5.47642969,18 2.42585156,15.9751055 0.948515625,13.0251797 L3.73904297,11.1128906 C4.57642969,13.1964961 6.61654687,14.6679961 9,14.6679961 C10.4957578,14.6679961 11.8560937,14.0885156 12.8687344,13.141793 L15.6020625,15.1163789 Z" id="Path" fill="#4CAF50"></path>
                <path d="M3.73907812,11.1129258 L2.91621094,11.6767969 C3.87193359,13.45725 5.75135156,14.6679961 7.91349609,14.6679961 C8.09634375,14.6679961 8.27708203,14.6590312 8.4555,14.6421211 C6.30924609,14.4375117 4.51188281,13.0359375 3.73907812,11.1129258 Z" id="Path" fill="#43A047"></path>
                <path d="M9,18 C11.6087344,18 13.9585078,16.8899414 15.6020625,15.1163789 L14.932582,14.6327344 C13.3893633,16.5533203 11.0743242,17.827418 8.45810156,17.9836172 C8.63739844,17.9943047 8.81803125,18 9,18 Z" id="Path" fill="#43A047"></path>
                <path d="M3.33200391,9 C3.33200391,9.74678906 3.47649609,10.4599336 3.73907812,11.1129258 L0.948515625,13.0251797 C0.341542969,11.814082 -2.49800181e-16,10.4468906 -2.49800181e-16,9 C-2.49800181e-16,7.42275 0.405632812,5.94035156 1.11839062,4.65138281 L3.85171875,6.62632031 C3.51815625,7.34811328 3.33200391,8.15252344 3.33200391,9 Z" id="Path" fill="#FFC107"></path>
                <path d="M2.91621094,11.6767969 L3.73907812,11.1129258 C3.47649609,10.4599336 3.33200391,9.74678906 3.33200391,9 C3.33200391,8.15252344 3.51815625,7.34811328 3.85171875,6.62632031 L3.06263672,6.05619141 C2.55023437,6.90222656 2.25284766,7.89500391 2.24560547,8.96069531 C2.23892578,9.94345313 2.48245312,10.8688008 2.91621094,11.6767969 L2.91621094,11.6767969 Z" id="Path" fill="#FFB300"></path>
            </g>
        </g>
    </g>
</svg>