<svg version="1.1" id="Layer_1" xmlns="http://www.w3.org/2000/svg" xlink="http://www.w3.org/1999/xlink" x="0px" y="0px" viewBox="0 0 20 20" style="enable-background:new 0 0 20 20;" space="preserve">
<path id="Symbols" d="M19,1H1C0.6,1,0.2,1.4,0.2,1.8S0.6,2.6,1,2.6h18c0.5,0,0.8-0.4,0.8-0.8S19.4,1,19,1z M19,9.2H1
	c-0.5,0-0.8,0.4-0.8,0.8c0,0.5,0.4,0.8,0.8,0.8h18c0.5,0,0.8-0.4,0.8-0.8C19.8,9.5,19.4,9.2,19,9.2z M19,17.3H1
	c-0.5,0-0.8,0.4-0.8,0.8C0.2,18.6,0.6,19,1,19h18c0.5,0,0.8-0.4,0.8-0.8C19.8,17.7,19.4,17.3,19,17.3z"></path>
</svg>