<svg version="1.1" id="Layer_1" xmlns="http://www.w3.org/2000/svg" xlink="http://www.w3.org/1999/xlink" x="0px" y="0px" viewBox="0 0 20 18" style="enable-background:new 0 0 20 18;" space="preserve">
<style type="text/css">
	.st0{filter:url(#Adobe_OpacityMaskFilter);}
	.st1{fill-rule:evenodd;clip-rule:evenodd;fill:#FFFFFF;}
	.st2{mask:url(#mask-2_1_);fill-rule:evenodd;clip-rule:evenodd;}
</style>
<g id="Symbols">
	<g id="header_x2F_mobile" transform="translate(-300.000000, -16.000000)">
		<g id="Group-3" transform="translate(300.000000, 16.000000)">
			<g id="Clip-2">
			</g>
			
			
			<path id="Fill-1" class="st2" d="M5.7,1C3.3,1,1.2,3.2,1.2,5.8c0,1.4,0.4,2.8,1.2,4.2C3,11.1,4,12.3,5.2,13.4
				c2,1.9,4.1,3.1,4.8,3.5c0.7-0.4,2.8-1.7,4.8-3.5c1.2-1.1,2.1-2.3,2.8-3.4c0.8-1.4,1.2-2.8,1.2-4.2c0-2.6-2.1-4.8-4.5-4.8
				c-1.6,0-3.1,0.9-3.9,2.3l0,0l0,0c-0.1,0.1-0.2,0.2-0.4,0.2c-0.2,0-0.3-0.1-0.4-0.2l0,0l0,0C8.8,1.8,7.3,1,5.7,1L5.7,1z M10,18
				c-0.1,0-0.2,0-0.2-0.1C8.1,17,6.5,15.9,5,14.6c-3.2-2.8-4.8-5.9-4.8-8.8C0.2,2.7,2.7,0,5.7,0C7.4,0,9,0.8,10,2.1
				C11,0.8,12.6,0,14.3,0c2.9,0,5.5,2.7,5.5,5.8c0,3-1.7,6-4.8,8.8c-1.5,1.3-3.1,2.4-4.8,3.3C10.2,18,10.1,18,10,18L10,18z"></path>
		</g>
	</g>
</g>
</svg>