<svg version="1.1" id="Layer_1" xmlns="http://www.w3.org/2000/svg" xlink="http://www.w3.org/1999/xlink" x="0px" y="0px" viewBox="0 0 20 18" style="enable-background:new 0 0 20 18;" space="preserve">
<style type="text/css">
	.st0{filter:url(#Adobe_OpacityMaskFilter);}
	.st1{fill-rule:evenodd;clip-rule:evenodd;fill:#FFFFFF;}
	.st2{mask:url(#mask-2_1_);fill-rule:evenodd;clip-rule:evenodd;}
</style>
<g id="Symbols">
	<g id="header_x2F_mobile" transform="translate(-300.000000, -16.000000)">
		<g id="Group-3" transform="translate(300.000000, 16.000000)">
			<g id="Clip-2">
			</g>
			
			
			<path id="Fill-1" class="st2" d="M10,18c-0.1,0-0.2,0-0.2-0.1C8.1,17,6.5,15.9,5,14.6c-3.2-2.8-4.8-5.9-4.8-8.8
				C0.2,2.7,2.7,0,5.7,0C7.4,0,9,0.8,10,2.1C11,0.8,12.6,0,14.3,0c2.9,0,5.5,2.7,5.5,5.8c0,3-1.7,6-4.8,8.8
				c-1.5,1.3-3.1,2.4-4.8,3.3C10.2,18,10.1,18,10,18L10,18z"></path>
		</g>
	</g>
</g>
</svg>