<svg width="14" height="14" viewBox="0 0 14 14" fill="none" xmlns="http://www.w3.org/2000/svg">
<path d="M12.2629 4.46458L7.96267 1.32134C7.23273 0.790021 6.2545 0.790021 5.52952 1.32134L1.16473 4.52913C0.598653 4.90652 0.246094 5.61164 0.246094 6.36642V6.69415L1.14487 12.5983V12.6032C1.28887 13.3828 1.91454 13.9241 2.66932 13.9241H10.8179C11.5379 13.9241 12.2083 13.3431 12.3424 12.5983L13.1766 6.62463V6.30186C13.1815 5.58185 12.8538 4.92638 12.2629 4.46458ZM2.14296 12.4543L1.37329 6.49552V6.29193C1.3137 5.99896 1.4875 5.6315 1.8053 5.37826L6.17505 2.23005C6.29919 2.11088 6.5425 2.05129 6.7163 2.05129C6.8901 2.05129 7.13838 2.10591 7.26252 2.23502L11.6223 5.37826C11.9501 5.64143 12.1189 5.95427 12.1189 6.30186V6.48559L11.2847 12.4493C11.2251 12.6976 11.0414 12.8614 10.8179 12.8614H2.60476C2.38628 12.8614 2.20255 12.7025 2.14296 12.4543Z" fill="#003744"></path>
<path d="M5.2359 11.9387H8.19045C8.46852 11.9387 8.75156 11.7252 8.75156 11.3726C8.75156 11.0946 8.54301 10.8115 8.19045 10.8115H5.24087C4.96279 10.8115 4.67975 11.025 4.67975 11.3726C4.67479 11.7252 4.95783 11.9387 5.2359 11.9387Z" fill="#003744"></path>
</svg>