<svg version="1.1" id="Layer_1" xmlns="http://www.w3.org/2000/svg" xlink="http://www.w3.org/1999/xlink" x="0px" y="0px" viewBox="0 0 15 15" style="enable-background:new 0 0 15 15;" space="preserve">
<style type="text/css">
	.st0{enable-background:new    ;}
</style>
<g class="st0">
	<path d="M14.7,10.5c-0.1,1.2-0.3,2.2-1.2,3c-0.8,0.9-1.9,1.1-3,1.2c-1.2,0.1-4.8,0.1-6,0c-1.2-0.1-2.2-0.3-3-1.2s-1.1-1.9-1.2-3
		c-0.1-1.2-0.1-4.8,0-6c0.1-1.2,0.3-2.2,1.2-3s1.9-1.1,3-1.2c1.2-0.1,4.8-0.1,6,0c1.2,0.1,2.2,0.3,3,1.2c0.9,0.8,1.1,1.9,1.2,3
		C14.8,5.7,14.8,9.3,14.7,10.5z M13.4,7.5c0-1.1,0.1-3.3-0.3-4.3c-0.3-0.6-0.7-1.1-1.4-1.4c-1-0.4-3.2-0.3-4.3-0.3S4.2,1.5,3.2,1.8
		C2.6,2.1,2.1,2.6,1.9,3.2c-0.4,1-0.3,3.2-0.3,4.3s-0.1,3.3,0.3,4.3c0.3,0.6,0.7,1.1,1.4,1.4c1,0.4,3.2,0.3,4.3,0.3s3.3,0.1,4.3-0.3
		c0.6-0.3,1.1-0.7,1.4-1.4C13.5,10.8,13.4,8.6,13.4,7.5z M11.2,7.5c0,2.1-1.7,3.7-3.7,3.7S3.8,9.6,3.8,7.5s1.7-3.7,3.7-3.7
		S11.2,5.4,11.2,7.5z M9.9,7.5c0-1.3-1.1-2.4-2.4-2.4S5.1,6.2,5.1,7.5s1.1,2.4,2.4,2.4S9.9,8.8,9.9,7.5z M11.4,4.5
		c-0.5,0-0.9-0.4-0.9-0.9s0.4-0.9,0.9-0.9c0.5,0,0.9,0.4,0.9,0.9C12.2,4.1,11.8,4.5,11.4,4.5z"></path>
</g>
</svg>