<svg width="15" height="14" viewBox="0 0 15 14" fill="none" xmlns="http://www.w3.org/2000/svg">
<path d="M14.42 3.91973C13.9225 1.61293 11.9005 0 9.50424 0C7.10799 0 5.13853 1.61976 4.57712 3.86058V3.89243H4.54057C3.06402 4.33604 1.97775 5.13682 1.31592 6.27429C0.597046 7.48911 0.403072 8.81995 0.754523 10.1258C1.09685 11.4407 1.9184 12.56 3.07088 13.2743C3.83996 13.7543 4.73686 14 5.652 14C6.08105 14 6.51235 13.9454 6.93683 13.8362C8.77167 13.3425 10.1592 11.9548 10.6475 10.1258V10.0848H10.6955C12.0853 9.71856 13.1785 8.92005 13.8563 7.77348C14.566 6.57004 14.7623 5.23919 14.42 3.92428V3.91973ZM9.28973 10.2896H9.47917L9.40384 10.3646L9.3947 10.3783C8.78081 11.8843 7.34527 12.8557 5.73179 12.8557C3.56147 12.8557 1.79508 11.0949 1.79508 8.93143C1.79508 7.30484 2.74911 5.90803 4.28271 5.28469L4.44931 5.23237V5.46214C4.57939 8.07832 6.6607 10.1553 9.28973 10.2918V10.2896ZM5.5652 5.10952V4.9389H5.73179C7.90439 4.9389 9.67083 6.69971 9.67083 8.86318V9.0338H9.50424C7.37043 9.0338 5.5652 7.23659 5.5652 5.10952ZM5.94641 3.75138H5.71819L5.76611 3.59668C6.27275 2.60253 7.03726 1.86318 7.98207 1.46051C8.95198 1.04875 10.0565 1.04647 11.0173 1.46051C11.9667 1.7972 12.7472 2.55021 13.1557 3.52389C13.571 4.48619 13.571 5.58954 13.1557 6.55184C12.7312 7.56191 11.9279 8.36497 10.9557 8.75398L10.7891 8.80858V8.57881C10.6476 5.96263 8.56626 3.8856 5.94864 3.74911L5.94641 3.75138Z" fill="black"></path>
</svg>