<svg width="13" height="14" viewBox="0 0 13 14" fill="none" xmlns="http://www.w3.org/2000/svg">
<path d="M11.9751 3.20492L10.8951 1.51492C10.5951 0.994922 10.0551 0.669922 9.51508 0.669922H3.39508C2.85508 0.669922 2.31508 0.994922 2.01508 1.51492L0.935078 3.20492C0.635078 3.52992 0.455078 4.04992 0.455078 4.50492V11.7849C0.455078 12.8249 1.23508 13.6699 2.13508 13.6699H10.7751C11.7351 13.6699 12.4551 12.8249 12.4551 11.8499V4.50492C12.4551 3.98492 12.2751 3.52992 11.9751 3.20492ZM3.39508 1.64492H9.45508C9.69508 1.64492 9.93508 1.77492 10.0551 2.03492L10.4151 2.68492H2.37508L2.73508 2.03492C2.91508 1.77492 3.15508 1.64492 3.39508 1.64492ZM11.5551 11.8499C11.5551 12.3049 11.1951 12.6949 10.7751 12.6949H2.13508C1.71508 12.6949 1.35508 12.3049 1.35508 11.8499V4.50492C1.35508 4.04992 1.71508 3.65992 2.13508 3.65992H10.7751C11.1951 3.65992 11.5551 4.04992 11.5551 4.50492V11.8499Z" fill="#003744"></path>
<path d="M6.45555 11.4595C5.43555 11.4595 4.41555 11.0045 3.69555 10.2245C3.51555 10.0295 3.51555 9.70453 3.69555 9.50953C3.87555 9.31453 4.17555 9.31453 4.35555 9.50953C5.55555 10.8095 7.41555 10.8095 8.61555 9.50953C8.79555 9.31453 9.09555 9.31453 9.27555 9.50953C9.45555 9.70453 9.45555 10.0295 9.27555 10.1595C8.49555 11.0045 7.47555 11.4595 6.45555 11.4595Z" fill="#003744"></path>
</svg>