<svg width="64" height="64" viewBox="0 0 64 64" fill="none" xmlns="http://www.w3.org/2000/svg">
<path d="M32.0001 20.1101C29.6485 20.1101 27.3497 20.8074 25.3944 22.1139C23.4391 23.4204 21.9151 25.2774 21.0152 27.45C20.1153 29.6226 19.8798 32.0133 20.3386 34.3197C20.7974 36.6262 21.9298 38.7448 23.5926 40.4076C25.2555 42.0705 27.3741 43.2029 29.6805 43.6616C31.9869 44.1204 34.3776 43.885 36.5502 42.985C38.7228 42.0851 40.5798 40.5611 41.8863 38.6058C43.1928 36.6505 43.8901 34.3517 43.8901 32.0001C43.8875 28.8475 42.6339 25.8248 40.4047 23.5955C38.1755 21.3663 35.1527 20.1128 32.0001 20.1101ZM32.0001 41.3901C30.1429 41.3901 28.3275 40.8394 26.7833 39.8076C25.2391 38.7758 24.0356 37.3093 23.3249 35.5935C22.6142 33.8777 22.4282 31.9897 22.7905 30.1682C23.1529 28.3467 24.0472 26.6736 25.3604 25.3604C26.6736 24.0472 28.3467 23.1528 30.1682 22.7905C31.9897 22.4282 33.8777 22.6142 35.5935 23.3249C37.3093 24.0356 38.7758 25.2391 39.8076 26.7833C40.8394 28.3275 41.3901 30.1429 41.3901 32.0001C41.3875 34.4897 40.3973 36.8765 38.6369 38.6369C36.8765 40.3973 34.4897 41.3875 32.0001 41.3901V41.3901Z" fill="black"></path>
<path d="M57 10.75H7C5.87364 10.7526 4.79417 11.2013 3.99771 11.9977C3.20126 12.7942 2.75264 13.8736 2.75 15V49C2.75264 50.1264 3.20126 51.2058 3.99771 52.0023C4.79417 52.7987 5.87364 53.2474 7 53.25H57C58.1264 53.2474 59.2058 52.7987 60.0023 52.0023C60.7987 51.2058 61.2474 50.1264 61.25 49V15C61.2474 13.8736 60.7987 12.7942 60.0023 11.9977C59.2058 11.2013 58.1264 10.7526 57 10.75ZM5.25 15C5.25263 14.5367 5.43784 14.0931 5.76546 13.7655C6.09309 13.4378 6.53668 13.2526 7 13.25H12C11.7303 14.9431 10.9323 16.5077 9.71998 17.72C8.50767 18.9323 6.94313 19.7303 5.25 20V15ZM7 50.75C6.53668 50.7474 6.09309 50.5622 5.76546 50.2345C5.43784 49.9069 5.25263 49.4633 5.25 49V44C6.94313 44.2697 8.50767 45.0677 9.71998 46.28C10.9323 47.4923 11.7303 49.0569 12 50.75H7ZM58.75 49C58.7474 49.4633 58.5622 49.9069 58.2345 50.2345C57.9069 50.5622 57.4633 50.7474 57 50.75H52C52.2697 49.0569 53.0677 47.4923 54.28 46.28C55.4923 45.0677 57.0569 44.2697 58.75 44V49ZM58.75 41.47C56.3871 41.7534 54.1878 42.8222 52.505 44.505C50.8222 46.1878 49.7534 48.3871 49.47 50.75H14.53C14.2466 48.3871 13.1778 46.1878 11.495 44.505C9.8122 42.8222 7.61293 41.7534 5.25 41.47V22.53C7.61293 22.2466 9.8122 21.1778 11.495 19.495C13.1778 17.8122 14.2466 15.6129 14.53 13.25H49.47C49.7534 15.6129 50.8222 17.8122 52.505 19.495C54.1878 21.1778 56.3871 22.2466 58.75 22.53V41.47ZM58.75 20.01C57.0555 19.7397 55.4899 18.9403 54.2774 17.726C53.0649 16.5117 52.2677 14.9449 52 13.25H57C57.4633 13.2526 57.9069 13.4378 58.2345 13.7655C58.5622 14.0931 58.7474 14.5367 58.75 15V20.01Z" fill="black"></path>
</svg>