<svg enable-background="new 0 0 32 32" height="32px" id="Layer_1" version="1.1" viewBox="0 0 32 32" width="32px" xml:space="preserve" xmlns="http://www.w3.org/2000/svg" xmlns:xlink="http://www.w3.org/1999/xlink"><g id="phone_x2C__mobile_x2C__smartphone_x2C__message"><g><g><g><g><g><g><g><path d="M16.5,4h-5C11.224,4,11,3.776,11,3.5S11.224,3,11.5,3h5C16.776,3,17,3.224,17,3.5S16.776,4,16.5,4z" fill="#263238"></path></g></g></g></g><g><g><g><g><path d="M14.5,29h-1c-0.276,0-0.5-0.224-0.5-0.5s0.224-0.5,0.5-0.5h1c0.276,0,0.5,0.224,0.5,0.5          S14.776,29,14.5,29z" fill="#263238"></path></g></g></g></g><g><g><path d="M19.5,31h-11C7.121,31,6,29.879,6,28.5v-25C6,2.121,7.121,1,8.5,1h11C20.879,1,22,2.121,22,3.5v2        C22,5.776,21.776,6,21.5,6S21,5.776,21,5.5v-2C21,2.673,20.327,2,19.5,2h-11C7.673,2,7,2.673,7,3.5v25        C7,29.327,7.673,30,8.5,30h11c0.827,0,1.5-0.673,1.5-1.5v-8c0-0.276,0.224-0.5,0.5-0.5s0.5,0.224,0.5,0.5v8        C22,29.879,20.879,31,19.5,31z" fill="#263238"></path></g></g></g></g></g><g id="mobile_marketing_1_"><g><g><path d="M16.5,23c-0.056,0-0.112-0.01-0.167-0.029C16.133,22.9,16,22.712,16,22.5V19h-1.5      c-0.827,0-1.5-0.673-1.5-1.5v-9C13,7.673,13.673,7,14.5,7h14C29.327,7,30,7.673,30,8.5v9c0,0.827-0.673,1.5-1.5,1.5h-8.512      l-3.1,3.815C16.791,22.935,16.647,23,16.5,23z M14.5,8C14.224,8,14,8.225,14,8.5v9c0,0.275,0.224,0.5,0.5,0.5h2      c0.276,0,0.5,0.224,0.5,0.5v2.592l2.362-2.907C19.457,18.067,19.6,18,19.75,18h8.75c0.276,0,0.5-0.225,0.5-0.5v-9      C29,8.225,28.776,8,28.5,8H14.5z" fill="#263238"></path></g></g><g><path d="M23.5,15L23.5,15c0.276,0,0.5-0.224,0.5-0.5S23.776,14,23.5,14l0,0c-0.276,0-0.5,0.224-0.5,0.5     S23.224,15,23.5,15z" fill="#263238"></path><path d="M21.516,14.984L21.516,14.984c0.276,0,0.5-0.224,0.5-0.5s-0.224-0.5-0.5-0.5l0,0     c-0.276,0-0.5,0.224-0.5,0.5S21.239,14.984,21.516,14.984z" fill="#263238"></path><path d="M19.516,14.984L19.516,14.984c0.276,0,0.5-0.224,0.5-0.5s-0.224-0.5-0.5-0.5l0,0     c-0.276,0-0.5,0.224-0.5,0.5S19.239,14.984,19.516,14.984z" fill="#263238"></path></g></g></g></svg>