<svg width="16" height="14" viewBox="0 0 16 14" fill="none" xmlns="http://www.w3.org/2000/svg">
<path d="M14.6823 5.80492H11.7573V1.18992C11.7573 0.929922 11.5623 0.669922 11.2373 0.669922H0.967266C0.642266 0.669922 0.447266 0.864922 0.447266 1.18992V11.4599C0.447266 12.6949 1.42227 13.6699 2.65727 13.6699H12.9273H12.9923H13.0573H13.1873C13.2523 13.6699 13.2523 13.6699 13.3173 13.6699C13.8373 13.6049 14.2923 13.4099 14.6173 13.0199C15.0073 12.6299 15.2673 12.0449 15.2673 11.4599V6.32492C15.2023 6.06492 15.0073 5.80492 14.6823 5.80492ZM1.81227 12.3049C1.61727 12.0449 1.48727 11.7849 1.48727 11.4599V1.70992H10.7823V11.4599C10.7823 11.5249 10.7823 11.5899 10.7823 11.6549V11.8499C10.7823 11.9799 10.8473 12.0449 10.8473 12.1099V12.1749C10.9123 12.3699 10.9773 12.5649 11.1073 12.6949H2.65727C2.33227 12.6949 2.07227 12.5649 1.81227 12.3049ZM14.1623 11.4599C14.1623 11.7849 14.0323 12.1099 13.8373 12.3049C13.5773 12.5649 13.3173 12.6299 12.9923 12.6299C12.8623 12.6299 12.7323 12.6299 12.6023 12.5649L12.5373 12.4999C12.3423 12.4349 12.1473 12.2399 11.9523 12.0449C11.8223 11.8499 11.7573 11.5899 11.7573 11.3949V6.84492H14.1623V11.4599Z" fill="#003744"></path>
<path d="M6.68766 3.53027H3.24266C2.98266 3.53027 2.72266 3.72527 2.72266 4.05027C2.72266 4.31027 2.91766 4.57027 3.24266 4.57027H6.68766C6.94766 4.57027 7.20766 4.37527 7.20766 4.05027C7.20766 3.72527 6.94766 3.53027 6.68766 3.53027Z" fill="#003744"></path>
<path d="M4.41266 5.80469H3.24266C2.98266 5.80469 2.72266 5.99969 2.72266 6.32469C2.72266 6.58469 2.91766 6.84469 3.24266 6.84469H4.41266C4.67266 6.84469 4.93266 6.64969 4.93266 6.32469C4.86766 6.06469 4.67266 5.80469 4.41266 5.80469Z" fill="#003744"></path>
</svg>