<svg version="1.1" id="Layer_1" xmlns="http://www.w3.org/2000/svg" xlink="http://www.w3.org/1999/xlink" x="0px" y="0px" viewBox="0 0 34 34" style="enable-background:new 0 0 34 34;" space="preserve">
<style type="text/css">
	.st0{fill:#E95151;}
</style>
<g>
	<g>
		<circle class="st0" cx="17" cy="11.6" r="3.1"></circle>
		<path class="st0" d="M8.1,19.5L17,31.6l8.9-12.1c3.4-4.3,2.9-11.2-1-14.9c-2.1-2-4.9-3.1-7.9-3.1s-5.8,1.1-7.9,3.1
			C5.2,8.2,4.8,15.2,8.1,19.5z M17,7.2c2.4,0,4.4,2,4.4,4.4c0,2.4-2,4.4-4.4,4.4s-4.4-2-4.4-4.4C12.6,9.2,14.6,7.2,17,7.2z"></path>
	</g>
	<path d="M17,16c2.4,0,4.4-2,4.4-4.4s-2-4.4-4.4-4.4s-4.4,2-4.4,4.4S14.6,16,17,16z M17,8.5c1.7,0,3.1,1.4,3.1,3.1s-1.4,3.1-3.1,3.1
		s-3.1-1.4-3.1-3.1S15.3,8.5,17,8.5z M17,33.8l9.9-13.6c3.7-4.7,3.2-12.4-1.2-16.5c-2.3-2.2-5.5-3.4-8.8-3.4s-6.4,1.2-8.8,3.4
		C3.9,7.8,3.4,15.5,7.1,20.2L17,33.8z M9.1,4.5c2.1-2,4.9-3.1,7.9-3.1s5.8,1.1,7.9,3.1c3.9,3.7,4.4,10.7,1,14.9L17,31.6L8.1,19.5
		C4.8,15.2,5.2,8.2,9.1,4.5z"></path>
</g>
</svg>