<svg version="1.1" id="Layer_1" xmlns="http://www.w3.org/2000/svg" xlink="http://www.w3.org/1999/xlink" x="0px" y="0px" viewBox="0 0 15 15" style="enable-background:new 0 0 15 15;" space="preserve">
<style type="text/css">
	.st0{enable-background:new    ;}
</style>
<g class="st0">
	<path d="M7.5,14.8c-0.8,0-1.5-0.1-2.2-0.3c0.3-0.5,0.7-1.3,0.9-1.9c0.1-0.3,0.5-1.7,0.5-1.7c0.2,0.5,0.9,0.8,1.7,0.8
		c2.2,0,3.8-2,3.8-4.5c0-2.4-2-4.2-4.5-4.2C4.5,2.9,2.9,5,2.9,7.3c0,1.1,0.6,2.4,1.5,2.8c0.1,0.1,0.2,0,0.2-0.1
		c0-0.1,0.1-0.6,0.2-0.8c0-0.1,0-0.1,0-0.2C4.4,8.6,4.2,8,4.2,7.4c0-1.6,1.2-3.2,3.3-3.2c1.8,0,3,1.2,3,3c0,2-1,3.3-2.3,3.3
		c-0.7,0-1.2-0.6-1.1-1.3c0.2-0.9,0.6-1.8,0.6-2.4c0-0.6-0.3-1-0.9-1c-0.7,0-1.3,0.8-1.3,1.8c0,0.6,0.2,1.1,0.2,1.1s-0.7,3-0.8,3.6
		c-0.1,0.6-0.1,1.5,0,2.1c-2.7-1.1-4.6-3.7-4.6-6.8c0-4,3.3-7.3,7.3-7.3s7.3,3.3,7.3,7.3S11.5,14.8,7.5,14.8z"></path>
</g>
</svg>