<svg width="18px" height="18px" viewBox="0 0 18 18" version="1.1" xmlns="http://www.w3.org/2000/svg" xlink="http://www.w3.org/1999/xlink">
    <title>Group 3</title>
    
    <g id="Symbols" stroke="none" stroke-width="1" fill="none" fill-rule="evenodd">
        <g id="header/mobile" transform="translate(-262.000000, -16.000000)">
            <g id="Group-3" transform="translate(262.000000, 16.000000)">
                
                <g id="Clip-2"></g>
                <path d="M1.01537308,6.41537308 C1.01537308,3.43779231 3.43779231,1.01537308 6.41537308,1.01537308 C9.39295385,1.01537308 11.8153731,3.43779231 11.8153731,6.41537308 C11.8153731,9.39295385 9.39295385,11.8153731 6.41537308,11.8153731 C3.43779231,11.8153731 1.01537308,9.39295385 1.01537308,6.41537308 M17.8508769,17.13375 L11.2938577,10.5766962 C12.2515615,9.45560769 12.8307462,8.00193462 12.8307462,6.41537308 C12.8307462,2.87792308 9.95282308,0 6.41537308,0 C2.87792308,0 0,2.87792308 0,6.41537308 C0,9.95282308 2.87792308,12.8307462 6.41537308,12.8307462 C8.00158846,12.8307462 9.45491538,12.2518038 10.5759,11.2945154 L17.1334731,17.8521577 C17.2298769,17.9474885 17.3572962,18 17.4922962,18 C17.6278846,18 17.7552346,17.9473154 17.8508769,17.8516038 C18.0488077,17.6536731 18.0488077,17.3316462 17.8508769,17.13375" id="Fill-1" fill="#000000" mask="url(#mask-2)"></path>
            </g>
        </g>
    </g>
</svg>