<svg version="1.1" id="Layer_1" xmlns="http://www.w3.org/2000/svg" xlink="http://www.w3.org/1999/xlink" x="0px" y="0px" viewBox="0 0 31 31" style="enable-background:new 0 0 31 31;" space="preserve">
<path d="M24.1,19.9c-1.4,0-2.7,0.5-3.6,1.5c-0.2,0.2-0.4,0.4-0.6,0.7l-8.1-4.9c0.2-0.6,0.3-1.1,0.3-1.7c0-0.6-0.1-1.2-0.3-1.7
	l8.1-4.9c1,1.4,2.5,2.2,4.2,2.2c2.8,0,5.2-2.3,5.2-5.2c0-2.8-2.3-5.2-5.2-5.2s-5.2,2.3-5.2,5.2c0,0.6,0.1,1.1,0.3,1.6l-8.1,4.9
	c-1-1.3-2.5-2.1-4.2-2.1c-2.8,0-5.2,2.3-5.2,5.2c0,2.8,2.3,5.2,5.2,5.2c1.7,0,3.2-0.8,4.2-2.1l8.1,4.9c-0.2,0.5-0.3,1.1-0.3,1.6
	c0,1.4,0.5,2.7,1.5,3.7c1,1,2.3,1.5,3.6,1.5c1.4,0,2.7-0.5,3.6-1.5c1-1,1.5-2.3,1.5-3.7c0-1.4-0.5-2.7-1.5-3.7
	C26.8,20.5,25.5,19.9,24.1,19.9z M27.8,25.1c0,1-0.4,1.9-1.1,2.6c-0.7,0.7-1.6,1.1-2.6,1.1c0,0,0,0,0,0c-1,0-1.9-0.4-2.6-1.1
	c-0.7-0.7-1.1-1.6-1.1-2.6s0.4-1.9,1.1-2.6c0.7-0.7,1.6-1.1,2.6-1.1c1,0,1.9,0.4,2.6,1.1C27.4,23.2,27.8,24.1,27.8,25.1z M20.4,5.9
	c0-2,1.6-3.7,3.7-3.7c2,0,3.7,1.7,3.7,3.7c0,2-1.6,3.7-3.7,3.7C22.1,9.6,20.4,7.9,20.4,5.9z M10.6,15.5c0,2-1.6,3.7-3.7,3.7
	s-3.7-1.7-3.7-3.7c0-2,1.6-3.7,3.7-3.7S10.6,13.4,10.6,15.5z"></path>
</svg>