<svg width="14" height="14" viewBox="0 0 14 14" fill="none" xmlns="http://www.w3.org/2000/svg">
<path d="M0.614297 13.6699H12.5743C12.8343 13.6699 13.0943 13.4749 13.0943 13.1499C13.0943 12.8249 12.8993 12.6299 12.5743 12.6299H11.0793V8.85992C12.1843 8.59992 13.0293 7.55992 13.0293 6.38992V6.32492L11.1443 1.31992C11.0143 0.929922 10.6243 0.669922 10.1693 0.669922H2.9543C2.4993 0.669922 2.1093 0.929922 1.9793 1.31992L0.0942959 6.32492V6.38992C0.0942959 7.55992 0.939296 8.59992 2.0443 8.85992V12.6299H0.549296C0.289296 12.6299 0.0292969 12.8249 0.0292969 13.1499C0.0292969 13.4749 0.289297 13.6699 0.614297 13.6699ZM10.0393 12.6299H3.0843V8.85992H3.1493C3.7343 8.72992 4.1893 8.40492 4.5793 7.94992C4.9693 8.46992 5.5543 8.79492 6.2693 8.85992C6.9193 8.92492 7.5693 8.72992 8.0893 8.33992C8.2193 8.20992 8.4143 8.07992 8.4793 7.94992C8.8693 8.40492 9.3243 8.72992 9.9093 8.85992V12.6299H10.0393ZM1.0693 6.58492L2.8243 1.96992C2.8893 1.83992 3.0193 1.70992 3.2143 1.70992H9.9743C10.1693 1.70992 10.2993 1.83992 10.3643 1.96992L12.0543 6.51992C12.0543 6.90992 11.8593 7.29992 11.5343 7.55992C11.2743 7.81992 10.9493 7.94992 10.5593 7.94992C10.4943 7.94992 10.4943 7.94992 10.4293 7.94992C9.8443 7.88492 9.3243 7.49492 9.1293 6.90992C9.0643 6.64992 8.8043 6.45492 8.5443 6.45492C8.2843 6.45492 8.0243 6.64992 7.9593 6.90992C7.8293 7.29992 7.5693 7.62492 7.1793 7.75492C6.7893 7.94992 6.3993 7.94992 6.0093 7.81992C5.5543 7.68992 5.2293 7.29992 5.0993 6.90992C5.0993 6.64992 4.8393 6.51992 4.5793 6.45492C4.3193 6.45492 4.0593 6.64992 3.9943 6.90992C3.8643 7.29992 3.6043 7.62492 3.2143 7.75492C3.0193 7.88492 2.7593 7.88492 2.5643 7.88492C2.4343 7.88492 2.2393 7.88492 2.1093 7.81992C1.5243 7.68992 1.1343 7.16992 1.0693 6.58492Z" fill="#003744"></path>
</svg>