<svg version="1.1" id="Layer_1" xmlns="http://www.w3.org/2000/svg" xlink="http://www.w3.org/1999/xlink" x="0px" y="0px" viewBox="0 0 18 18" style="enable-background:new 0 0 18 18;" space="preserve">
<title>Group 3</title>
<path d="M14.9,3.1l-0.6,0.6c-0.2,0.2-0.2,0.6,0,0.8c2.4,2.8,2.2,7-0.5,9.6c-2.7,2.6-7.1,2.6-9.8,0c-2.7-2.6-2.8-6.8-0.5-9.6
	c0.2-0.2,0.2-0.6,0-0.8L3.1,3.1c-0.2-0.2-0.6-0.2-0.9,0c-3.1,3.6-2.9,9.1,0.6,12.5c3.4,3.2,8.9,3.2,12.4,0c3.5-3.4,3.7-8.9,0.6-12.5
	C15.6,2.8,15.2,2.8,14.9,3.1z"></path>
</svg>