<svg width="17px" height="17px" viewBox="0 0 17 17" version="1.1" xmlns="http://www.w3.org/2000/svg" xlink="http://www.w3.org/1999/xlink">
    <title>placeholder (1)</title>
    <g id="03-urun-detay" stroke="none" stroke-width="1" fill="none" fill-rule="evenodd">
        <g id="03_urundetay" transform="translate(-1186.000000, -628.000000)" fill="#000000" fill-rule="nonzero">
            <g id="Group-5" transform="translate(906.000000, 624.000000)">
                <g id="placeholder-(1)" transform="translate(280.000000, 4.000000)">
                    <path d="M8.5,7.36666667 C9.59366667,7.36666667 10.4833333,6.47671667 10.4833333,5.38333333 C10.4833333,4.28995 9.59366667,3.4 8.5,3.4 C7.40633333,3.4 6.51666667,4.28995 6.51666667,5.38333333 C6.51666667,6.47671667 7.40633333,7.36666667 8.5,7.36666667 Z M8.5,3.96666667 C9.28115,3.96666667 9.91666667,4.60218333 9.91666667,5.38333333 C9.91666667,6.16448333 9.28115,6.8 8.5,6.8 C7.71885,6.8 7.08333333,6.16448333 7.08333333,5.38333333 C7.08333333,4.60218333 7.71885,3.96666667 8.5,3.96666667 Z" id="Shape"></path>
                    <path d="M8.44985,15.5144833 L12.7964667,9.23666667 C14.4267667,7.06321667 14.1910333,3.49066667 12.29185,1.59176667 C11.2656167,0.56525 9.90108333,0 8.44985,0 C6.99861667,0 5.63408333,0.56525 4.60785,1.59148333 C2.70866667,3.49038333 2.47293333,7.06293333 4.09671667,9.22788333 L8.44985,15.5144833 Z M5.00848333,1.99211667 C5.9279,1.07298333 7.14991667,0.566666667 8.44985,0.566666667 C9.74978333,0.566666667 10.9718,1.07298333 11.8912167,1.99211667 C13.6053833,3.706 13.8164667,6.9326 12.3369,8.90516667 L8.44985,14.51885 L4.55656667,8.89666667 C3.08323333,6.9326 3.2946,3.706 5.00848333,1.99211667 Z" id="Shape"></path>
                    <path d="M11.93315,12.1853167 C11.7773167,12.1663333 11.6367833,12.2779667 11.61865,12.4335167 C11.6005167,12.5890667 11.7115833,12.7298833 11.86685,12.7480167 C14.8463833,13.0987833 16.4333333,14.0439833 16.4333333,14.5916667 C16.4333333,15.3606333 13.4152667,16.4333333 8.5,16.4333333 C3.58473333,16.4333333 0.566666667,15.3606333 0.566666667,14.5916667 C0.566666667,14.0439833 2.15361667,13.0987833 5.13315,12.7480167 C5.28841667,12.7298833 5.39948333,12.5887833 5.38135,12.4335167 C5.36293333,12.2779667 5.2224,12.1657667 5.06685,12.1853167 C2.08363333,12.53665 0,13.52605 0,14.5916667 C0,15.7884667 2.91975,17 8.5,17 C14.08025,17 17,15.7884667 17,14.5916667 C17,13.52605 14.9163667,12.53665 11.93315,12.1853167 Z" id="Path"></path>
                </g>
            </g>
        </g>
    </g>
</svg>