<svg height="480pt" viewBox="0 -72 480 480" width="480pt" xmlns="http://www.w3.org/2000/svg"><path d="m120 224c-30.929688 0-56 25.070312-56 56s25.070312 56 56 56 56-25.070312 56-56-25.070312-56-56-56zm0 96c-22.089844 0-40-17.910156-40-40s17.910156-40 40-40 40 17.910156 40 40-17.910156 40-40 40zm0 0"></path><path d="m120 256c-13.253906 0-24 10.746094-24 24s10.746094 24 24 24 24-10.746094 24-24-10.746094-24-24-24zm0 32c-4.417969 0-8-3.582031-8-8s3.582031-8 8-8 8 3.582031 8 8-3.582031 8-8 8zm0 0"></path><path d="m376 224c-30.929688 0-56 25.070312-56 56s25.070312 56 56 56 56-25.070312 56-56-25.070312-56-56-56zm0 96c-22.089844 0-40-17.910156-40-40s17.910156-40 40-40 40 17.910156 40 40-17.910156 40-40 40zm0 0"></path><path d="m376 256c-13.253906 0-24 10.746094-24 24s10.746094 24 24 24 24-10.746094 24-24-10.746094-24-24-24zm0 32c-4.417969 0-8-3.582031-8-8s3.582031-8 8-8 8 3.582031 8 8-3.582031 8-8 8zm0 0"></path><path d="m384 160h-16v-32c0-4.417969-3.582031-8-8-8s-8 3.582031-8 8v32c0 8.835938 7.164062 16 16 16h16c4.417969 0 8-3.582031 8-8s-3.582031-8-8-8zm0 0"></path><path d="m144 48c-30.929688 0-56 25.070312-56 56 0 27.679688 22.320312 96 56 96s56-68.320312 56-96c0-30.929688-25.070312-56-56-56zm0 136c-18.398438 0-40-52.878906-40-80 0-22.089844 17.910156-40 40-40s40 17.910156 40 40c0 27.121094-21.601562 80-40 80zm0 0"></path><path d="m144 80c-13.253906 0-24 10.746094-24 24s10.746094 24 24 24 24-10.746094 24-24-10.746094-24-24-24zm0 32c-4.417969 0-8-3.582031-8-8s3.582031-8 8-8 8 3.582031 8 8-3.582031 8-8 8zm0 0"></path><path d="m192 184c0 4.417969 3.582031 8 8 8h32c4.417969 0 8-3.582031 8-8s-3.582031-8-8-8h-32c-4.417969 0-8 3.582031-8 8zm0 0"></path><path d="m96 184c0-4.417969-3.582031-8-8-8h-32c-4.417969 0-8 3.582031-8 8s3.582031 8 8 8h32c4.417969 0 8-3.582031 8-8zm0 0"></path><path d="m440 192h-10l-26.960938-94.640625c-2.964843-10.300781-12.402343-17.382813-23.117187-17.359375h-91.921875v-40c0-22.089844-17.910156-40-40-40h-216c-17.671875 0-32 14.328125-32 32v224c0 17.671875 14.328125 32 32 32h8c4.417969 0 8-3.582031 8-8s-3.582031-8-8-8h-8c-8.835938 0-16-7.164062-16-16v-224c0-8.835938 7.164062-16 16-16h216c13.253906 0 24 10.746094 24 24v232h-72c-4.417969 0-8 3.582031-8 8s3.582031 8 8 8h96c4.417969 0 8-3.582031 8-8s-3.582031-8-8-8h-8v-64h152c13.253906 0 24 10.746094 24 24v40h-8c-4.417969 0-8 3.582031-8 8s3.582031 8 8 8h16c4.417969 0 8-3.582031 8-8v-48c0-22.089844-17.910156-40-40-40zm-152-96h32v72c0 4.417969 3.582031 8 8 8s8-3.582031 8-8v-72h43.921875c3.671875-.144531 6.972656 2.230469 8 5.761719l25.4375 90.238281h-125.359375zm0 0"></path></svg>