<svg version="1.1" id="Layer_1" xmlns="http://www.w3.org/2000/svg" xlink="http://www.w3.org/1999/xlink" x="0px" y="0px" viewBox="0 0 24 24" style="enable-background:new 0 0 24 24;" space="preserve">
<g id="_x30_7-hesabim">
	<g id="_x30_6_x5F_hesabim_x5F_03_x5F_mobil" transform="translate(-58.000000, -95.000000)">
		<g id="Group" transform="translate(39.000000, 95.000000)">
			<g id="Group-2" transform="translate(19.000000, 0.000000)">
				<path id="Path" d="M21.6,24h-1.2v-5.4c0-1.7-1.3-3-3-3H6.6c-1.7,0-3,1.3-3,3V24H2.4v-5.4c0-2.3,1.9-4.2,4.2-4.2h10.8
					c2.3,0,4.2,1.9,4.2,4.2V24z"></path>
				<path id="Shape" d="M12,13.2c-3.6,0-6.6-3-6.6-6.6S8.4,0,12,0s6.6,3,6.6,6.6c0,1.7-0.7,3.4-1.9,4.7S13.7,13.2,12,13.2z M12,1.2
					c-3,0-5.4,2.4-5.4,5.4S9,12,12,12s5.4-2.4,5.4-5.4S15,1.2,12,1.2z"></path>
			</g>
		</g>
	</g>
</g>
</svg>