<svg width="0" height="0" class="hidden">
  <symbol version="1.1" xmlns="http://www.w3.org/2000/svg" xlink="http://www.w3.org/1999/xlink" viewBox="0 0 42 42" id="akinon">
    <title>Group 3</title>
    <g id="Symbols" stroke="none" stroke-width="1" fill="none" fill-rule="evenodd">
      <g id="Group-3" transform="translate(-84.000000, -68.000000)" filter="url(#filter-1)">
        <g transform="translate(84.000000, 68.000000)">
          <path d="M25.9152534,19.9450884 C22.3533177,19.9450884 19.4661061,22.8815846 19.4661061,26.5036714 C19.4661061,30.1257582 22.3533177,33.0622545 25.9152534,33.0622545 C29.4769025,33.0622545 32.3644007,30.1257582 32.3644007,26.5036714 C32.3644007,22.8815846 29.4769025,19.9450884 25.9152534,19.9450884 L25.9152534,19.9450884 Z M36.9152057,31.8304068 C34.9563847,36.0063296 30.7675918,38.8921061 25.9152534,38.8921061 C19.1872164,38.8921061 13.7335308,33.3455853 13.7335308,26.5036714 C13.7335308,19.6617576 19.1872164,14.1152367 25.9152534,14.1152367 C26.6842784,14.1152367 27.4352458,14.1910248 28.164716,14.3294838 L21.0001433,0 L0,42 L42,42 L36.9152057,31.8304068 Z" id="Fill-1" fill="#080200"></path>
        </g>
      </g>
    </g>
  </symbol>
  <symbol version="1.1" id="arrow-up" xmlns="http://www.w3.org/2000/svg" xlink="http://www.w3.org/1999/xlink" x="0px" y="0px" space="preserve" viewBox="0 0 42 42">
    <g id="_x30_2-urun-liste">
      <g id="_x30_2_x5F_urunliste_x5F_dektop_x5F_filtreler" transform="translate(-1499.000000, -2191.000000)">
        <g id="Group-2" transform="translate(1479.000000, 2181.000000)">
          <path id="Path" d="M42.8,50V15.9l5.6,5.7c0.6,0.6,1.6,0.6,2.3,0c0.6-0.6,0.6-1.6,0-2.3l-8.4-8.4c0,0,0,0,0,0
				c-0.6-0.6-1.7-0.6-2.3,0c0,0,0,0,0,0l-8.4,8.4c-0.6,0.6-0.6,1.7,0,2.3c0.6,0.6,1.7,0.6,2.3,0l5.6-5.7V50c0,0.9,0.7,1.6,1.6,1.6
				S42.8,50.9,42.8,50z"></path>
        </g>
      </g>
    </g>
  </symbol>
  <symbol xmlns="http://www.w3.org/2000/svg" viewBox="-21 0 512 512" id="bell">
    <path d="m453.332031 229.332031c-8.832031 0-16-7.167969-16-16 0-61.269531-23.847656-118.847656-67.15625-162.175781-6.25-6.25-6.25-16.382812 0-22.632812s16.382813-6.25 22.636719 0c49.34375 49.363281 76.519531 115.007812 76.519531 184.808593 0 8.832031-7.167969 16-16 16zm0 0"></path>
    <path d="m16 229.332031c-8.832031 0-16-7.167969-16-16 0-69.800781 27.179688-135.445312 76.542969-184.789062 6.25-6.25 16.386719-6.25 22.636719 0s6.25 16.386719 0 22.636719c-43.328126 43.304687-67.179688 100.882812-67.179688 162.152343 0 8.832031-7.167969 16-16 16zm0 0"></path>
    <path d="m234.667969 512c-44.117188 0-80-35.882812-80-80 0-8.832031 7.167969-16 16-16s16 7.167969 16 16c0 26.476562 21.523437 48 48 48 26.472656 0 48-21.523438 48-48 0-8.832031 7.167969-16 16-16s16 7.167969 16 16c0 44.117188-35.882813 80-80 80zm0 0"></path>
    <path d="m410.667969 448h-352c-20.589844 0-37.335938-16.746094-37.335938-37.332031 0-10.925781 4.757813-21.269531 13.058594-28.375 32.445313-27.414063 50.941406-67.261719 50.941406-109.480469v-59.480469c0-82.34375 66.988281-149.332031 149.335938-149.332031 82.34375 0 149.332031 66.988281 149.332031 149.332031v59.480469c0 42.21875 18.496094 82.066406 50.730469 109.332031 8.511719 7.253907 13.269531 17.597657 13.269531 28.523438 0 20.585937-16.746094 37.332031-37.332031 37.332031zm-176-352c-64.707031 0-117.335938 52.628906-117.335938 117.332031v59.480469c0 51.644531-22.632812 100.414062-62.078125 133.757812-.746094.640626-1.921875 1.964844-1.921875 4.097657 0 2.898437 2.433594 5.332031 5.335938 5.332031h352c2.898437 0 5.332031-2.433594 5.332031-5.332031 0-2.132813-1.171875-3.457031-1.878906-4.054688-39.488282-33.386719-62.121094-82.15625-62.121094-133.800781v-59.480469c0-64.703125-52.628906-117.332031-117.332031-117.332031zm0 0"></path>
    <path d="m234.667969 96c-8.832031 0-16-7.167969-16-16v-64c0-8.832031 7.167969-16 16-16s16 7.167969 16 16v64c0 8.832031-7.167969 16-16 16zm0 0"></path>
  </symbol>
  <symbol version="1.1" xmlns="http://www.w3.org/2000/svg" xlink="http://www.w3.org/1999/xlink" viewBox="0 0 18 18" id="cart">
    <title>Group 3</title>
    <g id="Symbols" stroke="none" stroke-width="1" fill="none" fill-rule="evenodd">
      <g id="header/mobile" transform="translate(-339.000000, -16.000000)">
        <g id="Group-3" transform="translate(339.000000, 16.000000)">
          <g id="Clip-2"></g>
          <path d="M8.85138934,0.885245902 C10.5598402,0.885245902 11.94975,2.27515574 11.94975,3.98360656 L11.94975,4.72131148 L5.75302869,4.72131148 L5.75302869,3.98360656 C5.75302869,2.27515574 7.14293852,0.885245902 8.85138934,0.885245902 L8.85138934,0.885245902 Z M4.86778279,5.60655738 L4.86778279,7.52459016 C4.86778279,7.76865984 5.06633607,7.96721311 5.31040574,7.96721311 C5.55447541,7.96721311 5.75302869,7.76865984 5.75302869,7.52459016 L5.75302869,5.60655738 L11.94975,5.60655738 L11.94975,7.52459016 C11.94975,7.76865984 12.1483033,7.96721311 12.392373,7.96721311 C12.6364795,7.96721311 12.8349959,7.76865984 12.8349959,7.52459016 L12.8349959,5.60655738 L15.5403074,5.60655738 L16.8122951,16.29 C16.837082,16.4991762 16.7711311,16.7094221 16.6312254,16.8668484 C16.4916148,17.0240902 16.290959,17.114459 16.0808975,17.1147541 L1.62309836,17.1147541 C1.21643852,17.1147541 0.885356557,16.7839672 0.885356557,16.3773443 C0.885356557,16.3482049 0.887090164,16.3188074 0.890520492,16.2900369 L2.16247131,5.60655738 L4.86778279,5.60655738 Z M17.6927828,16.185209 L17.6761844,16.0581025 L16.3728811,5.1117418 C16.3464713,4.88913934 16.1575451,4.72131148 15.9333566,4.72131148 L12.8349959,4.72131148 L12.8349959,3.98360656 C12.8349959,1.78705328 11.0479426,0 8.85138934,0 C6.65483607,0 4.86778279,1.78705328 4.86778279,3.98360656 L4.86778279,4.72131148 L1.76942213,4.72131148 C1.54527049,4.72131148 1.35634426,4.88913934 1.32989754,5.11166803 L0.0114713115,16.1852459 C-0.0942786885,17.0738484 0.542618852,17.8828525 1.43122131,17.9886025 C1.49447951,17.9961639 1.55884426,18 1.62243443,18 L16.0812664,18 C16.975918,18 17.7041437,17.2720697 17.7041437,16.3774549 C17.7041437,16.313459 17.7003811,16.2487623 17.6927828,16.185209 L17.6927828,16.185209 Z" id="Fill-1" fill="#000000" mask="url(#mask-2)"></path>
        </g>
      </g>
    </g>
  </symbol>
  <symbol version="1.1" id="check" xmlns="http://www.w3.org/2000/svg" xlink="http://www.w3.org/1999/xlink" x="0px" y="0px" space="preserve" viewBox="0 0 15 15">
    <g id="_x30_6-checkout">
      <g id="check" transform="translate(-312.000000, -209.000000)">
        <g transform="translate(312.000000, 209.000000)">
          <g id="path-1"></g>
          <path id="Fill-1" d="M5.3,13c-0.2,0-0.4-0.1-0.6-0.3L0.3,8.2c-0.3-0.4-0.3-0.9,0-1.3c0.2-0.2,0.4-0.3,0.6-0.3
				s0.4,0.1,0.6,0.3l3.8,4l8.2-8.6C13.7,2.1,13.9,2,14.1,2s0.4,0.1,0.6,0.3c0.3,0.4,0.3,0.9,0,1.3l-8.9,9.2C5.7,12.9,5.5,13,5.3,13"></path>
        </g>
      </g>
    </g>
  </symbol>
  <symbol version="1.1" id="chevron-down" xmlns="http://www.w3.org/2000/svg" xlink="http://www.w3.org/1999/xlink" x="0px" y="0px" space="preserve" viewBox="0 0 12 12">
    <g id="Symbols">
      <g id="header_x2F_main" transform="translate(-173.000000, -15.000000)">
        <path id="XMLID_89_" d="M184.1,17.9L179,23l-5.1-5.1c-0.2-0.2-0.6-0.2-0.8,0c-0.2,0.2-0.2,0.6,0,0.8l5.5,5.5
			c0.1,0.1,0.2,0.2,0.4,0.2c0.1,0,0.3-0.1,0.4-0.2l5.5-5.5c0.2-0.2,0.2-0.6,0-0.8C184.6,17.7,184.3,17.7,184.1,17.9z"></path>
      </g>
    </g>
  </symbol>
  <symbol version="1.1" id="chevron-end" xmlns="http://www.w3.org/2000/svg" xlink="http://www.w3.org/1999/xlink" x="0px" y="0px" space="preserve" viewBox="0 0 12 12">
    <g id="Symbols">
      <g id="header_x2F_main" transform="translate(-173.000000, -15.000000)">
        <path id="XMLID_89_" d="M175.9,26.1L181,21l-5.1-5.1c-0.2-0.2-0.2-0.6,0-0.8c0.2-0.2,0.6-0.2,0.8,0l5.5,5.5
			c0.1,0.1,0.2,0.2,0.2,0.4c0,0.1-0.1,0.3-0.2,0.4l-5.5,5.5c-0.2,0.2-0.6,0.2-0.8,0C175.7,26.6,175.7,26.3,175.9,26.1z"></path>
      </g>
    </g>
  </symbol>
  <symbol version="1.1" id="chevron-start" xmlns="http://www.w3.org/2000/svg" xlink="http://www.w3.org/1999/xlink" x="0px" y="0px" space="preserve" viewBox="0 0 12 12">
    <g id="Symbols">
      <g id="header_x2F_main" transform="translate(-173.000000, -15.000000)">
        <path id="XMLID_89_" d="M182.1,26.1L177,21l5.1-5.1c0.2-0.2,0.2-0.6,0-0.8c-0.2-0.2-0.6-0.2-0.8,0l-5.5,5.5
			c-0.1,0.1-0.2,0.2-0.2,0.4c0,0.1,0.1,0.3,0.2,0.4l5.5,5.5c0.2,0.2,0.6,0.2,0.8,0C182.3,26.6,182.3,26.3,182.1,26.1z"></path>
      </g>
    </g>
  </symbol>
  <symbol version="1.1" id="chevron-up" xmlns="http://www.w3.org/2000/svg" xlink="http://www.w3.org/1999/xlink" x="0px" y="0px" space="preserve" viewBox="0 0 12 12">
    <g id="Symbols">
      <g id="header_x2F_main" transform="translate(-173.000000, -15.000000)">
        <path id="XMLID_89_" d="M184.1,24.1L179,19l-5.1,5.1c-0.2,0.2-0.6,0.2-0.8,0c-0.2-0.2-0.2-0.6,0-0.8l5.5-5.5
			c0.1-0.1,0.2-0.2,0.4-0.2c0.1,0,0.3,0.1,0.4,0.2l5.5,5.5c0.2,0.2,0.2,0.6,0,0.8C184.6,24.3,184.3,24.3,184.1,24.1z"></path>
      </g>
    </g>
  </symbol>
  <symbol version="1.1" xmlns="http://www.w3.org/2000/svg" xlink="http://www.w3.org/1999/xlink" viewBox="0 0 16 16" id="close">
    <title>Shape 2</title>
    <g id="03-urun-detay" stroke="none" stroke-width="1" fill="none" fill-rule="evenodd">
      <g id="03_urundetay_magazadabul_01_mobil" transform="translate(-322.000000, -202.000000)" fill="#4A4A4A" fill-rule="nonzero">
        <g id="Group-6" transform="translate(18.000000, 178.000000)">
          <g id="Shape-2" transform="translate(304.000000, 24.000000)">
            <path d="M9.08517915,7.99987215 L15.7752421,1.3099161 C16.0749193,1.01024371 16.0749193,0.524426688 15.7752421,0.224754295 C15.4755649,-0.0749180983 14.9897401,-0.0749180983 14.690063,0.224754295 L8,6.91471035 L1.30993703,0.225777068 C1.01025985,-0.0738953256 0.524435069,-0.0738953256 0.224757887,0.225777068 C-0.0749192956,0.525449461 -0.0749192956,1.01126648 0.224757887,1.31093887 L6.91482085,8.00089493 L0.225780676,14.6898282 C-0.0738965065,14.9895006 -0.0738965065,15.4753176 0.225780676,15.77499 C0.376130661,15.9243148 0.571483364,16 0.767858855,16 C0.964234347,16 1.16060984,15.9253376 1.30993703,15.77499 L8,9.08503396 L14.690063,15.77499 C14.840413,15.9243148 15.0357657,16 15.2321411,16 C15.4285166,16 15.6248921,15.9253376 15.7742193,15.77499 C16.0738965,15.4753176 16.0738965,14.9895006 15.7742193,14.6898282 L9.08517915,7.99987215 Z" id="Shape"></path>
          </g>
        </g>
      </g>
    </g>
  </symbol>
  <symbol version="1.1" id="cvc" xmlns="http://www.w3.org/2000/svg" xlink="http://www.w3.org/1999/xlink" x="0px" y="0px" space="preserve" viewBox="0 0 18 18">
    <g id="_x30_6-checkout">
      <g id="_x30_5_x5F_checkout_x5F_02_x5F_odemebilgileri" transform="translate(-485.000000, -548.000000)">
        <g id="Group-5" transform="translate(485.000000, 548.000000)">
          <g id="Rectangle">
            <path d="M8.8,11h-7V9h7V11z M1.9,10.9h6.8V9.1H1.9V10.9z"></path>
          </g>
          <g>
            <path d="M9.8,9v2h3V9H9.8z M12.7,10.9H9.9V9.1h2.8V10.9z"></path>
            <polygon points="10.7,10.4 10.7,10.4 10.7,9.7 10.5,9.7 10.5,9.8 10.7,9.8 				"></polygon>
            <path d="M11.3,10C11.2,10,11.2,10,11.3,10l-0.4,0.4h0.5v-0.1h-0.3L11.3,10C11.3,10.1,11.3,10,11.3,10
					c0.1,0,0.1-0.1,0.1-0.1c0,0,0,0,0-0.1s0,0,0-0.1c0,0,0,0-0.1,0c0,0-0.1,0-0.1,0c0,0-0.1,0-0.1,0c0,0-0.1,0.1-0.1,0.1
					c0,0,0,0.1,0,0.1H11c0,0,0-0.1,0-0.1c0,0,0,0,0-0.1s0,0,0.1,0c0,0,0,0,0.1,0c0,0,0,0,0,0s0,0,0,0s0,0,0,0
					C11.3,9.9,11.3,9.9,11.3,10C11.3,10,11.3,10,11.3,10z"></path>
            <path d="M11.8,10.3C11.8,10.3,11.7,10.3,11.8,10.3c-0.1,0-0.1,0-0.1,0s0,0,0,0s0,0,0-0.1h-0.1c0,0,0,0.1,0,0.1
					c0,0,0,0,0,0.1c0,0,0,0,0.1,0S11.7,10.4,11.8,10.3C11.8,10.4,11.8,10.4,11.8,10.3c0.1,0.1,0.1,0,0.1,0c0,0,0-0.1,0-0.1
					c0,0,0-0.1,0-0.1c0,0,0,0-0.1-0.1c0,0,0,0-0.1,0c0,0,0,0,0.1,0c0,0,0,0,0-0.1c0,0,0,0,0-0.1c0,0,0-0.1,0-0.1c0,0,0-0.1-0.1-0.1
					c0,0-0.1,0-0.1,0c0,0-0.1,0-0.1,0c0,0-0.1,0-0.1,0.1s0,0.1,0,0.1h0.1c0,0,0,0,0-0.1c0,0,0,0,0,0c0,0,0,0,0.1,0c0,0,0,0,0.1,0
					c0,0,0,0,0,0c0,0,0,0,0,0.1c0,0,0,0,0,0c0,0,0,0,0,0c0,0,0,0,0,0c0,0,0,0-0.1,0v0v0v0c0,0,0,0,0.1,0c0,0,0,0,0.1,0c0,0,0,0,0,0
					c0,0,0,0,0,0.1C11.9,10.2,11.8,10.3,11.8,10.3C11.8,10.3,11.8,10.3,11.8,10.3z"></path>
          </g>
          <g id="credit-card-back-_x28_1_x29_">
            <g transform="translate(-0.000000, 0.000000)">
              <g id="Shape">
                <path d="M17.3,3H0.7C0.5,3,0.4,3.2,0.4,3.3v1.8v2.2v7.4c0,0.2,0.1,0.3,0.3,0.3h16.7c0.2,0,0.3-0.1,0.3-0.3V7.3
							V5.1V3.3C17.6,3.2,17.5,3,17.3,3z M17,3.7v1.1H1V3.7H17z M1,14.3V7.6h16v6.8L1,14.3L1,14.3z"></path>
              </g>
              <g id="Path">
                <path d="M2,12.7L2,12.7c-0.2,0-0.4,0.1-0.4,0.3c0,0.2,0.1,0.3,0.3,0.3H2c0.2,0,0.3-0.1,0.3-0.3
							C2.3,12.8,2.2,12.7,2,12.7z"></path>
              </g>
              <g id="Path_1_">
                <path d="M2.9,12.7L2.9,12.7c-0.2,0-0.4,0.1-0.4,0.3c0,0.2,0.1,0.3,0.3,0.3h0.1c0.2,0,0.3-0.1,0.3-0.3
							C3.2,12.8,3.1,12.7,2.9,12.7z"></path>
              </g>
              <g id="Path_2_">
                <path d="M3.9,12.7L3.9,12.7c-0.2,0-0.4,0.1-0.4,0.3c0,0.2,0.1,0.3,0.3,0.3h0.1c0.2,0,0.3-0.1,0.3-0.3
							C4.2,12.8,4,12.7,3.9,12.7z"></path>
              </g>
              <g id="Path_3_">
                <path d="M13.5,12.7H4.8c-0.2,0-0.3,0.1-0.3,0.3c0,0.2,0.1,0.3,0.3,0.3h8.6c0.2,0,0.3-0.1,0.3-0.3
							C13.8,12.8,13.6,12.7,13.5,12.7z"></path>
              </g>
            </g>
          </g>
        </g>
      </g>
    </g>
  </symbol>
  <symbol xmlns="http://www.w3.org/2000/svg" xlink="http://www.w3.org/1999/xlink" preserveAspectRatio="xMidYMid" viewBox="143.1850341796875 -40.61250610351563 213.629931640625 231.22501220703126" id="default">
    <g filter="url(#editing-stripe-bk)">
      <g transform="translate(175.83499813079834, 120.5)">
        <path d="M10.14 0L10.14-91L42.12-91L42.12-91Q54.47-91 60.52-83.46L60.52-83.46L60.52-83.46Q66.56-75.92 66.56-63.18L66.56-63.18L66.56-63.18Q66.56-54.99 65.26-48.43L65.26-48.43L65.26-48.43Q63.96-41.86 58.76-36.86L58.76-36.86L58.76-36.86Q53.56-31.85 43.03-31.85L43.03-31.85L17.42-31.85L17.42 0L10.14 0ZM43.16-39L43.16-39Q50.44-39 54.02-42.90L54.02-42.90L54.02-42.90Q57.59-46.80 58.44-51.74L58.44-51.74L58.44-51.74Q59.28-56.68 59.28-62.79L59.28-62.79L59.28-62.79Q59.28-73.45 54.86-78.78L54.86-78.78L54.86-78.78Q50.44-84.11 42.64-84.11L42.64-84.11L17.42-84.11L17.42-39L43.16-39ZM74.88 0L74.88-6.50L128.18-84.37L76.57-84.37L76.57-91L137.41-91L137.41-84.50L84.11-6.63L138.19-6.63L138.19 0L74.88 0Z" fill="#de530f"></path>
      </g>
    </g>
  </symbol>
  <symbol version="1.1" xmlns="http://www.w3.org/2000/svg" xlink="http://www.w3.org/1999/xlink" viewBox="0 0 14 14" id="directions">
    <title>road-sign</title>
    <g id="03-urun-detay" stroke="none" stroke-width="1" fill="none" fill-rule="evenodd">
      <g id="03_urundetay_magazadabul_03_mobil" transform="translate(-75.000000, -563.000000)" fill="#000000" fill-rule="nonzero">
        <g id="Group-6" transform="translate(48.000000, 549.000000)">
          <g id="road-sign" transform="translate(27.000000, 14.000000)">
            <path d="M8.00236719,1.67882422 C7.92832031,1.54721875 7.76160547,1.50051562 7.62997266,1.5745625 L7.61651953,1.58213672 C7.48491406,1.65618359 7.43821094,1.82289844 7.51225781,1.95453125 C7.56243359,2.04375391 7.65521094,2.09395703 7.75083203,2.09395703 C7.79622266,2.09395703 7.84226953,2.08260937 7.88465234,2.05879297 L7.89810547,2.05121875 C8.02971094,1.97717187 8.07641406,1.81045703 8.00236719,1.67882422 Z" id="Path"></path>
            <path d="M13.9199102,2.48633984 L11.5136602,0.0800898438 C11.435457,0.00188671875 11.3178242,-0.0214921875 11.215668,0.0208359375 C11.1135117,0.0631367187 11.046875,0.162859375 11.046875,0.2734375 L11.046875,0.984375 L9.8984375,0.984375 C9.47630469,0.984375 9.05783594,1.04100391 8.65467969,1.15270312 C8.50915625,1.19303516 8.42387109,1.34369922 8.46417578,1.48922266 C8.50450781,1.63474609 8.65511719,1.71997656 8.80069531,1.67972656 C9.15630078,1.58120703 9.52566016,1.53125 9.8984375,1.53125 L11.3203125,1.53125 C11.471332,1.53125 11.59375,1.40883203 11.59375,1.2578125 L11.59375,0.933570313 L13.3398672,2.6796875 L11.59375,4.42580469 L11.59375,4.1015625 C11.59375,3.95054297 11.471332,3.828125 11.3203125,3.828125 L9.8984375,3.828125 C8.90331641,3.828125 8.09375,4.63769141 8.09375,5.6328125 L8.09375,9.18946875 C7.59286719,8.25324609 6.78100391,7.50739062 5.796875,7.09121875 L5.796875,5.6328125 C5.796875,4.49976953 6.24875781,3.44512109 7.06928906,2.66317187 C7.17860937,2.55899219 7.18276562,2.38590625 7.07858594,2.27658594 C6.97437891,2.16726562 6.80129297,2.16308203 6.692,2.26728906 C5.76212109,3.15347266 5.25,4.34869531 5.25,5.6328125 L5.25,6.89959375 C4.84979687,6.78696484 4.42791016,6.7265625 3.9921875,6.7265625 L2.953125,6.7265625 L2.953125,6.015625 C2.953125,5.90504687 2.88648828,5.80532422 2.78433203,5.76299609 C2.68217578,5.72066797 2.56451562,5.74410156 2.48633984,5.82225 L0.0800898437,8.2285 C-0.0266875,8.33527734 -0.0266875,8.50841797 0.0800898437,8.61522266 L2.48633984,11.0214727 C2.56454297,11.0996484 2.68214844,11.123082 2.78433203,11.0807266 C2.88651562,11.0383984 2.953125,10.9387031 2.953125,10.8280977 L2.953125,10.1171602 L3.9921875,10.1171602 C4.68573437,10.1171602 5.25,10.6814258 5.25,11.3749727 L5.25,13.7265352 C5.25,13.8775547 5.37241797,13.9999727 5.5234375,13.9999727 L8.3671875,13.9999727 C8.51820703,13.9999727 8.640625,13.8775547 8.640625,13.7265352 L8.640625,5.6328125 C8.640625,4.93926562 9.20489062,4.375 9.8984375,4.375 L11.046875,4.375 L11.046875,5.0859375 C11.046875,5.19651562 11.1135117,5.29623828 11.215668,5.33856641 C11.3178242,5.38089453 11.435457,5.35751562 11.5136602,5.2793125 L13.9199102,2.8730625 C14.0266875,2.76625781 14.0266875,2.59311719 13.9199102,2.48633984 Z M8.09375,13.453125 L7.328125,13.453125 L7.328125,11.6232266 C7.328125,11.472207 7.20570703,11.3497891 7.0546875,11.3497891 C6.90366797,11.3497891 6.78125,11.472207 6.78125,11.6232266 L6.78125,13.453125 L5.796875,13.453125 L5.796875,11.375 C5.796875,10.3798789 4.98730859,9.5703125 3.9921875,9.5703125 L2.6796875,9.5703125 C2.52866797,9.5703125 2.40625,9.69273047 2.40625,9.84375 L2.40625,10.1679922 L0.660132812,8.421875 L2.40625,6.67575781 L2.40625,7 C2.40625,7.15101953 2.52866797,7.2734375 2.6796875,7.2734375 L3.9921875,7.2734375 C6.25378906,7.2734375 8.09375,9.11339844 8.09375,11.375 L8.09375,13.453125 Z" id="Shape"></path>
            <path d="M7.24800781,10.3742187 C7.19714844,10.3230859 7.12660156,10.2941016 7.0546875,10.2941016 C6.98277344,10.2941016 6.91222656,10.3230859 6.86136719,10.3742187 C6.81050781,10.4250781 6.78125,10.4953516 6.78125,10.5675391 C6.78125,10.6394531 6.81050781,10.71 6.86136719,10.7608594 C6.91222656,10.8117187 6.98277344,10.8409766 7.0546875,10.8409766 C7.12660156,10.8409766 7.19714844,10.8117187 7.24800781,10.7608594 C7.29886719,10.71 7.328125,10.6394531 7.328125,10.5675391 C7.328125,10.4953516 7.29886719,10.4250781 7.24800781,10.3742187 Z" id="Path"></path>
          </g>
        </g>
      </g>
    </g>
  </symbol>
  <symbol version="1.1" id="eye-off" xmlns="http://www.w3.org/2000/svg" xlink="http://www.w3.org/1999/xlink" x="0px" y="0px" space="preserve" viewBox="0 0 41 41">
    <path d="M40.8,20c-0.2-0.3-3.8-5.4-9.9-8.7l9.1-9.1c0.3-0.3,0.3-0.9,0-1.2c-0.3-0.3-0.9-0.3-1.2,0l-9.5,9.5c-2.6-1.2-5.6-2-8.9-2
	C10,8.6,0.6,19.5,0.2,19.9c-0.3,0.3-0.3,0.8,0,1.1c0.3,0.3,4.4,5.1,10.1,8.4L0.7,39c-0.3,0.3-0.3,0.9,0,1.2c0.2,0.2,0.4,0.2,0.6,0.2
	c0.2,0,0.4-0.1,0.6-0.2l10-10c2.6,1.3,5.5,2.2,8.6,2.2c10.5,0,19.9-10.9,20.3-11.4C41,20.8,41,20.3,40.8,20z M2,20.5
	c2-2.2,10-10.2,18.5-10.2c2.8,0,5.3,0.6,7.5,1.6l-3.3,3.3c-1.2-0.9-2.6-1.5-4.2-1.5c-3.8,0-6.8,3.1-6.8,6.8c0,1.6,0.5,3,1.5,4.2
	l-3.5,3.5C7,25.6,3.3,21.9,2,20.5z M25.6,20.5c0,2.8-2.3,5.1-5.1,5.1c-1.1,0-2.1-0.4-2.9-0.9l7.1-7.1C25.3,18.4,25.6,19.4,25.6,20.5
	z M15.4,20.5c0-2.8,2.3-5.1,5.1-5.1c1.1,0,2.1,0.4,3,1l-7.1,7.1C15.7,22.6,15.4,21.6,15.4,20.5z M20.5,30.7c-2.5,0-5-0.7-7.3-1.8
	l3.1-3.1c1.2,0.9,2.6,1.4,4.2,1.4c3.8,0,6.8-3.1,6.8-6.8c0-1.6-0.5-3-1.4-4.1l3.8-3.7c4.9,2.5,8.3,6.4,9.4,7.8
	C37,22.6,29,30.7,20.5,30.7z"></path>
  </symbol>
  <symbol version="1.1" id="eye-on" xmlns="http://www.w3.org/2000/svg" xlink="http://www.w3.org/1999/xlink" x="0px" y="0px" space="preserve" viewBox="0 0 41 41">
    <g id="_x30_4-login-sign-up">
      <g id="login_signup" transform="translate(-655.000000, -559.000000)">
        <g id="Group" transform="translate(304.000000, 370.000000)">
          <g id="Group-7" transform="translate(0.000000, 174.000000)">
            <g id="visibility" transform="translate(351.000000, 15.000000)">
              <path id="Shape" d="M40.8,20c-0.3-0.5-8.1-11.5-20.3-11.5C10,8.6,0.6,19.5,0.2,19.9c-0.3,0.3-0.3,0.8,0,1.1
						c0.4,0.5,9.8,11.4,20.3,11.4s19.9-10.9,20.3-11.4C41,20.8,41,20.3,40.8,20z M20.5,30.7c-8.4,0-16.4-8-18.5-10.2
						c2-2.2,10-10.2,18.5-10.2c9.9,0,16.8,8,18.5,10.2C37,22.6,29,30.7,20.5,30.7z"></path>
              <path id="Shape_1_" d="M20.5,13.7c-3.8,0-6.8,3.1-6.8,6.8s3.1,6.8,6.8,6.8s6.8-3.1,6.8-6.8S24.2,13.7,20.5,13.7z M20.5,25.6
						c-2.8,0-5.1-2.3-5.1-5.1s2.3-5.1,5.1-5.1s5.1,2.3,5.1,5.1S23.3,25.6,20.5,25.6z"></path>
            </g>
          </g>
        </g>
      </g>
    </g>
  </symbol>
  <symbol version="1.1" id="facebook-login" xmlns="http://www.w3.org/2000/svg" xlink="http://www.w3.org/1999/xlink" x="0px" y="0px" space="preserve" viewBox="0 0 20 20">
    <g id="_x30_4-login-sign-up">
      <g id="login_signup_mobile" transform="translate(-66.000000, -596.000000)">
        <path id="f" d="M77.5,616v-9.1h3l0.4-3.6h-3.4v-2.3c0-1,0.3-1.7,1.7-1.7H81v-3.2c-0.3,0-1.4-0.1-2.6-0.1
			c-2.6,0-4.4,1.7-4.4,4.7v2.6h-3v3.6h3v9.1H77.5z"></path>
      </g>
    </g>
  </symbol>
  <symbol version="1.1" id="facebook" xmlns="http://www.w3.org/2000/svg" xlink="http://www.w3.org/1999/xlink" x="0px" y="0px" space="preserve" viewBox="0 0 15 15">
    <g>
      <path d="M8.6,14.7V9.6h1.7l0.3-2.1h-2V6.2C8.6,5.6,8.9,5,9.8,5h0.9V3.3c0,0-0.8-0.1-1.6-0.1c-1.7,0-2.7,1-2.7,2.8v1.6H4.5v2.1h1.8
		v5.1c-3.5-0.5-6.1-3.6-6.1-7.2c0-4,3.3-7.3,7.3-7.3s7.3,3.3,7.3,7.3C14.8,11.2,12.1,14.2,8.6,14.7z"></path>
    </g>
  </symbol>
  <symbol version="1.1" id="giftbox" xmlns="http://www.w3.org/2000/svg" xlink="http://www.w3.org/1999/xlink" x="0px" y="0px" xml:space="preserve" viewBox="0 0 512 512">
    <g>
      <g>
        <path d="M478.609,99.726H441.34c4.916-7.78,8.16-16.513,9.085-25.749C453.38,44.46,437.835,18,411.37,6.269
        c-24.326-10.783-51.663-6.375-71.348,11.479l-47.06,42.65c-9.165-10.024-22.34-16.324-36.962-16.324
        c-14.648,0-27.844,6.32-37.011,16.375l-47.12-42.706C152.152-0.111,124.826-4.502,100.511,6.275
        C74.053,18.007,58.505,44.476,61.469,73.992c0.927,9.229,4.169,17.958,9.084,25.734H33.391C14.949,99.726,0,114.676,0,133.117
        v50.087c0,9.22,7.475,16.696,16.696,16.696h478.609c9.22,0,16.696-7.475,16.696-16.696v-50.087
        C512,114.676,497.051,99.726,478.609,99.726z M205.913,94.161v5.565H127.37c-20.752,0-37.084-19.346-31.901-40.952
        c2.283-9.515,9.151-17.626,18.034-21.732c12.198-5.638,25.71-3.828,35.955,5.445l56.469,51.182
        C205.924,93.834,205.913,93.996,205.913,94.161z M417.294,69.544c-1.244,17.353-16.919,30.184-34.316,30.184h-76.891v-5.565
        c0-0.197-0.012-0.392-0.014-0.589c12.792-11.596,40.543-36.748,55.594-50.391c8.554-7.753,20.523-11.372,31.587-8.072
        C409.131,39.847,418.455,53.349,417.294,69.544z"></path>
      </g>
      <g>
        <path d="M33.391,233.291v244.87c0,18.442,14.949,33.391,33.391,33.391h155.826V233.291H33.391z"></path>
      </g>
      <g>
        <path d="M289.391,233.291v278.261h155.826c18.442,0,33.391-14.949,33.391-33.391v-244.87H289.391z"></path>
      </g>
    </g>
  </symbol>
  <symbol version="1.1" id="globe" xmlns="http://www.w3.org/2000/svg" xlink="http://www.w3.org/1999/xlink" x="0px" y="0px" space="preserve" viewBox="0 0 20 20">
    <path d="M10,0L10,0L10,0L10,0C4.4,0,0,4.5,0,10c0,5.5,4.5,10,10,10H10c5.5,0,9.9-4.5,9.9-10C19.9,4.4,15.5,0,10,0z M18,14.8l-3.8,0
	c0.3-1.4,0.5-2.9,0.6-4.6l4.5,0C19.3,11.9,18.8,13.4,18,14.8z M0.6,10.3l4.6,0c0,1.7,0.2,3.2,0.6,4.6l-3.8,0
	C1.1,13.5,0.6,12,0.6,10.3z M1.9,5.2l3.8,0C5.4,6.5,5.2,8.1,5.2,9.7l-4.6,0C0.6,8.1,1.1,6.5,1.9,5.2z M19.3,9.6l-4.5,0
	c0-1.7-0.2-3.2-0.6-4.6l3.8,0C18.8,6.4,19.3,8,19.3,9.6z M14.2,9.7l-4,0l0-4.6l3.3,0C14,6.5,14.2,8,14.2,9.7z M10.2,4.6l0-4
	c1.3,0.2,2.5,1.7,3.2,3.9L10.2,4.6z M9.6,0.6l0,4l-3.2,0C7.2,2.3,8.4,0.8,9.6,0.6z M9.7,5.1l0,4.6l-4,0c0-1.7,0.2-3.2,0.6-4.6
	L9.7,5.1z M5.7,10.3l4,0l0,4.6l-3.3,0C6,13.5,5.8,12,5.7,10.3z M9.7,15.4l0,4c-1.3-0.2-2.5-1.7-3.2-3.9L9.7,15.4z M10.3,19.4l0-4
	l3.2,0C12.8,17.6,11.6,19.2,10.3,19.4z M10.3,14.8l0-4.6l4,0c0,1.7-0.2,3.2-0.6,4.6L10.3,14.8z M17.6,4.5l-3.6,0
	c-0.5-1.7-1.3-3-2.2-3.8C14.2,1.2,16.2,2.6,17.6,4.5z M8.1,0.8C7.1,1.5,6.4,2.9,5.9,4.6l-3.6,0C3.6,2.7,5.7,1.3,8.1,0.8z M2.3,15.5
	l3.6,0c0.5,1.7,1.3,3.1,2.3,3.8C5.8,18.8,3.7,17.4,2.3,15.5z M11.9,19.2c0.9-0.8,1.7-2.1,2.2-3.9l3.6,0
	C16.3,17.3,14.3,18.7,11.9,19.2z"></path>
  </symbol>
  <symbol version="1.1" xmlns="http://www.w3.org/2000/svg" xlink="http://www.w3.org/1999/xlink" viewBox="0 0 18 18" id="google-login">
    <title>google-symbol</title>
    <g id="04-login-sign-up" stroke="none" stroke-width="1" fill="none" fill-rule="evenodd">
      <g id="login_signup_mobile" transform="translate(-225.000000, -597.000000)" fill-rule="nonzero">
        <g id="google-symbol" transform="translate(225.000000, 597.000000)">
          <path d="M17.8551211,7.33401563 C17.9351367,7.33401563 18,7.39887891 18,7.47889453 L18,9 C18,9.56932031 17.947125,10.1259844 17.8456992,10.6659844 C17.0611172,14.8604414 13.3658438,18.0303047 8.93654297,17.9997539 C3.96653906,17.9655117 -0.01096875,13.9497891 1.23793692e-05,8.97971484 C0.01096875,4.01857031 4.03628906,-1.99840144e-15 9,-1.99840144e-15 C11.4318633,-1.99840144e-15 13.6383398,0.964757812 15.2583047,2.53188281 C15.3168047,2.58844922 15.3183164,2.68168359 15.2607656,2.73919922 L13.1088164,4.89114844 C13.0534102,4.94655469 12.9639023,4.94799609 12.907125,4.89396094 C11.8903711,3.92614453 10.514707,3.33196875 9,3.33196875 C5.87211328,3.33196875 3.35334375,5.83284375 3.33210937,8.96066016 C3.31076953,12.1090078 5.85664453,14.6679961 9,14.6679961 C11.5504102,14.6679961 13.7075273,12.983168 14.4188438,10.6659844 L9.14487891,10.6659844 C9.06486328,10.6659844 9,10.6011211 9,10.5211055 L9,7.47885938 C9,7.39884375 9.06486328,7.33398047 9.14487891,7.33398047 L17.8551211,7.33398047 L17.8551211,7.33401563 Z" id="Path" fill="#2196F3"></path>
          <path d="M17.8551211,7.33401562 L16.7686172,7.33401562 C16.8486328,7.33401562 16.9134961,7.39887891 16.9134961,7.47889453 L16.9134961,9 C16.9134961,9.56932031 16.8606211,10.1259844 16.7591953,10.6659844 C16.0106836,14.6675391 12.6130078,17.7365039 8.45616797,17.9837578 C8.61521484,17.9931445 8.77531641,17.9986289 8.93654297,17.9997539 C13.3658789,18.0303047 17.0611172,14.8604063 17.8456992,10.6659844 C17.947125,10.1259844 18,9.56932031 18,9 L18,7.47885938 C18,7.39887891 17.9351367,7.33401562 17.8551211,7.33401562 Z" id="Path" fill="#1E88E5"></path>
          <path d="M3.85171875,6.62632031 L1.11839062,4.65138281 C2.65183594,1.87787109 5.60678906,-9.99200722e-16 9,-9.99200722e-16 C11.4318633,-9.99200722e-16 13.6383398,0.964757812 15.2583047,2.53188281 C15.3168047,2.58844922 15.3183164,2.68168359 15.2607656,2.73919922 L13.1088164,4.89114844 C13.0535156,4.94644922 12.9640078,4.94817187 12.9073711,4.89424219 C11.8906172,3.92625 10.5148477,3.33200391 9,3.33200391 C6.71723437,3.33200391 4.74953906,4.68144141 3.85171875,6.62632031 Z" id="Path" fill="#F44336"></path>
          <path d="M3.06263672,6.05619141 L3.85171875,6.62632031 C4.67121094,4.85114062 6.38219531,3.57264844 8.41035937,3.36294141 C8.42561719,3.36128906 8.44027734,3.35928516 8.45581641,3.35780859 C8.27732812,3.34086328 8.09644922,3.33200391 7.91349609,3.33200391 C5.85133594,3.33200391 4.05414844,4.41914062 3.06263672,6.05619141 L3.06263672,6.05619141 Z" id="Path" fill="#E53935"></path>
          <path d="M14.1718008,2.53188281 C14.2303008,2.58844922 14.2318125,2.68168359 14.1742617,2.73923438 L12.4275937,4.48590234 C12.5949375,4.61316797 12.7551094,4.74929297 12.907125,4.89399609 C12.9638672,4.94803125 13.0534102,4.94658984 13.1088164,4.89118359 L15.2607656,2.73923438 C15.3183164,2.68168359 15.3167695,2.58848438 15.2583047,2.53188281 C13.6383398,0.964757812 11.4318633,-4.99600361e-16 9,-4.99600361e-16 C8.81750391,-4.99600361e-16 8.63644922,0.00608203125 8.45666016,0.0168046875 C10.6729102,0.148816406 12.6733359,1.08232031 14.1718008,2.53188281 Z" id="Path" fill="#E53935"></path>
          <path d="M15.6020625,15.1163789 C13.9585078,16.8899414 11.6087344,18 9,18 C5.47642969,18 2.42585156,15.9751055 0.948515625,13.0251797 L3.73904297,11.1128906 C4.57642969,13.1964961 6.61654687,14.6679961 9,14.6679961 C10.4957578,14.6679961 11.8560937,14.0885156 12.8687344,13.141793 L15.6020625,15.1163789 Z" id="Path" fill="#4CAF50"></path>
          <path d="M3.73907812,11.1129258 L2.91621094,11.6767969 C3.87193359,13.45725 5.75135156,14.6679961 7.91349609,14.6679961 C8.09634375,14.6679961 8.27708203,14.6590312 8.4555,14.6421211 C6.30924609,14.4375117 4.51188281,13.0359375 3.73907812,11.1129258 Z" id="Path" fill="#43A047"></path>
          <path d="M9,18 C11.6087344,18 13.9585078,16.8899414 15.6020625,15.1163789 L14.932582,14.6327344 C13.3893633,16.5533203 11.0743242,17.827418 8.45810156,17.9836172 C8.63739844,17.9943047 8.81803125,18 9,18 Z" id="Path" fill="#43A047"></path>
          <path d="M3.33200391,9 C3.33200391,9.74678906 3.47649609,10.4599336 3.73907812,11.1129258 L0.948515625,13.0251797 C0.341542969,11.814082 -2.49800181e-16,10.4468906 -2.49800181e-16,9 C-2.49800181e-16,7.42275 0.405632812,5.94035156 1.11839062,4.65138281 L3.85171875,6.62632031 C3.51815625,7.34811328 3.33200391,8.15252344 3.33200391,9 Z" id="Path" fill="#FFC107"></path>
          <path d="M2.91621094,11.6767969 L3.73907812,11.1129258 C3.47649609,10.4599336 3.33200391,9.74678906 3.33200391,9 C3.33200391,8.15252344 3.51815625,7.34811328 3.85171875,6.62632031 L3.06263672,6.05619141 C2.55023437,6.90222656 2.25284766,7.89500391 2.24560547,8.96069531 C2.23892578,9.94345313 2.48245312,10.8688008 2.91621094,11.6767969 L2.91621094,11.6767969 Z" id="Path" fill="#FFB300"></path>
        </g>
      </g>
    </g>
  </symbol>
  <symbol version="1.1" id="google" xmlns="http://www.w3.org/2000/svg" xlink="http://www.w3.org/1999/xlink" x="0px" y="0px" space="preserve" viewBox="0 0 15 15">
    <g>
      <path d="M7.6,14.8c-4,0-7.3-3.2-7.3-7.3s3.2-7.3,7.3-7.3c2,0,3.6,0.7,4.9,1.9l-2,1.9C7.9,1.5,3.1,3.4,3.1,7.5c0,2.5,2,4.6,4.5,4.6
		c2.9,0,4-2.1,4.1-3.1H7.6V6.5h6.9c0.1,0.4,0.1,0.7,0.1,1.2C14.6,11.8,11.8,14.8,7.6,14.8z"></path>
    </g>
  </symbol>
  <symbol version="1.1" id="hamburger" xmlns="http://www.w3.org/2000/svg" xlink="http://www.w3.org/1999/xlink" x="0px" y="0px" space="preserve" viewBox="0 0 20 20">
    <path id="Symbols" d="M19,1H1C0.6,1,0.2,1.4,0.2,1.8S0.6,2.6,1,2.6h18c0.5,0,0.8-0.4,0.8-0.8S19.4,1,19,1z M19,9.2H1
	c-0.5,0-0.8,0.4-0.8,0.8c0,0.5,0.4,0.8,0.8,0.8h18c0.5,0,0.8-0.4,0.8-0.8C19.8,9.5,19.4,9.2,19,9.2z M19,17.3H1
	c-0.5,0-0.8,0.4-0.8,0.8C0.2,18.6,0.6,19,1,19h18c0.5,0,0.8-0.4,0.8-0.8C19.8,17.7,19.4,17.3,19,17.3z"></path>
  </symbol>
  <symbol version="1.1" id="heart-full" xmlns="http://www.w3.org/2000/svg" xlink="http://www.w3.org/1999/xlink" x="0px" y="0px" space="preserve" viewBox="0 0 20 18">
    <g id="Symbols">
      <g id="header_x2F_mobile" transform="translate(-300.000000, -16.000000)">
        <g id="Group-3" transform="translate(300.000000, 16.000000)">
          <g id="Clip-2"></g>
          <path id="Fill-1" d="M10,18c-0.1,0-0.2,0-0.2-0.1C8.1,17,6.5,15.9,5,14.6c-3.2-2.8-4.8-5.9-4.8-8.8
				C0.2,2.7,2.7,0,5.7,0C7.4,0,9,0.8,10,2.1C11,0.8,12.6,0,14.3,0c2.9,0,5.5,2.7,5.5,5.8c0,3-1.7,6-4.8,8.8
				c-1.5,1.3-3.1,2.4-4.8,3.3C10.2,18,10.1,18,10,18L10,18z"></path>
        </g>
      </g>
    </g>
  </symbol>
  <symbol version="1.1" id="heart-stroke" xmlns="http://www.w3.org/2000/svg" xlink="http://www.w3.org/1999/xlink" x="0px" y="0px" space="preserve" viewBox="0 0 20 18">
    <g id="Symbols">
      <g id="header_x2F_mobile" transform="translate(-300.000000, -16.000000)">
        <g id="Group-3" transform="translate(300.000000, 16.000000)">
          <g id="Clip-2"></g>
          <path id="Fill-1" d="M5.7,1C3.3,1,1.2,3.2,1.2,5.8c0,1.4,0.4,2.8,1.2,4.2C3,11.1,4,12.3,5.2,13.4
				c2,1.9,4.1,3.1,4.8,3.5c0.7-0.4,2.8-1.7,4.8-3.5c1.2-1.1,2.1-2.3,2.8-3.4c0.8-1.4,1.2-2.8,1.2-4.2c0-2.6-2.1-4.8-4.5-4.8
				c-1.6,0-3.1,0.9-3.9,2.3l0,0l0,0c-0.1,0.1-0.2,0.2-0.4,0.2c-0.2,0-0.3-0.1-0.4-0.2l0,0l0,0C8.8,1.8,7.3,1,5.7,1L5.7,1z M10,18
				c-0.1,0-0.2,0-0.2-0.1C8.1,17,6.5,15.9,5,14.6c-3.2-2.8-4.8-5.9-4.8-8.8C0.2,2.7,2.7,0,5.7,0C7.4,0,9,0.8,10,2.1
				C11,0.8,12.6,0,14.3,0c2.9,0,5.5,2.7,5.5,5.8c0,3-1.7,6-4.8,8.8c-1.5,1.3-3.1,2.4-4.8,3.3C10.2,18,10.1,18,10,18L10,18z"></path>
        </g>
      </g>
    </g>
  </symbol>
  <symbol fill="#000000" xmlns="http://www.w3.org/2000/svg" viewBox="0 0 50 50" id="info">
    <path d="M25,2C12.297,2,2,12.297,2,25s10.297,23,23,23s23-10.297,23-23S37.703,2,25,2z M25,11c1.657,0,3,1.343,3,3s-1.343,3-3,3 s-3-1.343-3-3S23.343,11,25,11z M29,38h-2h-4h-2v-2h2V23h-2v-2h2h4v2v13h2V38z"></path>
  </symbol>
  <symbol version="1.1" id="instagram" xmlns="http://www.w3.org/2000/svg" xlink="http://www.w3.org/1999/xlink" x="0px" y="0px" space="preserve" viewBox="0 0 15 15">
    <g>
      <path d="M14.7,10.5c-0.1,1.2-0.3,2.2-1.2,3c-0.8,0.9-1.9,1.1-3,1.2c-1.2,0.1-4.8,0.1-6,0c-1.2-0.1-2.2-0.3-3-1.2s-1.1-1.9-1.2-3
		c-0.1-1.2-0.1-4.8,0-6c0.1-1.2,0.3-2.2,1.2-3s1.9-1.1,3-1.2c1.2-0.1,4.8-0.1,6,0c1.2,0.1,2.2,0.3,3,1.2c0.9,0.8,1.1,1.9,1.2,3
		C14.8,5.7,14.8,9.3,14.7,10.5z M13.4,7.5c0-1.1,0.1-3.3-0.3-4.3c-0.3-0.6-0.7-1.1-1.4-1.4c-1-0.4-3.2-0.3-4.3-0.3S4.2,1.5,3.2,1.8
		C2.6,2.1,2.1,2.6,1.9,3.2c-0.4,1-0.3,3.2-0.3,4.3s-0.1,3.3,0.3,4.3c0.3,0.6,0.7,1.1,1.4,1.4c1,0.4,3.2,0.3,4.3,0.3s3.3,0.1,4.3-0.3
		c0.6-0.3,1.1-0.7,1.4-1.4C13.5,10.8,13.4,8.6,13.4,7.5z M11.2,7.5c0,2.1-1.7,3.7-3.7,3.7S3.8,9.6,3.8,7.5s1.7-3.7,3.7-3.7
		S11.2,5.4,11.2,7.5z M9.9,7.5c0-1.3-1.1-2.4-2.4-2.4S5.1,6.2,5.1,7.5s1.1,2.4,2.4,2.4S9.9,8.8,9.9,7.5z M11.4,4.5
		c-0.5,0-0.9-0.4-0.9-0.9s0.4-0.9,0.9-0.9c0.5,0,0.9,0.4,0.9,0.9C12.2,4.1,11.8,4.5,11.4,4.5z"></path>
    </g>
  </symbol>
  <symbol version="1.1" id="layout-2" xmlns="http://www.w3.org/2000/svg" xlink="http://www.w3.org/1999/xlink" x="0px" y="0px" space="preserve" viewBox="0 0 18 18">
    <path id="_x30_2-urun-liste" d="M0,0h6.4v6.4H0V0z M11.6,0H18v6.4h-6.4V0z M0,11.6h6.4V18H0V11.6z M11.6,11.6H18V18
	h-6.4V11.6z"></path>
  </symbol>
  <symbol version="1.1" id="layout-3" xmlns="http://www.w3.org/2000/svg" xlink="http://www.w3.org/1999/xlink" x="0px" y="0px" space="preserve" viewBox="0 0 18 18">
    <path id="_x30_2-urun-liste" d="M0,0h5.3v5.3H0V0z M12.7,0H18v5.3h-5.3V0z M6.4,0h5.3v5.3H6.4V0z M0,6.4h5.3v5.3H0V6.4z M12.7,6.4
	H18v5.3h-5.3V6.4z M6.4,6.4h5.3v5.3H6.4V6.4z M0,12.7h5.3V18H0V12.7z M12.7,12.7H18V18h-5.3V12.7z M6.4,12.7h5.3V18H6.4V12.7z"></path>
  </symbol>
  <symbol version="1.1" xmlns="http://www.w3.org/2000/svg" xlink="http://www.w3.org/1999/xlink" viewBox="0 0 184 18" id="logo">
    <title>Group 21</title>
    <g id="Symbols" stroke="none" stroke-width="1" fill="none" fill-rule="evenodd">
      <g id="header/mobile" transform="translate(-59.000000, -16.000000)">
        <g id="Group-21" transform="translate(59.000000, 16.000000)">
          <path d="M5.184,8.46299571 C5.92457143,8.46299571 6.588,8.41671 7.17428571,8.32413857 C7.76057143,8.23156714 8.25814286,8.05799571 8.667,7.80342429 C9.07585714,7.54885286 9.39214286,7.20171 9.61585714,6.76199571 C9.83957143,6.32228143 9.95142857,5.74756714 9.95142857,5.03785286 C9.95142857,3.98871 9.60814286,3.19606714 8.92157143,2.65413857 C8.235,2.11413857 7.14342857,1.84413857 5.64685714,1.84413857 L1.57371429,1.84413857 L1.57371429,8.46299571 L5.184,8.46299571 Z M0,17.16471 L0,0.501852857 L6.08657143,0.501852857 C7.16657143,0.501852857 8.05757143,0.62721 8.75957143,0.872138571 C9.46157143,1.11899571 10.017,1.45842429 10.4258571,1.89042429 C10.8347143,2.32242429 11.1201429,2.81999571 11.2821429,3.38313857 C11.4441429,3.94628143 11.5251429,4.53642429 11.5251429,5.15356714 C11.5251429,6.07928143 11.3361429,6.84299571 10.9581429,7.44471 C10.5801429,8.04642429 10.0902857,8.52085286 9.48857143,8.86799571 C8.88685714,9.21513857 8.20414286,9.45813857 7.44042857,9.59699571 C6.67671429,9.73585286 5.90914286,9.80528143 5.13771429,9.80528143 L1.57371429,9.80528143 L1.57371429,17.16471 L0,17.16471 Z" id="Fill-1" fill="#000000"></path>
          <path d="M20.6661857,8.25471 C21.2524714,8.25471 21.7963286,8.19299571 22.2977571,8.06956714 C22.7991857,7.94613857 23.2350429,7.74942429 23.6053286,7.47942429 C23.9756143,7.20942429 24.2687571,6.86613857 24.4847571,6.44956714 C24.7007571,6.03299571 24.8087571,5.53156714 24.8087571,4.94528143 C24.8087571,4.32813857 24.6969,3.81899571 24.4731857,3.41785286 C24.2494714,3.01671 23.9486143,2.70042429 23.5706143,2.46899571 C23.1926143,2.23756714 22.7606143,2.07556714 22.2746143,1.98299571 C21.7886143,1.89042429 21.2833286,1.84413857 20.7587571,1.84413857 L15.7599,1.84413857 L15.7599,8.25471 L20.6661857,8.25471 Z M15.7599,9.59699571 L15.7599,17.16471 L14.1861857,17.1415671 L14.1861857,0.501852857 L20.7124714,0.501852857 C22.5484714,0.501852857 23.9524714,0.845138571 24.9244714,1.53171 C25.8964714,2.21828143 26.3824714,3.33299571 26.3824714,4.87585286 C26.3824714,5.92499571 26.1703286,6.75813857 25.7460429,7.37528143 C25.3217571,7.99242429 24.6313286,8.51699571 23.6747571,8.94899571 C24.1684714,9.11871 24.5541857,9.36556714 24.8319,9.68956714 C25.1096143,10.0135671 25.3179,10.3838529 25.4567571,10.8004243 C25.5956143,11.2169957 25.6843286,11.65671 25.7229,12.1195671 C25.7614714,12.5824243 25.7884714,13.0298529 25.8039,13.4618529 C25.8193286,14.0944243 25.8463286,14.6189957 25.8849,15.0355671 C25.9234714,15.4521386 25.9697571,15.7915671 26.0237571,16.0538529 C26.0777571,16.3161386 26.1433286,16.5205671 26.2204714,16.6671386 C26.2976143,16.81371 26.3901857,16.9255671 26.4981857,17.00271 L26.4981857,17.1415671 L24.7624714,17.16471 C24.5927571,16.8869957 24.4731857,16.5012814 24.4037571,16.0075671 C24.3343286,15.5138529 24.2803286,14.9969957 24.2417571,14.4569957 C24.2031857,13.9169957 24.1723286,13.3924243 24.1491857,12.8832814 C24.1260429,12.3741386 24.0836143,11.9575671 24.0219,11.6335671 C23.9293286,11.1861386 23.7789,10.8274243 23.5706143,10.5574243 C23.3623286,10.2874243 23.1116143,10.0829957 22.8184714,9.94413857 C22.5253286,9.80528143 22.1974714,9.71271 21.8349,9.66642429 C21.4723286,9.62013857 21.0981857,9.59699571 20.7124714,9.59699571 L15.7599,9.59699571 Z" id="Fill-3" fill="#000000"></path>
          <path d="M36.7738071,16.26291 C37.8538071,16.26291 38.7833786,16.0584814 39.5625214,15.6496243 C40.3416643,15.2407671 40.98195,14.69691 41.4833786,14.0180529 C41.9848071,13.3391957 42.3550929,12.5523386 42.5942357,11.6574814 C42.8333786,10.7626243 42.95295,9.82919571 42.95295,8.85719571 C42.95295,7.70005286 42.8102357,6.66248143 42.5248071,5.74448143 C42.2393786,4.82648143 41.8266643,4.04348143 41.2866643,3.39548143 C40.7466643,2.74748143 40.09095,2.25376714 39.3195214,1.91433857 C38.5480929,1.57491 37.6840929,1.40519571 36.7275214,1.40519571 C35.66295,1.40519571 34.7410929,1.61348143 33.96195,2.03005286 C33.1828071,2.44662429 32.5425214,2.99819571 32.0410929,3.68476714 C31.5396643,4.37133857 31.1693786,5.16205286 30.9302357,6.05691 C30.6910929,6.95176714 30.5715214,7.88519571 30.5715214,8.85719571 C30.5715214,9.84462429 30.6910929,10.7857671 30.9302357,11.6806243 C31.1693786,12.5754814 31.5396643,13.3623386 32.0410929,14.0411957 C32.5425214,14.7200529 33.1828071,15.2600529 33.96195,15.6611957 C34.7410929,16.0623386 35.6783786,16.26291 36.7738071,16.26291 M28.9978071,8.85719571 C28.9978071,7.63833857 29.1636643,6.49662429 29.4953786,5.43205286 C29.8270929,4.36748143 30.31695,3.43791 30.96495,2.64333857 C31.61295,1.84876714 32.4152357,1.22005286 33.3718071,0.757195714 C34.3283786,0.294338571 35.4315214,0.06291 36.6812357,0.06291 C37.9772357,0.06291 39.1150929,0.290481429 40.0948071,0.745624286 C41.0745214,1.20076714 41.8922357,1.82562429 42.54795,2.62019571 C43.2036643,3.41476714 43.6973786,4.34819571 44.0290929,5.42048143 C44.3608071,6.49276714 44.5266643,7.63833857 44.5266643,8.85719571 C44.5266643,10.0606243 44.3608071,11.1907671 44.0290929,12.2476243 C43.6973786,13.3044814 43.2075214,14.2301957 42.5595214,15.0247671 C41.9115214,15.8193386 41.1015214,16.4480529 40.1295214,16.91091 C39.1575214,17.3737671 38.0312357,17.6051957 36.7506643,17.6051957 C35.4700929,17.6051957 34.3438071,17.3737671 33.3718071,16.91091 C32.3998071,16.4480529 31.5898071,15.8193386 30.9418071,15.0247671 C30.2938071,14.2301957 29.8078071,13.3044814 29.4838071,12.2476243 C29.1598071,11.1907671 28.9978071,10.0606243 28.9978071,8.85719571" id="Fill-5" fill="#000000"></path>
          <path d="M47.8592357,11.8887171 C47.8592357,12.4132886 47.8785214,12.9301457 47.9170929,13.4392886 C47.9556643,13.9484314 48.0713786,14.4074314 48.2642357,14.8162886 C48.4570929,15.2251457 48.75795,15.5530029 49.1668071,15.79986 C49.5756643,16.0467171 50.1426643,16.1701457 50.8678071,16.1701457 C51.9478071,16.1701457 52.7076643,15.8615743 53.1473786,15.2444314 C53.5870929,14.6272886 53.80695,13.7324314 53.80695,12.55986 L53.80695,0.502431429 L55.3806643,0.502431429 L55.3806643,12.6061457 C55.3806643,14.2261457 55.0026643,15.4642886 54.2466643,16.3205743 C53.4906643,17.17686 52.3026643,17.6050029 50.6826643,17.6050029 C49.7415214,17.6050029 48.9855214,17.44686 48.4146643,17.1305743 C47.8438071,16.8142886 47.4002357,16.3900029 47.08395,15.8577171 C46.7676643,15.3254314 46.5555214,14.7160029 46.4475214,14.0294314 C46.3395214,13.34286 46.2855214,12.6292886 46.2855214,11.8887171 L47.8592357,11.8887171 Z" id="Fill-7" fill="#000000"></path>
          <polygon id="Fill-9" fill="#000000" points="59.2225714 17.1650957 59.2225714 0.502238571 70.308 0.502238571 70.308 1.84452429 60.7962857 1.84452429 60.7962857 7.86166714 69.3822857 7.86166714 69.3822857 9.20395286 60.7962857 9.20395286 60.7962857 15.82281 70.5394286 15.82281 70.5394286 17.1650957"></polygon>
          <path d="M85.1886643,5.33928857 C84.8646643,3.91986 84.26295,2.90928857 83.3835214,2.30757429 C82.5040929,1.70586 81.3546643,1.40500286 79.9352357,1.40500286 C78.9323786,1.40500286 78.0683786,1.60557429 77.3432357,2.00671714 C76.6180929,2.40786 76.0202357,2.94786 75.5496643,3.62671714 C75.0790929,4.30557429 74.73195,5.08857429 74.5082357,5.97571714 C74.2845214,6.86286 74.1726643,7.80014571 74.1726643,8.78757429 C74.1726643,9.71328857 74.2690929,10.6235743 74.46195,11.5184314 C74.6548071,12.4132886 74.97495,13.2117171 75.4223786,13.9137171 C75.8698071,14.6157171 76.4715214,15.1827171 77.2275214,15.6147171 C77.9835214,16.0467171 78.9323786,16.2627171 80.0740929,16.2627171 C80.7838071,16.2627171 81.4318071,16.1470029 82.0180929,15.9155743 C82.6043786,15.6841457 83.1173786,15.3640029 83.5570929,14.9551457 C83.9968071,14.5462886 84.3670929,14.0641457 84.66795,13.5087171 C84.9688071,12.9532886 85.1963786,12.34386 85.3506643,11.6804314 L86.9938071,11.6804314 C86.8086643,12.4827171 86.5386643,13.2425743 86.1838071,13.9600029 C85.82895,14.6774314 85.3622357,15.3061457 84.7836643,15.8461457 C84.2050929,16.3861457 83.5030929,16.8142886 82.6776643,17.1305743 C81.8522357,17.44686 80.8840929,17.6050029 79.7732357,17.6050029 C78.4926643,17.6050029 77.3972357,17.3697171 76.48695,16.8991457 C75.5766643,16.4285743 74.8322357,15.7921457 74.2536643,14.98986 C73.6750929,14.1875743 73.2546643,13.2580029 72.9923786,12.2011457 C72.7300929,11.1442886 72.59895,10.02186 72.59895,8.83386 C72.59895,7.24471714 72.7956643,5.89471714 73.1890929,4.78386 C73.5825214,3.67300286 74.1263786,2.76657429 74.8206643,2.06457429 C75.51495,1.36257429 76.3326643,0.853431429 77.2738071,0.537145714 C78.21495,0.22086 79.24095,0.0627171429 80.3518071,0.0627171429 C81.2003786,0.0627171429 81.9910929,0.174574286 82.72395,0.398288571 C83.4568071,0.622002857 84.1048071,0.957574286 84.66795,1.40500286 C85.2310929,1.85243143 85.69395,2.40400286 86.0565214,3.05971714 C86.4190929,3.71543143 86.6698071,4.47528857 86.8086643,5.33928857 L85.1886643,5.33928857 Z" id="Fill-11" fill="#000000"></path>
          <polygon id="Fill-13" fill="#000000" points="88.5673286 0.501852857 100.694186 0.501852857 100.694186 1.84413857 95.4176143 1.84413857 95.4176143 17.16471 93.8439 17.16471 93.8439 1.84413857 88.5673286 1.84413857"></polygon>
          <g id="Clip-16"></g>
          <polygon id="Fill-15" fill="#D02B2F" mask="url(#mask-2)" points="109.124357 17.1654814 111.056786 17.1654814 111.056786 0.329052857 109.124357 0.329052857"></polygon>
          <polygon id="Fill-17" fill="#000000" mask="url(#mask-2)" points="120.531086 14.2269171 129.045729 3.45777429 120.745157 3.45777429 120.745157 0.508988571 133.367657 0.508988571 133.367657 3.29963143 124.745014 14.2269171 133.3908 14.2269171 133.3908 17.1641314 120.531086 17.1641314"></polygon>
          <polygon id="Fill-18" fill="#000000" mask="url(#mask-2)" points="148.159993 3.45777429 139.346421 3.45777429 139.346421 6.99477429 147.436779 6.99477429 147.436779 9.88763143 139.346421 9.88763143 139.346421 14.1709886 148.566921 14.1709886 148.566921 17.1641314 135.944421 17.1641314 135.944421 0.508988571 148.159993 0.508988571"></polygon>
          <path d="M154.759371,3.40126714 L154.759371,7.87555286 L158.504657,7.87555286 C159.249086,7.87555286 159.806443,7.78491 160.180586,7.60555286 C160.8363,7.28926714 161.166086,6.66248143 161.166086,5.72905286 C161.166086,4.72041 160.847871,4.04155286 160.211443,3.69441 C159.854657,3.49962429 159.316586,3.40126714 158.601086,3.40126714 L154.759371,3.40126714 Z M161.952943,0.938481429 C162.566229,1.20076714 163.085014,1.59033857 163.513157,2.10141 C163.864157,2.52376714 164.1438,2.99048143 164.350157,3.50348143 C164.556514,4.01455286 164.658729,4.59891 164.658729,5.25462429 C164.658729,6.04533857 164.458157,6.82255286 164.058943,7.58819571 C163.659729,8.35191 163.000157,8.89383857 162.082157,9.21012429 C162.849729,9.51869571 163.395514,9.95648143 163.715657,10.52541 C164.0358,11.0943386 164.195871,11.9621957 164.195871,13.13091 L164.195871,14.2494814 C164.195871,15.0112671 164.2248,15.5261957 164.286514,15.7981243 C164.379086,16.2262671 164.593157,16.5425529 164.928729,16.7469814 L164.928729,17.1654814 L161.087014,17.1654814 C160.982871,16.7951957 160.907657,16.4981957 160.861371,16.2725529 C160.770729,15.8058386 160.722514,15.3275529 160.7148,14.8376957 L160.691657,13.2890529 C160.678157,12.22641 160.494943,11.5186243 160.142014,11.1637671 C159.789086,10.8108386 159.127586,10.63341 158.159443,10.63341 L154.759371,10.63341 L154.759371,17.1654814 L151.357371,17.1654814 L151.357371,0.50841 L159.3243,0.50841 C160.464086,0.531552857 161.339657,0.674267143 161.952943,0.938481429 L161.952943,0.938481429 Z" id="Fill-19" fill="#000000" mask="url(#mask-2)"></path>
          <path d="M178.642414,13.1534743 C179.452414,12.1371171 179.857414,10.6906886 179.857414,8.81418857 C179.857414,6.94540286 179.452414,5.50090286 178.642414,4.48068857 C177.832414,3.46047429 176.738914,2.94940286 175.359986,2.94940286 C173.981057,2.94940286 172.881771,3.45854571 172.0602,4.47490286 C171.238629,5.49126 170.827843,6.93768857 170.827843,8.81418857 C170.827843,10.6906886 171.238629,12.1371171 172.0602,13.1534743 C172.881771,14.1698314 173.981057,14.6789743 175.359986,14.6789743 C176.738914,14.6789743 177.832414,14.1698314 178.642414,13.1534743 M180.817843,15.68376 C179.560414,16.97976 177.739843,17.62776 175.359986,17.62776 C172.9782,17.62776 171.159557,16.97976 169.902129,15.68376 C168.214629,14.0946171 167.369914,11.8054029 167.369914,8.81418857 C167.369914,5.76318857 168.214629,3.47204571 169.902129,1.94461714 C171.159557,0.648617143 172.9782,0.000617142857 175.359986,0.000617142857 C177.739843,0.000617142857 179.560414,0.648617143 180.817843,1.94461714 C182.497629,3.47204571 183.338486,5.76318857 183.338486,8.81418857 C183.338486,11.8054029 182.497629,14.0946171 180.817843,15.68376" id="Fill-20" fill="#000000" mask="url(#mask-2)"></path>
        </g>
      </g>
    </g>
  </symbol>
  <symbol id="mail" enable-background="new 0 0 479.058 479.058" xmlns="http://www.w3.org/2000/svg" viewBox="0 0 479.058 479.058">
    <path d="m434.146 59.882h-389.234c-24.766 0-44.912 20.146-44.912 44.912v269.47c0 24.766 20.146 44.912 44.912 44.912h389.234c24.766 0 44.912-20.146 44.912-44.912v-269.47c0-24.766-20.146-44.912-44.912-44.912zm0 29.941c2.034 0 3.969.422 5.738 1.159l-200.355 173.649-200.356-173.649c1.769-.736 3.704-1.159 5.738-1.159zm0 299.411h-389.234c-8.26 0-14.971-6.71-14.971-14.971v-251.648l199.778 173.141c2.822 2.441 6.316 3.655 9.81 3.655s6.988-1.213 9.81-3.655l199.778-173.141v251.649c-.001 8.26-6.711 14.97-14.971 14.97z"></path>
  </symbol>
  <symbol version="1.1" id="minus" xmlns="http://www.w3.org/2000/svg" xlink="http://www.w3.org/1999/xlink" x="0px" y="0px" space="preserve" viewBox="0 0 18 18">
    <title>Group 3</title>
    <path d="M17.2,10H0.8C0.4,10,0,9.6,0,9.2V8.8C0,8.4,0.4,8,0.8,8h16.4C17.6,8,18,8.4,18,8.8v0.4C18,9.6,17.6,10,17.2,10z"></path>
  </symbol>
  <symbol enable-background="new 0 0 32 32" id="mp-otp" version="1.1" xml:space="preserve" xmlns="http://www.w3.org/2000/svg" xmlns:xlink="http://www.w3.org/1999/xlink" viewBox="0 0 32 32">
    <g id="phone_x2C__mobile_x2C__smartphone_x2C__message">
      <g>
        <g>
          <g>
            <g>
              <g>
                <g>
                  <g>
                    <path d="M16.5,4h-5C11.224,4,11,3.776,11,3.5S11.224,3,11.5,3h5C16.776,3,17,3.224,17,3.5S16.776,4,16.5,4z" fill="#263238"></path>
                  </g>
                </g>
              </g>
            </g>
            <g>
              <g>
                <g>
                  <g>
                    <path d="M14.5,29h-1c-0.276,0-0.5-0.224-0.5-0.5s0.224-0.5,0.5-0.5h1c0.276,0,0.5,0.224,0.5,0.5          S14.776,29,14.5,29z" fill="#263238"></path>
                  </g>
                </g>
              </g>
            </g>
            <g>
              <g>
                <path d="M19.5,31h-11C7.121,31,6,29.879,6,28.5v-25C6,2.121,7.121,1,8.5,1h11C20.879,1,22,2.121,22,3.5v2        C22,5.776,21.776,6,21.5,6S21,5.776,21,5.5v-2C21,2.673,20.327,2,19.5,2h-11C7.673,2,7,2.673,7,3.5v25        C7,29.327,7.673,30,8.5,30h11c0.827,0,1.5-0.673,1.5-1.5v-8c0-0.276,0.224-0.5,0.5-0.5s0.5,0.224,0.5,0.5v8        C22,29.879,20.879,31,19.5,31z" fill="#263238"></path>
              </g>
            </g>
          </g>
        </g>
      </g>
      <g id="mobile_marketing_1_">
        <g>
          <g>
            <path d="M16.5,23c-0.056,0-0.112-0.01-0.167-0.029C16.133,22.9,16,22.712,16,22.5V19h-1.5      c-0.827,0-1.5-0.673-1.5-1.5v-9C13,7.673,13.673,7,14.5,7h14C29.327,7,30,7.673,30,8.5v9c0,0.827-0.673,1.5-1.5,1.5h-8.512      l-3.1,3.815C16.791,22.935,16.647,23,16.5,23z M14.5,8C14.224,8,14,8.225,14,8.5v9c0,0.275,0.224,0.5,0.5,0.5h2      c0.276,0,0.5,0.224,0.5,0.5v2.592l2.362-2.907C19.457,18.067,19.6,18,19.75,18h8.75c0.276,0,0.5-0.225,0.5-0.5v-9      C29,8.225,28.776,8,28.5,8H14.5z" fill="#263238"></path>
          </g>
        </g>
        <g>
          <path d="M23.5,15L23.5,15c0.276,0,0.5-0.224,0.5-0.5S23.776,14,23.5,14l0,0c-0.276,0-0.5,0.224-0.5,0.5     S23.224,15,23.5,15z" fill="#263238"></path>
          <path d="M21.516,14.984L21.516,14.984c0.276,0,0.5-0.224,0.5-0.5s-0.224-0.5-0.5-0.5l0,0     c-0.276,0-0.5,0.224-0.5,0.5S21.239,14.984,21.516,14.984z" fill="#263238"></path>
          <path d="M19.516,14.984L19.516,14.984c0.276,0,0.5-0.224,0.5-0.5s-0.224-0.5-0.5-0.5l0,0     c-0.276,0-0.5,0.224-0.5,0.5S19.239,14.984,19.516,14.984z" fill="#263238"></path>
        </g>
      </g>
    </g>
  </symbol>
  <symbol version="1.1" id="pin" xmlns="http://www.w3.org/2000/svg" xlink="http://www.w3.org/1999/xlink" x="0px" y="0px" space="preserve" viewBox="0 0 34 34">
    <g>
      <g>
        <circle cx="17" cy="11.6" r="3.1"></circle>
        <path d="M8.1,19.5L17,31.6l8.9-12.1c3.4-4.3,2.9-11.2-1-14.9c-2.1-2-4.9-3.1-7.9-3.1s-5.8,1.1-7.9,3.1
			C5.2,8.2,4.8,15.2,8.1,19.5z M17,7.2c2.4,0,4.4,2,4.4,4.4c0,2.4-2,4.4-4.4,4.4s-4.4-2-4.4-4.4C12.6,9.2,14.6,7.2,17,7.2z"></path>
      </g>
      <path d="M17,16c2.4,0,4.4-2,4.4-4.4s-2-4.4-4.4-4.4s-4.4,2-4.4,4.4S14.6,16,17,16z M17,8.5c1.7,0,3.1,1.4,3.1,3.1s-1.4,3.1-3.1,3.1
		s-3.1-1.4-3.1-3.1S15.3,8.5,17,8.5z M17,33.8l9.9-13.6c3.7-4.7,3.2-12.4-1.2-16.5c-2.3-2.2-5.5-3.4-8.8-3.4s-6.4,1.2-8.8,3.4
		C3.9,7.8,3.4,15.5,7.1,20.2L17,33.8z M9.1,4.5c2.1-2,4.9-3.1,7.9-3.1s5.8,1.1,7.9,3.1c3.9,3.7,4.4,10.7,1,14.9L17,31.6L8.1,19.5
		C4.8,15.2,5.2,8.2,9.1,4.5z"></path>
    </g>
  </symbol>
  <symbol version="1.1" id="pinterest" xmlns="http://www.w3.org/2000/svg" xlink="http://www.w3.org/1999/xlink" x="0px" y="0px" space="preserve" viewBox="0 0 15 15">
    <g>
      <path d="M7.5,14.8c-0.8,0-1.5-0.1-2.2-0.3c0.3-0.5,0.7-1.3,0.9-1.9c0.1-0.3,0.5-1.7,0.5-1.7c0.2,0.5,0.9,0.8,1.7,0.8
		c2.2,0,3.8-2,3.8-4.5c0-2.4-2-4.2-4.5-4.2C4.5,2.9,2.9,5,2.9,7.3c0,1.1,0.6,2.4,1.5,2.8c0.1,0.1,0.2,0,0.2-0.1
		c0-0.1,0.1-0.6,0.2-0.8c0-0.1,0-0.1,0-0.2C4.4,8.6,4.2,8,4.2,7.4c0-1.6,1.2-3.2,3.3-3.2c1.8,0,3,1.2,3,3c0,2-1,3.3-2.3,3.3
		c-0.7,0-1.2-0.6-1.1-1.3c0.2-0.9,0.6-1.8,0.6-2.4c0-0.6-0.3-1-0.9-1c-0.7,0-1.3,0.8-1.3,1.8c0,0.6,0.2,1.1,0.2,1.1s-0.7,3-0.8,3.6
		c-0.1,0.6-0.1,1.5,0,2.1c-2.7-1.1-4.6-3.7-4.6-6.8c0-4,3.3-7.3,7.3-7.3s7.3,3.3,7.3,7.3S11.5,14.8,7.5,14.8z"></path>
    </g>
  </symbol>
  <symbol version="1.1" id="plus" xmlns="http://www.w3.org/2000/svg" xlink="http://www.w3.org/1999/xlink" x="0px" y="0px" space="preserve" viewBox="0 0 18 18">
    <title>Group 3</title>
    <path d="M17.2,8H10V0.8C10,0.4,9.6,0,9.2,0H8.8C8.4,0,8,0.4,8,0.8V8H0.8C0.4,8,0,8.4,0,8.8v0.4C0,9.6,0.4,10,0.8,10H8v7.2
	C8,17.6,8.4,18,8.8,18h0.4c0.4,0,0.8-0.4,0.8-0.8V10h7.2c0.4,0,0.8-0.4,0.8-0.8V8.8C18,8.4,17.6,8,17.2,8z"></path>
  </symbol>
  <symbol version="1.1" xmlns="http://www.w3.org/2000/svg" xlink="http://www.w3.org/1999/xlink" viewBox="0 0 18 18" id="search">
    <title>Group 3</title>
    <g id="Symbols" stroke="none" stroke-width="1" fill="none" fill-rule="evenodd">
      <g id="header/mobile" transform="translate(-262.000000, -16.000000)">
        <g id="Group-3" transform="translate(262.000000, 16.000000)">
          <g id="Clip-2"></g>
          <path d="M1.01537308,6.41537308 C1.01537308,3.43779231 3.43779231,1.01537308 6.41537308,1.01537308 C9.39295385,1.01537308 11.8153731,3.43779231 11.8153731,6.41537308 C11.8153731,9.39295385 9.39295385,11.8153731 6.41537308,11.8153731 C3.43779231,11.8153731 1.01537308,9.39295385 1.01537308,6.41537308 M17.8508769,17.13375 L11.2938577,10.5766962 C12.2515615,9.45560769 12.8307462,8.00193462 12.8307462,6.41537308 C12.8307462,2.87792308 9.95282308,0 6.41537308,0 C2.87792308,0 0,2.87792308 0,6.41537308 C0,9.95282308 2.87792308,12.8307462 6.41537308,12.8307462 C8.00158846,12.8307462 9.45491538,12.2518038 10.5759,11.2945154 L17.1334731,17.8521577 C17.2298769,17.9474885 17.3572962,18 17.4922962,18 C17.6278846,18 17.7552346,17.9473154 17.8508769,17.8516038 C18.0488077,17.6536731 18.0488077,17.3316462 17.8508769,17.13375" id="Fill-1" fill="#000000" mask="url(#mask-2)"></path>
        </g>
      </g>
    </g>
  </symbol>
  <symbol version="1.1" id="share" xmlns="http://www.w3.org/2000/svg" xlink="http://www.w3.org/1999/xlink" x="0px" y="0px" space="preserve" viewBox="0 0 31 31">
    <path d="M24.1,19.9c-1.4,0-2.7,0.5-3.6,1.5c-0.2,0.2-0.4,0.4-0.6,0.7l-8.1-4.9c0.2-0.6,0.3-1.1,0.3-1.7c0-0.6-0.1-1.2-0.3-1.7
	l8.1-4.9c1,1.4,2.5,2.2,4.2,2.2c2.8,0,5.2-2.3,5.2-5.2c0-2.8-2.3-5.2-5.2-5.2s-5.2,2.3-5.2,5.2c0,0.6,0.1,1.1,0.3,1.6l-8.1,4.9
	c-1-1.3-2.5-2.1-4.2-2.1c-2.8,0-5.2,2.3-5.2,5.2c0,2.8,2.3,5.2,5.2,5.2c1.7,0,3.2-0.8,4.2-2.1l8.1,4.9c-0.2,0.5-0.3,1.1-0.3,1.6
	c0,1.4,0.5,2.7,1.5,3.7c1,1,2.3,1.5,3.6,1.5c1.4,0,2.7-0.5,3.6-1.5c1-1,1.5-2.3,1.5-3.7c0-1.4-0.5-2.7-1.5-3.7
	C26.8,20.5,25.5,19.9,24.1,19.9z M27.8,25.1c0,1-0.4,1.9-1.1,2.6c-0.7,0.7-1.6,1.1-2.6,1.1c0,0,0,0,0,0c-1,0-1.9-0.4-2.6-1.1
	c-0.7-0.7-1.1-1.6-1.1-2.6s0.4-1.9,1.1-2.6c0.7-0.7,1.6-1.1,2.6-1.1c1,0,1.9,0.4,2.6,1.1C27.4,23.2,27.8,24.1,27.8,25.1z M20.4,5.9
	c0-2,1.6-3.7,3.7-3.7c2,0,3.7,1.7,3.7,3.7c0,2-1.6,3.7-3.7,3.7C22.1,9.6,20.4,7.9,20.4,5.9z M10.6,15.5c0,2-1.6,3.7-3.7,3.7
	s-3.7-1.7-3.7-3.7c0-2,1.6-3.7,3.7-3.7S10.6,13.4,10.6,15.5z"></path>
  </symbol>
  <symbol version="1.1" id="spinner" xmlns="http://www.w3.org/2000/svg" xlink="http://www.w3.org/1999/xlink" x="0px" y="0px" space="preserve" viewBox="0 0 18 18">
    <title>Group 3</title>
    <path d="M14.9,3.1l-0.6,0.6c-0.2,0.2-0.2,0.6,0,0.8c2.4,2.8,2.2,7-0.5,9.6c-2.7,2.6-7.1,2.6-9.8,0c-2.7-2.6-2.8-6.8-0.5-9.6
	c0.2-0.2,0.2-0.6,0-0.8L3.1,3.1c-0.2-0.2-0.6-0.2-0.9,0c-3.1,3.6-2.9,9.1,0.6,12.5c3.4,3.2,8.9,3.2,12.4,0c3.5-3.4,3.7-8.9,0.6-12.5
	C15.6,2.8,15.2,2.8,14.9,3.1z"></path>
  </symbol>
  <symbol version="1.1" xmlns="http://www.w3.org/2000/svg" xlink="http://www.w3.org/1999/xlink" viewBox="0 0 17 17" id="store-pin">
    <title>placeholder (1)</title>
    <g id="03-urun-detay" stroke="none" stroke-width="1" fill="current" fill-rule="evenodd">
      <g id="03_urundetay" transform="translate(-1186.000000, -628.000000)" fill="current" fill-rule="nonzero">
        <g id="Group-5" transform="translate(906.000000, 624.000000)">
          <g id="placeholder-(1)" transform="translate(280.000000, 4.000000)">
            <path d="M8.5,7.36666667 C9.59366667,7.36666667 10.4833333,6.47671667 10.4833333,5.38333333 C10.4833333,4.28995 9.59366667,3.4 8.5,3.4 C7.40633333,3.4 6.51666667,4.28995 6.51666667,5.38333333 C6.51666667,6.47671667 7.40633333,7.36666667 8.5,7.36666667 Z M8.5,3.96666667 C9.28115,3.96666667 9.91666667,4.60218333 9.91666667,5.38333333 C9.91666667,6.16448333 9.28115,6.8 8.5,6.8 C7.71885,6.8 7.08333333,6.16448333 7.08333333,5.38333333 C7.08333333,4.60218333 7.71885,3.96666667 8.5,3.96666667 Z" id="Shape"></path>
            <path d="M8.44985,15.5144833 L12.7964667,9.23666667 C14.4267667,7.06321667 14.1910333,3.49066667 12.29185,1.59176667 C11.2656167,0.56525 9.90108333,0 8.44985,0 C6.99861667,0 5.63408333,0.56525 4.60785,1.59148333 C2.70866667,3.49038333 2.47293333,7.06293333 4.09671667,9.22788333 L8.44985,15.5144833 Z M5.00848333,1.99211667 C5.9279,1.07298333 7.14991667,0.566666667 8.44985,0.566666667 C9.74978333,0.566666667 10.9718,1.07298333 11.8912167,1.99211667 C13.6053833,3.706 13.8164667,6.9326 12.3369,8.90516667 L8.44985,14.51885 L4.55656667,8.89666667 C3.08323333,6.9326 3.2946,3.706 5.00848333,1.99211667 Z" id="Shape"></path>
            <path d="M11.93315,12.1853167 C11.7773167,12.1663333 11.6367833,12.2779667 11.61865,12.4335167 C11.6005167,12.5890667 11.7115833,12.7298833 11.86685,12.7480167 C14.8463833,13.0987833 16.4333333,14.0439833 16.4333333,14.5916667 C16.4333333,15.3606333 13.4152667,16.4333333 8.5,16.4333333 C3.58473333,16.4333333 0.566666667,15.3606333 0.566666667,14.5916667 C0.566666667,14.0439833 2.15361667,13.0987833 5.13315,12.7480167 C5.28841667,12.7298833 5.39948333,12.5887833 5.38135,12.4335167 C5.36293333,12.2779667 5.2224,12.1657667 5.06685,12.1853167 C2.08363333,12.53665 0,13.52605 0,14.5916667 C0,15.7884667 2.91975,17 8.5,17 C14.08025,17 17,15.7884667 17,14.5916667 C17,13.52605 14.9163667,12.53665 11.93315,12.1853167 Z" id="Path"></path>
          </g>
        </g>
      </g>
    </g>
  </symbol>
  <symbol xmlns="http://www.w3.org/2000/svg" viewBox="0 -72 480 480" id="track-order">
    <path d="m120 224c-30.929688 0-56 25.070312-56 56s25.070312 56 56 56 56-25.070312 56-56-25.070312-56-56-56zm0 96c-22.089844 0-40-17.910156-40-40s17.910156-40 40-40 40 17.910156 40 40-17.910156 40-40 40zm0 0"></path>
    <path d="m120 256c-13.253906 0-24 10.746094-24 24s10.746094 24 24 24 24-10.746094 24-24-10.746094-24-24-24zm0 32c-4.417969 0-8-3.582031-8-8s3.582031-8 8-8 8 3.582031 8 8-3.582031 8-8 8zm0 0"></path>
    <path d="m376 224c-30.929688 0-56 25.070312-56 56s25.070312 56 56 56 56-25.070312 56-56-25.070312-56-56-56zm0 96c-22.089844 0-40-17.910156-40-40s17.910156-40 40-40 40 17.910156 40 40-17.910156 40-40 40zm0 0"></path>
    <path d="m376 256c-13.253906 0-24 10.746094-24 24s10.746094 24 24 24 24-10.746094 24-24-10.746094-24-24-24zm0 32c-4.417969 0-8-3.582031-8-8s3.582031-8 8-8 8 3.582031 8 8-3.582031 8-8 8zm0 0"></path>
    <path d="m384 160h-16v-32c0-4.417969-3.582031-8-8-8s-8 3.582031-8 8v32c0 8.835938 7.164062 16 16 16h16c4.417969 0 8-3.582031 8-8s-3.582031-8-8-8zm0 0"></path>
    <path d="m144 48c-30.929688 0-56 25.070312-56 56 0 27.679688 22.320312 96 56 96s56-68.320312 56-96c0-30.929688-25.070312-56-56-56zm0 136c-18.398438 0-40-52.878906-40-80 0-22.089844 17.910156-40 40-40s40 17.910156 40 40c0 27.121094-21.601562 80-40 80zm0 0"></path>
    <path d="m144 80c-13.253906 0-24 10.746094-24 24s10.746094 24 24 24 24-10.746094 24-24-10.746094-24-24-24zm0 32c-4.417969 0-8-3.582031-8-8s3.582031-8 8-8 8 3.582031 8 8-3.582031 8-8 8zm0 0"></path>
    <path d="m192 184c0 4.417969 3.582031 8 8 8h32c4.417969 0 8-3.582031 8-8s-3.582031-8-8-8h-32c-4.417969 0-8 3.582031-8 8zm0 0"></path>
    <path d="m96 184c0-4.417969-3.582031-8-8-8h-32c-4.417969 0-8 3.582031-8 8s3.582031 8 8 8h32c4.417969 0 8-3.582031 8-8zm0 0"></path>
    <path d="m440 192h-10l-26.960938-94.640625c-2.964843-10.300781-12.402343-17.382813-23.117187-17.359375h-91.921875v-40c0-22.089844-17.910156-40-40-40h-216c-17.671875 0-32 14.328125-32 32v224c0 17.671875 14.328125 32 32 32h8c4.417969 0 8-3.582031 8-8s-3.582031-8-8-8h-8c-8.835938 0-16-7.164062-16-16v-224c0-8.835938 7.164062-16 16-16h216c13.253906 0 24 10.746094 24 24v232h-72c-4.417969 0-8 3.582031-8 8s3.582031 8 8 8h96c4.417969 0 8-3.582031 8-8s-3.582031-8-8-8h-8v-64h152c13.253906 0 24 10.746094 24 24v40h-8c-4.417969 0-8 3.582031-8 8s3.582031 8 8 8h16c4.417969 0 8-3.582031 8-8v-48c0-22.089844-17.910156-40-40-40zm-152-96h32v72c0 4.417969 3.582031 8 8 8s8-3.582031 8-8v-72h43.921875c3.671875-.144531 6.972656 2.230469 8 5.761719l25.4375 90.238281h-125.359375zm0 0"></path>
  </symbol>
  <symbol version="1.1" id="twitter" xmlns="http://www.w3.org/2000/svg" xlink="http://www.w3.org/1999/xlink" x="0px" y="0px" space="preserve" viewBox="0 0 15 15">
    <g>
      <path d="M13.5,4.8c0,4.1-3.1,8.7-8.7,8.7c-1.7,0-3.4-0.5-4.7-1.4c0.2,0,0.5,0,0.7,0c1.4,0,2.8-0.5,3.8-1.3c-1.4,0-2.5-0.9-2.9-2.1
		c0.2,0,0.4,0,0.6,0c0.3,0,0.6,0,0.8-0.1c-1.4-0.3-2.5-1.5-2.5-3v0C1,5.9,1.5,6.1,2,6.1C1.2,5.5,0.6,4.6,0.6,3.5C0.6,3,0.8,2.4,1,2
		c1.5,1.9,3.8,3.1,6.3,3.2c0-0.2-0.1-0.5-0.1-0.7c0-1.7,1.4-3.1,3.1-3.1c0.9,0,1.7,0.4,2.2,1c0.7-0.1,1.4-0.4,2-0.7
		c-0.2,0.7-0.7,1.3-1.4,1.7c0.6-0.1,1.2-0.2,1.8-0.5c-0.4,0.6-0.9,1.2-1.5,1.6C13.5,4.6,13.5,4.7,13.5,4.8z"></path>
    </g>
  </symbol>
  <symbol version="1.1" id="user" xmlns="http://www.w3.org/2000/svg" xlink="http://www.w3.org/1999/xlink" x="0px" y="0px" space="preserve" viewBox="0 0 24 24">
    <g id="_x30_7-hesabim">
      <g id="_x30_6_x5F_hesabim_x5F_03_x5F_mobil" transform="translate(-58.000000, -95.000000)">
        <g id="Group" transform="translate(39.000000, 95.000000)">
          <g id="Group-2" transform="translate(19.000000, 0.000000)">
            <path id="Path" d="M21.6,24h-1.2v-5.4c0-1.7-1.3-3-3-3H6.6c-1.7,0-3,1.3-3,3V24H2.4v-5.4c0-2.3,1.9-4.2,4.2-4.2h10.8
					c2.3,0,4.2,1.9,4.2,4.2V24z"></path>
            <path id="Shape" d="M12,13.2c-3.6,0-6.6-3-6.6-6.6S8.4,0,12,0s6.6,3,6.6,6.6c0,1.7-0.7,3.4-1.9,4.7S13.7,13.2,12,13.2z M12,1.2
					c-3,0-5.4,2.4-5.4,5.4S9,12,12,12s5.4-2.4,5.4-5.4S15,1.2,12,1.2z"></path>
          </g>
        </g>
      </g>
    </g>
  </symbol>
  <symbol version="1.1" id="whatsapp" xmlns="http://www.w3.org/2000/svg" xlink="http://www.w3.org/1999/xlink" x="0px" y="0px" space="preserve" viewBox="0 0 512 512">
    <g>
      <g>
        <path d="M256.064,0h-0.128C114.784,0,0,114.816,0,256c0,56,18.048,107.904,48.736,150.048l-31.904,95.104l98.4-31.456
			C155.712,496.512,204,512,256.064,512C397.216,512,512,397.152,512,256S397.216,0,256.064,0z M405.024,361.504
			c-6.176,17.44-30.688,31.904-50.24,36.128c-13.376,2.848-30.848,5.12-89.664-19.264C189.888,347.2,141.44,270.752,137.664,265.792
			c-3.616-4.96-30.4-40.48-30.4-77.216s18.656-54.624,26.176-62.304c6.176-6.304,16.384-9.184,26.176-9.184
			c3.168,0,6.016,0.16,8.576,0.288c7.52,0.32,11.296,0.768,16.256,12.64c6.176,14.88,21.216,51.616,23.008,55.392
			c1.824,3.776,3.648,8.896,1.088,13.856c-2.4,5.12-4.512,7.392-8.288,11.744c-3.776,4.352-7.36,7.68-11.136,12.352
			c-3.456,4.064-7.36,8.416-3.008,15.936c4.352,7.36,19.392,31.904,41.536,51.616c28.576,25.44,51.744,33.568,60.032,37.024
			c6.176,2.56,13.536,1.952,18.048-2.848c5.728-6.176,12.8-16.416,20-26.496c5.12-7.232,11.584-8.128,18.368-5.568
			c6.912,2.4,43.488,20.48,51.008,24.224c7.52,3.776,12.48,5.568,14.304,8.736C411.2,329.152,411.2,344.032,405.024,361.504z"></path>
      </g>
    </g>
    <g></g>
    <g></g>
    <g></g>
    <g></g>
    <g></g>
    <g></g>
    <g></g>
    <g></g>
    <g></g>
    <g></g>
    <g></g>
    <g></g>
    <g></g>
    <g></g>
    <g></g>
  </symbol>
  <?xml version="1.0" encoding="UTF-8"?>
<svg version="1.1" viewBox="0 0 1600 1600" width="1280" height="1280" xmlns="http://www.w3.org/2000/svg">
<path transform="translate(714,288)" d="m0 0h142l75 2 90 4 95 6 65 5 52 5 39 5 23 4 24 6 25 10 17 9 12 8 17 13 18 18 14 21 8 16 6 14 8 28 5 26 6 39 8 62 5 56 4 60 2 43v69l-6 110-4 49-6 49-5 42-5 39-6 31-6 24-9 21-8 13-10 13-9 10-10 10-11 9-15 10-12 7-21 8-23 7-26 6-55 9-36 5-60 6-71 6-63 4-97 4-60 1h-96l-60-1-73-2-45-2-69-4-76-7-68-7-53-8-32-6-24-7-16-6-16-8-14-8-14-11-13-12-13-13-12-17-11-21-7-19-5-18-6-33-6-41-6-50-4-48-3-47-2-51v-135l2-52 4-61 3-35 6-54 6-48 4-20 11-32 8-15 10-16 14-16 12-12 18-13 17-10 23-10 19-6 22-5 33-6 49-7 43-5 63-6 71-5 61-3 65-2zm33 63-111 3-99 5-71 5-54 5-56 7-48 7-26 6-27 9-21 11-10 7-14 12-8 10-6 10-4 8-5 16-4 17-8 46-4 36-4 49-4 54-3 57-1 44v44l1 40 4 72 6 61 4 35 6 36 10 48 6 22 8 20 6 11 8 10h2l2 4 14 10 11 7 16 8 22 8 27 6 50 8 64 8 71 6 58 4 57 3 69 3 42 1h99l52-1 58-2 87-5 93-7 57-6 83-11 30-6 20-6 16-7 13-7 14-10 12-11 7-10 8-15 4-14 6-36 5-35 5-37 7-63 6-64 2-26 2-48v-80l-2-42-6-67-4-40-10-71-7-44-7-25-7-14-8-11-10-11-12-9-16-9-19-8-24-7-35-6-78-9-42-4-53-4-63-4-56-3-91-3-44-1z"/>
<path transform="translate(608,545)" d="m0 0 7 1 19 12 23 13 12 7 14 7 21 12 18 10 24 14 26 15 21 12 27 15 24 14 27 16 25 14 21 12 25 14 17 10 25 14 24 14 26 15 16 10 2 2-1 4-15 9-35 20-18 10-23 13-19 11-23 13-24 14-23 13-24 14-25 15-11 6-39 22-21 12-26 15-21 12-26 15-27 15-16 9-15 9-7 4h-4l-2-16v-491zm64 108-1 92v201l5-2 17-9 16-10 23-13 22-13 25-15 23-13 26-15 21-12 24-14 26-15 25-15 2-3-16-8-11-6-24-14-25-14-24-14-16-9-24-14-29-17-29-16-26-15-20-12-8-5z"/>
</svg>

  <symbol version="1.1" id="money" xmlns="http://www.w3.org/2000/svg" xlink="http://www.w3.org/1999/xlink" x="0px" y="0px" space="preserve" viewBox="0 0 24 24">
     <g stroke-width="0"></g><g stroke-linecap="round" stroke-linejoin="round" stroke="#CCCCCC" stroke-width="0.288"></g><g> <path d="M5,6 L5,6.5 C5,7.88071187 3.88071187,9 2.5,9 L2,9 L2,15 L2.54138127,15 C3.92209314,15 5.04138127,16.1192881 5.04138127,17.5 L5.04138127,18 L19,18 L19,17.5 C19,16.1192881 20.1192881,15 21.5,15 L22,15 L22,9 L21.5,9 C20.1192881,9 19,7.88071187 19,6.5 L19,6 L5,6 Z M4,6 L3.5,6 C2.67157288,6 2,6.67157288 2,7.5 L2,8 L2.5,8 C3.32842712,8 4,7.32842712 4,6.5 L4,6 Z M4.04138127,18 L4.04138127,17.5 C4.04138127,16.6715729 3.36980839,16 2.54138127,16 L2,16 L2,16.5 C2,17.3284271 2.67157288,18 3.5,18 L4.04138127,18 L4.04138127,18 Z M4.72515192,19 C4.66826565,19.0224932 4.60626682,19.0348527 4.54138127,19.0348527 C4.47649571,19.0348527 4.41449688,19.0224932 4.35761061,19 L3.5,19 C2.11928813,19 1,17.8807119 1,16.5 L1,7.5 C1,6.11928813 2.11928813,5 3.5,5 L20.5,5 C21.8807119,5 23,6.11928813 23,7.5 L23,16.5 C23,17.8807119 21.8807119,19 20.5,19 L4.72515192,19 L4.72515192,19 Z M20,18 L20.5,18 C21.3284271,18 22,17.3284271 22,16.5 L22,16 L21.5,16 C20.6715729,16 20,16.6715729 20,17.5 L20,18 Z M20,6 L20,6.5 C20,7.32842712 20.6715729,8 21.5,8 L22,8 L22,7.5 C22,6.67157288 21.3284271,6 20.5,6 L20,6 Z M12,16 C9.790861,16 8,14.209139 8,12 C8,9.790861 9.790861,8 12,8 C14.209139,8 16,9.790861 16,12 C16,14.209139 14.209139,16 12,16 Z M12,15 C13.6568542,15 15,13.6568542 15,12 C15,10.3431458 13.6568542,9 12,9 C10.3431458,9 9,10.3431458 9,12 C9,13.6568542 10.3431458,15 12,15 Z"></path> </g>
  </symbol>
</svg>
