<?xml version="1.0" encoding="UTF-8"?>
<svg width="184px" height="18px" viewBox="0 0 184 18" version="1.1" xmlns="http://www.w3.org/2000/svg" xmlns:xlink="http://www.w3.org/1999/xlink">
    <title>Group 21</title>
    <defs>
        <polygon id="path-1" points="0 17.6283386 183.337714 17.6283386 183.337714 -0.000732857143 0 -0.000732857143"></polygon>
    </defs>
    <g id="Symbols" stroke="none" stroke-width="1" fill="none" fill-rule="evenodd">
        <g id="header/mobile" transform="translate(-59.000000, -16.000000)">
            <g id="Group-21" transform="translate(59.000000, 16.000000)">
                <path d="M5.184,8.46299571 C5.92457143,8.46299571 6.588,8.41671 7.17428571,8.32413857 C7.76057143,8.23156714 8.25814286,8.05799571 8.667,7.80342429 C9.07585714,7.54885286 9.39214286,7.20171 9.61585714,6.76199571 C9.83957143,6.32228143 9.95142857,5.74756714 9.95142857,5.03785286 C9.95142857,3.98871 9.60814286,3.19606714 8.92157143,2.65413857 C8.235,2.11413857 7.14342857,1.84413857 5.64685714,1.84413857 L1.57371429,1.84413857 L1.57371429,8.46299571 L5.184,8.46299571 Z M0,17.16471 L0,0.501852857 L6.08657143,0.501852857 C7.16657143,0.501852857 8.05757143,0.62721 8.75957143,0.872138571 C9.46157143,1.11899571 10.017,1.45842429 10.4258571,1.89042429 C10.8347143,2.32242429 11.1201429,2.81999571 11.2821429,3.38313857 C11.4441429,3.94628143 11.5251429,4.53642429 11.5251429,5.15356714 C11.5251429,6.07928143 11.3361429,6.84299571 10.9581429,7.44471 C10.5801429,8.04642429 10.0902857,8.52085286 9.48857143,8.86799571 C8.88685714,9.21513857 8.20414286,9.45813857 7.44042857,9.59699571 C6.67671429,9.73585286 5.90914286,9.80528143 5.13771429,9.80528143 L1.57371429,9.80528143 L1.57371429,17.16471 L0,17.16471 Z" id="Fill-1" fill="#000000"></path>
                <path d="M20.6661857,8.25471 C21.2524714,8.25471 21.7963286,8.19299571 22.2977571,8.06956714 C22.7991857,7.94613857 23.2350429,7.74942429 23.6053286,7.47942429 C23.9756143,7.20942429 24.2687571,6.86613857 24.4847571,6.44956714 C24.7007571,6.03299571 24.8087571,5.53156714 24.8087571,4.94528143 C24.8087571,4.32813857 24.6969,3.81899571 24.4731857,3.41785286 C24.2494714,3.01671 23.9486143,2.70042429 23.5706143,2.46899571 C23.1926143,2.23756714 22.7606143,2.07556714 22.2746143,1.98299571 C21.7886143,1.89042429 21.2833286,1.84413857 20.7587571,1.84413857 L15.7599,1.84413857 L15.7599,8.25471 L20.6661857,8.25471 Z M15.7599,9.59699571 L15.7599,17.16471 L14.1861857,17.1415671 L14.1861857,0.501852857 L20.7124714,0.501852857 C22.5484714,0.501852857 23.9524714,0.845138571 24.9244714,1.53171 C25.8964714,2.21828143 26.3824714,3.33299571 26.3824714,4.87585286 C26.3824714,5.92499571 26.1703286,6.75813857 25.7460429,7.37528143 C25.3217571,7.99242429 24.6313286,8.51699571 23.6747571,8.94899571 C24.1684714,9.11871 24.5541857,9.36556714 24.8319,9.68956714 C25.1096143,10.0135671 25.3179,10.3838529 25.4567571,10.8004243 C25.5956143,11.2169957 25.6843286,11.65671 25.7229,12.1195671 C25.7614714,12.5824243 25.7884714,13.0298529 25.8039,13.4618529 C25.8193286,14.0944243 25.8463286,14.6189957 25.8849,15.0355671 C25.9234714,15.4521386 25.9697571,15.7915671 26.0237571,16.0538529 C26.0777571,16.3161386 26.1433286,16.5205671 26.2204714,16.6671386 C26.2976143,16.81371 26.3901857,16.9255671 26.4981857,17.00271 L26.4981857,17.1415671 L24.7624714,17.16471 C24.5927571,16.8869957 24.4731857,16.5012814 24.4037571,16.0075671 C24.3343286,15.5138529 24.2803286,14.9969957 24.2417571,14.4569957 C24.2031857,13.9169957 24.1723286,13.3924243 24.1491857,12.8832814 C24.1260429,12.3741386 24.0836143,11.9575671 24.0219,11.6335671 C23.9293286,11.1861386 23.7789,10.8274243 23.5706143,10.5574243 C23.3623286,10.2874243 23.1116143,10.0829957 22.8184714,9.94413857 C22.5253286,9.80528143 22.1974714,9.71271 21.8349,9.66642429 C21.4723286,9.62013857 21.0981857,9.59699571 20.7124714,9.59699571 L15.7599,9.59699571 Z" id="Fill-3" fill="#000000"></path>
                <path d="M36.7738071,16.26291 C37.8538071,16.26291 38.7833786,16.0584814 39.5625214,15.6496243 C40.3416643,15.2407671 40.98195,14.69691 41.4833786,14.0180529 C41.9848071,13.3391957 42.3550929,12.5523386 42.5942357,11.6574814 C42.8333786,10.7626243 42.95295,9.82919571 42.95295,8.85719571 C42.95295,7.70005286 42.8102357,6.66248143 42.5248071,5.74448143 C42.2393786,4.82648143 41.8266643,4.04348143 41.2866643,3.39548143 C40.7466643,2.74748143 40.09095,2.25376714 39.3195214,1.91433857 C38.5480929,1.57491 37.6840929,1.40519571 36.7275214,1.40519571 C35.66295,1.40519571 34.7410929,1.61348143 33.96195,2.03005286 C33.1828071,2.44662429 32.5425214,2.99819571 32.0410929,3.68476714 C31.5396643,4.37133857 31.1693786,5.16205286 30.9302357,6.05691 C30.6910929,6.95176714 30.5715214,7.88519571 30.5715214,8.85719571 C30.5715214,9.84462429 30.6910929,10.7857671 30.9302357,11.6806243 C31.1693786,12.5754814 31.5396643,13.3623386 32.0410929,14.0411957 C32.5425214,14.7200529 33.1828071,15.2600529 33.96195,15.6611957 C34.7410929,16.0623386 35.6783786,16.26291 36.7738071,16.26291 M28.9978071,8.85719571 C28.9978071,7.63833857 29.1636643,6.49662429 29.4953786,5.43205286 C29.8270929,4.36748143 30.31695,3.43791 30.96495,2.64333857 C31.61295,1.84876714 32.4152357,1.22005286 33.3718071,0.757195714 C34.3283786,0.294338571 35.4315214,0.06291 36.6812357,0.06291 C37.9772357,0.06291 39.1150929,0.290481429 40.0948071,0.745624286 C41.0745214,1.20076714 41.8922357,1.82562429 42.54795,2.62019571 C43.2036643,3.41476714 43.6973786,4.34819571 44.0290929,5.42048143 C44.3608071,6.49276714 44.5266643,7.63833857 44.5266643,8.85719571 C44.5266643,10.0606243 44.3608071,11.1907671 44.0290929,12.2476243 C43.6973786,13.3044814 43.2075214,14.2301957 42.5595214,15.0247671 C41.9115214,15.8193386 41.1015214,16.4480529 40.1295214,16.91091 C39.1575214,17.3737671 38.0312357,17.6051957 36.7506643,17.6051957 C35.4700929,17.6051957 34.3438071,17.3737671 33.3718071,16.91091 C32.3998071,16.4480529 31.5898071,15.8193386 30.9418071,15.0247671 C30.2938071,14.2301957 29.8078071,13.3044814 29.4838071,12.2476243 C29.1598071,11.1907671 28.9978071,10.0606243 28.9978071,8.85719571" id="Fill-5" fill="#000000"></path>
                <path d="M47.8592357,11.8887171 C47.8592357,12.4132886 47.8785214,12.9301457 47.9170929,13.4392886 C47.9556643,13.9484314 48.0713786,14.4074314 48.2642357,14.8162886 C48.4570929,15.2251457 48.75795,15.5530029 49.1668071,15.79986 C49.5756643,16.0467171 50.1426643,16.1701457 50.8678071,16.1701457 C51.9478071,16.1701457 52.7076643,15.8615743 53.1473786,15.2444314 C53.5870929,14.6272886 53.80695,13.7324314 53.80695,12.55986 L53.80695,0.502431429 L55.3806643,0.502431429 L55.3806643,12.6061457 C55.3806643,14.2261457 55.0026643,15.4642886 54.2466643,16.3205743 C53.4906643,17.17686 52.3026643,17.6050029 50.6826643,17.6050029 C49.7415214,17.6050029 48.9855214,17.44686 48.4146643,17.1305743 C47.8438071,16.8142886 47.4002357,16.3900029 47.08395,15.8577171 C46.7676643,15.3254314 46.5555214,14.7160029 46.4475214,14.0294314 C46.3395214,13.34286 46.2855214,12.6292886 46.2855214,11.8887171 L47.8592357,11.8887171 Z" id="Fill-7" fill="#000000"></path>
                <polygon id="Fill-9" fill="#000000" points="59.2225714 17.1650957 59.2225714 0.502238571 70.308 0.502238571 70.308 1.84452429 60.7962857 1.84452429 60.7962857 7.86166714 69.3822857 7.86166714 69.3822857 9.20395286 60.7962857 9.20395286 60.7962857 15.82281 70.5394286 15.82281 70.5394286 17.1650957"></polygon>
                <path d="M85.1886643,5.33928857 C84.8646643,3.91986 84.26295,2.90928857 83.3835214,2.30757429 C82.5040929,1.70586 81.3546643,1.40500286 79.9352357,1.40500286 C78.9323786,1.40500286 78.0683786,1.60557429 77.3432357,2.00671714 C76.6180929,2.40786 76.0202357,2.94786 75.5496643,3.62671714 C75.0790929,4.30557429 74.73195,5.08857429 74.5082357,5.97571714 C74.2845214,6.86286 74.1726643,7.80014571 74.1726643,8.78757429 C74.1726643,9.71328857 74.2690929,10.6235743 74.46195,11.5184314 C74.6548071,12.4132886 74.97495,13.2117171 75.4223786,13.9137171 C75.8698071,14.6157171 76.4715214,15.1827171 77.2275214,15.6147171 C77.9835214,16.0467171 78.9323786,16.2627171 80.0740929,16.2627171 C80.7838071,16.2627171 81.4318071,16.1470029 82.0180929,15.9155743 C82.6043786,15.6841457 83.1173786,15.3640029 83.5570929,14.9551457 C83.9968071,14.5462886 84.3670929,14.0641457 84.66795,13.5087171 C84.9688071,12.9532886 85.1963786,12.34386 85.3506643,11.6804314 L86.9938071,11.6804314 C86.8086643,12.4827171 86.5386643,13.2425743 86.1838071,13.9600029 C85.82895,14.6774314 85.3622357,15.3061457 84.7836643,15.8461457 C84.2050929,16.3861457 83.5030929,16.8142886 82.6776643,17.1305743 C81.8522357,17.44686 80.8840929,17.6050029 79.7732357,17.6050029 C78.4926643,17.6050029 77.3972357,17.3697171 76.48695,16.8991457 C75.5766643,16.4285743 74.8322357,15.7921457 74.2536643,14.98986 C73.6750929,14.1875743 73.2546643,13.2580029 72.9923786,12.2011457 C72.7300929,11.1442886 72.59895,10.02186 72.59895,8.83386 C72.59895,7.24471714 72.7956643,5.89471714 73.1890929,4.78386 C73.5825214,3.67300286 74.1263786,2.76657429 74.8206643,2.06457429 C75.51495,1.36257429 76.3326643,0.853431429 77.2738071,0.537145714 C78.21495,0.22086 79.24095,0.0627171429 80.3518071,0.0627171429 C81.2003786,0.0627171429 81.9910929,0.174574286 82.72395,0.398288571 C83.4568071,0.622002857 84.1048071,0.957574286 84.66795,1.40500286 C85.2310929,1.85243143 85.69395,2.40400286 86.0565214,3.05971714 C86.4190929,3.71543143 86.6698071,4.47528857 86.8086643,5.33928857 L85.1886643,5.33928857 Z" id="Fill-11" fill="#000000"></path>
                <polygon id="Fill-13" fill="#000000" points="88.5673286 0.501852857 100.694186 0.501852857 100.694186 1.84413857 95.4176143 1.84413857 95.4176143 17.16471 93.8439 17.16471 93.8439 1.84413857 88.5673286 1.84413857"></polygon>
                <mask id="mask-2" fill="white">
                    <use xlink:href="#path-1"></use>
                </mask>
                <g id="Clip-16"></g>
                <polygon id="Fill-15" fill="#D02B2F" mask="url(#mask-2)" points="109.124357 17.1654814 111.056786 17.1654814 111.056786 0.329052857 109.124357 0.329052857"></polygon>
                <polygon id="Fill-17" fill="#000000" mask="url(#mask-2)" points="120.531086 14.2269171 129.045729 3.45777429 120.745157 3.45777429 120.745157 0.508988571 133.367657 0.508988571 133.367657 3.29963143 124.745014 14.2269171 133.3908 14.2269171 133.3908 17.1641314 120.531086 17.1641314"></polygon>
                <polygon id="Fill-18" fill="#000000" mask="url(#mask-2)" points="148.159993 3.45777429 139.346421 3.45777429 139.346421 6.99477429 147.436779 6.99477429 147.436779 9.88763143 139.346421 9.88763143 139.346421 14.1709886 148.566921 14.1709886 148.566921 17.1641314 135.944421 17.1641314 135.944421 0.508988571 148.159993 0.508988571"></polygon>
                <path d="M154.759371,3.40126714 L154.759371,7.87555286 L158.504657,7.87555286 C159.249086,7.87555286 159.806443,7.78491 160.180586,7.60555286 C160.8363,7.28926714 161.166086,6.66248143 161.166086,5.72905286 C161.166086,4.72041 160.847871,4.04155286 160.211443,3.69441 C159.854657,3.49962429 159.316586,3.40126714 158.601086,3.40126714 L154.759371,3.40126714 Z M161.952943,0.938481429 C162.566229,1.20076714 163.085014,1.59033857 163.513157,2.10141 C163.864157,2.52376714 164.1438,2.99048143 164.350157,3.50348143 C164.556514,4.01455286 164.658729,4.59891 164.658729,5.25462429 C164.658729,6.04533857 164.458157,6.82255286 164.058943,7.58819571 C163.659729,8.35191 163.000157,8.89383857 162.082157,9.21012429 C162.849729,9.51869571 163.395514,9.95648143 163.715657,10.52541 C164.0358,11.0943386 164.195871,11.9621957 164.195871,13.13091 L164.195871,14.2494814 C164.195871,15.0112671 164.2248,15.5261957 164.286514,15.7981243 C164.379086,16.2262671 164.593157,16.5425529 164.928729,16.7469814 L164.928729,17.1654814 L161.087014,17.1654814 C160.982871,16.7951957 160.907657,16.4981957 160.861371,16.2725529 C160.770729,15.8058386 160.722514,15.3275529 160.7148,14.8376957 L160.691657,13.2890529 C160.678157,12.22641 160.494943,11.5186243 160.142014,11.1637671 C159.789086,10.8108386 159.127586,10.63341 158.159443,10.63341 L154.759371,10.63341 L154.759371,17.1654814 L151.357371,17.1654814 L151.357371,0.50841 L159.3243,0.50841 C160.464086,0.531552857 161.339657,0.674267143 161.952943,0.938481429 L161.952943,0.938481429 Z" id="Fill-19" fill="#000000" mask="url(#mask-2)"></path>
                <path d="M178.642414,13.1534743 C179.452414,12.1371171 179.857414,10.6906886 179.857414,8.81418857 C179.857414,6.94540286 179.452414,5.50090286 178.642414,4.48068857 C177.832414,3.46047429 176.738914,2.94940286 175.359986,2.94940286 C173.981057,2.94940286 172.881771,3.45854571 172.0602,4.47490286 C171.238629,5.49126 170.827843,6.93768857 170.827843,8.81418857 C170.827843,10.6906886 171.238629,12.1371171 172.0602,13.1534743 C172.881771,14.1698314 173.981057,14.6789743 175.359986,14.6789743 C176.738914,14.6789743 177.832414,14.1698314 178.642414,13.1534743 M180.817843,15.68376 C179.560414,16.97976 177.739843,17.62776 175.359986,17.62776 C172.9782,17.62776 171.159557,16.97976 169.902129,15.68376 C168.214629,14.0946171 167.369914,11.8054029 167.369914,8.81418857 C167.369914,5.76318857 168.214629,3.47204571 169.902129,1.94461714 C171.159557,0.648617143 172.9782,0.000617142857 175.359986,0.000617142857 C177.739843,0.000617142857 179.560414,0.648617143 180.817843,1.94461714 C182.497629,3.47204571 183.338486,5.76318857 183.338486,8.81418857 C183.338486,11.8054029 182.497629,14.0946171 180.817843,15.68376" id="Fill-20" fill="#000000" mask="url(#mask-2)"></path>
            </g>
        </g>
    </g>
</svg>