<?xml version="1.0" standalone="no"?>
<!DOCTYPE svg PUBLIC "-//W3C//DTD SVG 20010904//EN"
 "http://www.w3.org/TR/2001/REC-SVG-20010904/DTD/svg10.dtd">
<svg version="1.0" xmlns="http://www.w3.org/2000/svg"
 width="5888.000000pt" height="5888.000000pt" viewBox="0 0 5888.000000 5888.000000"
 preserveAspectRatio="xMidYMid meet">
<metadata>
Created by potrace 1.14, written by Peter Selinger 2001-2017
</metadata>
<g transform="translate(0.000000,5888.000000) scale(0.100000,-0.100000)"
fill="#000000" stroke="none">
<path d="M55879 32316 c-2 -2 -40 -7 -84 -10 -188 -16 -330 -40 -475 -78 -41
-11 -89 -23 -106 -28 -18 -4 -37 -10 -43 -14 -6 -4 -19 -9 -29 -11 -70 -13
-348 -144 -439 -206 -23 -16 -46 -29 -52 -29 -6 0 -11 -3 -11 -7 0 -5 -17 -19
-38 -33 -51 -34 -49 -33 -116 -92 -126 -112 -304 -297 -373 -388 -40 -52 -77
-100 -83 -107 -5 -7 -10 -15 -10 -19 0 -4 -10 -21 -23 -38 -45 -60 -112 -186
-182 -341 -41 -90 -119 -312 -130 -372 -2 -10 -4 -18 -5 -18 -1 0 -3 -7 -5
-15 -2 -8 -6 -26 -9 -40 -3 -14 -7 -34 -10 -45 -25 -106 -40 -185 -55 -295
-21 -155 -29 -232 -35 -356 -2 -28 -6 -56 -10 -62 -4 -7 -4 -12 1 -12 4 0 7
-19 5 -42 -7 -121 0 -442 13 -563 2 -22 7 -65 10 -95 8 -74 13 -109 32 -215 8
-49 16 -97 18 -105 13 -86 76 -307 129 -457 49 -138 203 -444 247 -492 10 -11
19 -23 19 -26 0 -11 84 -125 92 -125 4 0 8 -4 8 -10 0 -43 444 -480 488 -480
6 0 12 -4 14 -9 4 -11 165 -111 178 -111 5 0 10 -4 10 -10 0 -5 3 -9 8 -8 4 1
41 -15 82 -34 157 -75 385 -151 515 -171 17 -3 37 -7 45 -10 8 -3 33 -8 55
-11 22 -3 49 -7 60 -10 11 -2 51 -7 88 -11 37 -3 78 -8 90 -11 19 -3 185 -12
345 -17 28 -1 52 0 52 3 0 3 46 5 103 6 117 1 293 14 362 28 17 3 50 9 75 12
44 6 57 9 103 19 12 3 33 8 47 10 73 12 242 65 360 113 86 35 244 113 248 124
2 4 8 8 13 8 16 0 146 88 230 156 95 76 249 229 338 334 100 118 101 120 101
128 0 5 8 17 18 28 101 111 304 526 358 733 2 9 13 50 25 91 39 138 80 347 95
480 3 30 7 69 9 85 29 245 24 818 -9 1015 -3 19 -8 55 -11 80 -3 25 -7 55 -9
66 -2 12 -7 37 -10 55 -31 190 -97 428 -172 614 -36 90 -145 309 -156 313 -4
2 -8 8 -8 14 0 10 -88 145 -124 189 -12 14 -28 36 -36 48 -41 60 -254 282
-351 366 -220 191 -453 315 -764 410 -99 30 -165 44 -375 81 -14 2 -50 6 -80
10 -30 3 -66 8 -80 10 -28 6 -575 15 -581 10z m421 -950 c88 -12 120 -18 192
-36 111 -29 233 -79 313 -129 22 -14 52 -32 67 -41 15 -8 47 -30 70 -49 54
-43 238 -231 238 -243 0 -5 9 -19 21 -31 28 -30 107 -165 152 -260 91 -191
161 -464 182 -707 2 -30 7 -77 10 -105 13 -109 6 -537 -10 -649 -3 -17 -7 -47
-9 -66 -29 -239 -92 -459 -186 -655 -45 -93 -123 -222 -166 -275 -106 -128
-186 -202 -301 -280 -88 -61 -188 -110 -290 -144 -76 -24 -206 -57 -221 -55
-4 1 -9 0 -12 -1 -33 -13 -378 -18 -437 -6 -18 3 -48 8 -65 11 -410 67 -762
337 -961 740 -52 104 -131 320 -142 389 -3 17 -8 39 -11 48 -7 24 -14 58 -20
98 -2 19 -6 42 -9 50 -2 8 -7 38 -10 65 -3 28 -8 66 -10 85 -23 166 -24 576 0
765 8 65 16 125 21 148 2 12 6 36 8 52 8 60 45 203 81 310 101 300 281 559
500 721 33 24 69 51 80 60 66 51 415 188 433 170 2 -3 15 -1 29 5 13 5 59 12
101 15 42 4 78 7 79 8 5 4 248 -3 283 -8z"/>
<path d="M11538 32295 c-1 -2 -37 -6 -79 -9 -199 -13 -520 -90 -674 -161 -136
-62 -313 -152 -325 -165 -3 -3 -41 -30 -85 -60 -112 -75 -213 -159 -319 -265
-91 -90 -236 -265 -236 -285 0 -5 -4 -10 -9 -10 -7 0 -54 -68 -86 -125 -6 -11
-23 -38 -37 -60 -57 -91 -197 -395 -214 -465 -2 -8 -10 -33 -18 -55 -8 -22
-15 -48 -16 -57 0 -10 -5 -18 -12 -18 -6 0 -9 -3 -5 -6 3 -3 -1 -29 -10 -57
-8 -28 -17 -59 -19 -69 -2 -10 -6 -26 -8 -36 -2 -9 -9 -35 -14 -57 -9 -35 -16
-66 -26 -125 -1 -8 -5 -28 -9 -45 -3 -16 -8 -46 -11 -65 -29 -212 -32 -242
-42 -410 -5 -73 -5 -135 -2 -159 0 -3 -1 -10 -2 -16 -4 -25 5 -294 14 -380 20
-194 24 -230 26 -230 1 0 3 -11 5 -25 3 -29 14 -88 20 -110 2 -8 6 -31 9 -51
10 -69 77 -314 112 -413 61 -172 121 -307 178 -406 11 -19 22 -41 23 -50 1 -8
7 -16 12 -18 6 -2 11 -7 11 -12 0 -10 105 -170 156 -238 120 -158 295 -332
454 -448 136 -100 371 -230 515 -284 33 -12 74 -27 90 -33 17 -7 32 -12 35
-13 3 0 12 -3 20 -7 14 -5 123 -33 165 -42 11 -3 40 -9 65 -14 25 -6 61 -13
80 -15 19 -3 44 -7 55 -10 20 -4 99 -12 210 -22 137 -12 487 -5 567 12 13 2
46 6 73 9 28 2 61 7 75 10 14 3 41 8 60 11 19 2 43 7 52 10 9 2 25 6 35 8 106
21 418 130 447 157 6 5 18 9 28 9 10 0 18 4 18 9 0 5 15 14 33 22 49 20 256
149 322 200 156 124 276 241 401 394 47 57 189 271 219 331 11 21 23 41 28 42
4 2 7 12 7 23 0 10 5 19 10 19 6 0 10 9 10 20 0 11 5 20 10 20 6 0 10 6 10 12
0 7 11 35 24 63 32 69 63 141 81 195 15 41 63 191 69 215 2 6 6 17 9 25 14 38
70 301 81 380 7 46 26 215 31 263 2 26 7 52 10 57 3 5 1 11 -5 15 -6 4 -7 13
-1 23 16 32 4 553 -16 682 -3 25 -6 48 -5 51 1 7 -15 121 -24 164 -3 17 -7 39
-9 50 -2 11 -6 32 -9 48 -3 15 -8 38 -10 50 -19 111 -125 453 -171 555 -8 17
-22 49 -31 70 -23 53 -83 169 -116 225 -15 26 -28 50 -28 53 0 3 -5 10 -10 17
-6 7 -31 44 -57 82 -25 39 -50 72 -55 73 -4 2 -8 9 -8 16 0 6 -8 19 -17 27
-10 9 -27 29 -38 45 -41 59 -173 197 -267 279 -80 69 -131 108 -226 171 -37
24 -72 47 -78 51 -15 11 -50 31 -97 56 -23 11 -45 25 -48 30 -3 5 -9 8 -13 7
-4 -1 -33 10 -64 25 -106 49 -141 64 -167 71 -5 1 -42 14 -81 28 -39 14 -82
27 -95 30 -13 3 -33 7 -44 10 -52 14 -112 28 -133 32 -95 17 -144 24 -192 30
-30 3 -66 8 -80 11 -29 6 -506 13 -512 8z m482 -440 c25 -4 52 -7 60 -7 8 0
31 -4 50 -8 31 -8 83 -17 130 -24 28 -5 165 -47 235 -74 115 -43 294 -138 395
-210 153 -109 350 -316 446 -467 10 -16 21 -32 24 -35 19 -18 178 -333 185
-367 2 -10 15 -46 29 -80 13 -35 22 -63 20 -63 -3 0 0 -9 6 -19 13 -25 66
-220 75 -276 3 -22 15 -91 20 -115 2 -8 6 -40 10 -70 4 -30 9 -66 11 -80 9
-46 14 -95 18 -187 2 -51 6 -96 8 -100 15 -30 -6 -539 -27 -653 -2 -14 -7 -45
-10 -70 -5 -36 -38 -208 -50 -255 -1 -5 -6 -29 -10 -52 -4 -24 -12 -43 -17
-43 -5 0 -7 -4 -4 -8 9 -15 -87 -303 -123 -370 -6 -9 -22 -44 -37 -77 -16 -33
-31 -62 -34 -65 -3 -3 -16 -25 -29 -50 -22 -41 -48 -82 -91 -145 -8 -12 -24
-35 -35 -51 -11 -16 -24 -34 -30 -40 -5 -6 -41 -47 -80 -91 -38 -43 -107 -110
-152 -148 -46 -39 -89 -75 -96 -82 -29 -25 -185 -122 -258 -161 -148 -78 -355
-145 -524 -168 -11 -1 -20 -3 -20 -4 0 -1 -25 -4 -145 -16 -127 -12 -391 -7
-505 10 -16 2 -55 7 -85 11 -30 4 -58 9 -61 11 -3 2 -20 6 -38 9 -78 14 -226
59 -300 91 -278 124 -495 287 -683 514 -52 63 -178 253 -178 268 0 6 -4 12 -8
14 -9 3 -102 193 -102 207 0 5 -6 22 -14 38 -18 35 -39 85 -41 98 -2 6 -9 30
-18 55 -18 54 -68 235 -72 264 -2 12 -6 32 -9 46 -3 14 -7 37 -10 53 -3 15 -7
35 -10 45 -9 31 -42 314 -46 407 -6 111 -4 399 3 490 10 123 23 238 32 285 3
14 7 39 10 55 2 17 7 41 10 55 3 14 8 37 10 53 7 44 75 295 97 356 85 238 223
492 349 646 69 84 248 254 334 317 78 57 255 168 268 168 3 0 31 12 63 27 33
15 61 28 64 29 3 0 12 3 20 7 97 39 319 91 429 101 29 3 55 7 57 9 7 7 433 0
484 -8z"/>
<path d="M25498 32295 c-2 -1 -39 -5 -83 -9 -106 -8 -221 -22 -255 -31 -8 -2
-31 -6 -50 -9 -73 -12 -198 -41 -300 -72 -208 -63 -388 -146 -555 -258 -33
-22 -62 -43 -65 -46 -3 -4 -10 -9 -16 -11 -19 -7 -105 -80 -197 -169 -291
-278 -507 -671 -628 -1140 -17 -63 -32 -128 -34 -145 -3 -16 -9 -52 -15 -80
-6 -27 -12 -66 -15 -85 -3 -19 -7 -46 -10 -60 -3 -14 -8 -54 -11 -90 -3 -36
-7 -81 -9 -100 -26 -252 -26 -788 0 -985 2 -16 7 -56 10 -87 3 -31 8 -67 10
-80 3 -13 8 -43 11 -68 3 -25 8 -54 10 -65 10 -49 21 -107 28 -147 8 -49 67
-270 90 -342 35 -105 118 -310 128 -314 4 -2 8 -10 8 -17 0 -15 42 -95 100
-190 20 -33 43 -71 51 -85 8 -14 16 -27 19 -30 3 -3 26 -34 52 -70 85 -121
216 -258 348 -364 47 -37 94 -75 105 -84 38 -31 220 -135 310 -178 83 -40 266
-106 325 -118 14 -3 52 -12 85 -20 78 -18 216 -39 340 -52 110 -11 473 -5 585
10 25 3 68 8 95 12 71 8 107 14 128 20 11 3 29 7 40 9 12 2 33 6 47 10 14 3
36 8 50 11 41 8 255 81 304 104 57 25 88 37 100 38 5 0 12 4 15 9 3 4 24 17
46 28 22 11 64 35 93 53 29 17 55 32 57 32 5 0 63 41 153 107 105 76 280 254
372 378 16 22 34 45 39 52 6 6 24 35 42 65 18 29 38 60 45 68 45 56 188 374
249 555 56 165 96 325 82 326 -7 0 -124 1 -262 2 l-250 0 -23 -79 c-28 -95
-48 -164 -53 -184 -2 -8 -6 -17 -9 -20 -3 -3 -14 -30 -24 -60 -39 -111 -192
-397 -218 -408 -4 -2 -8 -8 -8 -14 0 -18 -109 -149 -199 -238 -138 -137 -238
-210 -409 -294 -98 -49 -254 -108 -313 -120 -13 -2 -35 -7 -49 -10 -44 -10
-114 -22 -195 -32 -96 -11 -427 -5 -505 10 -14 3 -45 8 -70 11 -25 3 -53 8
-62 11 -9 3 -27 7 -40 9 -39 7 -112 26 -133 35 -11 5 -45 16 -75 26 -104 32
-261 118 -420 231 -129 92 -331 322 -411 468 -34 62 -139 273 -139 280 0 4 -6
21 -14 38 -16 37 -49 126 -53 145 -9 38 -12 47 -13 47 -1 0 -3 7 -5 15 -2 8
-12 49 -23 90 -22 82 -36 149 -68 330 -4 19 -8 51 -10 70 -3 19 -7 55 -10 80
-17 146 -25 289 -27 460 -1 157 9 381 19 435 3 17 7 48 9 70 2 22 4 40 5 40 1
0 3 16 5 35 2 19 6 46 8 60 3 14 10 54 16 90 15 81 38 181 56 240 8 25 16 56
19 70 3 14 14 49 25 78 11 29 20 54 20 55 0 17 99 240 128 292 13 22 28 51 35
65 7 14 23 39 35 56 13 17 23 34 23 38 0 4 32 50 70 101 65 86 173 202 262
282 51 46 246 177 315 212 128 64 336 130 463 146 25 3 68 9 95 13 109 15 481
7 610 -13 68 -10 91 -14 115 -20 14 -3 37 -7 53 -10 27 -5 93 -23 172 -45 22
-7 46 -17 53 -22 6 -6 12 -8 12 -5 0 16 225 -95 313 -155 197 -134 373 -359
467 -598 12 -30 27 -66 33 -80 5 -14 11 -29 13 -35 1 -5 14 -48 28 -95 14 -47
30 -104 36 -127 l11 -43 259 1 c242 1 258 2 255 19 -2 9 -6 33 -9 51 -3 19 -8
45 -11 59 -3 14 -7 36 -10 50 -2 14 -16 63 -30 110 -14 47 -27 93 -30 102 -20
87 -186 433 -224 468 -12 10 -51 69 -51 76 0 4 -8 14 -18 23 -9 9 -35 38 -57
66 -66 82 -167 179 -255 245 -18 14 -38 30 -44 36 -6 6 -22 17 -36 24 -13 7
-29 17 -34 21 -62 52 -298 166 -436 212 -118 40 -244 72 -360 91 -64 10 -114
17 -170 23 -60 6 -496 13 -502 8z"/>
<path d="M34923 32207 c-7 -12 -5 -305 2 -317 3 -6 3 -10 -2 -10 -9 0 -8 -603
1 -626 3 -8 2 -14 -2 -14 -8 0 -6 -1205 2 -1226 3 -8 2 -14 -2 -14 -8 0 -7
-124 2 -146 3 -7 2 -14 -2 -14 -8 0 -6 -165 2 -186 3 -8 2 -14 -2 -14 -8 0 -7
-564 2 -586 3 -7 2 -14 -2 -14 -8 0 -7 -124 2 -146 3 -7 2 -14 -2 -14 -8 0 -7
-1391 1 -1421 3 -11 2 -19 -1 -19 -8 0 -6 -125 2 -146 3 -7 2 -14 -2 -14 -8 0
-6 -165 2 -186 3 -8 2 -14 -2 -14 -4 0 -6 -35 -5 -77 1 -43 2 -100 2 -128 l1
-50 287 2 c159 1 298 2 309 2 l22 1 0 2690 c0 2487 -1 2690 -17 2691 -76 6
-594 2 -598 -4z"/>
<path d="M18 32162 c-17 -3 -18 -138 -18 -2668 0 -2124 3 -2664 13 -2665 6 0
117 -1 245 -1 155 -1 236 2 240 9 4 6 7 536 7 1177 0 641 2 1166 5 1166 3 1
320 3 705 5 385 2 720 6 745 8 25 3 72 8 105 11 66 6 121 13 175 22 54 9 93
15 115 18 226 35 536 146 703 252 29 19 56 34 61 34 5 0 11 3 13 8 2 4 21 20
43 37 119 89 222 199 309 330 53 81 119 215 132 270 4 17 9 35 13 40 3 6 6 15
7 20 1 6 9 42 18 80 8 39 18 97 22 130 8 71 8 413 -1 470 -5 34 -15 99 -31
190 -3 18 -40 157 -48 180 -2 6 -7 20 -11 33 -48 149 -216 384 -355 497 -188
152 -516 280 -795 310 -27 3 -57 8 -65 11 -21 7 -167 17 -277 18 -51 1 -93 5
-93 9 0 5 -5 5 -11 2 -13 -8 -133 -10 -146 -2 -5 3 -15 2 -22 -3 -8 -4 -27 -4
-42 0 -16 5 -31 5 -34 0 -2 -4 -19 -5 -36 -1 -17 3 -62 4 -101 1 -38 -3 -72
-2 -74 2 -3 4 -15 4 -27 -1 -12 -5 -31 -5 -42 -1 -11 4 -34 4 -51 0 -18 -4
-38 -4 -45 1 -7 4 -17 5 -22 2 -5 -3 -33 -5 -63 -4 -30 1 -62 1 -71 1 -26 0
-65 1 -88 4 -11 1 -29 -1 -40 -5 -11 -3 -29 -3 -40 1 -11 4 -24 5 -29 2 -11
-6 -122 -6 -133 1 -5 3 -15 2 -22 -3 -8 -4 -27 -4 -42 0 -16 5 -31 5 -34 0 -2
-4 -19 -5 -36 -1 -17 3 -62 4 -101 1 -38 -3 -72 -2 -74 2 -3 4 -15 4 -27 -1
-12 -5 -31 -5 -42 -1 -11 4 -34 4 -51 0 -18 -4 -38 -4 -45 1 -7 4 -17 5 -22 2
-13 -8 -97 -9 -97 -1 0 4 -13 3 -29 -2 -16 -4 -32 -6 -35 -3 -7 7 -164 6 -175
-2 -5 -3 -11 -2 -13 3 -1 4 -11 6 -20 4z m2102 -445 c36 -4 79 -9 95 -12 17
-2 48 -7 70 -11 22 -3 48 -11 59 -16 12 -7 16 -7 12 0 -5 9 22 2 169 -40 81
-24 215 -88 293 -140 53 -37 172 -151 172 -167 0 -6 4 -11 9 -11 23 0 133
-223 147 -300 3 -14 9 -41 14 -60 28 -109 30 -392 5 -520 -3 -14 -8 -38 -11
-55 -14 -81 -80 -257 -103 -275 -3 -3 -13 -17 -21 -31 -26 -47 -63 -92 -119
-147 -56 -54 -171 -138 -171 -125 0 5 -4 3 -8 -3 -15 -24 -233 -110 -297 -118
-19 -3 -38 -7 -42 -9 -11 -7 -187 -35 -258 -42 -33 -3 -87 -8 -120 -11 -33 -4
-386 -8 -785 -10 l-726 -3 2 1052 c1 579 2 1056 3 1060 1 9 1512 3 1611 -6z"/>
<path d="M4545 32160 c-4 -6 -7 -2936 -5 -4955 l0 -370 118 -2 c64 -1 178 -3
252 -3 l135 -2 -1 1211 0 1212 905 -4 c498 -2 927 -7 952 -10 118 -13 158 -20
252 -43 4 -1 9 -3 12 -4 3 -1 8 -3 13 -4 4 -1 34 -12 67 -25 157 -60 285 -176
359 -325 74 -150 107 -310 121 -596 6 -120 15 -274 20 -355 3 -44 8 -114 10
-155 7 -109 14 -187 21 -255 4 -33 8 -73 10 -90 6 -59 13 -121 19 -155 3 -19
8 -50 10 -69 8 -65 48 -206 73 -261 14 -30 24 -58 24 -62 -2 -9 5 -9 203 -7
83 1 198 2 258 2 106 0 107 0 104 23 -1 13 -16 38 -32 56 -36 39 -68 88 -59
88 4 0 0 7 -7 16 -7 9 -14 21 -15 28 -1 6 -9 36 -18 66 -8 30 -18 69 -21 85
-2 17 -7 41 -10 55 -3 14 -7 44 -10 67 -3 23 -7 57 -9 75 -15 103 -28 318 -42
668 -3 80 -7 168 -9 195 -10 160 -17 242 -20 255 -2 8 -7 42 -11 75 -3 33 -10
68 -15 77 -5 9 -8 21 -7 25 5 20 -48 196 -83 270 -10 24 -19 45 -19 49 0 18
-137 208 -181 251 -61 59 -148 123 -166 123 -7 0 -13 3 -13 8 0 4 -33 21 -74
37 l-74 30 26 17 c15 10 35 18 44 18 9 0 18 3 20 8 2 4 23 17 48 29 117 58
276 171 374 268 76 75 136 140 136 148 0 2 23 41 50 87 28 46 50 91 50 100 0
9 4 20 9 26 16 17 59 167 81 284 28 151 28 457 0 620 -19 112 -26 143 -42 189
-6 20 -12 41 -13 46 -3 24 -76 186 -97 214 -10 13 -18 28 -18 32 0 8 -14 28
-45 63 -6 6 -21 27 -34 46 -13 19 -54 61 -90 93 -58 51 -77 67 -126 104 -48
37 -263 141 -365 176 -112 38 -286 82 -370 92 -19 2 -48 6 -65 9 -31 6 -94 13
-180 21 -27 3 -116 7 -197 10 -81 3 -151 5 -155 6 -4 1 -12 0 -18 -1 -22 -4
-96 -2 -102 3 -3 3 -15 2 -27 -2 -11 -5 -30 -5 -40 -1 -11 3 -37 3 -58 0 -21
-4 -41 -4 -44 1 -2 4 -15 5 -27 0 -12 -5 -31 -5 -42 -1 -11 4 -34 4 -51 0 -18
-4 -38 -4 -45 1 -7 4 -17 5 -22 2 -13 -8 -97 -9 -97 -1 0 4 -13 3 -29 -2 -16
-4 -32 -6 -35 -3 -7 8 -164 6 -176 -2 -6 -3 -10 -2 -10 3 0 4 -22 6 -50 2 -27
-3 -55 -3 -63 1 -7 4 -19 4 -26 -1 -8 -4 -27 -4 -42 0 -16 5 -31 5 -34 0 -2
-4 -19 -5 -36 -1 -17 3 -62 4 -101 1 -38 -3 -72 -2 -74 2 -3 4 -15 4 -27 -1
-12 -5 -31 -5 -42 -1 -11 4 -34 4 -51 0 -18 -4 -38 -4 -45 1 -7 4 -17 5 -22 2
-5 -3 -33 -5 -63 -4 -30 1 -62 1 -71 1 -26 0 -65 1 -88 4 -11 1 -29 -1 -40 -5
-11 -3 -29 -3 -40 1 -11 4 -24 5 -29 2 -11 -6 -122 -6 -133 1 -5 3 -15 2 -22
-3 -8 -4 -26 -4 -41 0 -15 4 -33 4 -40 0 -7 -4 -26 -4 -41 0 -16 5 -31 5 -34
0z m2395 -445 c30 -5 65 -9 78 -9 12 -1 22 -3 22 -6 0 -3 10 -5 23 -6 84 -3
299 -66 391 -116 125 -67 161 -92 232 -163 120 -119 194 -257 230 -430 2 -11
7 -31 10 -45 10 -44 12 -305 3 -361 -5 -30 -11 -65 -13 -79 -16 -113 -71 -243
-152 -356 -103 -144 -214 -236 -388 -321 -52 -26 -214 -82 -256 -89 -14 -3
-56 -11 -95 -19 -91 -18 -151 -25 -258 -30 -49 -2 -92 -7 -97 -10 -6 -4 -10
-1 -10 5 0 6 -5 8 -11 4 -16 -10 -353 -9 -369 1 -7 5 -11 4 -7 -1 6 -10 -73
-10 -99 0 -8 3 -13 2 -10 -2 3 -6 -116 -7 -134 -1 -3 1 -9 1 -14 0 -35 -7 -76
-6 -76 1 0 5 -5 6 -12 2 -16 -10 -138 -11 -138 -1 0 5 -5 5 -11 1 -16 -10 -60
-11 -85 -2 -12 4 -25 4 -28 1 -6 -6 -118 -8 -141 -3 -5 1 -14 1 -20 0 -29 -5
-174 -2 -185 5 -7 5 -11 4 -7 -1 6 -10 -73 -10 -99 0 -8 3 -13 2 -10 -2 2 -4
-23 -7 -57 -5 -34 1 -71 2 -83 2 l-20 1 0 1026 0 1025 920 -4 c507 -2 946 -8
976 -12z"/>
<path d="M17296 32163 c-4 -4 -22 -6 -41 -5 -28 2 -35 -1 -36 -15 0 -10 -2
-931 -4 -2048 -1 -1116 -5 -2046 -8 -2065 -3 -19 -8 -48 -11 -65 -3 -16 -8
-43 -11 -60 -12 -69 -28 -134 -48 -195 -12 -36 -20 -68 -19 -72 1 -5 -2 -8 -7
-8 -5 0 -12 -12 -16 -27 -8 -32 -75 -147 -107 -185 -13 -14 -30 -35 -39 -46
-48 -57 -187 -142 -276 -169 -70 -20 -71 -20 -108 -28 -16 -3 -37 -8 -45 -10
-61 -17 -331 -24 -425 -10 -22 3 -54 7 -72 10 -185 24 -370 127 -486 270 -87
107 -158 276 -182 430 -2 11 -6 34 -8 50 -16 88 -28 291 -30 492 -1 60 -6 104
-12 106 -5 2 -118 3 -250 3 l-240 -1 1 -115 c0 -110 10 -287 19 -360 3 -19 7
-55 10 -80 3 -25 7 -56 10 -70 6 -35 17 -111 20 -135 2 -11 8 -40 15 -65 7
-25 13 -52 15 -60 2 -8 8 -28 15 -45 6 -16 11 -31 10 -33 -2 -3 15 -49 35 -97
7 -16 20 -48 29 -69 29 -69 114 -209 169 -276 70 -86 190 -189 290 -247 44
-26 83 -48 86 -48 3 -1 20 -8 36 -17 28 -15 142 -53 189 -62 11 -3 32 -8 46
-11 14 -3 41 -8 60 -11 19 -3 46 -7 60 -10 121 -22 442 -21 605 2 17 2 46 6
65 9 30 4 65 11 190 40 92 21 284 110 385 178 70 48 207 183 250 247 16 25 33
47 37 50 11 9 129 240 122 240 -4 0 -2 6 4 13 12 14 81 243 86 287 2 14 6 36
9 50 4 14 9 48 12 75 3 28 8 64 10 80 14 89 16 343 16 2165 1 1092 0 1993 0
2003 -1 10 -5 15 -11 12 -5 -3 -10 -2 -10 3 0 6 -14 7 -34 2 -19 -4 -40 -4
-47 0 -7 5 -22 5 -33 1 -12 -4 -34 -5 -51 -1 -16 3 -41 3 -55 0 -14 -4 -36 -4
-50 0 -14 3 -41 3 -61 0 -21 -4 -44 -3 -52 1 -8 5 -17 5 -21 2z"/>
<path d="M19016 32163 c-3 -3 -18 -6 -33 -7 l-28 -1 -3 -2662 c-2 -2531 -1
-2663 15 -2664 10 0 825 -1 1811 -2 1189 -1 1792 1 1793 8 0 12 0 396 0 411
-1 7 -468 10 -1548 9 -852 0 -1553 1 -1558 2 -7 2 -10 360 -9 1056 1 578 2
1054 3 1057 0 3 617 5 1371 5 1219 0 1370 1 1371 15 4 80 3 385 -2 398 -6 16
-92 17 -1365 18 -747 1 -1364 2 -1369 3 -7 1 -10 324 -10 959 l0 957 1522 3
1523 2 -3 213 -2 212 -25 3 c-41 4 -101 2 -110 -3 -5 -3 -11 -1 -14 4 -4 6
-18 6 -35 1 -15 -4 -34 -4 -40 0 -7 4 -30 4 -51 0 -21 -4 -44 -4 -51 1 -7 4
-17 5 -22 2 -13 -8 -117 -9 -117 -1 0 4 -11 3 -24 -2 -13 -5 -26 -7 -29 -4 -7
8 -97 10 -97 3 0 -4 -17 -3 -37 0 -21 3 -56 4 -78 1 -22 -3 -51 -3 -65 0 -14
4 -36 4 -50 0 -14 -4 -35 -3 -46 1 -12 4 -25 5 -28 2 -9 -9 -76 -9 -76 0 0 5
-4 6 -9 3 -5 -4 -35 -6 -68 -6 -60 1 -82 0 -146 -3 -20 -1 -37 1 -37 4 0 4
-16 3 -35 -1 -19 -4 -37 -4 -40 0 -2 4 -22 4 -42 1 -21 -4 -49 -4 -63 -1 -14
4 -36 3 -50 0 -14 -4 -34 -4 -45 0 -11 4 -24 5 -29 2 -15 -8 -76 -8 -76 1 0 5
-4 6 -9 3 -8 -5 -39 -6 -131 -5 -8 0 -43 -1 -78 -2 -34 -1 -65 1 -68 4 -3 3
-18 2 -33 -3 -16 -4 -34 -4 -41 0 -7 4 -26 4 -41 0 -16 -5 -31 -5 -34 0 -3 5
-18 5 -34 0 -15 -4 -34 -4 -40 0 -7 4 -30 4 -51 0 -21 -4 -44 -4 -51 1 -7 4
-17 5 -22 2 -13 -8 -117 -9 -117 -1 0 4 -11 3 -24 -2 -13 -5 -26 -7 -29 -4 -7
8 -97 10 -97 3 0 -4 -17 -4 -37 0 -21 3 -60 4 -88 1 -27 -3 -60 -2 -72 2 -12
4 -25 3 -28 -1 -3 -5 -20 -5 -39 -1 -19 4 -37 5 -40 2 -8 -7 -66 -9 -66 -2 0
3 -27 3 -61 0 -33 -3 -62 -3 -65 1 -2 4 -17 4 -33 -1 -15 -4 -34 -4 -40 0 -7
4 -30 4 -51 0 -21 -4 -44 -4 -51 1 -7 4 -17 5 -22 2 -6 -3 -28 -5 -51 -5 -48
1 -114 2 -136 1 -8 0 -25 2 -37 4 -11 3 -24 3 -27 0z"/>
<path d="M28398 32165 c-2 -3 -15 -6 -29 -8 l-24 -4 -2 -211 -2 -212 845 0
844 0 2 -2451 3 -2452 247 -1 c239 -1 247 0 250 19 2 11 3 1115 3 2453 l-1
2432 843 -2 843 -3 1 35 c4 283 3 400 -6 397 -5 -2 -22 -1 -37 4 -14 4 -29 5
-32 2 -7 -8 -76 -10 -76 -3 0 3 -29 3 -65 0 -36 -3 -74 -2 -85 2 -11 4 -22 3
-25 -1 -3 -5 -21 -5 -40 -1 -19 4 -35 5 -35 1 0 -3 -16 -6 -35 -6 -19 0 -35 2
-35 5 0 3 -27 3 -61 0 -33 -3 -62 -3 -65 1 -2 4 -17 4 -33 -1 -15 -4 -34 -4
-40 0 -7 4 -30 4 -51 0 -21 -4 -44 -4 -51 1 -7 4 -17 5 -22 2 -12 -7 -116 -7
-123 0 -3 3 -16 2 -29 -3 -13 -5 -25 -7 -26 -5 -9 8 -68 12 -79 5 -7 -4 -25
-4 -41 0 -15 5 -30 6 -33 3 -7 -8 -133 -6 -145 1 -5 4 -12 2 -15 -3 -3 -5 -21
-5 -41 -1 -19 4 -35 5 -35 1 0 -3 -16 -6 -35 -6 -19 0 -35 2 -35 6 0 3 -24 2
-53 -1 -29 -3 -64 -3 -78 0 -13 4 -36 3 -50 -1 -15 -4 -32 -3 -40 1 -7 5 -20
5 -28 1 -9 -4 -29 -5 -46 -2 -16 4 -53 4 -81 1 -27 -3 -61 -3 -75 0 -13 4 -35
4 -49 0 -14 -3 -38 -3 -55 0 -16 3 -45 3 -63 -1 -17 -4 -34 -4 -37 1 -2 4 -24
4 -47 0 -24 -3 -54 -3 -68 0 -14 4 -37 3 -51 -1 -15 -4 -32 -3 -40 1 -7 5 -20
5 -30 0 -9 -5 -19 -7 -22 -4 -3 4 -37 5 -74 4 -37 -1 -74 -1 -80 -1 -25 1 -84
1 -128 -1 -25 0 -48 2 -51 5 -3 3 -18 2 -32 -2 -15 -5 -36 -5 -47 -1 -11 4
-32 4 -47 -1 -15 -4 -30 -4 -33 1 -3 5 -18 5 -34 0 -15 -4 -34 -4 -40 0 -7 4
-30 4 -51 0 -21 -4 -44 -4 -51 1 -7 4 -17 5 -22 2 -13 -8 -97 -9 -97 -1 0 4
-13 3 -29 -2 -16 -4 -32 -6 -35 -3 -7 8 -164 5 -176 -2 -6 -3 -10 -2 -10 3 0
4 -22 6 -49 2 -27 -3 -58 -3 -70 1 -11 5 -23 4 -26 0 -3 -5 -21 -5 -40 -1 -19
4 -35 5 -35 1 0 -3 -16 -6 -35 -6 -19 0 -35 2 -35 5 0 3 -27 3 -60 0 -33 -3
-66 -2 -74 2 -7 4 -15 5 -18 3z"/>
<path d="M38643 32147 c-8 -13 -8 -911 0 -924 4 -6 482 -9 1317 -9 722 1 1316
-2 1321 -5 5 -3 -1 -17 -13 -31 -13 -14 -45 -54 -73 -89 -27 -35 -54 -69 -60
-76 -5 -6 -21 -26 -35 -44 -60 -79 -145 -184 -152 -187 -5 -2 -8 -10 -8 -17 0
-7 -3 -15 -8 -17 -6 -3 -55 -63 -217 -268 -33 -41 -65 -82 -72 -90 -6 -8 -87
-109 -178 -225 -91 -115 -175 -220 -186 -233 -10 -12 -19 -25 -19 -27 0 -3 -9
-16 -20 -28 -12 -12 -46 -55 -78 -97 -31 -41 -60 -77 -63 -80 -6 -5 -108 -133
-159 -200 -14 -18 -30 -38 -35 -44 -6 -6 -24 -29 -40 -51 -17 -22 -32 -42 -35
-45 -3 -3 -48 -59 -100 -125 -52 -66 -98 -121 -102 -123 -4 -2 -8 -10 -8 -18
0 -8 -4 -14 -9 -14 -4 0 -19 -16 -32 -34 -18 -26 -287 -368 -406 -516 -25 -31
-189 -239 -218 -276 -27 -34 -47 -60 -150 -189 -16 -21 -76 -97 -133 -168
l-102 -130 2 -470 3 -470 2045 0 c1125 1 2050 2 2055 2 7 1 10 160 10 469 l0
467 -1370 2 c-753 1 -1376 2 -1383 2 -13 1 34 68 71 102 9 9 17 21 17 27 0 6
4 12 8 14 4 2 108 131 231 288 124 157 230 290 238 296 7 6 13 16 13 22 0 6 6
15 13 19 6 4 41 46 77 93 61 79 91 117 115 144 6 6 28 36 50 66 22 30 47 62
55 70 9 9 31 37 49 63 19 26 38 47 43 47 4 0 8 6 8 14 0 8 3 16 8 18 4 2 66
77 137 168 71 91 134 170 140 177 14 17 21 26 108 138 43 55 86 109 95 120 10
11 35 44 57 73 21 28 43 52 47 52 4 0 8 5 8 11 0 6 6 16 13 23 6 7 23 28 37
46 14 18 33 43 42 54 9 12 30 37 45 56 16 19 53 66 82 104 29 37 59 75 67 85
7 9 52 66 99 126 48 61 94 119 103 130 10 11 31 38 47 60 16 22 37 49 47 60
10 11 48 58 84 105 36 47 73 94 83 105 9 11 30 38 46 60 16 22 32 42 35 45 3
3 30 36 60 75 62 79 81 102 95 119 6 6 32 40 60 76 27 36 55 71 61 77 7 7 21
27 32 45 19 31 20 50 18 363 -1 182 2 340 6 353 4 12 4 22 0 22 -4 0 -7 39 -7
87 l0 88 -2013 1 c-1277 0 -2015 -3 -2019 -9z"/>
<path d="M43506 32151 c-2 -3 -4 -1202 -4 -2663 l0 -2658 27 -1 c113 -4 4003
-1 4007 3 4 4 7 672 5 908 l-1 45 -1475 0 -1475 0 2 685 3 685 1292 0 1293 0
0 463 c0 433 -1 462 -17 463 -10 0 -592 1 -1293 2 l-1275 2 -3 559 c-1 330 2
562 7 565 5 3 640 6 1410 5 l1401 0 0 471 0 471 -1951 0 c-1072 0 -1952 -2
-1953 -5z"/>
<path d="M48439 32151 c-5 -18 -3 -5321 1 -5322 3 0 245 -2 538 -2 337 -1 536
2 540 8 3 5 6 475 6 1045 l1 1035 630 -1 c639 -1 679 -3 782 -25 32 -7 60 -13
63 -14 117 -24 284 -138 306 -208 4 -12 10 -24 13 -27 16 -12 66 -174 76 -245
3 -22 7 -56 10 -75 10 -79 15 -200 21 -510 6 -382 8 -425 29 -565 1 -11 6 -42
10 -70 3 -27 9 -58 11 -67 3 -10 8 -30 10 -45 6 -32 40 -164 54 -208 l10 -30
607 2 c335 0 611 2 614 2 4 1 6 31 6 67 -1 61 -3 67 -31 87 -94 65 -163 190
-181 322 -2 22 -7 56 -10 75 -3 19 -8 227 -10 461 -4 494 -9 582 -40 769 -19
113 -86 299 -131 365 -13 20 -24 38 -24 41 0 15 -128 147 -185 189 -22 17 -42
32 -45 36 -3 3 -25 16 -50 30 -25 13 -47 27 -50 30 -3 3 -38 20 -78 39 l-73
34 33 12 c86 30 251 117 286 151 7 7 17 13 21 13 24 0 231 223 231 249 0 6 4
11 8 11 7 0 93 165 123 235 20 48 58 165 74 229 26 106 26 108 29 152 1 22 5
45 9 50 8 13 1 364 -8 419 -3 22 -11 58 -17 80 -6 22 -12 50 -14 63 -17 90
-134 358 -187 427 -4 6 -36 51 -71 100 -104 148 -269 298 -427 389 -80 47
-266 119 -334 132 -11 2 -38 8 -60 13 -22 5 -58 12 -80 15 -23 4 -50 8 -62 10
-12 3 -53 8 -90 12 -37 3 -79 8 -93 11 -37 7 -2800 11 -2801 4z m2349 -922
c125 -2 185 -7 277 -23 194 -34 346 -143 424 -301 31 -64 60 -154 67 -208 2
-17 6 -43 9 -57 7 -33 7 -256 0 -295 -5 -27 -16 -81 -20 -95 -1 -3 -5 -18 -10
-35 -26 -95 -151 -275 -191 -275 -8 0 -14 -4 -14 -8 0 -16 -131 -73 -213 -92
-130 -30 -147 -31 -437 -37 -329 -6 -288 -5 -330 -4 -36 2 -263 3 -290 2 -8 0
-62 0 -120 0 -58 1 -112 1 -120 0 -63 -3 -285 1 -290 5 -3 3 -5 325 -6 714 l0
709 65 3 c71 3 965 1 1199 -3z"/>
</g>
</svg>
