<svg width="129" height="504" viewBox="0 0 129 504" fill="none" xmlns="http://www.w3.org/2000/svg">
<path d="M65.9496 69.1846C65.9273 69.1227 65.905 69.0609 65.8827 68.999C66.6237 67.753 67.6795 66.6035 68.5271 65.459C69.9906 63.4982 70.9795 61.289 71.5583 58.9128C72.7506 53.8684 72.093 48.5466 70.8604 43.5718C68.27 33.178 62.5522 23.5265 61.7746 12.7241C61.4812 8.70448 63.0131 2.17418 57.8623 0.60409C55.9008 0.0173376 54.005 0.875302 53.3543 2.85779C52.9937 3.89673 53.0209 5.04063 52.8176 6.12774C52.54 7.59126 52.0319 8.99798 51.4283 10.3342C49.3823 14.9521 46.3872 19.073 45.33 24.1037C44.3781 28.7469 44.8461 33.5426 46.0887 38.0593C46.7056 40.3542 47.5196 42.613 48.4773 44.7851C46.4688 43.0965 44.4405 41.4501 42.5076 39.8742C36.7734 35.228 31.2225 30.4108 25.8129 25.403C23.1824 22.9596 20.6139 20.494 18.0653 17.9862C16.1026 16.0364 14.1909 14.0333 11.9234 12.4032C10.1218 11.0945 8.03278 9.95943 5.79747 9.68112C4.10489 9.45197 0.965012 9.67442 0.238791 11.5443C-0.104494 12.4371 0.227536 13.2614 0.621522 14.0634C1.50737 15.8418 2.49731 17.6177 3.41413 19.385C5.08301 22.5594 6.76302 25.7647 8.46287 28.928C11.756 35.153 14.7778 41.7904 19.7116 46.9348C23.4063 50.7776 28.0131 53.5576 32.8046 55.7816C34.4364 56.5221 36.0881 57.2205 37.7596 57.8768C29.5667 57.5777 21.2424 58.7593 13.6961 62.003C11.5723 62.9081 9.53512 63.9568 7.59587 65.18C5.96392 66.1876 3.70127 67.3875 2.7644 69.1585C1.17075 72.215 4.47399 75.3598 7.33628 75.7268C9.57159 76.0051 11.7909 75.1705 13.8577 74.4956C16.3074 73.7178 18.6741 73.3894 21.2527 73.6489C25.7629 74.1213 30.0526 75.8269 34.5455 76.4454C39.9355 77.1252 45.348 76.1188 50.52 74.6397C53.282 73.8542 55.9883 72.9139 58.7168 72.0356C60.288 71.5394 61.9013 71.0629 63.5419 70.8563C63.7811 70.8401 64.04 70.7817 64.2903 70.7964C64.4985 70.7913 64.6955 70.7553 64.8727 70.7613C64.926 70.8121 65.0102 70.8516 65.0747 70.9333C65.0858 70.9642 65.1168 70.9531 65.1279 70.984C65.4612 71.4233 65.8143 71.8204 66.1476 72.2597C78.0891 87.4298 87.2079 104.771 93.8682 122.963C96.8539 131.151 99.3638 139.477 101.407 147.865C101.286 149.377 101.166 150.889 101.004 152.381C100.746 154.676 100.331 156.923 99.4544 159.057C98.598 161.149 97.5199 163.11 96.5793 165.162C94.5597 162.569 92.7347 159.835 91.5466 156.732C90.4143 153.784 89.7466 150.668 88.7381 147.676C87.8189 144.93 86.5874 142.193 84.6396 139.993C83.2581 138.393 81.0874 136.448 78.8458 136.347C73.5921 136.142 74.9261 145.381 75.6421 148.339C76.9825 153.904 79.4603 159.13 80.8119 164.726C82.3021 170.901 83.2125 177.216 84.9307 183.344C85.3643 184.936 85.902 186.525 86.4595 188.072C84.4175 187.165 82.217 186.594 79.8639 186.184C77.1875 185.75 74.6747 185.187 72.1804 184.093C69.9278 183.087 67.8053 181.859 65.7225 180.546C63.7041 179.316 61.7055 178.043 59.6276 176.939C57.7492 175.903 55.5759 174.728 53.4422 174.344C51.643 174.013 50.8053 175.573 51.0307 177.17C51.3466 179.504 52.7144 181.843 54.112 183.681C57.3383 187.973 61.9253 190.795 66.3066 193.726C68.5715 195.252 70.8167 196.821 72.8189 198.686C74.8212 200.552 76.3947 202.782 77.9174 205.065C81.0496 209.774 84.2251 214.119 89.9187 215.738C92.6868 216.524 95.5776 216.776 98.4287 217.112C101.803 217.539 105.166 217.936 108.54 218.363C108.613 218.371 108.655 218.391 108.717 218.369C108.89 218.656 109.053 218.912 109.226 219.199C109.226 219.199 109.226 219.199 109.237 219.23C109.302 219.312 109.324 219.374 109.408 219.413C109.61 219.585 109.86 219.6 110.077 219.522C110.098 219.969 110.088 220.427 110.098 220.843C110.124 221.498 110.119 222.164 110.134 222.788C110.487 242.029 109.789 261.264 109.017 280.491C107.839 276.93 106.66 273.369 105.513 269.797C105.355 269.26 104.528 269.103 104.186 269.611C104.045 269.802 103.935 269.981 103.805 270.203C101.726 273.469 101.014 277.222 100.72 281.068C100.379 285.561 100.297 289.996 99.413 294.44C98.9668 296.698 98.5317 298.988 98.5973 301.306C98.6158 301.649 98.6232 301.961 98.6728 302.293C95.7958 299.554 92.5433 297.23 89.6353 294.502C87.7928 292.789 86.3308 290.868 84.8354 288.855C83.6732 287.281 82.283 285.754 80.3525 285.156C76.6911 284.028 73.7097 286.536 74.3612 290.287C75.1255 294.836 76.8686 299.382 78.6043 303.616C80.3958 308.005 82.528 312.271 84.9676 316.321C85.3256 316.927 85.6725 317.501 86.0504 318.064C83.1262 316.845 80.1934 315.699 77.2382 314.492C72.5583 312.577 67.882 310.382 63.1141 308.709C60.636 307.854 56.1653 308.171 57.3063 311.92C57.8377 313.686 59.0978 315.435 60.0717 316.972C61.1099 318.59 62.3031 320.153 63.5359 321.632C68.5625 327.617 75.0279 332.349 82.2243 335.42C86.2017 337.133 90.4059 338.31 94.7105 338.891C96.6955 339.155 99.0783 339.065 101.353 339.26C101.865 339.32 102.377 339.38 102.888 339.441C103.108 339.466 103.338 339.523 103.558 339.549C104.05 339.652 104.553 339.785 105.036 339.96C105.235 340.028 105.435 340.096 105.614 340.206C105.951 340.365 106.3 340.554 106.617 340.754C106.797 340.864 106.945 340.985 107.136 341.126C107.189 341.177 107.243 341.228 107.296 341.279C107.292 341.56 107.288 341.841 107.285 342.122C107.335 364.408 108.573 386.687 112.315 408.727C117.404 438.778 127.168 468.402 144.362 493.776C146.52 496.949 148.802 500.077 151.186 503.099C151.777 503.864 153.037 502.991 152.435 502.194C132.953 477.365 121.474 447.45 115.338 416.728C110.418 392 108.872 366.826 108.805 341.679C109.602 341.462 110.379 341.286 111.167 341.142C115.645 340.263 120.217 339.839 124.443 337.967C133.172 334.122 139.397 326.53 144.227 318.566C145.46 316.549 146.64 314.48 147.778 312.392C148.536 311 150.177 309.046 149.949 307.345C149.757 305.841 148.231 305.202 146.867 305.204C145.233 305.233 143.869 306.11 142.675 307.169C141.095 308.612 139.782 310.309 138.073 311.589C135.986 313.18 133.706 314.526 131.51 315.912C130.228 316.723 128.957 317.566 127.674 318.378C128.204 317.033 128.662 315.68 129.13 314.357C130.681 309.918 132.273 305.498 133.824 301.059C134.565 298.939 135.306 296.819 136.078 294.688C136.575 293.25 137.543 291.468 137.078 289.887C136.763 288.917 135.785 288.046 134.704 288.156C133.218 288.307 131.915 290.419 130.98 291.42C125.428 297.477 120.396 304.009 115.958 310.923C115.846 307.117 115.288 303.333 114.481 299.638C113.373 294.619 111.932 289.649 110.356 284.693C111.176 264.435 111.996 244.177 111.68 223.874C111.653 222.73 111.637 221.617 111.61 220.473C122.327 217.87 131.553 211.224 140.313 204.746C145.984 200.57 151.652 196.29 157.949 193.077C163.237 190.367 169.76 188.751 173.346 183.648C174.697 181.763 175.772 179.208 175.414 176.855C175.092 174.699 173.053 174.384 171.24 174.793C168.578 175.368 166.134 175.968 163.366 176.057C160.556 176.126 157.727 175.851 154.909 175.608C149.493 175.148 144.079 174.791 138.795 176.346C135.154 177.413 131.77 179.192 128.73 181.441C128.761 181.429 128.781 181.387 128.812 181.376C129.046 181.152 129.281 180.928 129.484 180.715C133.781 176.614 137.66 172.419 139.333 166.572C140.969 160.914 141.2 154.852 141.478 149.018C141.612 145.894 141.746 142.769 141.702 139.638C141.67 137.412 141.279 134.966 139.199 133.758C137.298 132.66 135.45 133.36 134.359 135.187C132.614 138.018 131.144 141.03 129.441 143.881C126.084 149.426 122.452 154.79 118.534 159.943C117.322 161.533 116.037 163.115 114.783 164.686C114.529 164.078 114.244 163.482 114.001 162.905C111.89 158.212 110.629 153.352 109.303 148.411C108.631 145.961 107.986 143.397 106.891 141.134C106.257 139.86 105.293 138.739 103.754 138.839C103.484 138.866 103.239 139.059 103.12 139.312C102.518 140.752 102.137 142.218 101.859 143.682C100.703 139.309 99.4434 134.938 98.0484 130.581C91.1479 109.294 81.0889 88.7612 67.2567 71.1609C67.1923 71.0792 67.1167 70.9666 67.0523 70.8849C66.8478 70.609 66.6124 70.3442 66.408 70.0683C66.2791 69.9049 66.1503 69.7416 65.9793 69.5585C65.9681 69.5275 65.9681 69.5275 65.957 69.4966C66.0165 69.3703 65.983 69.2774 65.9496 69.1846ZM78.0285 297.356C77.4103 295.446 76.812 293.494 76.3177 291.54C75.754 289.296 75.4766 286.389 78.6103 286.343C80.8692 286.299 82.4105 288.051 83.6681 289.695C84.9591 291.432 86.2278 293.108 87.7642 294.652C90.8791 297.76 94.5418 300.251 97.7075 303.305C98.2402 303.812 98.7532 304.362 99.2662 304.911C100.656 306.438 101.841 308.074 102.893 309.827C103.402 310.658 103.849 311.51 104.265 312.374C104.528 312.909 104.76 313.455 104.991 314C106.019 316.462 106.767 319.024 107.214 321.625C107.347 322.381 107.459 323.18 107.53 323.959C107.516 324.698 107.483 325.479 107.469 326.218C107.437 327.488 107.435 328.747 107.403 330.018C107.404 330.507 107.386 331.038 107.387 331.527C107.378 331.6 107.401 331.662 107.392 331.735C107.357 332.027 107.303 332.361 107.268 332.653C107.117 332.428 106.935 332.214 106.783 331.989C106.73 331.938 106.697 331.845 106.643 331.795C106.299 331.324 105.935 330.896 105.559 330.437C101.788 325.993 96.9269 322.605 91.3289 320.182C90.4553 319.798 89.5508 319.425 88.6773 319.04C84.176 312.376 80.5546 305.046 78.0285 297.356ZM99.6508 337.74C96.0959 337.588 92.5533 337.082 89.105 336.157C82.124 334.267 75.593 330.712 70.1177 326.008C67.4166 323.66 64.9695 321.045 62.8385 318.142C61.8163 316.763 60.8871 315.349 60.0706 313.861C59.6679 313.132 58.3769 311.394 58.8441 310.457C59.3398 309.404 61.0658 309.726 61.9344 309.903C63.9975 310.383 66.0754 311.487 68.0529 312.313C70.3031 313.215 72.5334 314.159 74.7835 315.062C78.9691 316.77 83.1658 318.509 87.3823 320.206C87.4666 320.246 87.5818 320.274 87.6661 320.313C88.5706 320.687 89.433 321.04 90.3487 321.444C93.8317 322.951 97.1846 324.68 100.158 327.104C101.942 328.559 103.512 330.196 104.919 331.962C105.176 332.288 105.423 332.584 105.65 332.922C105.778 333.085 105.865 333.229 105.994 333.392C106.187 333.637 106.361 333.924 106.534 334.211C106.663 334.375 106.761 334.549 106.87 334.755C107.032 335.011 107.206 335.298 107.368 335.554L107.379 335.585C107.374 336.251 107.358 336.886 107.353 337.552C107.356 337.656 107.338 337.802 107.341 337.906C107.342 338.395 107.332 338.853 107.333 339.342C107.058 339.162 106.794 339.012 106.51 338.905C106.384 338.845 106.258 338.786 106.142 338.757C105.617 338.562 105.092 338.367 104.527 338.256C104.181 338.171 103.846 338.117 103.481 338.073C103.335 338.056 103.188 338.039 103.042 338.022C102.646 337.99 102.238 337.927 101.842 337.895C101.153 337.829 100.371 337.796 99.6508 337.74ZM129.934 318.822C133.658 316.431 137.845 314.258 141.02 311.122C142.179 309.97 143.21 308.654 144.51 307.696C145.196 307.17 146.018 306.733 146.882 306.702C149.245 306.654 148.034 308.734 147.516 309.725C145.351 313.721 143.144 317.698 140.578 321.454C135.728 328.586 129.259 335.112 120.79 337.64C117.067 338.771 112.796 339.157 108.841 340.127C108.849 339.565 108.856 339.003 108.863 338.441C108.846 337.713 108.871 337.005 108.885 336.266C109.017 336.148 109.161 336.062 109.325 335.933C114.206 332.286 120.202 329.986 124.085 325.125C125.127 323.84 125.948 322.426 126.662 320.91C127.75 320.239 128.857 319.525 129.934 318.822ZM127.437 297.906C128.53 296.568 129.665 295.25 130.812 293.963C131.461 293.24 134.304 289.279 135.379 289.835C136.665 290.491 134.479 294.914 134.167 295.796C133.466 297.832 132.722 299.848 132.021 301.883C130.615 305.851 129.23 309.776 127.824 313.744C127.092 315.791 126.382 317.9 125.481 319.867C125.025 320.836 124.527 321.784 123.944 322.694C123.684 323.137 123.382 323.561 123.037 323.964C119.39 328.705 113.717 331.029 108.882 334.414C108.887 333.748 108.881 333.051 108.917 332.374C108.923 332.197 108.93 332.02 108.905 331.854C108.977 331.373 109.018 330.904 109.058 330.435C109.181 329.027 109.242 327.642 109.188 326.228C110.776 322.964 112.491 319.758 114.313 316.655C114.873 315.684 115.444 314.744 116.016 313.804C119.446 308.268 123.266 302.94 127.437 297.906ZM112.899 299.229C113.936 303.855 114.601 308.615 114.515 313.331C112.581 316.51 110.773 319.748 109.06 323.058C109.04 323.1 109.001 323.184 108.981 323.226C108.743 321.109 108.308 319.028 107.676 316.984C107.404 316.033 107.069 315.105 106.704 314.188C105.253 310.55 103.214 307.124 100.624 304.212C100.497 303.664 100.369 303.115 100.315 302.575C99.974 300.076 100.415 297.61 100.899 295.163C101.706 290.992 101.972 286.875 102.194 282.635C102.409 278.957 102.829 275.169 104.595 271.911C105.979 276.237 107.478 280.591 108.873 284.948C109.324 286.394 109.786 287.87 110.237 289.316C111.241 292.59 112.153 295.897 112.899 299.229ZM88.3987 188.597C84.3016 177.907 83.6084 166.27 79.6972 155.513C77.9937 150.883 75.8839 145.805 76.7639 140.768C77.0849 138.939 78.0243 137.272 80.0774 138.211C81.4565 138.832 82.6794 139.895 83.6545 141.047C85.4758 143.187 86.5896 145.793 87.4754 148.445C88.3637 151.202 89.024 154.005 90.0052 156.728C90.9752 159.42 92.3988 161.914 94.0367 164.226C94.6612 165.084 95.3166 165.932 95.9721 166.78C96.3586 167.27 96.7452 167.759 97.1429 168.28C99.8154 171.618 102.528 174.871 104.422 178.768C105.101 180.166 105.687 181.598 106.2 183.022C106.657 184.29 107.021 185.592 107.366 186.937C108.146 189.977 108.606 193.097 108.837 196.265L108.972 196.252C109.409 201.933 109.742 207.616 109.971 213.302C109.988 214.03 110.017 214.789 110.034 215.517C109.931 216.008 109.828 216.5 109.745 216.949C109.387 216.344 108.998 215.75 108.64 215.145C108.542 214.971 108.402 214.776 108.304 214.602C108.044 214.171 107.795 213.772 107.535 213.341C107.037 212.542 106.581 211.762 106.083 210.962C104.522 208.378 102.941 205.837 101.349 203.264C98.8362 199.205 96.1377 195.213 92.5928 191.98C91.3364 190.825 90.0008 189.838 88.5969 189.05C88.5102 188.907 88.4544 188.752 88.3987 188.597ZM93.3981 214.904C91.2025 214.541 88.982 214.013 87.0082 212.906C84.7593 211.619 83.0136 209.591 81.4958 207.516C78.6957 203.631 76.3491 199.547 72.6295 196.412C68.9099 193.277 64.6166 190.979 60.7867 188.024C58.7497 186.45 56.8119 184.666 55.283 182.56C54.5297 181.538 53.878 180.41 53.3812 179.225C52.9624 178.257 51.8412 175.34 54.0133 176.026C58.2955 177.419 62.0758 180.043 65.9107 182.332C69.4928 184.502 73.1827 186.389 77.2952 187.214C79.7858 187.715 82.342 187.913 84.7272 188.801C85.6206 189.144 86.4941 189.528 87.328 189.997C88.1198 190.446 88.8917 190.937 89.6128 191.481C89.9412 191.712 90.2385 191.955 90.5359 192.197C94.424 195.411 97.296 199.69 99.9486 203.943C101.994 207.192 103.978 210.462 105.992 213.722C106.588 214.696 107.195 215.701 107.791 216.675C107.53 216.629 107.249 216.626 106.987 216.58C102.466 216.077 97.8935 215.626 93.3981 214.904ZM134.294 179.785C139.264 177.26 144.546 176.476 150.073 176.757C154.921 177.002 159.709 177.759 164.568 177.547C167.012 177.435 169.248 176.839 171.61 176.303C172.128 176.186 172.986 175.947 173.472 176.226C174.222 176.655 174.052 177.835 173.974 178.493C173.798 179.85 173.256 181.163 172.543 182.294C169.177 187.423 162.705 188.986 157.529 191.62C152.085 194.386 147.056 197.911 142.163 201.527C133.115 208.179 123.843 215.471 112.919 218.568C112.536 218.671 112.153 218.774 111.77 218.877C111.739 218.888 111.739 218.888 111.708 218.899C111.697 218.868 111.728 218.857 111.717 218.826C111.698 218.483 111.699 218.098 111.681 217.755C111.663 217.027 111.626 216.342 111.609 215.614C112.198 212.779 112.871 209.985 113.732 207.227C115.529 201.336 118.06 195.634 121.764 190.663C125.064 186.223 129.293 182.322 134.294 179.785ZM127.746 149.666C129.363 147.161 130.958 144.593 132.438 141.998C133.037 140.942 133.668 139.876 134.257 138.79C134.885 137.62 135.82 134.871 137.263 134.7C140.795 134.301 140.337 140.025 140.271 142.076C140.228 145.064 140.122 148.074 139.943 151.075C139.616 156.577 139.4 162.388 137.473 167.627C135.478 173.066 131.277 176.852 127.236 180.79C120.252 187.537 113.053 195.725 112.502 205.853C112.337 206.366 112.192 206.838 112.027 207.352C111.777 208.211 111.526 209.071 111.287 209.961C111.097 205.45 110.802 200.941 110.465 196.413L110.361 196.415C110.022 191.783 109.216 187.214 107.705 182.829C107.899 181.326 108.207 179.851 108.589 178.385C108.657 178.186 108.714 177.955 108.782 177.756C109.942 173.982 112.094 170.724 114.489 167.659C114.853 167.213 115.207 166.736 115.582 166.321L115.571 166.29C116.116 165.569 116.672 164.879 117.26 164.178C120.991 159.477 124.5 154.647 127.746 149.666ZM104.404 140.352C105.843 140.848 106.591 144.284 106.908 145.358C107.582 147.423 108.09 149.512 108.64 151.622C109.751 155.871 111.066 159.907 112.859 163.911C113.177 164.6 113.495 165.29 113.794 166.021C111.741 168.579 109.836 171.258 108.459 174.236C108.34 174.489 108.221 174.742 108.133 174.983C107.68 176.056 107.341 177.156 107.034 178.246C106.891 178.822 106.749 179.398 106.618 180.004C104.446 174.948 101.098 170.806 97.7056 166.539C98.0203 165.762 98.3661 164.973 98.7428 164.173C100.558 160.372 102.047 156.829 102.519 152.604L102.539 152.562C102.719 150.924 102.825 149.277 102.963 147.619C103.196 145.158 103.533 142.694 104.404 140.352ZM49.2692 42.6119C47.5954 38.3554 46.395 33.8585 46.3903 29.2804C46.3646 24.2553 48.1677 19.9347 50.5111 15.5592C51.6177 13.4823 52.7665 11.4252 53.5671 9.17894C53.9389 8.17095 54.2264 7.1234 54.4099 6.0784C54.6305 4.84519 54.4955 3.11082 55.5587 2.27322C56.6529 1.42446 58.3269 2.18472 59.1508 3.11145C60.0615 4.18173 60.2026 5.73905 60.2658 7.07978C60.3251 9.57557 60.1428 11.9836 60.4413 14.4632C61.5881 24.1536 66.3271 32.9341 68.9745 42.2236C70.476 47.556 71.4273 53.4013 70.0367 58.8668C69.3042 61.7877 67.6908 64.0123 65.9026 66.3348C65.6709 66.663 65.3971 66.9714 65.2074 67.3194C65.0662 67.5102 64.9559 67.6898 64.8258 67.9115C64.2149 67.1876 63.6041 66.4638 63.0044 65.7709C62.9214 65.3463 62.8583 64.8796 62.7443 64.4662C61.228 57.6359 56.6611 52.1495 51.4113 47.2938C50.5837 45.7741 49.88 44.2097 49.2692 42.6119ZM26.9055 50.7753C21.9654 47.556 18.2608 43.2973 15.2451 38.2308C11.7289 32.261 8.66379 25.9888 5.43506 19.8454C4.68302 18.4383 3.93096 17.0312 3.19875 15.582C2.51112 14.2565 0.838464 12.2372 2.86939 11.3655C4.99325 10.4604 7.72664 11.5381 9.55424 12.6276C11.5925 13.8159 13.3593 15.4168 15.0023 17.0622C17.2734 19.2854 19.5247 21.5507 21.8157 23.7318C26.7173 28.3984 31.7403 32.9162 36.9157 37.2743C40.8794 40.6007 45.6162 44.033 49.9045 47.8717C51.1498 48.9963 52.3752 50.1629 53.5076 51.363C56.7873 54.831 59.461 58.6572 60.7631 63.0475C60.7742 63.0785 60.7742 63.0785 60.7854 63.1094C60.6169 63.0303 60.4682 62.9091 60.2997 62.8299C59.55 62.4009 58.7806 62.0139 58.0025 61.6999C57.5081 61.4935 57.0248 61.318 56.5416 61.1426C56.1736 60.9955 55.8167 60.8793 55.4289 60.7744C51.4416 59.5192 47.2869 58.6739 43.1001 58.2248C42.26 57.9332 41.4397 57.5995 40.5996 57.3079C35.9221 55.4973 31.1579 53.5432 26.9055 50.7753ZM55.3403 71.5043C51.0207 72.921 46.6169 74.2981 42.0582 74.857C37.6346 75.4022 33.4341 74.8181 29.1482 73.7055C25.2922 72.7177 21.2875 71.6086 17.2889 72.0706C13.5295 72.5163 8.63236 75.9241 5.2213 73.0628C4.57328 72.5272 3.98228 71.7612 3.92037 70.9095C3.83743 69.6109 4.98488 68.8129 5.92664 68.1239C7.72835 66.8104 9.67876 65.6181 11.6539 64.5918C19.3514 60.6993 28.0624 59.1336 36.6691 59.3185C38.7111 59.3518 40.7977 59.5089 42.8447 59.7502C45.5075 60.0493 48.122 60.5056 50.7191 61.108C50.9805 61.1537 51.211 61.2105 51.4526 61.2982C53.9456 61.9032 56.7757 62.6664 59.1708 63.9709C59.6305 64.4695 60.1013 64.9991 60.5721 65.5286C60.7121 65.7229 60.81 65.8974 60.95 66.0917C61.1656 66.3986 61.3812 66.7054 61.5967 67.0123C62.1568 67.7894 62.6747 68.5468 63.2347 69.3239C63.2458 69.3548 63.2458 69.3548 63.226 69.3969C63.195 69.4081 63.1641 69.4192 63.1219 69.3994C62.6238 69.474 62.1678 69.5684 61.6809 69.674C59.5446 70.0592 57.4381 70.8183 55.3403 71.5043Z" fill="#CCB181"/>
</svg>
