<svg width="20" height="21" viewBox="0 0 20 21" fill="none" xmlns="http://www.w3.org/2000/svg">
<path d="M19.2996 14.8263C19.2008 14.0361 19.1021 13.0483 18.9045 11.7641L18.4106 8.70197C18.3118 8.30685 18.3118 7.91173 18.213 7.61539C18.1143 7.22027 18.0155 6.92393 17.8179 6.62759C17.5216 6.23247 17.1265 5.83735 16.6326 5.63979C16.3362 5.54101 16.0399 5.44223 15.6448 5.44223C15.3484 5.44223 15.2496 5.44223 14.9533 5.44223V4.75077C14.7557 2.28127 12.6814 0.305664 10.2119 0.305664C7.64359 0.305664 5.5692 2.28127 5.37164 4.75077V5.34345C5.0753 5.34345 4.87774 5.34345 4.68018 5.34345C4.28506 5.34345 3.98872 5.44223 3.69238 5.54101C3.19848 5.83735 2.80336 6.23247 2.50702 6.62759C2.30946 6.92393 2.21068 7.22027 2.1119 7.61539C2.01312 7.91173 2.01312 8.30685 1.91434 8.80075L1.42044 11.7641C1.22288 13.0483 1.02532 14.0361 1.02532 14.8263C0.926544 15.7154 1.02532 16.4068 1.32166 16.9995C1.71678 17.9873 2.40824 18.8763 3.39604 19.3702C3.98872 19.6666 4.5814 19.8641 5.5692 19.9629C6.26066 20.0617 7.34725 20.0617 8.63139 20.0617H11.7923C13.0765 20.0617 14.0643 20.0617 14.9533 19.9629C15.8423 19.8641 16.5338 19.6666 17.1265 19.3702C18.0155 18.8763 18.8057 17.9873 19.2008 16.9995C19.2996 16.4068 19.3984 15.7154 19.2996 14.8263ZM6.85335 5.44223V5.14589C6.85335 3.36785 8.33505 1.88614 10.1131 1.88614C11.8911 1.88614 13.3728 3.36785 13.3728 5.14589V5.44223H6.85335ZM17.6204 16.5056C17.324 17.1971 16.8301 17.7897 16.2374 18.1849C15.8423 18.3824 15.4472 18.4812 14.7557 18.58C13.9655 18.6788 13.0765 18.6788 11.6936 18.6788H8.63139C7.34725 18.6788 6.35945 18.6788 5.5692 18.58C4.87774 18.4812 4.38384 18.3824 4.0875 18.1849C3.39604 17.7897 2.90214 17.1971 2.70458 16.5056C2.50702 16.1105 2.50702 15.6166 2.6058 14.9251C2.70458 14.1349 2.80336 13.1471 3.00092 11.9617L3.39604 9.09709C3.49482 8.50441 3.49482 8.20807 3.5936 7.91173C3.69238 7.71417 3.69238 7.51661 3.79116 7.41783C3.88994 7.22027 4.0875 7.02271 4.28506 6.92393C4.38384 6.82515 4.5814 6.82515 4.77896 6.82515C5.0753 6.82515 5.37164 6.82515 5.86554 6.82515H14.4594C14.9533 6.82515 15.3484 6.82515 15.546 6.82515C15.7435 6.82515 15.9411 6.82515 16.0399 6.92393C16.2374 7.02271 16.435 7.22027 16.5338 7.41783C16.6326 7.51661 16.6326 7.61539 16.7313 7.91173C16.8301 8.20807 16.8301 8.50441 16.9289 8.99831L17.324 11.8629C17.5216 13.1471 17.7191 14.1349 17.7191 14.8263C17.8179 15.6166 17.8179 16.1105 17.6204 16.5056Z" fill="white"/>
</svg>
