<svg width="17" height="16" viewBox="0 0 17 16" fill="none" xmlns="http://www.w3.org/2000/svg">
<path d="M12.4448 0.401367H12.1805C11.471 0.401485 10.7704 0.560326 10.1302 0.866252C9.49004 1.17218 8.92637 1.61744 8.48054 2.16943C8.03471 1.61744 7.47105 1.17218 6.83084 0.866252C6.19064 0.560326 5.4901 0.401485 4.78056 0.401367H4.51627C1.99236 0.533509 0.0234375 2.71121 0.0234375 5.36199C0.0234323 6.2775 0.221616 7.18216 0.604371 8.01382C0.987127 8.84548 1.54538 9.58443 2.24078 10.1799L7.26219 15.0189C7.59838 15.3098 8.02806 15.4699 8.47261 15.4699C8.91716 15.4699 9.34685 15.3098 9.68304 15.0189L14.7203 10.1799C15.415 9.58501 15.9729 8.84692 16.3556 8.01622C16.7383 7.18553 16.9369 6.28189 16.9376 5.36727C16.9376 2.71914 14.9608 0.541438 12.4448 0.401367Z" fill="#C576AC"/>
</svg>
